<?xml version="1.0" encoding="UTF-8" standalone="no"?>
<svg
   xmlns:dc="http://purl.org/dc/elements/1.1/"
   xmlns:cc="http://creativecommons.org/ns#"
   xmlns:rdf="http://www.w3.org/1999/02/22-rdf-syntax-ns#"
   xmlns:svg="http://www.w3.org/2000/svg"
   xmlns="http://www.w3.org/2000/svg"
   xmlns:sodipodi="http://sodipodi.sourceforge.net/DTD/sodipodi-0.dtd"
   xmlns:inkscape="http://www.inkscape.org/namespaces/inkscape"
   version="1.1"
   id="svg364"
   sodipodi:docname="microface_bp.svg"
   width="400"
   height="260"
   inkscape:version="0.92.3 (2405546, 2018-03-11)">
  <metadata
     id="metadata368">
    <rdf:RDF>
      <cc:Work
         rdf:about="">
        <dc:format>image/svg+xml</dc:format>
        <dc:type
           rdf:resource="http://purl.org/dc/dcmitype/StillImage" />
        <dc:title></dc:title>
      </cc:Work>
    </rdf:RDF>
  </metadata>
  <sodipodi:namedview
     pagecolor="#ffffff"
     bordercolor="#666666"
     borderopacity="1"
     objecttolerance="10"
     gridtolerance="10"
     guidetolerance="10"
     inkscape:pageopacity="0"
     inkscape:pageshadow="2"
     inkscape:window-width="1920"
     inkscape:window-height="1017"
     id="namedview366"
     showgrid="false"
     inkscape:document-units="cm"
     inkscape:zoom="1.18"
     inkscape:cx="172.28242"
     inkscape:cy="120.8566"
     inkscape:window-x="-8"
     inkscape:window-y="-8"
     inkscape:window-maximized="1"
     inkscape:current-layer="svg364" />
  <g
     id="g7"
     clip-path="url(#cp1)"
     transform="translate(-62,-3)">
    <clipPath
       id="cp1">
      <polygon
         id="polygon2"
         points="533,2.2518e+015 533,0 0,0 0,2.2518e+015 " />
    </clipPath>
    <path
       inkscape:connector-curvature="0"
       id="rect5"
       d="M -2.2518001e15,-2.2518001e15 H 2.2518001e15 V 2.2518001e15 H -2.2518001e15 Z"
       style="fill:#ffffff;stroke:none" />
  </g>
  <g
     id="g14"
     clip-path="url(#cp2)"
     transform="translate(-62,7)">
    <clipPath
       id="cp2">
      <polygon
         id="polygon9"
         points="533,0 0,0 0,2.2518e+015 533,2.2518e+015 " />
    </clipPath>
    <path
       style="opacity:1;fill:#0078d7;fill-rule:evenodd;stroke:none"
       inkscape:connector-curvature="0"
       id="path12"
       d="M 0,0" />
  </g>
  <g
     id="g50"
     clip-path="url(#cp4)"
     transform="translate(-62,7)">
    <clipPath
       id="cp4">
      <polygon
         id="polygon23"
         points="433,13 74,13 74,235 433,235 " />
    </clipPath>
    <path
       inkscape:connector-curvature="0"
       id="polyline26"
       d="m 82.0373,20.9831 0.1052,0.0012 0.1052,0.0034 0.1051,0.0057 0.1052,0.008 0.1052,0.0103 0.1052,0.0125 0.1051,0.0148 0.1052,0.0171 0.1052,0.0194 0.1052,0.0217 0.1051,0.0239 0.1052,0.0262 0.1052,0.0285 0.1052,0.0308 0.2103,0.0684 0.1052,0.0376 0.1052,0.0398 0.2103,0.0866 0.1052,0.0466 0.1052,0.049 0.2103,0.1046 0.1052,0.0557 0.1052,0.058 0.2103,0.1228 0.4207,0.2725 0.1052,0.0737 0.1051,0.076 0.2104,0.1587 0.4207,0.3443 0.1052,0.0916 0.1051,0.0939 0.2104,0.1944 0.4207,0.4153 0.1052,0.1094 0.1051,0.1115 0.2104,0.2297 0.4207,0.4856 0.8414,1.0753 0.114,0.1564 0.114,0.1588 0.2281,0.3252 0.456,0.6803 0.9122,1.4789 0.114,0.1958 0.1141,0.1983 0.228,0.4037 0.4561,0.8361 0.9122,1.7851 0.114,0.2336 0.114,0.2359 0.228,0.4786 0.4561,0.9845 0.9122,2.0757 1.8243,4.5625 0.1065,0.2826 0.1065,0.2843 0.2129,0.5738 0.4258,1.1682 0.8518,2.4169 1.7034,5.1395 3.4073,11.3678 0.104,0.3686 0.104,0.3697 0.209,0.7426 0.418,1.4981 0.835,3.045 1.67,6.2675 3.34,13.1024 7.246,29.667 6.763,27.027 0.114,0.439 0.115,0.439 0.229,0.874 0.458,1.739 0.916,3.437 1.832,6.695 3.665,12.593 0.112,0.368 0.112,0.367 0.225,0.73 0.45,1.448 0.899,2.839 1.799,5.45 0.113,0.33 0.112,0.329 0.225,0.655 0.45,1.294 0.899,2.53 1.799,4.821 0.105,0.271 0.105,0.27 0.209,0.537 0.42,1.061 0.839,2.069 1.678,3.93 0.105,0.236 0.104,0.235 0.21,0.468 0.42,0.922 0.839,1.793 1.678,3.384 0.113,0.22 0.114,0.218 0.227,0.433 0.455,0.853 0.91,1.647 1.819,3.071 0.114,0.182 0.114,0.181 0.227,0.359 0.455,0.704 0.91,1.357 1.819,2.509 0.107,0.138 0.106,0.137 0.212,0.273 0.425,0.533 0.849,1.027 1.698,1.896 0.107,0.112 0.106,0.111 0.212,0.22 0.425,0.43 0.849,0.824 1.699,1.512 0.104,0.087 0.104,0.086 0.208,0.171 0.416,0.333 0.833,0.638 0.104,0.077 0.104,0.077 0.208,0.151 0.416,0.295 0.833,0.564 0.104,0.067 0.104,0.068 0.208,0.133 0.416,0.26 0.833,0.495 1.665,0.897 0.113,0.057 0.113,0.056 0.226,0.11 0.452,0.215 0.903,0.406 0.113,0.048 0.113,0.049 0.226,0.094 0.451,0.184 0.904,0.347 0.113,0.042 0.112,0.041 0.226,0.081 0.452,0.156 0.903,0.295 1.807,0.521 0.105,0.028 0.106,0.027 0.21,0.054 0.422,0.105 0.843,0.197 0.105,0.023 0.106,0.023 0.21,0.046 0.422,0.089 0.843,0.166 0.105,0.02 0.105,0.02 0.211,0.038 0.422,0.075 0.842,0.14 0.106,0.016 0.105,0.017 0.211,0.032 0.421,0.062 0.843,0.117 0.114,0.015 0.115,0.015 0.228,0.029 0.457,0.056 0.914,0.104 0.114,0.012 0.114,0.012 0.228,0.024 0.457,0.045 0.914,0.085 0.114,0.009 0.114,0.01 0.229,0.019 0.457,0.037 0.913,0.068 0.114,0.008 0.115,0.008 0.228,0.015 0.457,0.03 0.914,0.054 0.112,0.006 0.112,0.006 0.224,0.012 0.449,0.023 0.897,0.043 0.112,0.005 0.112,0.005 0.224,0.009 0.449,0.018 0.896,0.034 0.113,0.004 0.112,0.004 0.224,0.007 0.448,0.015 0.113,0.003 0.112,0.003 0.224,0.007 0.448,0.013 0.113,0.003 0.112,0.003 0.224,0.006 0.448,0.011 0.897,0.021 0.105,0.002 0.104,0.002 0.21,0.004 0.418,0.008 0.104,0.002 0.105,0.002 0.209,0.004 0.418,0.007 0.105,0.002 0.105,0.002 0.209,0.003 0.418,0.006 0.836,0.012 0.105,10e-4 0.105,0.002 0.209,0.002 0.418,0.005 0.105,0.001 0.104,0.002 0.209,0.002 0.418,0.004 0.105,0.001 0.105,0.001 0.209,0.002 0.418,0.004 0.837,0.007 0.113,0.001 0.113,0.001 0.227,10e-4 0.454,0.004 h 0.113 l 0.114,10e-4 0.226,0.001 0.454,0.003 0.114,0.001 h 0.113 l 0.227,0.002 0.453,0.002 0.908,0.004 0.113,0.001 h 0.114 l 0.226,0.001 0.454,0.002 h 0.113 0.114 l 0.227,10e-4 0.453,0.002 h 0.114 0.113 l 0.227,0.001 0.454,0.001 0.907,0.002 0.106,0.001 h 0.106 0.211 l 0.424,0.001 h 0.106 0.105 l 0.212,0.001 0.424,0.001 h 0.105 0.106 0.212 l 0.423,0.001 0.847,10e-4 h 0.106 0.106 0.212 l 0.423,0.001 h 0.106 0.106 0.212 l 0.423,0.001 h 0.106 0.106 0.211 0.424 0.106 0.105 0.212 l 0.424,0.001 h 0.114 0.115 0.229 0.459 0.115 0.115 0.229 l 0.459,0.001 h 0.115 0.114 0.23 0.458 0.115 0.115 0.229 0.459 0.115 0.115 0.229 0.459 l 0.114,0.001 h 0.115 0.23 0.458 0.115 0.115 0.229 0.459 0.115 0.114 0.23 0.459 0.112 0.113 0.225 0.45 0.113 0.113 0.225 0.45 0.113 0.113 0.225 0.45 0.113 0.113 0.225 0.45 0.113 0.112 0.226 0.45 0.113 0.112 0.226 0.45 0.113 0.112 0.226 0.112 0.113 0.225 0.113 0.112 0.225 0.451 0.105 0.105 0.21 0.42 0.105 0.105 0.211 0.42 0.105 0.105 0.21 0.42 0.105 0.105 0.211 0.42 0.105 0.105 0.21 0.105 0.105 0.21 0.105 0.105 0.21 0.421 0.105 0.105 0.21 0.105 0.105 0.21 0.105 0.105 0.21 0.421 0.113 0.114 0.228 0.114 0.114 0.228 0.114 0.114 0.227 0.456 0.114 0.114 0.228 0.114 0.113 0.228 0.114 0.114 0.228 0.456 0.113 0.114 0.228 0.114 0.114 0.228 0.114 0.114 0.227 0.456 0.114 0.114 0.228 0.114 0.113 0.228 0.114 0.114 0.228 0.455 0.107 0.106 0.213 0.106 0.107 0.212 0.107 0.106 0.213 0.425 0.106 0.107 0.212 0.107 0.106 0.213 0.106 0.107 0.212 0.426 0.106 0.106 0.213 0.106 0.107 0.212 0.107 0.106 0.213 0.425 0.107 0.106 0.213 0.106 0.106 0.213 0.106 0.107 0.212 0.426 0.104 0.104 0.209 0.104 0.104 0.209 0.104 0.104 0.209 0.417 0.104 0.104 0.209 0.104 0.105 0.208 0.104 0.105 0.208 0.417 0.104 0.105 0.208 0.104 0.105 0.208 0.104 0.105 0.208 0.105 0.104 0.208 0.105 0.104 0.208 0.105 0.104 0.208 0.105 0.104 0.208 0.105 0.104 0.208 0.114 0.113 0.226 0.113 0.113 0.226 0.113 0.114 0.226 0.113 0.113 0.226 0.113 0.113 0.227 0.113 0.113 0.226 0.113 0.113 0.226 0.114 0.113 0.226 0.113 0.113 0.226 0.113 0.114 0.226 0.113 0.113 0.226 0.113 0.113 0.227 0.113 0.113 0.226 0.113 0.113 0.226 0.114 0.113 0.226 0.113 0.113 0.226 0.106 0.105 0.212 0.105 0.106 0.211 0.105 0.106 0.211 0.105 0.106 0.211 0.106 0.105 0.211 0.106 0.105 0.212 0.105 0.106 0.211 0.105 0.106 0.211 0.105 0.106 0.211 0.106 0.105 0.211 0.106 0.105 0.106 0.106 0.105 0.106 0.211 0.105 0.106 0.105 0.106 0.106 0.105 0.211 0.106 0.105 0.106 0.105 0.106 0.105 0.212 0.114 0.114 0.115 0.114 0.115 0.114 0.229 0.114 0.115 0.114 0.114 0.115 0.114 0.229 0.114 0.115 0.114 0.115 0.114 0.114 0.229 0.115 0.114 0.114 0.115 0.114 0.115 0.228 0.115 0.114 0.114 0.115 0.114 0.115 0.228 0.115 0.114 0.115 0.114 0.229 0.229 0.228 0.229 0.229 0.229 0.229 0.228 0.115 0.114 0.229 0.112 0.113 0.224 0.449 0.113 0.112 0.225 0.449 0.112 0.113 0.224 0.449 0.899 0.112 0.113 0.224 0.449 0.899 1.797 0.105 0.104 0.21 0.419 0.838 1.676 3.352 7.27 6.787 6.653 7.22 6.736 7.301 6.819 6.685 7.25 6.768 7.333 7.2 0.105 0.105 0.21 0.42 0.839 1.679 0.105 0.105 0.21 0.42 0.839 1.679 0.114 0.114 0.228 0.455 0.113 0.114 0.228 0.114 0.113 0.114 0.114 0.114 0.028"
       style="fill:none;stroke:#0000ff;stroke-width:1px;stroke-opacity:1" />
    <path
       inkscape:connector-curvature="0"
       id="polyline28"
       d="m 424.951,234.663 h 0.012"
       style="fill:none;stroke:#0000ff;stroke-width:1px;stroke-opacity:1" />
    <path
       inkscape:connector-curvature="0"
       id="polyline30"
       d="m 82.0373,139.694 0.1052,0.001 h 0.1052 l 0.1051,0.001 0.1052,0.002 0.1052,0.001 0.1052,0.003 0.1051,0.002 0.1052,0.003 0.1052,0.004 0.1052,0.003 0.1051,0.005 0.1052,0.004 0.1052,0.005 0.1052,0.006 0.2103,0.012 0.1052,0.006 0.1052,0.007 0.2103,0.016 0.1052,0.008 0.1052,0.009 0.2103,0.018 0.1052,0.01 0.1052,0.01 0.2103,0.022 0.4207,0.048 0.1052,0.013 0.1051,0.013 0.2104,0.028 0.4207,0.061 0.1052,0.016 0.1051,0.017 0.2104,0.035 0.4207,0.073 0.1052,0.02 0.1051,0.019 0.2104,0.041 0.4207,0.086 0.8414,0.192 0.114,0.028 0.114,0.028 0.2281,0.058 0.456,0.122 0.9122,0.266 0.114,0.035 0.1141,0.036 0.228,0.072 0.4561,0.151 0.9122,0.324 0.114,0.042 0.114,0.043 0.228,0.087 0.4561,0.18 0.9122,0.381 1.8243,0.845 0.1065,0.053 0.1065,0.053 0.2129,0.107 0.4258,0.219 0.8518,0.456 1.7034,0.982 0.1065,0.064 0.1064,0.065 0.213,0.131 0.4254,0.265 0.852,0.547 1.704,1.16 0.104,0.074 0.104,0.074 0.209,0.149 0.418,0.303 0.835,0.619 1.67,1.297 3.34,2.815 0.113,0.1 0.113,0.101 0.227,0.202 0.452,0.408 0.906,0.831 1.812,1.716 3.623,3.634 6.763,7.376 7.329,8.57 7.195,8.635 6.712,7.939 7.277,8.18 6.795,6.998 6.66,6.099 0.113,0.097 0.113,0.096 0.226,0.191 0.452,0.379 0.903,0.748 1.807,1.446 3.613,2.697 0.105,0.074 0.106,0.075 0.21,0.148 0.422,0.294 0.843,0.577 1.686,1.111 0.105,0.067 0.105,0.067 0.211,0.134 0.422,0.266 0.842,0.519 1.686,0.998 0.114,0.065 0.115,0.065 0.228,0.13 0.457,0.257 0.914,0.501 1.827,0.953 0.114,0.057 0.114,0.058 0.229,0.113 0.457,0.225 0.913,0.437 1.828,0.828 0.112,0.049 0.112,0.049 0.224,0.096 0.449,0.191 0.897,0.37 1.793,0.7 0.113,0.041 0.112,0.042 0.224,0.083 0.448,0.163 0.897,0.316 1.794,0.593 0.105,0.034 0.104,0.032 0.21,0.066 0.418,0.128 0.836,0.25 1.673,0.467 0.105,0.028 0.105,0.028 0.209,0.055 0.418,0.109 0.836,0.209 1.674,0.392 0.113,0.025 0.113,0.025 0.227,0.05 0.454,0.097 0.907,0.188 1.815,0.346 0.113,0.021 0.114,0.02 0.226,0.04 0.454,0.079 0.907,0.151 1.815,0.277 0.106,0.015 0.106,0.015 0.211,0.03 0.424,0.058 0.847,0.112 0.105,0.014 0.106,0.013 0.212,0.027 0.423,0.052 0.847,0.099 0.106,0.012 0.106,0.012 0.212,0.024 0.423,0.046 0.847,0.089 1.694,0.161 0.114,0.01 0.115,0.01 0.229,0.02 0.459,0.039 0.918,0.074 0.115,0.009 0.114,0.009 0.23,0.017 0.458,0.034 0.918,0.063 0.115,0.008 0.115,0.008 0.229,0.015 0.459,0.029 0.917,0.055 1.836,0.097 0.112,0.006 0.113,0.005 0.225,0.011 0.45,0.021 0.901,0.039 0.113,0.005 0.113,0.005 0.225,0.009 0.45,0.018 0.901,0.033 0.113,0.004 0.112,0.004 0.226,0.008 0.45,0.015 0.901,0.028 0.113,0.003 0.112,0.003 0.226,0.007 0.45,0.013 0.901,0.023 0.105,0.003 0.105,0.002 0.21,0.005 0.42,0.01 0.841,0.019 0.105,0.002 0.105,0.002 0.21,0.004 0.42,0.009 0.841,0.015 0.105,0.002 0.105,0.002 0.21,0.003 0.42,0.007 0.841,0.013 0.105,0.001 0.105,0.002 0.21,0.003 0.42,0.006 0.841,0.01 0.113,0.002 0.114,0.001 0.228,0.003 0.456,0.005 0.911,0.009 0.114,0.001 0.114,0.001 0.228,0.002 0.455,0.004 0.912,0.008 0.113,0.001 0.114,10e-4 0.228,0.001 0.456,0.004 0.911,0.006 h 0.114 l 0.114,10e-4 0.228,0.001 0.455,0.003 0.911,0.005 h 0.107 l 0.106,0.001 0.213,10e-4 0.425,0.002 h 0.107 0.106 l 0.213,0.001 0.425,0.002 h 0.106 l 0.107,10e-4 0.212,0.001 0.426,0.001 0.851,0.003 h 0.106 0.106 l 0.213,10e-4 0.425,0.001 0.107,0.001 h 0.106 0.213 l 0.425,0.001 0.107,0.001 h 0.106 0.213 l 0.425,0.001 0.851,0.002 h 0.104 0.104 l 0.209,0.001 h 0.417 0.104 l 0.104,0.001 h 0.209 l 0.417,0.001 h 0.104 0.104 0.209 l 0.417,0.001 0.834,10e-4 h 0.104 0.105 0.208 0.417 l 0.104,0.001 h 0.105 0.208 0.417 0.105 0.104 0.208 l 0.417,0.001 h 0.834 0.114 0.113 l 0.226,0.001 h 0.452 0.113 0.114 0.226 0.452 0.113 0.113 0.227 l 0.452,0.001 h 0.905 0.113 0.113 0.226 0.453 0.113 0.113 0.226 0.453 0.113 0.113 0.226 l 0.452,0.001 h 0.114 0.113 0.226 0.452 0.106 0.105 0.212 0.422 0.105 0.106 0.211 0.422 0.106 0.105 0.211 0.423 0.105 0.106 0.211 0.422 0.105 0.106 0.211 0.422 0.106 0.105 0.212 0.422 0.105 0.106 0.211 0.422 0.106 0.105 0.211 0.423 0.114 0.114 0.229 0.458 0.114 0.115 0.228 0.458 0.114 0.115 0.229 0.457 0.115 0.114 0.229 0.457 0.115 0.114 0.229 0.114 0.115 0.228 0.115 0.114 0.229 0.458 0.114 0.114 0.229 0.115 0.114 0.229 0.114 0.115 0.228 0.458 0.112 0.113 0.224 0.113 0.112 0.224 0.113 0.112 0.225 0.449 0.112 0.113 0.224 0.113 0.112 0.224 0.113 0.112 0.225 0.449 0.112 0.113 0.224 0.112 0.113 0.224 0.113 0.112 0.225 0.449 0.112 0.112 0.225 0.112 0.113 0.224 0.113 0.112 0.225 0.449 0.105 0.104 0.21 0.105 0.104 0.21 0.105 0.104 0.21 0.419 0.105 0.104 0.21 0.105 0.104 0.21 0.105 0.104 0.21 0.419 0.105 0.104 0.21 0.105 0.104 0.21 0.105 0.104 0.21 0.419 0.105 0.104 0.21 0.105 0.104 0.21 0.105 0.105 0.209 0.419 0.114 0.113 0.227 0.114 0.114 0.227 0.113 0.114 0.227 0.114 0.113 0.228 0.113 0.114 0.227 0.114 0.113 0.227 0.114 0.114 0.227 0.113 0.114 0.227 0.114 0.113 0.228 0.113 0.114 0.227 0.114 0.113 0.227 0.114 0.114 0.227 0.113 0.114 0.227 0.114 0.113 0.228 0.113 0.114 0.227 0.114 0.113 0.227 0.106 0.107 0.212 0.106 0.106 0.212 0.106 0.106 0.212 0.106 0.106 0.212 0.106 0.106 0.212 0.106 0.106 0.212 0.107 0.106 0.212 0.106 0.106 0.212 0.106 0.106 0.212 0.106 0.106 0.212 0.106 0.106 0.212 0.106 0.106 0.213 0.106 0.106 0.212 0.106 0.106 0.212 0.106 0.106 0.106 0.106 0.106 0.106 0.212 0.104 0.104 0.104 0.104 0.104 0.104 0.208 0.104 0.104 0.104 0.104 0.104 0.104 0.208 0.103 0.104 0.104 0.104 0.104 0.104 0.208 0.104 0.104 0.104 0.104 0.104 0.104 0.208 0.104 0.104 0.104 0.104 0.104 0.104 0.207 0.104 0.104 0.104 0.104 0.104 0.104 0.208 0.104 0.104 0.104 0.104 0.104 0.104 0.208 0.104 0.104 0.104 0.104 0.104 0.103 0.208 0.113 0.113 0.113 0.113 0.112 0.113 0.226 0.113 0.112 0.113 0.113 0.113 0.113 0.225 0.113 0.113 0.113 0.112 0.113 0.113 0.226 0.112 0.113 0.113 0.113 0.113 0.112 0.226 0.113 0.113 0.112 0.113 0.113 0.113 0.225 0.226 0.226 0.225 0.226 0.226 0.225 0.113 0.113 0.225 0.113 0.113 0.226 0.451 0.105 0.105 0.211 0.421 0.842 1.684 3.368 7.301 6.819 6.685 7.25 6.768 7.333 7.2 0.105 0.105 0.21 0.42 0.839 1.679 0.105 0.105 0.21 0.42 0.839 1.679 0.114 0.114 0.228 0.455 0.113 0.114 0.228 0.114 0.113 0.114 0.114 0.114 0.028"
       style="fill:none;stroke:#0000ff;stroke-width:1px;stroke-opacity:1" />
    <path
       inkscape:connector-curvature="0"
       id="polyline32"
       d="m 424.951,234.663 h 0.012"
       style="fill:none;stroke:#0000ff;stroke-width:1px;stroke-opacity:1" />
    <path
       inkscape:connector-curvature="0"
       id="polyline34"
       d="m 82.0373,181.243 h 0.1052 l 0.1052,0.001 h 0.1051 0.1052 l 0.1052,0.001 h 0.1052 l 0.1051,0.001 0.1052,0.001 0.1052,10e-4 0.1052,0.001 0.1051,0.001 0.1052,0.001 0.1052,0.001 0.1052,0.002 0.2103,0.003 0.1052,0.002 0.1052,0.001 0.2103,0.004 0.1052,0.003 0.1052,0.002 0.2103,0.005 0.1052,0.002 0.1052,0.003 0.2103,0.006 0.4207,0.012 0.1052,0.004 0.1051,0.003 0.2104,0.008 0.4207,0.016 0.1052,0.004 0.1051,0.004 0.2104,0.009 0.4207,0.02 0.1052,0.005 0.1051,0.005 0.2104,0.011 0.4207,0.022 0.8414,0.051 0.114,0.007 0.114,0.008 0.2281,0.015 0.456,0.032 0.9122,0.07 0.114,0.01 0.1141,0.009 0.228,0.019 0.4561,0.04 0.9122,0.086 0.114,0.011 0.114,0.012 0.228,0.023 0.4561,0.048 0.9122,0.101 1.8243,0.226 0.1065,0.014 0.1065,0.014 0.2129,0.029 0.4258,0.059 0.8518,0.123 1.7034,0.265 0.1065,0.018 0.1064,0.017 0.213,0.036 0.4254,0.072 0.852,0.149 1.704,0.318 0.104,0.02 0.104,0.02 0.209,0.041 0.418,0.084 0.835,0.171 1.67,0.361 3.34,0.794 0.113,0.029 0.113,0.029 0.227,0.057 0.452,0.117 0.906,0.238 1.812,0.498 3.623,1.073 0.106,0.033 0.105,0.033 0.212,0.066 0.422,0.134 0.846,0.27 1.69,0.558 3.382,1.178 7.329,2.818 7.195,3.079 6.712,3.098 7.277,3.544 6.795,3.417 6.66,3.388 7.227,3.648 6.743,3.306 7.31,3.405 7.175,3.092 6.693,2.607 7.258,2.482 0.106,0.034 0.106,0.033 0.211,0.066 0.424,0.132 0.847,0.259 1.693,0.503 3.388,0.941 0.114,0.03 0.115,0.031 0.229,0.06 0.459,0.119 0.918,0.234 1.835,0.448 0.115,0.027 0.115,0.027 0.229,0.054 0.459,0.107 0.917,0.208 1.836,0.398 0.112,0.024 0.113,0.024 0.225,0.046 0.45,0.093 0.901,0.18 1.802,0.344 0.113,0.021 0.112,0.021 0.226,0.041 0.45,0.08 0.901,0.158 1.802,0.299 0.105,0.016 0.105,0.017 0.21,0.033 0.42,0.065 0.841,0.128 1.681,0.24 0.105,0.015 0.105,0.014 0.21,0.029 0.42,0.056 0.841,0.109 1.681,0.206 0.113,0.013 0.114,0.013 0.228,0.027 0.456,0.051 0.911,0.1 1.823,0.186 0.113,0.011 0.114,0.011 0.228,0.022 0.456,0.043 0.911,0.082 1.822,0.152 0.107,0.008 0.106,0.009 0.213,0.016 0.425,0.032 0.851,0.063 1.702,0.115 0.106,0.007 0.106,0.006 0.213,0.014 0.425,0.026 0.851,0.05 1.702,0.092 0.104,0.005 0.104,0.005 0.209,0.011 0.417,0.02 0.834,0.039 0.104,0.005 0.104,0.004 0.209,0.009 0.417,0.018 0.834,0.035 0.104,0.004 0.105,0.004 0.208,0.008 0.417,0.016 0.834,0.03 1.668,0.055 0.114,0.003 0.113,0.004 0.226,0.007 0.452,0.013 0.905,0.025 0.113,0.002 0.113,0.003 0.227,0.006 0.452,0.011 0.905,0.022 0.113,0.002 0.113,0.003 0.226,0.005 0.453,0.009 0.905,0.018 1.809,0.032 0.106,0.001 0.105,0.002 0.212,0.003 0.422,0.007 0.844,0.011 0.106,0.002 0.105,10e-4 0.211,0.003 0.423,0.005 0.844,0.01 0.105,0.001 0.106,0.002 0.211,0.002 0.422,0.004 0.845,0.009 0.105,0.001 0.106,0.001 0.211,0.002 0.422,0.003 0.845,0.007 0.114,0.001 0.114,0.001 0.229,0.002 0.458,0.003 0.915,0.006 0.114,0.001 h 0.115 l 0.229,0.002 0.457,0.002 0.915,0.005 0.115,0.001 h 0.114 l 0.229,0.001 0.457,0.002 0.115,0.001 h 0.114 l 0.229,0.001 0.458,0.002 0.114,0.001 h 0.114 l 0.229,10e-4 0.458,0.002 0.915,0.003 h 0.112 0.113 l 0.224,10e-4 0.449,0.001 h 0.113 l 0.112,0.001 h 0.225 l 0.449,0.001 0.112,0.001 h 0.113 0.224 l 0.449,0.001 0.899,0.002 h 0.112 l 0.113,0.001 h 0.224 l 0.449,0.001 h 0.113 0.112 0.225 l 0.449,0.001 h 0.112 0.112 l 0.225,0.001 h 0.449 l 0.899,10e-4 h 0.105 0.104 0.21 l 0.419,0.001 h 0.105 0.104 0.21 l 0.419,0.001 h 0.105 0.104 0.21 0.419 l 0.838,0.001 h 0.105 0.104 0.21 0.419 0.105 0.104 0.21 0.419 l 0.105,0.001 h 0.104 0.21 0.419 0.838 0.114 0.113 0.227 0.455 0.113 0.114 0.227 l 0.455,0.001 h 0.113 0.114 0.227 0.454 0.114 0.114 0.227 0.454 0.114 0.113 0.228 0.454 0.114 0.113 0.227 0.455 0.113 0.114 0.227 0.455 0.113 0.114 0.227 0.454 0.106 0.107 0.212 0.424 0.106 0.106 0.212 0.424 0.106 0.106 0.212 0.424 0.107 0.106 0.212 0.424 0.106 0.106 0.212 0.424 0.106 0.106 0.212 0.425 0.106 0.106 0.212 0.106 0.106 0.212 0.106 0.106 0.212 0.424 0.104 0.104 0.208 0.104 0.104 0.208 0.104 0.104 0.208 0.416 0.103 0.104 0.208 0.104 0.104 0.208 0.104 0.104 0.208 0.416 0.104 0.104 0.208 0.104 0.104 0.207 0.104 0.104 0.208 0.416 0.104 0.104 0.208 0.104 0.104 0.208 0.104 0.104 0.208 0.415 0.113 0.113 0.226 0.112 0.113 0.226 0.113 0.112 0.226 0.451 0.113 0.113 0.225 0.113 0.113 0.226 0.112 0.113 0.226 0.113 0.112 0.226 0.113 0.113 0.225 0.113 0.113 0.225 0.113 0.113 0.226 0.112 0.113 0.226 0.113 0.113 0.225 0.113 0.113 0.225 0.113 0.113 0.226 0.112 0.113 0.226 0.105 0.105 0.211 0.105 0.105 0.211 0.105 0.105 0.211 0.105 0.105 0.211 0.105 0.105 0.211 0.105 0.105 0.211 0.105 0.105 0.211 0.105 0.105 0.211 0.105 0.105 0.211 0.105 0.105 0.211 0.105 0.105 0.211 0.105 0.105 0.211 0.105 0.105 0.211 0.105 0.105 0.211 0.105 0.105 0.211 0.105 0.105 0.211 0.114 0.114 0.114 0.114 0.114 0.114 0.228 0.114 0.114 0.115 0.114 0.114 0.114 0.228 0.114 0.114 0.114 0.114 0.114 0.115 0.228 0.114 0.114 0.114 0.114 0.114 0.114 0.228 0.115 0.114 0.114 0.114 0.114 0.114 0.228 0.114 0.114 0.115 0.114 0.114 0.114 0.228 0.114 0.114 0.114 0.114 0.114 0.115 0.228 0.114 0.114 0.114 0.114 0.114 0.114 0.228 0.107 0.107 0.106 0.107 0.106 0.107 0.213 0.106 0.107 0.106 0.107 0.106 0.107 0.213 0.107 0.106 0.107 0.106 0.107 0.106 0.213 0.107 0.106 0.107 0.106 0.107 0.107 0.213 0.106 0.107 0.106 0.107 0.106 0.107 0.106 0.107 0.106 0.107 0.107 0.106 0.107 0.106 0.107 0.106 0.107 0.106 0.107 0.106 0.107 0.106 0.107 0.107 0.106 0.107 0.106 0.107 0.106 0.107 0.106 0.107 0.104 0.105 0.104 0.105 0.104 0.105 0.104 0.104 0.209 0.209 0.209 0.209 0.209 0.209 0.104 0.105 0.209 0.104 0.104 0.209 0.418 0.105 0.104 0.209 0.418 0.835 1.672 0.113 0.113 0.227 0.453 0.906 1.813 3.625 6.768 7.333 7.2 0.105 0.105 0.21 0.42 0.839 1.679 0.105 0.105 0.21 0.42 0.839 1.679 0.114 0.114 0.228 0.455 0.113 0.114 0.228 0.114 0.113 0.114 0.114 0.114 0.028"
       style="fill:none;stroke:#0000ff;stroke-width:1px;stroke-opacity:1" />
    <path
       inkscape:connector-curvature="0"
       id="polyline36"
       d="m 424.951,234.663 h 0.012"
       style="fill:none;stroke:#0000ff;stroke-width:1px;stroke-opacity:1" />
    <path
       inkscape:connector-curvature="0"
       id="polyline38"
       d="m 82.0373,200.475 h 0.1052 0.1052 0.1051 0.1052 0.1052 0.1052 0.1051 l 0.1052,0.001 h 0.1052 0.1052 0.1051 l 0.1052,0.001 h 0.1052 l 0.1052,0.001 0.2103,0.001 h 0.1052 l 0.1052,10e-4 0.2103,0.001 0.1052,0.001 h 0.1052 l 0.2103,0.002 h 0.1052 l 0.1052,0.001 0.2103,0.002 0.4207,0.004 0.1052,10e-4 0.1051,0.001 0.2104,0.002 0.4207,0.005 0.1052,0.001 0.1051,0.002 0.2104,0.002 0.4207,0.006 0.1052,0.002 0.1051,0.001 0.2104,0.003 0.4207,0.007 0.8414,0.016 0.114,0.002 0.114,0.002 0.2281,0.005 0.456,0.009 0.9122,0.022 0.114,0.002 0.1141,0.003 0.228,0.006 0.4561,0.012 0.9122,0.026 0.114,0.004 0.114,0.003 0.228,0.007 0.4561,0.015 0.9122,0.03 1.8243,0.069 0.1065,0.004 0.1065,0.005 0.2129,0.009 0.4258,0.017 0.8518,0.038 1.7034,0.081 0.1065,0.005 0.1064,0.006 0.213,0.011 0.4254,0.022 0.852,0.046 1.704,0.098 0.104,0.006 0.104,0.006 0.209,0.013 0.418,0.026 0.835,0.053 1.67,0.112 0.104,0.007 0.104,0.008 0.209,0.014 0.418,0.03 0.835,0.061 1.67,0.129 0.113,0.009 0.113,0.009 0.227,0.018 0.452,0.037 0.906,0.075 1.812,0.158 3.623,0.345 0.106,0.011 0.105,0.01 0.212,0.022 0.422,0.043 0.846,0.088 1.69,0.182 3.382,0.39 7.329,0.959 7.195,1.093 6.712,1.154 7.277,1.393 6.795,1.431 6.66,1.516 7.227,1.762 6.743,1.74 7.31,1.972 7.175,1.997 6.693,1.892 7.258,2.049 6.775,1.876 7.341,1.952 7.207,1.79 6.724,1.521 7.289,1.454 0.107,0.02 0.106,0.019 0.213,0.039 0.425,0.077 0.851,0.152 1.702,0.294 3.403,0.549 0.104,0.016 0.104,0.016 0.209,0.031 0.417,0.063 0.834,0.123 1.668,0.237 0.104,0.014 0.105,0.015 0.208,0.028 0.417,0.056 0.834,0.111 1.668,0.211 0.114,0.014 0.113,0.013 0.226,0.028 0.452,0.054 0.905,0.105 1.81,0.2 0.113,0.012 0.113,0.012 0.226,0.024 0.453,0.046 0.905,0.091 1.809,0.171 0.106,0.01 0.105,0.009 0.212,0.019 0.422,0.037 0.844,0.072 1.689,0.135 0.105,0.008 0.106,0.008 0.211,0.016 0.422,0.031 0.845,0.061 1.689,0.113 0.114,0.007 0.114,0.007 0.229,0.015 0.458,0.028 0.915,0.053 0.114,0.007 0.115,0.006 0.229,0.013 0.457,0.025 0.915,0.048 0.115,0.006 0.114,0.006 0.229,0.011 0.457,0.023 0.916,0.042 1.83,0.078 0.112,0.004 0.113,0.005 0.224,0.008 0.449,0.017 0.899,0.033 0.112,0.004 0.113,0.003 0.224,0.008 0.449,0.015 0.899,0.028 0.112,0.004 0.113,0.003 0.224,0.007 0.449,0.012 0.899,0.025 1.797,0.043 0.105,0.003 0.104,0.002 0.21,0.004 0.419,0.009 0.838,0.017 0.105,0.002 0.104,0.002 0.21,0.004 0.419,0.008 0.838,0.014 0.105,0.001 0.104,0.002 0.21,0.003 0.419,0.007 0.838,0.012 0.105,10e-4 0.104,0.002 0.21,0.003 0.419,0.005 0.838,0.01 0.114,0.002 0.113,0.001 0.227,0.002 0.455,0.005 0.909,0.009 0.113,0.001 0.114,0.001 0.227,0.002 0.454,0.004 0.909,0.008 0.114,0.001 h 0.113 l 0.228,0.002 0.454,0.003 0.909,0.006 0.113,0.001 h 0.114 l 0.227,0.002 0.455,0.002 0.908,0.005 h 0.106 l 0.107,0.001 0.212,0.001 0.424,0.002 h 0.106 l 0.106,0.001 h 0.212 l 0.424,0.002 0.106,0.001 h 0.106 l 0.212,0.001 0.424,0.001 0.849,0.003 h 0.106 0.106 l 0.212,0.001 0.424,0.001 h 0.106 l 0.106,0.001 h 0.212 l 0.425,0.001 h 0.106 l 0.106,10e-4 h 0.212 l 0.424,0.001 0.848,0.002 h 0.104 0.104 0.208 l 0.416,0.001 h 0.104 0.104 l 0.208,0.001 h 0.416 0.103 0.104 l 0.208,10e-4 h 0.416 l 0.832,0.001 h 0.104 0.104 0.208 l 0.415,0.001 h 0.104 0.104 0.208 0.416 0.104 0.104 l 0.208,0.001 h 0.416 0.104 0.104 0.208 0.415 0.113 0.113 0.226 l 0.451,0.001 h 0.113 0.112 0.226 0.451 0.113 0.113 0.225 0.452 0.112 0.113 0.226 l 0.451,0.001 h 0.113 0.113 0.225 0.451 0.113 0.113 0.226 0.451 0.113 0.113 0.225 0.451 0.113 0.113 0.226 0.451 0.105 0.105 0.211 0.421 0.105 0.105 0.211 0.421 0.105 0.105 0.211 0.105 0.105 0.211 0.105 0.105 0.211 0.421 0.105 0.105 0.211 0.105 0.105 0.211 0.105 0.105 0.211 0.421 0.105 0.105 0.211 0.105 0.105 0.211 0.105 0.105 0.211 0.421 0.114 0.114 0.228 0.114 0.114 0.228 0.114 0.114 0.229 0.456 0.114 0.114 0.228 0.114 0.115 0.228 0.114 0.114 0.228 0.456 0.115 0.114 0.228 0.114 0.114 0.228 0.114 0.114 0.229 0.114 0.114 0.228 0.114 0.114 0.228 0.114 0.115 0.228 0.114 0.114 0.228 0.114 0.114 0.228 0.107 0.107 0.213 0.106 0.107 0.213 0.106 0.107 0.213 0.106 0.107 0.213 0.107 0.106 0.213 0.107 0.106 0.213 0.107 0.106 0.213 0.107 0.107 0.213 0.106 0.107 0.213 0.106 0.107 0.213 0.106 0.107 0.213 0.107 0.106 0.213 0.107 0.106 0.213 0.107 0.106 0.214 0.106 0.107 0.213 0.106 0.107 0.213 0.104 0.105 0.209 0.104 0.105 0.208 0.105 0.104 0.105 0.104 0.105 0.104 0.209 0.104 0.105 0.104 0.105 0.104 0.105 0.209 0.104 0.104 0.105 0.104 0.105 0.104 0.209 0.105 0.104 0.105 0.104 0.104 0.105 0.209 0.104 0.105 0.104 0.105 0.104 0.104 0.209 0.105 0.104 0.105 0.104 0.105 0.104 0.209 0.104 0.105 0.104 0.105 0.104 0.105 0.209 0.113 0.113 0.113 0.114 0.113 0.113 0.227 0.113 0.113 0.114 0.113 0.113 0.114 0.113 0.113 0.114 0.113 0.113 0.113 0.114 0.113 0.113 0.114 0.113 0.113 0.114 0.113 0.113 0.113 0.114 0.113 0.113 0.114 0.113 0.113 0.113 0.114 0.113 0.113 0.114 0.113 0.113 0.114 0.113 0.113 0.113 0.114 0.113 0.113 0.114 0.113 0.113 0.113 0.114 0.113 0.113 0.114 0.113 0.113 0.114 0.113 0.113 0.113 0.106 0.106 0.106 0.105 0.106 0.106 0.106 0.105 0.106 0.106 0.106 0.105 0.106 0.106 0.106 0.105 0.106 0.106 0.105 0.106 0.106 0.106 0.105 0.106 0.106 0.106 0.105 0.106 0.106 0.106 0.105 0.106 0.212 0.211 0.106 0.106 0.211 0.106 0.105 0.212 0.423 0.106 0.105 0.212 0.423 0.846 0.114 0.115 0.229 0.458 0.917 1.833 3.667 7.2 0.105 0.105 0.21 0.42 0.839 1.679 0.105 0.105 0.21 0.42 0.839 1.679 0.114 0.114 0.228 0.455 0.113 0.114 0.228 0.114 0.113 0.114 0.114 0.114 0.028"
       style="fill:none;stroke:#0000ff;stroke-width:1px;stroke-opacity:1" />
    <path
       inkscape:connector-curvature="0"
       id="polyline40"
       d="m 424.951,234.663 h 0.012"
       style="fill:none;stroke:#0000ff;stroke-width:1px;stroke-opacity:1" />
    <path
       inkscape:connector-curvature="0"
       id="polyline42"
       d="m 82.0373,20.9831 0.1052,0.0012 0.1052,0.0036 0.1051,0.006 0.1052,0.0083 0.1052,0.0107 0.1052,0.0131 0.1051,0.0155 0.1052,0.0178 0.1052,0.0202 0.1052,0.0226 0.1051,0.025 0.1052,0.0274 0.1052,0.0297 0.1052,0.0321 0.2103,0.0713 0.1052,0.0393 0.1052,0.0415 0.2103,0.0903 0.1052,0.0487 0.1052,0.0511 0.2103,0.1092 0.1052,0.0581 0.1052,0.0605 0.2103,0.128 0.4207,0.2842 0.1052,0.077 0.1051,0.0792 0.2104,0.1655 0.4207,0.359 0.1052,0.0955 0.1051,0.0979 0.2104,0.2027 0.4207,0.4329 0.1052,0.114 0.1051,0.1162 0.2104,0.2394 0.4207,0.506 0.8414,1.1202 0.114,0.1628 0.114,0.1654 0.2281,0.3386 0.456,0.7081 0.9122,1.5388 0.114,0.2037 0.1141,0.2062 0.228,0.4198 0.4561,0.8692 0.9122,1.8549 0.114,0.2426 0.114,0.2449 0.228,0.497 0.4561,1.0218 0.9122,2.1531 1.8243,4.7258 0.1065,0.2924 0.1065,0.2941 0.2129,0.5935 0.4258,1.2079 0.8518,2.4969 1.7034,5.3009 3.4073,11.6808 0.104,0.3777 0.104,0.3788 0.209,0.7607 0.418,1.5338 0.835,3.1141 1.67,6.396 3.34,13.3094 7.246,29.8203 6.763,26.773 0.114,0.432 0.115,0.431 0.229,0.859 0.458,1.708 0.916,3.371 1.832,6.549 3.665,12.256 0.112,0.357 0.112,0.356 0.225,0.709 0.45,1.402 0.899,2.749 1.799,5.265 0.113,0.319 0.112,0.318 0.225,0.631 0.45,1.248 0.899,2.437 1.799,4.638 0.105,0.261 0.105,0.259 0.209,0.516 0.42,1.019 0.839,1.987 1.678,3.771 0.105,0.227 0.104,0.226 0.21,0.448 0.42,0.885 0.839,1.719 1.678,3.245 0.113,0.211 0.114,0.209 0.227,0.416 0.455,0.818 0.91,1.581 1.819,2.95 0.114,0.175 0.114,0.174 0.227,0.345 0.455,0.678 0.91,1.307 1.819,2.422 0.107,0.134 0.106,0.133 0.212,0.263 0.425,0.517 0.849,0.996 1.698,1.845 0.107,0.109 0.106,0.109 0.212,0.214 0.425,0.421 0.849,0.807 1.699,1.489 0.104,0.086 0.104,0.085 0.208,0.169 0.416,0.33 0.833,0.634 0.104,0.077 0.104,0.076 0.208,0.151 0.416,0.295 0.833,0.565 0.104,0.068 0.104,0.068 0.208,0.134 0.416,0.262 0.833,0.502 1.665,0.915 0.113,0.058 0.113,0.058 0.226,0.113 0.452,0.222 0.903,0.421 0.113,0.05 0.113,0.051 0.226,0.098 0.451,0.193 0.904,0.366 0.113,0.044 0.112,0.043 0.226,0.086 0.452,0.167 0.903,0.316 1.807,0.565 0.105,0.03 0.106,0.031 0.21,0.059 0.422,0.116 0.843,0.219 0.105,0.026 0.106,0.026 0.21,0.052 0.422,0.1 0.843,0.189 0.105,0.023 0.105,0.022 0.211,0.045 0.422,0.086 0.842,0.163 1.686,0.29 0.114,0.018 0.115,0.018 0.228,0.035 0.457,0.068 0.914,0.128 0.114,0.015 0.114,0.015 0.228,0.029 0.457,0.058 0.914,0.107 0.114,0.012 0.114,0.013 0.229,0.025 0.457,0.047 0.913,0.09 0.114,0.01 0.115,0.011 0.228,0.02 0.457,0.04 0.914,0.074 0.112,0.009 0.112,0.009 0.224,0.016 0.449,0.033 0.897,0.06 0.112,0.007 0.112,0.007 0.224,0.014 0.449,0.027 0.896,0.05 0.113,0.006 0.112,0.006 0.224,0.011 0.448,0.022 0.897,0.042 0.113,0.004 0.112,0.005 0.224,0.01 0.448,0.018 0.897,0.033 0.105,0.004 0.104,0.004 0.21,0.007 0.418,0.014 0.836,0.026 0.105,0.003 0.105,0.003 0.209,0.006 0.418,0.011 0.836,0.021 0.105,0.003 0.105,0.002 0.209,0.005 0.418,0.01 0.836,0.017 0.105,0.002 0.105,0.002 0.209,0.004 0.418,0.008 0.837,0.014 0.113,0.002 0.113,0.002 0.227,0.003 0.454,0.007 0.907,0.013 0.114,10e-4 0.113,0.002 0.227,0.002 0.453,0.006 0.908,0.01 0.113,0.001 0.114,0.001 0.226,0.002 0.454,0.005 0.907,0.007 0.114,0.001 0.113,0.001 0.227,0.002 0.454,0.003 0.907,0.007 h 0.106 l 0.106,0.001 0.211,0.001 0.424,0.003 0.847,0.004 0.105,0.001 h 0.106 l 0.212,0.001 0.423,0.002 0.847,0.004 h 0.106 l 0.106,0.001 0.212,0.001 0.423,0.001 0.106,10e-4 h 0.106 l 0.212,0.001 0.423,0.001 h 0.106 l 0.106,0.001 h 0.211 l 0.424,0.002 0.847,0.002 h 0.114 0.115 l 0.229,0.001 0.459,0.001 h 0.115 l 0.115,0.001 h 0.229 l 0.459,0.001 h 0.115 0.114 l 0.23,10e-4 0.458,0.001 0.918,0.001 h 0.115 0.115 l 0.229,0.001 h 0.459 0.114 l 0.115,0.001 h 0.23 0.458 l 0.115,0.001 h 0.115 0.229 0.459 l 0.918,10e-4 h 0.112 0.113 l 0.225,0.001 h 0.45 0.113 0.113 0.225 l 0.45,0.001 h 0.113 0.113 0.225 0.45 l 0.901,0.001 h 0.113 0.112 0.226 0.45 0.113 0.112 0.226 0.45 0.113 0.112 0.226 l 0.45,0.001 h 0.901 0.105 0.105 0.21 0.42 0.105 0.105 0.211 0.42 0.105 0.105 0.21 0.42 l 0.841,0.001 h 0.105 0.105 0.21 0.42 0.105 0.105 0.21 0.421 0.105 0.105 0.21 0.42 0.841 0.113 0.114 0.228 0.456 0.114 0.114 0.227 0.456 0.114 0.114 0.228 0.455 0.912 0.113 0.114 0.228 0.456 0.114 0.114 0.227 0.456 0.114 0.114 0.228 0.455 0.911 0.107 0.106 0.213 0.425 0.107 0.106 0.213 0.425 0.106 0.107 0.212 0.426 0.851 0.106 0.106 0.213 0.425 0.107 0.106 0.213 0.425 0.107 0.106 0.213 0.425 0.851 0.104 0.104 0.209 0.417 0.104 0.104 0.209 0.417 0.104 0.104 0.209 0.417 0.834 0.104 0.105 0.208 0.417 0.104 0.105 0.208 0.417 0.105 0.104 0.208 0.417 0.105 0.104 0.208 0.417 0.114 0.113 0.226 0.452 0.113 0.114 0.226 0.452 0.113 0.113 0.227 0.452 0.113 0.113 0.226 0.453 0.113 0.113 0.226 0.453 0.113 0.113 0.226 0.453 0.113 0.113 0.226 0.452 0.114 0.113 0.226 0.452 0.106 0.105 0.212 0.422 0.105 0.106 0.211 0.422 0.106 0.105 0.211 0.423 0.105 0.106 0.211 0.422 0.105 0.106 0.211 0.422 0.106 0.105 0.212 0.422 0.105 0.106 0.211 0.422 0.106 0.105 0.211 0.423 0.114 0.114 0.229 0.458 0.114 0.115 0.228 0.458 0.114 0.115 0.229 0.457 0.115 0.114 0.229 0.457 0.115 0.114 0.229 0.457 0.115 0.114 0.229 0.458 0.114 0.114 0.229 0.115 0.114 0.229 0.114 0.115 0.228 0.458 0.112 0.113 0.224 0.113 0.112 0.224 0.113 0.112 0.225 0.449 0.112 0.113 0.224 0.113 0.112 0.224 0.113 0.112 0.225 0.449 0.112 0.113 0.224 0.112 0.113 0.224 0.113 0.112 0.225 0.449 0.112 0.112 0.225 0.112 0.113 0.224 0.113 0.112 0.225 0.449 0.105 0.104 0.21 0.105 0.104 0.21 0.105 0.104 0.21 0.419 0.105 0.104 0.21 0.105 0.104 0.21 0.105 0.104 0.21 0.419 0.105 0.104 0.21 0.105 0.104 0.21 0.105 0.104 0.21 0.419 0.105 0.104 0.21 0.105 0.104 0.21 0.105 0.105 0.209 0.419 0.114 0.113 0.227 0.114 0.114 0.227 0.113 0.114 0.227 0.455 0.113 0.114 0.227 0.114 0.113 0.227 0.114 0.114 0.227 0.454 0.114 0.113 0.228 0.113 0.114 0.227 0.114 0.113 0.227 0.455 0.113 0.114 0.227 0.114 0.113 0.228 0.113 0.114 0.227 0.454 0.106 0.107 0.212 0.106 0.106 0.212 0.106 0.106 0.212 0.424 0.106 0.106 0.212 0.106 0.106 0.212 0.107 0.106 0.212 0.424 0.106 0.106 0.212 0.106 0.106 0.212 0.106 0.106 0.212 0.425 0.106 0.106 0.212 0.106 0.106 0.212 0.106 0.106 0.212 0.424 0.104 0.104 0.208 0.104 0.104 0.208 0.104 0.104 0.208 0.416 0.103 0.104 0.208 0.104 0.104 0.208 0.104 0.104 0.208 0.416 0.104 0.104 0.208 0.104 0.104 0.207 0.104 0.104 0.208 0.416 0.104 0.104 0.208 0.104 0.104 0.208 0.104 0.104 0.208 0.415 0.113 0.113 0.226 0.112 0.113 0.226 0.113 0.112 0.226 0.451 0.226 0.225 0.226 0.226 0.225 0.226 0.225 0.226 0.226 0.225 0.226 0.225 0.226 0.226 0.225 0.226 0.451 0.451 0.452 0.451 0.105 0.105 0.211 0.421 0.105 0.105 0.211 0.421 0.105 0.105 0.211 0.421 0.842 0.105 0.105 0.211 0.421 0.842 1.684 0.114 0.114 0.228 0.456 0.913 1.825 3.651 6.819 6.685 7.25 6.768 7.333 7.2 6.716 7.283 6.799 6.665 7.231 0.106 0.105 0.211 0.422 0.843 1.687 0.106 0.105 0.211 0.422 0.843 1.687 0.118 0.117 0.236 0.471 0.941 0.118 0.118 0.235 0.471 0.941 0.118 0.118 0.235 0.471 0.118 0.117 0.236 0.471 0.117 0.118 0.235 0.118 0.118 0.235 0.118 0.117 0.118 0.118 0.118 0.117 0.118 0.112"
       style="fill:none;stroke:#d900d9;stroke-width:1px;stroke-opacity:1" />
    <path
       inkscape:connector-curvature="0"
       id="polyline44"
       d="m 82.0373,139.694 0.1052,0.001 h 0.1052 l 0.1051,0.001 0.1052,0.002 0.1052,0.002 0.1052,0.002 0.1051,0.003 0.1052,0.004 0.1052,0.003 0.1052,0.005 0.1051,0.004 0.1052,0.005 0.1052,0.006 0.1052,0.006 0.2103,0.013 0.1052,0.008 0.1052,0.008 0.2103,0.016 0.1052,0.01 0.1052,0.009 0.2103,0.021 0.1052,0.011 0.1052,0.011 0.2103,0.024 0.4207,0.053 0.1052,0.015 0.1051,0.015 0.2104,0.031 0.4207,0.067 0.1052,0.018 0.1051,0.019 0.2104,0.038 0.4207,0.082 0.1052,0.021 0.1051,0.022 0.2104,0.045 0.4207,0.096 0.8414,0.212 0.114,0.031 0.114,0.031 0.2281,0.065 0.456,0.134 0.9122,0.294 0.114,0.039 0.1141,0.04 0.228,0.08 0.4561,0.167 0.9122,0.357 0.114,0.047 0.114,0.048 0.228,0.096 0.4561,0.198 0.9122,0.42 1.8243,0.93 0.1065,0.058 0.1065,0.059 0.2129,0.118 0.4258,0.241 0.8518,0.5 1.7034,1.076 0.1065,0.07 0.1064,0.071 0.213,0.143 0.4254,0.29 0.852,0.598 1.704,1.263 0.104,0.081 0.104,0.08 0.209,0.163 0.418,0.328 0.835,0.673 1.67,1.404 3.34,3.031 7.246,7.431 6.763,7.686 7.329,8.734 7.195,8.586 6.712,7.71 7.277,7.761 6.795,6.506 6.66,5.583 0.113,0.087 0.113,0.087 0.226,0.174 0.452,0.345 0.903,0.679 1.807,1.312 3.613,2.441 0.105,0.068 0.106,0.067 0.21,0.134 0.422,0.266 0.843,0.522 1.686,1.006 3.371,1.861 0.114,0.059 0.115,0.06 0.228,0.118 0.457,0.233 0.914,0.457 1.827,0.872 0.114,0.052 0.114,0.053 0.229,0.104 0.457,0.206 0.913,0.403 1.828,0.766 0.112,0.045 0.112,0.046 0.224,0.089 0.449,0.178 0.897,0.345 1.793,0.657 0.113,0.04 0.112,0.039 0.224,0.078 0.448,0.155 0.897,0.301 1.794,0.569 0.105,0.032 0.104,0.032 0.21,0.063 0.418,0.125 0.836,0.242 1.673,0.461 0.105,0.027 0.105,0.028 0.209,0.055 0.418,0.108 0.836,0.21 1.674,0.397 0.113,0.026 0.113,0.026 0.227,0.051 0.454,0.1 0.907,0.195 1.815,0.366 0.113,0.022 0.114,0.021 0.226,0.043 0.454,0.085 0.907,0.164 1.815,0.307 0.106,0.017 0.106,0.017 0.211,0.033 0.424,0.067 0.847,0.128 1.693,0.24 0.106,0.014 0.106,0.015 0.212,0.028 0.423,0.055 0.847,0.108 1.694,0.201 0.114,0.013 0.115,0.012 0.229,0.026 0.459,0.05 0.918,0.096 1.835,0.179 0.115,0.01 0.115,0.011 0.229,0.02 0.459,0.041 0.917,0.078 1.836,0.144 0.112,0.009 0.113,0.008 0.225,0.016 0.45,0.033 0.901,0.062 1.802,0.113 0.113,0.007 0.112,0.007 0.226,0.013 0.45,0.026 0.901,0.049 1.802,0.091 0.105,0.005 0.105,0.005 0.21,0.01 0.42,0.019 0.841,0.037 1.681,0.068 0.105,0.004 0.105,0.004 0.21,0.007 0.42,0.016 0.841,0.029 1.681,0.054 0.113,0.004 0.114,0.003 0.228,0.007 0.456,0.013 0.911,0.025 0.114,0.003 0.114,0.003 0.228,0.006 0.455,0.012 0.912,0.022 0.113,0.002 0.114,0.003 0.228,0.005 0.456,0.01 0.911,0.019 1.822,0.035 0.107,0.002 0.106,0.002 0.213,0.004 0.425,0.007 0.851,0.014 0.106,0.002 0.107,0.001 0.212,0.004 0.426,0.006 0.851,0.012 0.106,0.001 0.106,0.002 0.213,0.003 0.425,0.005 0.851,0.011 1.702,0.019 0.104,0.001 0.104,0.001 0.209,0.002 0.417,0.005 0.834,0.008 0.104,0.001 h 0.104 l 0.209,0.002 0.417,0.004 0.834,0.007 0.104,0.001 0.105,0.001 0.208,0.001 0.417,0.003 0.834,0.006 1.668,0.011 0.114,0.001 0.113,0.001 0.226,0.001 0.452,0.002 0.905,0.005 0.113,10e-4 h 0.113 l 0.227,0.002 0.452,0.002 0.905,0.004 h 0.113 l 0.113,0.001 0.226,0.001 0.453,0.002 0.905,0.003 1.809,0.006 0.106,0.001 h 0.105 l 0.212,10e-4 0.422,0.001 0.844,0.002 0.106,0.001 h 0.105 0.211 l 0.423,0.002 0.844,0.002 h 0.105 0.106 l 0.211,0.001 h 0.422 l 0.845,0.002 1.689,0.003 h 0.114 l 0.114,0.001 h 0.229 l 0.458,0.001 0.915,0.001 h 0.114 0.115 l 0.229,10e-4 h 0.457 l 0.915,0.001 h 0.115 0.114 l 0.229,0.001 h 0.457 l 0.916,0.001 h 0.114 0.114 l 0.229,0.001 h 0.458 l 0.915,0.001 h 0.112 0.113 0.224 0.449 l 0.899,10e-4 h 0.112 0.113 0.224 l 0.449,0.001 h 0.899 0.112 0.113 0.224 0.449 l 0.899,0.001 h 0.112 0.112 0.225 0.449 l 0.899,0.001 h 0.105 0.104 0.21 0.419 0.838 0.105 0.104 0.21 0.419 l 0.838,0.001 h 0.105 0.104 0.21 0.419 0.838 0.105 0.104 0.21 0.419 0.838 0.114 0.113 0.227 0.455 0.909 0.113 0.114 l 0.227,0.001 h 0.454 0.909 0.114 0.113 0.228 0.454 0.909 0.113 0.114 0.227 0.455 0.908 0.106 0.107 0.212 0.424 0.848 0.106 0.106 0.212 0.424 0.849 0.106 0.106 0.212 0.424 0.106 0.106 0.212 0.425 0.106 0.106 0.212 0.424 0.848 0.104 0.104 0.208 0.416 0.104 0.104 0.208 0.416 0.103 0.104 0.208 0.416 0.832 0.104 0.104 0.208 0.415 0.104 0.104 0.208 0.416 0.104 0.104 0.208 0.416 0.831 0.113 0.113 0.226 0.451 0.113 0.112 0.226 0.451 0.113 0.113 0.225 0.452 0.902 0.113 0.113 0.225 0.451 0.113 0.113 0.226 0.451 0.113 0.113 0.225 0.451 0.903 0.105 0.105 0.211 0.421 0.105 0.105 0.211 0.421 0.105 0.105 0.211 0.421 0.842 0.105 0.105 0.211 0.421 0.105 0.105 0.211 0.421 0.105 0.105 0.211 0.421 0.842 0.114 0.114 0.228 0.456 0.114 0.114 0.229 0.456 0.114 0.114 0.228 0.457 0.912 0.115 0.114 0.228 0.456 0.114 0.114 0.229 0.456 0.114 0.114 0.228 0.457 0.114 0.114 0.228 0.456 0.107 0.107 0.213 0.426 0.106 0.107 0.213 0.426 0.107 0.106 0.213 0.426 0.853 0.106 0.107 0.213 0.426 0.106 0.107 0.213 0.426 0.107 0.106 0.213 0.427 0.106 0.107 0.213 0.426 0.104 0.105 0.209 0.417 0.105 0.104 0.209 0.418 0.104 0.105 0.209 0.418 0.104 0.104 0.209 0.418 0.105 0.104 0.209 0.418 0.104 0.105 0.209 0.417 0.105 0.104 0.209 0.418 0.104 0.105 0.209 0.418 0.113 0.113 0.227 0.453 0.113 0.113 0.227 0.453 0.114 0.113 0.226 0.454 0.113 0.113 0.227 0.453 0.113 0.114 0.226 0.453 0.114 0.113 0.227 0.453 0.113 0.113 0.227 0.453 0.113 0.114 0.226 0.453 0.106 0.106 0.211 0.423 0.106 0.106 0.211 0.423 0.106 0.106 0.211 0.423 0.106 0.106 0.211 0.423 0.106 0.106 0.211 0.423 0.106 0.105 0.212 0.423 0.106 0.105 0.212 0.106 0.105 0.212 0.106 0.105 0.212 0.423 0.114 0.115 0.229 0.115 0.114 0.229 0.115 0.115 0.229 0.458 0.115 0.114 0.229 0.115 0.115 0.229 0.114 0.115 0.229 0.458 0.115 0.115 0.229 0.114 0.115 0.229 0.115 0.114 0.23 0.458 0.114 0.115 0.229 0.115 0.114 0.23 0.114 0.115 0.229 0.458 0.113 0.112 0.225 0.113 0.112 0.225 0.113 0.112 0.225 0.45 0.113 0.112 0.225 0.113 0.112 0.225 0.113 0.112 0.225 0.45 0.113 0.112 0.225 0.113 0.112 0.225 0.113 0.112 0.225 0.45 0.113 0.112 0.225 0.113 0.112 0.225 0.113 0.112 0.225 0.45 0.105 0.105 0.21 0.105 0.105 0.21 0.105 0.105 0.209 0.42 0.105 0.105 0.21 0.105 0.105 0.21 0.105 0.105 0.209 0.42 0.105 0.105 0.21 0.105 0.105 0.21 0.105 0.105 0.21 0.104 0.105 0.21 0.105 0.105 0.21 0.105 0.105 0.21 0.105 0.105 0.21 0.105 0.104 0.21 0.114 0.114 0.228 0.113 0.114 0.228 0.113 0.114 0.228 0.114 0.113 0.228 0.114 0.114 0.227 0.228 0.227 0.228 0.227 0.228 0.228 0.227 0.228 0.227 0.228 0.227 0.228 0.114 0.114 0.227 0.455 0.455 0.114 0.114 0.228 0.455 0.106 0.106 0.213 0.425 0.85 0.106 0.106 0.212 0.425 0.85 0.106 0.107 0.212 0.425 0.85 1.7 0.104 0.104 0.208 0.417 0.833 1.666 3.333 7.231 0.106 0.105 0.211 0.422 0.843 1.687 0.106 0.105 0.211 0.422 0.843 1.687 0.118 0.117 0.236 0.471 0.941 0.118 0.118 0.235 0.471 0.941 0.118 0.118 0.235 0.471 0.118 0.117 0.236 0.471 0.117 0.118 0.235 0.118 0.118 0.235 0.118 0.117 0.118 0.118 0.118 0.117 0.118 0.112"
       style="fill:none;stroke:#d900d9;stroke-width:1px;stroke-opacity:1" />
    <path
       inkscape:connector-curvature="0"
       id="polyline46"
       d="m 82.0373,181.243 h 0.1052 l 0.1052,0.001 h 0.1051 0.1052 l 0.1052,0.001 0.1052,0.001 0.1051,0.001 h 0.1052 l 0.1052,0.002 0.1052,0.001 0.1051,0.001 0.1052,0.002 0.1052,0.001 0.1052,0.002 0.2103,0.004 0.1052,0.002 0.1052,0.002 0.2103,0.005 0.1052,0.003 0.1052,0.003 0.2103,0.006 0.1052,0.003 0.1052,0.003 0.2103,0.007 0.4207,0.016 0.1052,0.004 0.1051,0.005 0.2104,0.009 0.4207,0.019 0.1052,0.006 0.1051,0.005 0.2104,0.011 0.4207,0.024 0.1052,0.006 0.1051,0.007 0.2104,0.013 0.4207,0.028 0.8414,0.062 0.114,0.009 0.114,0.01 0.2281,0.018 0.456,0.04 0.9122,0.086 0.114,0.012 0.1141,0.012 0.228,0.023 0.4561,0.049 0.9122,0.106 0.114,0.014 0.114,0.014 0.228,0.028 0.4561,0.059 0.9122,0.124 1.8243,0.277 0.1065,0.017 0.1065,0.017 0.2129,0.036 0.4258,0.071 0.8518,0.15 1.7034,0.323 0.1065,0.022 0.1064,0.021 0.213,0.043 0.4254,0.088 0.852,0.181 1.704,0.384 0.104,0.025 0.104,0.024 0.209,0.05 0.418,0.1 0.835,0.207 1.67,0.434 3.34,0.948 0.113,0.034 0.113,0.034 0.227,0.068 0.452,0.139 0.906,0.282 1.812,0.587 3.623,1.255 6.763,2.608 7.329,3.149 7.195,3.332 6.712,3.243 7.277,3.58 6.795,3.329 6.66,3.187 7.227,3.314 6.743,2.909 7.31,2.912 7.175,2.587 6.693,2.154 7.258,2.051 6.775,1.65 0.114,0.025 0.115,0.026 0.229,0.051 0.459,0.102 0.918,0.2 1.835,0.386 3.671,0.722 0.112,0.021 0.113,0.021 0.225,0.042 0.45,0.083 0.901,0.162 1.802,0.314 3.604,0.583 0.105,0.016 0.105,0.016 0.21,0.032 0.42,0.063 0.841,0.124 1.681,0.24 3.362,0.443 0.113,0.015 0.114,0.014 0.228,0.028 0.456,0.056 0.911,0.109 1.823,0.209 0.113,0.012 0.114,0.013 0.228,0.025 0.456,0.049 0.911,0.097 1.822,0.185 0.107,0.01 0.106,0.011 0.213,0.021 0.425,0.04 0.851,0.08 1.702,0.153 0.106,0.01 0.106,0.009 0.213,0.018 0.425,0.036 0.851,0.071 1.702,0.135 0.104,0.008 0.104,0.008 0.209,0.016 0.417,0.031 0.834,0.062 1.668,0.116 0.104,0.007 0.105,0.007 0.208,0.014 0.417,0.028 0.834,0.054 1.668,0.102 0.114,0.007 0.113,0.006 0.226,0.014 0.452,0.026 0.905,0.051 1.81,0.096 0.113,0.005 0.113,0.006 0.226,0.012 0.453,0.022 0.905,0.044 1.809,0.082 0.106,0.005 0.105,0.004 0.212,0.009 0.422,0.018 0.844,0.035 1.689,0.066 0.105,0.004 0.106,0.004 0.211,0.008 0.422,0.016 0.845,0.03 1.689,0.056 0.114,0.004 0.114,0.003 0.229,0.008 0.458,0.014 0.915,0.028 1.83,0.051 0.115,0.003 0.114,0.003 0.229,0.007 0.457,0.011 0.916,0.024 1.83,0.043 0.112,0.002 0.113,0.003 0.224,0.005 0.449,0.009 0.899,0.019 1.797,0.035 0.112,0.003 0.113,0.002 0.224,0.004 0.449,0.008 0.899,0.015 1.797,0.029 0.105,0.002 0.104,0.002 0.21,0.003 0.419,0.006 0.838,0.012 1.676,0.022 0.105,0.002 0.104,0.001 0.21,0.003 0.419,0.005 0.838,0.01 1.676,0.018 0.114,0.001 0.113,0.002 0.227,0.002 0.455,0.005 0.909,0.008 1.817,0.017 0.114,0.001 h 0.113 l 0.228,0.002 0.454,0.004 0.909,0.007 1.817,0.013 0.106,0.001 h 0.107 l 0.212,0.002 0.424,0.002 0.848,0.006 1.697,0.009 0.106,0.001 h 0.106 l 0.212,0.002 0.424,0.002 0.849,0.004 1.696,0.008 h 0.104 l 0.104,10e-4 h 0.208 l 0.416,0.002 0.832,0.003 0.103,10e-4 h 0.104 l 0.208,0.001 0.416,0.001 0.832,0.003 0.104,10e-4 h 0.104 l 0.208,0.001 0.415,0.001 0.832,0.003 1.663,0.004 0.113,0.001 h 0.113 0.226 l 0.451,0.002 0.902,0.002 h 0.113 0.113 l 0.225,0.001 0.452,0.001 0.902,0.002 h 0.113 0.113 l 0.225,0.001 h 0.451 l 0.903,0.002 1.805,0.003 h 0.105 0.105 l 0.211,0.001 h 0.421 l 0.842,0.001 h 0.105 l 0.105,0.001 h 0.211 0.421 l 0.842,0.001 0.105,10e-4 h 0.105 0.211 0.421 l 0.842,0.001 1.684,0.002 h 0.114 0.114 0.228 l 0.456,0.001 h 0.913 0.114 0.114 l 0.228,0.001 h 0.457 0.912 l 0.115,10e-4 h 0.114 0.228 0.456 0.913 l 1.825,0.001 h 0.107 0.107 l 0.213,0.001 h 0.426 0.852 0.107 0.106 0.213 0.426 l 0.853,0.001 h 0.106 0.107 0.213 0.426 0.852 0.107 0.106 0.213 0.427 l 0.852,0.001 h 0.104 0.105 0.209 0.417 0.836 0.104 0.105 0.209 0.418 0.835 0.105 0.104 0.209 0.418 0.835 0.105 0.104 0.209 0.418 l 0.836,0.001 h 0.113 0.113 0.227 0.453 0.906 0.114 0.113 0.226 0.454 0.906 0.113 0.114 0.226 0.453 0.907 0.113 0.113 0.227 0.453 0.906 0.106 0.106 0.211 0.423 0.846 0.106 0.106 0.211 0.423 0.846 0.106 0.106 0.211 0.423 0.846 0.106 0.105 0.212 0.423 0.846 0.114 0.115 0.229 0.458 0.115 0.115 0.229 0.458 0.115 0.114 0.229 0.459 0.916 0.115 0.115 0.229 0.458 0.115 0.114 0.23 0.458 0.114 0.115 0.229 0.459 0.916 0.113 0.112 0.225 0.45 0.113 0.112 0.225 0.45 0.113 0.112 0.225 0.45 0.9 0.113 0.112 0.225 0.45 0.113 0.112 0.225 0.45 0.113 0.112 0.225 0.45 0.9 0.105 0.105 0.21 0.42 0.105 0.105 0.209 0.42 0.105 0.105 0.21 0.42 0.839 0.105 0.105 0.21 0.42 0.105 0.105 0.21 0.419 0.105 0.105 0.21 0.42 0.105 0.105 0.21 0.419 0.114 0.114 0.228 0.455 0.113 0.114 0.228 0.455 0.114 0.114 0.227 0.455 0.114 0.114 0.227 0.456 0.113 0.114 0.228 0.455 0.114 0.113 0.228 0.455 0.114 0.114 0.227 0.114 0.114 0.227 0.114 0.114 0.228 0.455 0.106 0.106 0.213 0.425 0.106 0.106 0.213 0.425 0.106 0.106 0.212 0.107 0.106 0.212 0.107 0.106 0.212 0.425 0.106 0.107 0.212 0.106 0.107 0.212 0.106 0.107 0.212 0.425 0.106 0.106 0.213 0.106 0.106 0.213 0.106 0.106 0.213 0.425 0.104 0.104 0.208 0.104 0.105 0.208 0.104 0.104 0.208 0.417 0.104 0.104 0.209 0.104 0.104 0.208 0.104 0.104 0.209 0.416 0.104 0.105 0.208 0.104 0.104 0.208 0.105 0.104 0.208 0.417 0.104 0.104 0.208 0.104 0.104 0.209 0.104 0.104 0.208 0.104 0.105 0.208 0.113 0.113 0.226 0.113 0.113 0.226 0.113 0.113 0.226 0.113 0.113 0.226 0.113 0.113 0.226 0.113 0.113 0.226 0.113 0.113 0.226 0.113 0.113 0.226 0.113 0.113 0.113 0.113 0.113 0.113 0.226 0.112 0.113 0.113 0.113 0.113 0.113 0.226 0.113 0.113 0.113 0.113 0.113 0.113 0.226 0.113 0.113 0.113 0.113 0.113 0.113 0.226 0.106 0.105 0.106 0.105 0.105 0.106 0.211 0.105 0.106 0.105 0.105 0.106 0.105 0.211 0.106 0.105 0.106 0.105 0.105 0.106 0.211 0.105 0.106 0.105 0.105 0.106 0.105 0.106 0.105 0.106 0.105 0.105 0.106 0.105 0.106 0.105 0.106 0.105 0.106 0.105 0.105 0.106 0.105 0.106 0.105 0.106 0.105 0.105 0.106 0.105 0.106 0.105 0.106 0.105 0.105 0.106 0.105 0.106 0.105 0.106 0.105 0.118 0.117 0.118 0.118 0.235 0.236 0.117 0.118 0.235 0.471 0.118 0.118 0.235 0.471 0.941 0.118 0.118 0.235 0.471 0.118 0.117 0.236 0.471 0.117 0.118 0.235 0.118 0.118 0.235 0.118 0.117 0.118 0.118 0.118 0.117 0.118 0.112"
       style="fill:none;stroke:#d900d9;stroke-width:1px;stroke-opacity:1" />
    <path
       inkscape:connector-curvature="0"
       id="polyline48"
       d="m 82.0373,200.475 h 0.1052 0.1052 0.1051 0.1052 0.1052 0.1052 l 0.1051,0.001 h 0.1052 0.1052 l 0.1052,0.001 h 0.1051 l 0.1052,0.001 0.1052,0.001 h 0.1052 l 0.2103,0.002 h 0.1052 l 0.1052,0.001 0.2103,0.002 0.1052,0.001 0.1052,10e-4 0.2103,0.002 0.1052,0.001 0.1052,0.002 0.2103,0.002 0.4207,0.006 0.1052,0.001 0.1051,0.002 0.2104,0.003 0.4207,0.008 0.1052,0.002 0.1051,0.002 0.2104,0.004 0.4207,0.008 0.1052,0.003 0.1051,0.002 0.2104,0.005 0.4207,0.01 0.8414,0.023 0.114,0.003 0.114,0.004 0.2281,0.007 0.456,0.014 0.9122,0.032 0.114,0.004 0.1141,0.004 0.228,0.009 0.4561,0.018 0.9122,0.039 0.114,0.005 0.114,0.005 0.228,0.01 0.4561,0.022 0.9122,0.046 1.8243,0.102 0.1065,0.006 0.1065,0.007 0.2129,0.013 0.4258,0.026 0.8518,0.055 1.7034,0.12 0.1065,0.008 0.1064,0.008 0.213,0.016 0.4254,0.033 0.852,0.067 1.704,0.143 0.104,0.009 0.104,0.009 0.209,0.019 0.418,0.038 0.835,0.077 1.67,0.163 3.34,0.358 0.113,0.012 0.113,0.013 0.227,0.026 0.452,0.053 0.906,0.107 1.812,0.224 3.623,0.484 0.106,0.015 0.105,0.014 0.212,0.03 0.422,0.06 0.846,0.122 1.69,0.251 3.382,0.53 7.329,1.27 7.195,1.39 6.712,1.404 7.277,1.619 6.795,1.578 6.66,1.591 7.227,1.751 6.743,1.638 7.31,1.758 7.175,1.687 6.693,1.523 7.258,1.581 6.775,1.397 7.341,1.416 7.207,1.284 6.724,1.098 7.289,1.079 6.807,0.9 6.672,0.785 7.239,0.745 6.756,0.601 0.114,0.009 0.114,0.01 0.229,0.018 0.458,0.037 0.915,0.073 1.83,0.142 3.661,0.264 0.112,0.008 0.113,0.008 0.224,0.015 0.449,0.031 0.899,0.06 1.797,0.116 3.594,0.216 0.105,0.006 0.104,0.006 0.21,0.011 0.419,0.024 0.838,0.046 1.676,0.09 3.352,0.166 0.114,0.006 0.113,0.005 0.227,0.011 0.455,0.021 0.909,0.041 1.817,0.079 3.635,0.146 0.106,0.004 0.107,0.004 0.212,0.007 0.424,0.016 0.848,0.031 1.697,0.059 3.393,0.108 0.104,0.003 0.104,0.003 0.208,0.006 0.416,0.013 0.832,0.023 1.663,0.046 0.104,0.003 0.104,0.003 0.208,0.005 0.415,0.011 0.832,0.021 1.663,0.041 0.113,0.002 0.113,0.003 0.226,0.005 0.451,0.011 0.902,0.02 1.805,0.038 0.113,0.002 0.113,0.003 0.225,0.004 0.451,0.009 0.903,0.018 1.805,0.033 0.105,0.002 0.105,0.002 0.211,0.003 0.421,0.008 0.842,0.014 1.684,0.027 0.105,10e-4 0.105,0.002 0.211,0.003 0.421,0.006 0.842,0.013 1.684,0.023 0.114,10e-4 0.114,0.002 0.228,0.003 0.456,0.005 0.913,0.012 1.825,0.021 0.115,0.001 0.114,0.002 0.228,0.002 0.456,0.005 0.913,0.01 1.825,0.018 0.107,0.001 0.107,10e-4 0.213,0.001 0.426,0.004 0.852,0.008 1.705,0.014 0.106,0.001 0.107,0.001 0.213,10e-4 0.426,0.003 0.852,0.007 1.705,0.011 0.104,0.001 0.105,0.001 0.209,10e-4 0.417,0.003 0.836,0.005 1.671,0.009 0.105,10e-4 0.104,0.001 0.209,0.001 0.418,0.002 0.835,0.004 1.672,0.008 h 0.113 l 0.113,0.001 0.227,10e-4 0.453,0.002 0.906,0.004 1.813,0.007 h 0.113 0.114 l 0.226,0.001 0.453,0.002 0.907,0.003 1.812,0.005 h 0.106 l 0.106,0.001 h 0.211 l 0.423,0.001 0.846,0.003 h 0.106 0.106 l 0.211,0.001 0.423,0.001 0.846,0.002 h 0.106 0.106 l 0.211,0.001 h 0.423 l 0.846,0.002 1.692,0.003 0.114,0.001 h 0.115 0.229 l 0.458,10e-4 0.917,0.001 0.115,0.001 h 0.114 0.229 l 0.459,0.001 0.916,0.001 h 0.115 0.115 l 0.229,0.001 h 0.458 l 0.917,10e-4 1.833,0.002 h 0.113 0.112 l 0.225,0.001 h 0.45 l 0.9,0.001 h 0.113 0.112 0.225 0.45 l 0.9,0.001 h 0.113 0.112 0.225 l 0.45,10e-4 h 0.9 l 1.8,0.001 h 0.105 0.105 0.21 l 0.42,0.001 h 0.839 0.105 0.105 0.21 0.42 l 0.839,0.001 h 0.105 0.105 0.21 0.42 0.839 0.105 0.105 0.21 0.42 l 0.839,0.001 h 0.114 0.114 0.228 0.455 0.91 0.114 0.114 0.227 0.455 0.911 0.113 0.114 0.228 l 0.455,0.001 h 0.114 0.113 0.228 0.455 0.114 0.114 0.227 0.455 0.911 0.106 0.106 0.213 0.425 0.106 0.106 0.213 0.425 0.106 0.106 0.212 0.425 0.85 0.106 0.107 0.212 0.425 0.106 0.107 0.212 0.425 0.106 0.106 0.213 0.425 0.85 0.104 0.104 0.208 0.417 0.104 0.104 0.208 0.417 0.104 0.104 0.209 0.416 0.833 0.104 0.105 0.208 0.416 0.105 0.104 0.208 0.417 0.104 0.104 0.208 0.417 0.104 0.104 0.208 0.417 0.113 0.113 0.226 0.452 0.113 0.113 0.226 0.452 0.113 0.113 0.226 0.113 0.113 0.226 0.113 0.113 0.226 0.452 0.113 0.113 0.226 0.113 0.113 0.226 0.112 0.113 0.226 0.452 0.113 0.113 0.226 0.113 0.113 0.226 0.113 0.113 0.226 0.452 0.106 0.105 0.211 0.105 0.106 0.211 0.105 0.106 0.21 0.422 0.106 0.105 0.211 0.105 0.106 0.211 0.105 0.106 0.21 0.106 0.105 0.211 0.106 0.105 0.211 0.105 0.106 0.211 0.105 0.106 0.21 0.106 0.105 0.211 0.106 0.105 0.105 0.106 0.105 0.106 0.211 0.105 0.105 0.106 0.105 0.106 0.105 0.211 0.118 0.117 0.118 0.118 0.118 0.117 0.118 0.118 0.117 0.118 0.118 0.117 0.118 0.118 0.118 0.117 0.118 0.118 0.117 0.118 0.118 0.117 0.118 0.118 0.118 0.117 0.118 0.118 0.117 0.118 0.118 0.117 0.118 0.118 0.117 0.118 0.118 0.118 0.117 0.118 0.118 0.117 0.118 0.118 0.117 0.118 0.118 0.118 0.117 0.118 0.118 0.117 0.118 0.118 0.117 0.118 0.118 0.117 0.118 0.118 0.118 0.117 0.118 0.112"
       style="fill:none;stroke:#d900d9;stroke-width:1px;stroke-opacity:1" />
  </g>
  <g
     id="g57"
     clip-path="url(#cp5)"
     transform="translate(-62,7)">
    <clipPath
       id="cp5">
      <polygon
         id="polygon52"
         points="434,13 74,13 74,251 434,251 " />
    </clipPath>
    <path
       inkscape:connector-curvature="0"
       id="polyline55"
       d="m 82.0373,234.663 v -4"
       style="fill:none;stroke:#000000;stroke-width:1.78606999px;stroke-opacity:1" />
  </g>
  <g
     id="g64"
     clip-path="url(#cp6)"
     transform="translate(13.537313,244.66338)">
    <clipPath
       id="cp6">
      <polygon
         id="polygon59"
         points="14.4627,-0.663385 -0.537313,-0.663385 -0.537313,13.3366 14.4627,13.3366 " />
    </clipPath>
    <g
       id="text62"
       style="font-size:10px;font-family:'Times New Roman';fill:#000000"
       aria-label="0.0">
      <path
         inkscape:connector-curvature="0"
         id="path1190"
         style="font-size:10px;font-family:'Times New Roman';fill:#000000"
         d="m 0.36132813,6.7285156 q 0,-1.1328125 0.34179687,-1.9482422 0.3417969,-0.8203125 0.9082031,-1.2207031 0.4394532,-0.3173828 0.9082032,-0.3173828 0.7617187,0 1.3671875,0.7763672 0.7568359,0.961914 0.7568359,2.6074219 0,1.1523437 -0.3320313,1.9580078 -0.3320312,0.805664 -0.8496093,1.171875 -0.5126953,0.3613286 -0.991211,0.3613286 -0.9472656,0 -1.57714841,-1.1181646 Q 0.36132813,8.0566406 0.36132813,6.7285156 Z M 1.3183594,6.8505859 q 0,1.3671875 0.336914,2.2314454 0.2783203,0.727539 0.8300782,0.727539 0.2636718,0 0.546875,-0.234375 0.2832031,-0.2392578 0.4296875,-0.7958984 0.2246093,-0.8398438 0.2246093,-2.3681641 0,-1.1328125 -0.234375,-1.8896484 Q 3.2763672,3.9599609 2.9980469,3.7255859 2.7978516,3.5644531 2.5146484,3.5644531 q -0.3320312,0 -0.5908203,0.2978516 Q 1.5722656,4.2675781 1.4453125,5.1367187 1.3183594,6.0058594 1.3183594,6.8505859 Z" />
      <path
         inkscape:connector-curvature="0"
         id="path1192"
         style="font-size:10px;font-family:'Times New Roman';fill:#000000"
         d="m 6.25,9.0527344 q 0.2294922,0 0.3857422,0.1611328 0.15625,0.15625 0.15625,0.3808594 0,0.2246093 -0.1611328,0.3857422 Q 6.4746094,10.136719 6.25,10.136719 q -0.2246094,0 -0.3857422,-0.1562502 -0.15625,-0.1611329 -0.15625,-0.3857422 0,-0.2294922 0.15625,-0.3857422 Q 6.0253906,9.0527344 6.25,9.0527344 Z" />
      <path
         inkscape:connector-curvature="0"
         id="path1194"
         style="font-size:10px;font-family:'Times New Roman';fill:#000000"
         d="m 7.8613281,6.7285156 q 0,-1.1328125 0.3417969,-1.9482422 0.3417969,-0.8203125 0.9082031,-1.2207031 0.4394532,-0.3173828 0.9082029,-0.3173828 0.761719,0 1.367188,0.7763672 0.756836,0.961914 0.756836,2.6074219 0,1.1523437 -0.332032,1.9580078 -0.332031,0.805664 -0.849609,1.171875 -0.512695,0.3613286 -0.9912109,0.3613286 -0.9472656,0 -1.5771484,-1.1181646 Q 7.8613281,8.0566406 7.8613281,6.7285156 Z m 0.9570313,0.1220703 q 0,1.3671875 0.336914,2.2314454 0.2783204,0.727539 0.8300782,0.727539 0.2636714,0 0.5468754,-0.234375 0.283203,-0.2392578 0.429687,-0.7958984 0.224609,-0.8398438 0.224609,-2.3681641 0,-1.1328125 -0.234375,-1.8896484 -0.175781,-0.5615235 -0.454101,-0.7958985 -0.200195,-0.1611328 -0.483399,-0.1611328 -0.3320308,0 -0.5908199,0.2978516 Q 9.0722656,4.2675781 8.9453125,5.1367187 8.8183594,6.0058594 8.8183594,6.8505859 Z" />
    </g>
  </g>
  <g
     id="g71"
     clip-path="url(#cp7)"
     transform="translate(-62,7)">
    <clipPath
       id="cp7">
      <polygon
         id="polygon66"
         points="434,13 74,13 74,251 434,251 " />
    </clipPath>
    <path
       inkscape:connector-curvature="0"
       id="polyline69"
       d="m 103.869,234.663 v -2.4"
       style="fill:none;stroke:#000000;stroke-width:1.78606999px;stroke-opacity:1" />
  </g>
  <g
     id="g78"
     clip-path="url(#cp8)"
     transform="translate(-62,7)">
    <clipPath
       id="cp8">
      <polygon
         id="polygon73"
         points="434,13 74,13 74,251 434,251 " />
    </clipPath>
    <path
       inkscape:connector-curvature="0"
       id="polyline76"
       d="m 125.7,234.663 v -2.4"
       style="fill:none;stroke:#000000;stroke-width:1.78606999px;stroke-opacity:1" />
  </g>
  <g
     id="g85"
     clip-path="url(#cp9)"
     transform="translate(-62,7)">
    <clipPath
       id="cp9">
      <polygon
         id="polygon80"
         points="434,13 74,13 74,251 434,251 " />
    </clipPath>
    <path
       inkscape:connector-curvature="0"
       id="polyline83"
       d="m 147.531,234.663 v -2.4"
       style="fill:none;stroke:#000000;stroke-width:1.78606999px;stroke-opacity:1" />
  </g>
  <g
     id="g92"
     clip-path="url(#cp10)"
     transform="translate(-62,7)">
    <clipPath
       id="cp10">
      <polygon
         id="polygon87"
         points="434,13 74,13 74,251 434,251 " />
    </clipPath>
    <path
       inkscape:connector-curvature="0"
       id="polyline90"
       d="m 169.363,234.663 v -2.4"
       style="fill:none;stroke:#000000;stroke-width:1.78606999px;stroke-opacity:1" />
  </g>
  <g
     id="g99"
     clip-path="url(#cp11)"
     transform="translate(-62,7)">
    <clipPath
       id="cp11">
      <polygon
         id="polygon94"
         points="434,13 74,13 74,251 434,251 " />
    </clipPath>
    <path
       inkscape:connector-curvature="0"
       id="polyline97"
       d="m 191.194,234.663 v -4"
       style="fill:none;stroke:#000000;stroke-width:1.78606999px;stroke-opacity:1" />
  </g>
  <g
     id="g106"
     clip-path="url(#cp12)"
     transform="translate(122.69385,244.66338)">
    <clipPath
       id="cp12">
      <polygon
         id="polygon101"
         points="14.3062,-0.663385 -0.69385,-0.663385 -0.69385,13.3366 14.3062,13.3366 " />
    </clipPath>
    <g
       id="text104"
       style="font-size:10px;font-family:'Times New Roman';fill:#000000"
       aria-label="0.5">
      <path
         inkscape:connector-curvature="0"
         id="path1202"
         style="font-size:10px;font-family:'Times New Roman';fill:#000000"
         d="m 0.36132813,6.7285156 q 0,-1.1328125 0.34179687,-1.9482422 0.3417969,-0.8203125 0.9082031,-1.2207031 0.4394532,-0.3173828 0.9082032,-0.3173828 0.7617187,0 1.3671875,0.7763672 0.7568359,0.961914 0.7568359,2.6074219 0,1.1523437 -0.3320313,1.9580078 -0.3320312,0.805664 -0.8496093,1.171875 -0.5126953,0.3613286 -0.991211,0.3613286 -0.9472656,0 -1.57714841,-1.1181646 Q 0.36132813,8.0566406 0.36132813,6.7285156 Z M 1.3183594,6.8505859 q 0,1.3671875 0.336914,2.2314454 0.2783203,0.727539 0.8300782,0.727539 0.2636718,0 0.546875,-0.234375 0.2832031,-0.2392578 0.4296875,-0.7958984 0.2246093,-0.8398438 0.2246093,-2.3681641 0,-1.1328125 -0.234375,-1.8896484 Q 3.2763672,3.9599609 2.9980469,3.7255859 2.7978516,3.5644531 2.5146484,3.5644531 q -0.3320312,0 -0.5908203,0.2978516 Q 1.5722656,4.2675781 1.4453125,5.1367187 1.3183594,6.0058594 1.3183594,6.8505859 Z" />
      <path
         inkscape:connector-curvature="0"
         id="path1204"
         style="font-size:10px;font-family:'Times New Roman';fill:#000000"
         d="m 6.25,9.0527344 q 0.2294922,0 0.3857422,0.1611328 0.15625,0.15625 0.15625,0.3808594 0,0.2246093 -0.1611328,0.3857422 Q 6.4746094,10.136719 6.25,10.136719 q -0.2246094,0 -0.3857422,-0.1562502 -0.15625,-0.1611329 -0.15625,-0.3857422 0,-0.2294922 0.15625,-0.3857422 Q 6.0253906,9.0527344 6.25,9.0527344 Z" />
      <path
         inkscape:connector-curvature="0"
         id="path1206"
         style="font-size:10px;font-family:'Times New Roman';fill:#000000"
         d="M 11.84082,3.3789063 11.459961,4.2089844 H 9.4677734 L 9.0332031,5.0976562 q 1.2939449,0.1904297 2.0507809,0.9619141 0.649414,0.6640625 0.649414,1.5625 0,0.522461 -0.214843,0.9667969 -0.209961,0.4443359 -0.532227,0.7568359 -0.322265,0.3125 -0.717773,0.5029297 -0.5615237,0.2685552 -1.1523441,0.2685552 -0.5957031,0 -0.8691406,-0.2001958 -0.2685547,-0.2050781 -0.2685547,-0.4492188 0,-0.1367187 0.1123047,-0.2392578 0.1123047,-0.1074218 0.2832031,-0.1074218 0.1269532,0 0.2197266,0.039063 0.097656,0.039063 0.3271484,0.2001953 0.366211,0.2539062 0.7421875,0.2539062 0.5712891,0 1.0009771,-0.4296875 0.43457,-0.4345703 0.43457,-1.0546875 0,-0.6005859 -0.385742,-1.1181641 Q 10.327148,6.4892578 9.6484375,6.2060547 9.1162109,5.9863281 8.1982422,5.9521484 L 9.4677734,3.3789063 Z" />
    </g>
  </g>
  <g
     id="g113"
     clip-path="url(#cp13)"
     transform="translate(-62,7)">
    <clipPath
       id="cp13">
      <polygon
         id="polygon108"
         points="434,13 74,13 74,251 434,251 " />
    </clipPath>
    <path
       inkscape:connector-curvature="0"
       id="polyline111"
       d="m 213.025,234.663 v -2.4"
       style="fill:none;stroke:#000000;stroke-width:1.78606999px;stroke-opacity:1" />
  </g>
  <g
     id="g120"
     clip-path="url(#cp14)"
     transform="translate(-62,7)">
    <clipPath
       id="cp14">
      <polygon
         id="polygon115"
         points="434,13 74,13 74,251 434,251 " />
    </clipPath>
    <path
       inkscape:connector-curvature="0"
       id="polyline118"
       d="m 234.856,234.663 v -2.4"
       style="fill:none;stroke:#000000;stroke-width:1.78606999px;stroke-opacity:1" />
  </g>
  <g
     id="g127"
     clip-path="url(#cp15)"
     transform="translate(-62,7)">
    <clipPath
       id="cp15">
      <polygon
         id="polygon122"
         points="434,13 74,13 74,251 434,251 " />
    </clipPath>
    <path
       inkscape:connector-curvature="0"
       id="polyline125"
       d="m 256.688,234.663 v -2.4"
       style="fill:none;stroke:#000000;stroke-width:1.78606999px;stroke-opacity:1" />
  </g>
  <g
     id="g134"
     clip-path="url(#cp16)"
     transform="translate(-62,7)">
    <clipPath
       id="cp16">
      <polygon
         id="polygon129"
         points="434,13 74,13 74,251 434,251 " />
    </clipPath>
    <path
       inkscape:connector-curvature="0"
       id="polyline132"
       d="m 278.519,234.663 v -2.4"
       style="fill:none;stroke:#000000;stroke-width:1.78606999px;stroke-opacity:1" />
  </g>
  <g
     id="g141"
     clip-path="url(#cp17)"
     transform="translate(-62,7)">
    <clipPath
       id="cp17">
      <polygon
         id="polygon136"
         points="434,13 74,13 74,251 434,251 " />
    </clipPath>
    <path
       inkscape:connector-curvature="0"
       id="polyline139"
       d="m 300.35,234.663 v -4"
       style="fill:none;stroke:#000000;stroke-width:1.78606999px;stroke-opacity:1" />
  </g>
  <g
     id="g148"
     clip-path="url(#cp18)"
     transform="translate(231.85039,244.66338)">
    <clipPath
       id="cp18">
      <polygon
         id="polygon143"
         points="14.1496,-0.663385 -0.850386,-0.663385 -0.850386,13.3366 14.1496,13.3366 " />
    </clipPath>
    <g
       id="text146"
       style="font-size:10px;font-family:'Times New Roman';fill:#000000"
       aria-label="1.0">
      <path
         inkscape:connector-curvature="0"
         id="path1214"
         style="font-size:10px;font-family:'Times New Roman';fill:#000000"
         d="M 1.171875,4.0283203 2.7832031,3.2421875 h 0.1611328 v 5.5908203 q 0,0.5566406 0.043945,0.6933594 0.048828,0.1367187 0.1953125,0.2099609 0.1464843,0.073242 0.5957031,0.083008 V 10 H 1.2890625 V 9.8193359 q 0.46875,-0.00977 0.6054687,-0.078125 Q 2.03125,9.6679688 2.0849609,9.5507813 2.1386719,9.4287109 2.1386719,8.8330078 V 5.2587891 q 0,-0.7226563 -0.048828,-0.9277344 Q 2.0556641,4.1748047 1.9628906,4.1015625 1.875,4.0283203 1.7480469,4.0283203 q -0.1806641,0 -0.5029297,0.1513672 z" />
      <path
         inkscape:connector-curvature="0"
         id="path1216"
         style="font-size:10px;font-family:'Times New Roman';fill:#000000"
         d="m 6.25,9.0527344 q 0.2294922,0 0.3857422,0.1611328 0.15625,0.15625 0.15625,0.3808594 0,0.2246093 -0.1611328,0.3857422 Q 6.4746094,10.136719 6.25,10.136719 q -0.2246094,0 -0.3857422,-0.1562502 -0.15625,-0.1611329 -0.15625,-0.3857422 0,-0.2294922 0.15625,-0.3857422 Q 6.0253906,9.0527344 6.25,9.0527344 Z" />
      <path
         inkscape:connector-curvature="0"
         id="path1218"
         style="font-size:10px;font-family:'Times New Roman';fill:#000000"
         d="m 7.8613281,6.7285156 q 0,-1.1328125 0.3417969,-1.9482422 0.3417969,-0.8203125 0.9082031,-1.2207031 0.4394532,-0.3173828 0.9082029,-0.3173828 0.761719,0 1.367188,0.7763672 0.756836,0.961914 0.756836,2.6074219 0,1.1523437 -0.332032,1.9580078 -0.332031,0.805664 -0.849609,1.171875 -0.512695,0.3613286 -0.9912109,0.3613286 -0.9472656,0 -1.5771484,-1.1181646 Q 7.8613281,8.0566406 7.8613281,6.7285156 Z m 0.9570313,0.1220703 q 0,1.3671875 0.336914,2.2314454 0.2783204,0.727539 0.8300782,0.727539 0.2636714,0 0.5468754,-0.234375 0.283203,-0.2392578 0.429687,-0.7958984 0.224609,-0.8398438 0.224609,-2.3681641 0,-1.1328125 -0.234375,-1.8896484 -0.175781,-0.5615235 -0.454101,-0.7958985 -0.200195,-0.1611328 -0.483399,-0.1611328 -0.3320308,0 -0.5908199,0.2978516 Q 9.0722656,4.2675781 8.9453125,5.1367187 8.8183594,6.0058594 8.8183594,6.8505859 Z" />
    </g>
  </g>
  <g
     id="g155"
     clip-path="url(#cp19)"
     transform="translate(-62,7)">
    <clipPath
       id="cp19">
      <polygon
         id="polygon150"
         points="434,13 74,13 74,251 434,251 " />
    </clipPath>
    <path
       inkscape:connector-curvature="0"
       id="polyline153"
       d="m 322.182,234.663 v -2.4"
       style="fill:none;stroke:#000000;stroke-width:1.78606999px;stroke-opacity:1" />
  </g>
  <g
     id="g162"
     clip-path="url(#cp20)"
     transform="translate(-62,7)">
    <clipPath
       id="cp20">
      <polygon
         id="polygon157"
         points="434,13 74,13 74,251 434,251 " />
    </clipPath>
    <path
       inkscape:connector-curvature="0"
       id="polyline160"
       d="m 344.013,234.663 v -2.4"
       style="fill:none;stroke:#000000;stroke-width:1.78606999px;stroke-opacity:1" />
  </g>
  <g
     id="g169"
     clip-path="url(#cp21)"
     transform="translate(-62,7)">
    <clipPath
       id="cp21">
      <polygon
         id="polygon164"
         points="434,13 74,13 74,251 434,251 " />
    </clipPath>
    <path
       inkscape:connector-curvature="0"
       id="polyline167"
       d="m 365.844,234.663 v -2.4"
       style="fill:none;stroke:#000000;stroke-width:1.78606999px;stroke-opacity:1" />
  </g>
  <g
     id="g176"
     clip-path="url(#cp22)"
     transform="translate(-62,7)">
    <clipPath
       id="cp22">
      <polygon
         id="polygon171"
         points="434,13 74,13 74,251 434,251 " />
    </clipPath>
    <path
       inkscape:connector-curvature="0"
       id="polyline174"
       d="m 387.676,234.663 v -2.4"
       style="fill:none;stroke:#000000;stroke-width:1.78606999px;stroke-opacity:1" />
  </g>
  <g
     id="g183"
     clip-path="url(#cp23)"
     transform="translate(-62,7)">
    <clipPath
       id="cp23">
      <polygon
         id="polygon178"
         points="434,13 74,13 74,251 434,251 " />
    </clipPath>
    <path
       inkscape:connector-curvature="0"
       id="polyline181"
       d="m 409.507,234.663 v -4"
       style="fill:none;stroke:#000000;stroke-width:1.78606999px;stroke-opacity:1" />
  </g>
  <g
     id="g190"
     clip-path="url(#cp24)"
     transform="translate(341.00692,244.66338)">
    <clipPath
       id="cp24">
      <polygon
         id="polygon185"
         points="13.9931,-0.663385 -1.00692,-0.663385 -1.00692,13.3366 13.9931,13.3366 " />
    </clipPath>
    <g
       id="text188"
       style="font-size:10px;font-family:'Times New Roman';fill:#000000"
       aria-label="1.5">
      <path
         inkscape:connector-curvature="0"
         id="path1226"
         style="font-size:10px;font-family:'Times New Roman';fill:#000000"
         d="M 1.171875,4.0283203 2.7832031,3.2421875 h 0.1611328 v 5.5908203 q 0,0.5566406 0.043945,0.6933594 0.048828,0.1367187 0.1953125,0.2099609 0.1464843,0.073242 0.5957031,0.083008 V 10 H 1.2890625 V 9.8193359 q 0.46875,-0.00977 0.6054687,-0.078125 Q 2.03125,9.6679688 2.0849609,9.5507813 2.1386719,9.4287109 2.1386719,8.8330078 V 5.2587891 q 0,-0.7226563 -0.048828,-0.9277344 Q 2.0556641,4.1748047 1.9628906,4.1015625 1.875,4.0283203 1.7480469,4.0283203 q -0.1806641,0 -0.5029297,0.1513672 z" />
      <path
         inkscape:connector-curvature="0"
         id="path1228"
         style="font-size:10px;font-family:'Times New Roman';fill:#000000"
         d="m 6.25,9.0527344 q 0.2294922,0 0.3857422,0.1611328 0.15625,0.15625 0.15625,0.3808594 0,0.2246093 -0.1611328,0.3857422 Q 6.4746094,10.136719 6.25,10.136719 q -0.2246094,0 -0.3857422,-0.1562502 -0.15625,-0.1611329 -0.15625,-0.3857422 0,-0.2294922 0.15625,-0.3857422 Q 6.0253906,9.0527344 6.25,9.0527344 Z" />
      <path
         inkscape:connector-curvature="0"
         id="path1230"
         style="font-size:10px;font-family:'Times New Roman';fill:#000000"
         d="M 11.84082,3.3789063 11.459961,4.2089844 H 9.4677734 L 9.0332031,5.0976562 q 1.2939449,0.1904297 2.0507809,0.9619141 0.649414,0.6640625 0.649414,1.5625 0,0.522461 -0.214843,0.9667969 -0.209961,0.4443359 -0.532227,0.7568359 -0.322265,0.3125 -0.717773,0.5029297 -0.5615237,0.2685552 -1.1523441,0.2685552 -0.5957031,0 -0.8691406,-0.2001958 -0.2685547,-0.2050781 -0.2685547,-0.4492188 0,-0.1367187 0.1123047,-0.2392578 0.1123047,-0.1074218 0.2832031,-0.1074218 0.1269532,0 0.2197266,0.039063 0.097656,0.039063 0.3271484,0.2001953 0.366211,0.2539062 0.7421875,0.2539062 0.5712891,0 1.0009771,-0.4296875 0.43457,-0.4345703 0.43457,-1.0546875 0,-0.6005859 -0.385742,-1.1181641 Q 10.327148,6.4892578 9.6484375,6.2060547 9.1162109,5.9863281 8.1982422,5.9521484 L 9.4677734,3.3789063 Z" />
    </g>
  </g>
  <g
     id="g197"
     clip-path="url(#cp25)"
     transform="translate(-62,7)">
    <clipPath
       id="cp25">
      <polygon
         id="polygon192"
         points="434,13 74,13 74,251 434,251 " />
    </clipPath>
    <path
       inkscape:connector-curvature="0"
       id="polyline195"
       d="m 431.338,234.663 v -2.4"
       style="fill:none;stroke:#000000;stroke-width:1.78606999px;stroke-opacity:1" />
  </g>
  <g
     id="g204"
     clip-path="url(#cp26)"
     transform="translate(-62,7)">
    <clipPath
       id="cp26">
      <polygon
         id="polygon199"
         points="74,251 434,251 434,13 74,13 " />
    </clipPath>
    <path
       inkscape:connector-curvature="0"
       id="polyline202"
       d="M 74.893,234.663 H 432.107"
       style="fill:none;stroke:#000000;stroke-width:1.78606999px;stroke-opacity:1" />
  </g>
  <g
     id="g211"
     clip-path="url(#cp27)"
     transform="translate(-62,7)">
    <clipPath
       id="cp27">
      <polygon
         id="polygon206"
         points="434,13 74,13 74,251 434,251 " />
    </clipPath>
    <path
       inkscape:connector-curvature="0"
       id="polyline209"
       d="m 82.0373,234.663 h 4"
       style="fill:none;stroke:#000000;stroke-width:1.78606999px;stroke-opacity:1" />
  </g>
  <g
     id="g218"
     clip-path="url(#cp28)"
     transform="translate(-62,7)">
    <clipPath
       id="cp28">
      <polygon
         id="polygon213"
         points="434,13 74,13 74,251 434,251 " />
    </clipPath>
    <path
       inkscape:connector-curvature="0"
       id="polyline216"
       d="m 82.0373,221.237 h 2.4"
       style="fill:none;stroke:#000000;stroke-width:1.78606999px;stroke-opacity:1" />
  </g>
  <g
     id="g225"
     clip-path="url(#cp29)"
     transform="translate(-62,7)">
    <clipPath
       id="cp29">
      <polygon
         id="polygon220"
         points="434,13 74,13 74,251 434,251 " />
    </clipPath>
    <path
       inkscape:connector-curvature="0"
       id="polyline223"
       d="m 82.0373,207.812 h 2.4"
       style="fill:none;stroke:#000000;stroke-width:1.78606999px;stroke-opacity:1" />
  </g>
  <g
     id="g232"
     clip-path="url(#cp30)"
     transform="translate(-62,7)">
    <clipPath
       id="cp30">
      <polygon
         id="polygon227"
         points="434,13 74,13 74,251 434,251 " />
    </clipPath>
    <path
       inkscape:connector-curvature="0"
       id="polyline230"
       d="m 82.0373,194.386 h 2.4"
       style="fill:none;stroke:#000000;stroke-width:1.78606999px;stroke-opacity:1" />
  </g>
  <g
     id="g239"
     clip-path="url(#cp31)"
     transform="translate(-62,7)">
    <clipPath
       id="cp31">
      <polygon
         id="polygon234"
         points="434,13 74,13 74,251 434,251 " />
    </clipPath>
    <path
       inkscape:connector-curvature="0"
       id="polyline237"
       d="m 82.0373,180.96 h 4"
       style="fill:none;stroke:#000000;stroke-width:1.78606999px;stroke-opacity:1" />
  </g>
  <g
     id="g246"
     clip-path="url(#cp32)"
     transform="translate(12.037313,181.95968)">
    <clipPath
       id="cp32">
      <polygon
         id="polygon241"
         points="5.96269,-0.959684 -0.0373134,-0.959684 -0.0373134,13.0403 5.96269,13.0403 " />
    </clipPath>
    <g
       id="text244"
       style="font-size:10px;font-family:'Times New Roman';fill:#000000"
       aria-label="2">
      <path
         inkscape:connector-curvature="0"
         id="path1240"
         style="font-size:10px;font-family:'Times New Roman';fill:#000000"
         d="M 4.5849609,8.7255859 4.1210937,10 H 0.21484375 V 9.8193359 Q 1.9384766,8.2470703 2.6416016,7.2509766 q 0.703125,-0.9960938 0.703125,-1.8212891 0,-0.6298828 -0.3857422,-1.0351563 -0.3857422,-0.4052734 -0.9228516,-0.4052734 -0.4882812,0 -0.8789062,0.2880859 -0.38574223,0.2832032 -0.5712891,0.834961 H 0.40527344 Q 0.52734375,4.2089844 1.0302734,3.7255859 1.5380859,3.2421875 2.2949219,3.2421875 q 0.805664,0 1.3427734,0.5175781 0.5419922,0.5175781 0.5419922,1.2207031 0,0.5029297 -0.234375,1.0058594 -0.3613281,0.7910156 -1.171875,1.6748047 -1.2158203,1.328125 -1.5185547,1.6015625 h 1.7285156 q 0.5273438,0 0.7373047,-0.039063 0.2148438,-0.039063 0.3857422,-0.15625 Q 4.2773437,8.945312 4.4042969,8.7255854 Z" />
    </g>
  </g>
  <g
     id="g253"
     clip-path="url(#cp33)"
     transform="translate(-62,7)">
    <clipPath
       id="cp33">
      <polygon
         id="polygon248"
         points="434,13 74,13 74,251 434,251 " />
    </clipPath>
    <path
       inkscape:connector-curvature="0"
       id="polyline251"
       d="m 82.0373,167.534 h 2.4"
       style="fill:none;stroke:#000000;stroke-width:1.78606999px;stroke-opacity:1" />
  </g>
  <g
     id="g260"
     clip-path="url(#cp34)"
     transform="translate(-62,7)">
    <clipPath
       id="cp34">
      <polygon
         id="polygon255"
         points="434,13 74,13 74,251 434,251 " />
    </clipPath>
    <path
       inkscape:connector-curvature="0"
       id="polyline258"
       d="m 82.0373,154.108 h 2.4"
       style="fill:none;stroke:#000000;stroke-width:1.78606999px;stroke-opacity:1" />
  </g>
  <g
     id="g267"
     clip-path="url(#cp35)"
     transform="translate(-62,7)">
    <clipPath
       id="cp35">
      <polygon
         id="polygon262"
         points="434,13 74,13 74,251 434,251 " />
    </clipPath>
    <path
       inkscape:connector-curvature="0"
       id="polyline265"
       d="m 82.0373,140.682 h 2.4"
       style="fill:none;stroke:#000000;stroke-width:1.78606999px;stroke-opacity:1" />
  </g>
  <g
     id="g274"
     clip-path="url(#cp36)"
     transform="translate(-62,7)">
    <clipPath
       id="cp36">
      <polygon
         id="polygon269"
         points="434,13 74,13 74,251 434,251 " />
    </clipPath>
    <path
       inkscape:connector-curvature="0"
       id="polyline272"
       d="m 82.0373,127.256 h 4"
       style="fill:none;stroke:#000000;stroke-width:1.78606999px;stroke-opacity:1" />
  </g>
  <g
     id="g281"
     clip-path="url(#cp37)"
     transform="translate(12.037313,128.25598)">
    <clipPath
       id="cp37">
      <polygon
         id="polygon276"
         points="5.96269,-1.25598 -0.0373134,-1.25598 -0.0373134,12.744 5.96269,12.744 " />
    </clipPath>
    <g
       id="text279"
       style="font-size:10px;font-family:'Times New Roman';fill:#000000"
       aria-label="4">
      <path
         inkscape:connector-curvature="0"
         id="path1247"
         style="font-size:10px;font-family:'Times New Roman';fill:#000000"
         d="M 4.6533203,7.5585937 V 8.2519531 H 3.7646484 V 10 H 2.9589844 V 8.2519531 H 0.15625 v -0.625 L 3.2275391,3.2421875 h 0.5371093 v 4.3164062 z m -1.6943359,0 V 4.2724609 L 0.63476562,7.5585937 Z" />
    </g>
  </g>
  <g
     id="g288"
     clip-path="url(#cp38)"
     transform="translate(-62,7)">
    <clipPath
       id="cp38">
      <polygon
         id="polygon283"
         points="434,13 74,13 74,251 434,251 " />
    </clipPath>
    <path
       inkscape:connector-curvature="0"
       id="polyline286"
       d="m 82.0373,113.83 h 2.4"
       style="fill:none;stroke:#000000;stroke-width:1.78606999px;stroke-opacity:1" />
  </g>
  <g
     id="g295"
     clip-path="url(#cp39)"
     transform="translate(-62,7)">
    <clipPath
       id="cp39">
      <polygon
         id="polygon290"
         points="434,13 74,13 74,251 434,251 " />
    </clipPath>
    <path
       inkscape:connector-curvature="0"
       id="polyline293"
       d="m 82.0373,100.404 h 2.4"
       style="fill:none;stroke:#000000;stroke-width:1.78606999px;stroke-opacity:1" />
  </g>
  <g
     id="g302"
     clip-path="url(#cp40)"
     transform="translate(-62,7)">
    <clipPath
       id="cp40">
      <polygon
         id="polygon297"
         points="434,13 74,13 74,251 434,251 " />
    </clipPath>
    <path
       inkscape:connector-curvature="0"
       id="polyline300"
       d="m 82.0373,86.9782 h 2.4"
       style="fill:none;stroke:#000000;stroke-width:1.78606999px;stroke-opacity:1" />
  </g>
  <g
     id="g309"
     clip-path="url(#cp41)"
     transform="translate(-62,7)">
    <clipPath
       id="cp41">
      <polygon
         id="polygon304"
         points="434,13 74,13 74,251 434,251 " />
    </clipPath>
    <path
       inkscape:connector-curvature="0"
       id="polyline307"
       d="m 82.0373,73.5523 h 4"
       style="fill:none;stroke:#000000;stroke-width:1.78606999px;stroke-opacity:1" />
  </g>
  <g
     id="g316"
     clip-path="url(#cp42)"
     transform="translate(12.037313,74.55228)">
    <clipPath
       id="cp42">
      <polygon
         id="polygon311"
         points="5.96269,-0.552283 -0.0373134,-0.552283 -0.0373134,13.4477 5.96269,13.4477 " />
    </clipPath>
    <g
       id="text314"
       style="font-size:10px;font-family:'Times New Roman';fill:#000000"
       aria-label="6">
      <path
         inkscape:connector-curvature="0"
         id="path1254"
         style="font-size:10px;font-family:'Times New Roman';fill:#000000"
         d="M 4.4824219,3.2421875 V 3.4228516 Q 3.8378906,3.4863281 3.4277344,3.6816406 3.0224609,3.8720703 2.6220703,4.2675781 2.2265625,4.6630859 1.9628906,5.1513672 1.7041016,5.6347656 1.5283203,6.3037109 2.2314453,5.8203125 2.9394531,5.8203125 q 0.678711,0 1.1767578,0.546875 0.4980469,0.546875 0.4980469,1.40625 0,0.8300781 -0.5029297,1.5136719 -0.6054687,0.8300786 -1.6015625,0.8300786 -0.6787109,0 -1.1523437,-0.4492192 -0.9277344,-0.8740235 -0.9277344,-2.2656251 0,-0.8886718 0.35644531,-1.6894531 Q 1.1425781,4.9121094 1.8017578,4.2919922 2.4658203,3.671875 3.0712891,3.4570313 3.6767578,3.2421875 4.1992187,3.2421875 Z M 1.4453125,6.6601562 q -0.087891,0.6591797 -0.087891,1.0644532 0,0.46875 0.1708984,1.0205078 0.1757813,0.546875 0.5175781,0.8691406 0.2490235,0.2294922 0.6054688,0.2294922 0.4248047,0 0.7568359,-0.4003906 0.3369141,-0.4003906 0.3369141,-1.1425781 0,-0.834961 -0.3320313,-1.4453126 -0.3320312,-0.6103515 -0.9423828,-0.6103515 -0.1855468,0 -0.4003906,0.078125 -0.2099609,0.078125 -0.6249996,0.336914 z" />
    </g>
  </g>
  <g
     id="g323"
     clip-path="url(#cp43)"
     transform="translate(-62,7)">
    <clipPath
       id="cp43">
      <polygon
         id="polygon318"
         points="434,13 74,13 74,251 434,251 " />
    </clipPath>
    <path
       inkscape:connector-curvature="0"
       id="polyline321"
       d="m 82.0373,60.1264 h 2.4"
       style="fill:none;stroke:#000000;stroke-width:1.78606999px;stroke-opacity:1" />
  </g>
  <g
     id="g330"
     clip-path="url(#cp44)"
     transform="translate(-62,7)">
    <clipPath
       id="cp44">
      <polygon
         id="polygon325"
         points="434,13 74,13 74,251 434,251 " />
    </clipPath>
    <path
       inkscape:connector-curvature="0"
       id="polyline328"
       d="m 82.0373,46.7004 h 2.4"
       style="fill:none;stroke:#000000;stroke-width:1.78606999px;stroke-opacity:1" />
  </g>
  <g
     id="g337"
     clip-path="url(#cp45)"
     transform="translate(-62,7)">
    <clipPath
       id="cp45">
      <polygon
         id="polygon332"
         points="434,13 74,13 74,251 434,251 " />
    </clipPath>
    <path
       inkscape:connector-curvature="0"
       id="polyline335"
       d="m 82.0373,33.2745 h 2.4"
       style="fill:none;stroke:#000000;stroke-width:1.78606999px;stroke-opacity:1" />
  </g>
  <g
     id="g344"
     clip-path="url(#cp46)"
     transform="translate(-62,7)">
    <clipPath
       id="cp46">
      <polygon
         id="polygon339"
         points="434,13 74,13 74,251 434,251 " />
    </clipPath>
    <path
       inkscape:connector-curvature="0"
       id="polyline342"
       d="m 82.0373,19.8486 h 4"
       style="fill:none;stroke:#000000;stroke-width:1.78606999px;stroke-opacity:1" />
  </g>
  <g
     id="g351"
     clip-path="url(#cp47)"
     transform="translate(12.037313,20.848583)">
    <clipPath
       id="cp47">
      <polygon
         id="polygon346"
         points="5.96269,-0.848583 -0.0373134,-0.848583 -0.0373134,13.1514 5.96269,13.1514 " />
    </clipPath>
    <g
       id="text349"
       style="font-size:10px;font-family:'Times New Roman';fill:#000000"
       aria-label="8">
      <path
         inkscape:connector-curvature="0"
         id="path1261"
         style="font-size:10px;font-family:'Times New Roman';fill:#000000"
         d="M 1.9189453,6.6650391 Q 1.1328125,6.0205078 0.90332031,5.6298828 0.67871094,5.2392578 0.67871094,4.8193359 q 0,-0.6445312 0.49804686,-1.1083984 0.4980469,-0.46875 1.3232422,-0.46875 0.8007813,0 1.2890625,0.4345703 0.4882812,0.4345703 0.4882812,0.9912109 0,0.3710938 -0.2636718,0.756836 Q 3.75,5.8105469 2.9150391,6.3330078 q 0.859375,0.6640625 1.1376953,1.0449219 0.3710937,0.4980469 0.3710937,1.0498047 0,0.6982422 -0.5322265,1.196289 -0.5322266,0.4931646 -1.3964844,0.4931646 -0.9423828,0 -1.4697266,-0.5908208 -0.41992185,-0.4736328 -0.41992185,-1.0351563 0,-0.4394531 0.29296875,-0.8691406 Q 1.1962891,7.1875 1.9189453,6.6650391 Z M 2.6855469,6.1425781 Q 3.2714844,5.6152344 3.4277344,5.3125 q 0.15625,-0.3076172 0.15625,-0.6933594 0,-0.5126953 -0.288086,-0.8007812 -0.2880859,-0.2929688 -0.7861328,-0.2929688 -0.4980468,0 -0.8105469,0.288086 -0.3125,0.2880859 -0.3125,0.6738281 0,0.2539062 0.1269532,0.5078125 0.1318359,0.2539062 0.3710937,0.4833984 z M 2.1484375,6.8505859 Q 1.7431641,7.1923828 1.5478516,7.5976562 1.3525391,7.9980469 1.3525391,8.4667969 q 0,0.6298828 0.3417968,1.0107422 0.3466797,0.3759765 0.8789063,0.3759765 0.5273437,0 0.8447266,-0.2978515 0.3173828,-0.2978516 0.3173828,-0.7226563 0,-0.3515625 -0.1855469,-0.6298828 Q 3.203125,7.6855469 2.1484375,6.8505859 Z" />
    </g>
  </g>
  <g
     id="g358"
     clip-path="url(#cp48)"
     transform="translate(-62,7)">
    <clipPath
       id="cp48">
      <polygon
         id="polygon353"
         points="434,13 74,13 74,251 434,251 " />
    </clipPath>
    <path
       inkscape:connector-curvature="0"
       id="polyline356"
       d="M 82.0373,234.663 V 13.893"
       style="fill:none;stroke:#000000;stroke-width:1.78606999px;stroke-opacity:1" />
  </g>
  <defs
     id="defs362" />
</svg>
