<?xml version="1.0" encoding="UTF-8" standalone="no"?>
<svg
   xmlns:dc="http://purl.org/dc/elements/1.1/"
   xmlns:cc="http://creativecommons.org/ns#"
   xmlns:rdf="http://www.w3.org/1999/02/22-rdf-syntax-ns#"
   xmlns:svg="http://www.w3.org/2000/svg"
   xmlns="http://www.w3.org/2000/svg"
   xmlns:sodipodi="http://sodipodi.sourceforge.net/DTD/sodipodi-0.dtd"
   xmlns:inkscape="http://www.inkscape.org/namespaces/inkscape"
   version="1.1"
   id="svg515"
   sodipodi:docname="test.svg"
   width="400"
   height="300"
   inkscape:version="0.92.3 (2405546, 2018-03-11)">
  <metadata
     id="metadata519">
    <rdf:RDF>
      <cc:Work
         rdf:about="">
        <dc:format>image/svg+xml</dc:format>
        <dc:type
           rdf:resource="http://purl.org/dc/dcmitype/StillImage" />
        <dc:title></dc:title>
      </cc:Work>
    </rdf:RDF>
  </metadata>
  <sodipodi:namedview
     pagecolor="#ffffff"
     bordercolor="#666666"
     borderopacity="1"
     objecttolerance="10"
     gridtolerance="10"
     guidetolerance="10"
     inkscape:pageopacity="0"
     inkscape:pageshadow="2"
     inkscape:window-width="1920"
     inkscape:window-height="1017"
     id="namedview517"
     showgrid="false"
     inkscape:zoom="1.18"
     inkscape:cx="-62.084129"
     inkscape:cy="38.93921"
     inkscape:window-x="-8"
     inkscape:window-y="-8"
     inkscape:window-maximized="1"
     inkscape:current-layer="svg515" />
  <g
     id="g7"
     clip-path="url(#cp1)"
     transform="translate(-74,-13)">
    <clipPath
       id="cp1">
      <polygon
         id="polygon2"
         points="2.2518e+015,2.2518e+015 2.2518e+015,-2.2518e+015 -2.2518e+015,-2.2518e+015 -2.2518e+015,2.2518e+015 " />
    </clipPath>
    <path
       inkscape:connector-curvature="0"
       id="rect5"
       d="M 74,13 H 474 V 313 H 74 Z"
       style="fill:#ffffff;stroke:none" />
  </g>
  <g
     id="g26"
     clip-path="url(#cp2)"
     transform="translate(-74,-13)">
    <clipPath
       id="cp2">
      <polygon
         id="polygon9"
         points="473,277 473,39 89,39 89,277 " />
    </clipPath>
    <path
       inkscape:connector-curvature="0"
       id="polyline12"
       d="m 90,271.336 h 1.8748 1.8747 3.7495 4.065 4.065 3.795 3.796 3.721 3.721 4.036 4.037 3.767 3.767 1.021 1.02 1.021 1.021 0.51 0.51 0.511 0.51 0.51 0.51 1.021 0.501 0.501 0.251 0.25 0.501 0.251 0.25 0.501 1.002 0.251 0.25 0.501 0.251 0.25 0.501 0.125 0.126 0.25 0.501 1.002 0.117 0.117 0.233 0.468 0.117 0.116 0.234 0.467 0.117 0.117 0.234 0.467 0.935 0.117 0.116 0.234 0.467 0.117 0.117 0.234 0.467 0.117 0.117 0.233 0.468 0.934 0.127 0.127 0.253 0.507 0.127 0.126 0.254 0.506 0.127 0.127 0.253 0.507 1.013 0.127 0.127 0.253 0.507 0.127 0.126 0.254 0.506 0.127 0.127 0.253 0.507 1.013 0.119 0.118 0.237 0.473 0.946 0.118 0.118 0.237 0.473 0.946 0.118 0.119 0.236 0.473 0.946 0.119 0.118 0.237 0.473 0.946 0.116 0.116 0.232 0.463 0.928 0.116 0.116 0.232 0.463 0.928 0.116 0.116 0.232 0.464 0.927 0.116 0.116 0.232 0.464 0.927 0.126 0.126 0.251 0.504 l 1.006,-0.001 h 0.126 0.126 0.251 0.503 1.007 0.126 0.125 0.252 0.503 1.007 0.125 0.126 0.252 0.503 1.006 0.118 0.117 0.235 0.469 0.94 0.117 0.117 0.235 0.47 0.939 0.117 0.117 l 0.235,-10e-4 h 0.47 0.939 1.878 0.127 0.127 0.255 0.509 1.018 l 0.127,-10e-4 h 0.127 0.255 0.509 1.017 0.128 0.127 0.254 0.509 l 1.018,-0.001 h 2.036 0.125 0.125 0.25 l 0.499,-10e-4 h 1 0.125 0.125 0.249 0.5 l 0.999,-0.001 h 0.125 0.125 0.25 0.5 l 0.999,-10e-4 1.998,-0.001 h 0.117 0.116 0.233 l 0.466,-10e-4 h 0.932 0.117 l 0.116,-10e-4 h 0.233 0.466 l 0.932,-0.001 h 0.117 0.116 0.233 l 0.466,-10e-4 h 0.932 l 1.864,-0.002 h 0.126 l 0.127,-10e-4 h 0.252 0.506 l 1.011,-0.002 h 0.126 0.126 0.253 l 0.505,-0.001 1.011,-10e-4 h 0.127 l 0.126,-0.001 h 0.253 l 0.505,-10e-4 1.011,-10e-4 2.021,-0.004 h 0.118 0.118 0.236 l 0.472,-10e-4 0.943,-0.002 1.887,-0.004 h 0.118 l 0.118,-10e-4 h 0.236 l 0.472,-0.001 0.943,-0.003 1.887,-0.005 h 0.128 0.128 l 0.255,-0.001 0.511,-0.002 1.023,-0.003 2.044,-0.006 0.128,-0.001 h 0.128 l 0.255,-10e-4 0.511,-0.002 1.023,-0.004 2.044,-0.009 h 0.126 l 0.125,-0.001 0.251,-10e-4 0.502,-0.002 1.004,-0.005 2.007,-0.011 h 0.126 l 0.125,-0.001 0.251,-10e-4 0.502,-0.003 1.003,-0.006 2.008,-0.013 0.117,-0.001 0.117,-10e-4 0.234,-0.002 0.468,-0.003 0.936,-0.007 1.873,-0.014 0.117,-0.001 0.117,-10e-4 0.234,-0.002 0.468,-0.004 0.937,-0.009 1.873,-0.018 0.126,-10e-4 0.127,-0.001 0.254,-0.003 0.508,-0.005 1.015,-0.011 2.03,-0.023 0.127,-0.002 0.127,-0.002 0.254,-0.003 0.507,-0.006 1.016,-0.013 2.03,-0.029 0.118,-0.002 0.119,-10e-4 0.237,-0.004 0.474,-0.007 0.948,-0.015 1.895,-0.032 0.119,-0.002 0.118,-0.002 0.237,-0.005 0.474,-0.008 0.948,-0.018 1.896,-0.038 0.116,-0.003 0.116,-0.002 0.232,-0.005 0.465,-0.01 0.929,-0.021 1.859,-0.044 0.116,-0.002 0.116,-0.003 0.232,-0.006 0.465,-0.012 0.929,-0.024 1.859,-0.052 0.126,-0.004 0.126,-0.003 0.252,-0.008 0.504,-0.015 1.008,-0.031 2.016,-0.067 0.126,-0.004 0.126,-0.004 0.252,-0.009 0.504,-0.018 1.008,-0.037 2.016,-0.078 0.118,-0.005 0.117,-0.005 0.236,-0.01 0.47,-0.019 0.941,-0.041 1.881,-0.085 0.118,-0.006 0.117,-0.006 0.236,-0.011 0.47,-0.023 0.941,-0.047 1.881,-0.099 0.128,-0.007 0.127,-0.007 0.255,-0.015 0.51,-0.028 1.019,-0.06 2.039,-0.126 0.128,-0.008 0.127,-0.008 0.255,-0.017 0.51,-0.034 1.02,-0.069 2.039,-0.147 0.125,-0.01 0.125,-0.009 0.25,-0.019 0.501,-0.039 1.001,-0.079 2.002,-0.168 0.125,-0.011 0.125,-0.011 0.25,-0.022 0.501,-0.045 1.001,-0.092 2.002,-0.194 0.116,-0.012 0.117,-0.011 0.233,-0.024 0.467,-0.048 0.934,-0.099 1.867,-0.207 0.117,-0.014 0.116,-0.013 0.234,-0.027 0.467,-0.055 0.933,-0.113 1.868,-0.236 0.126,-0.017 0.127,-0.016 0.253,-0.034 0.506,-0.068 1.012,-0.139 2.025,-0.293 0.127,-0.02 0.127,-0.019 0.253,-0.038 0.506,-0.078 1.012,-0.16 2.025,-0.336 0.118,-0.02 0.119,-0.021 0.236,-0.041 0.472,-0.083 0.946,-0.169 1.89,-0.356 0.118,-0.023 0.118,-0.024 0.236,-0.046 0.473,-0.094 0.945,-0.192 1.89,-0.402 0.116,-0.025 0.116,-0.026 0.232,-0.051 0.463,-0.104 0.926,-0.212 1.853,-0.443 0.116,-0.029 0.116,-0.028 0.232,-0.058 0.463,-0.117 0.926,-0.238 1.853,-0.497 0.126,-0.034 0.126,-0.035 0.251,-0.07 0.503,-0.142 1.005,-0.291 2.011,-0.608 4.021,-1.33 0.118,-0.041 0.117,-0.042 0.234,-0.083 0.469,-0.168 0.938,-0.343 1.876,-0.714 3.752,-1.55 0.128,-0.055 0.127,-0.056 0.254,-0.112 0.508,-0.226 1.017,-0.462 2.034,-0.965 4.067,-2.099 0.119,-0.064 0.119,-0.065 0.237,-0.131 0.475,-0.264 0.949,-0.538 1.9,-1.118 3.798,-2.411 0.116,-0.078 0.116,-0.078 0.233,-0.157 0.466,-0.316 0.93,-0.644 1.862,-1.336 3.724,-2.869 0.126,-0.102 0.126,-0.103 0.253,-0.206 0.505,-0.415 1.009,-0.847 2.02,-1.759 4.039,-3.792 0.118,-0.116 0.118,-0.116 0.235,-0.235 0.471,-0.472 0.943,-0.961 1.885,-1.989 3.769,-4.253 0.128,-0.151 0.128,-0.151 0.255,-0.304 0.51,-0.612 1.022,-1.248 2.042,-2.585 4.085,-5.546 0.126,-0.178 0.125,-0.179 0.251,-0.359 0.501,-0.725 1.003,-1.473 2.005,-3.048 4.01,-6.511 7.483,-13.75 8.113,-17.533 7.575,-19.144 7.425,-21.682 8.056,-27.157 7.518,-29.1138 0.131,-0.5424 0.131,-0.5435 0.262,-1.0907 0.525,-2.1963 1.049,-4.4518 2.098,-9.1448 0.131,-0.5824 0.131,-0.5836 0.262,-1.1712 0.525,-2.3577 1.049,-4.778 0.131,-0.6032 0.131,-0.6044 0.262,-1.2129 0.525,-2.4415 0.131,-0.6138 0.131,-0.615 0.262,-1.2341 0.132,-0.619 0.131,-0.6204 0.131,-0.6218 0.131,-0.623"
       style="fill:none;stroke:#3f3d99;stroke-width:1px;stroke-opacity:1" />
    <path
       inkscape:connector-curvature="0"
       id="polyline14"
       d="m 90,268.975 h 1.8748 1.8747 3.7495 4.065 4.065 3.795 3.796 3.721 3.721 4.036 4.037 3.767 3.767 2.041 2.042 1.02 1.021 0.51 0.51 1.021 0.501 0.501 0.501 0.501 0.501 0.501 1.002 0.251 0.25 0.501 0.251 0.25 0.501 0.251 0.25 0.501 1.002 0.117 0.117 0.233 0.468 0.117 0.116 0.234 0.467 0.117 0.117 0.234 0.467 0.935 0.117 0.116 0.234 0.467 0.117 0.117 0.234 0.467 0.117 0.117 0.233 0.468 0.934 0.127 0.127 0.253 0.507 0.127 0.126 0.254 0.506 0.127 0.127 0.253 0.507 1.013 0.127 0.127 0.253 0.507 0.127 0.126 0.254 0.506 0.127 0.127 0.253 0.507 1.013 0.119 0.118 0.237 0.473 0.946 0.118 0.118 0.237 0.473 0.946 0.118 0.119 0.236 0.473 0.946 0.119 0.118 0.237 0.473 0.946 0.116 0.116 0.232 0.463 0.928 0.116 0.116 0.232 0.463 0.928 0.116 0.116 0.232 0.464 l 0.927,-0.001 h 0.116 0.116 0.232 0.464 0.927 0.126 0.126 0.251 0.504 1.006 0.126 0.126 0.251 0.503 1.007 0.126 0.125 0.252 0.503 1.007 0.125 0.126 0.252 0.503 1.006 0.118 0.117 0.235 0.469 0.94 0.117 0.117 0.235 0.47 l 0.939,-10e-4 h 0.117 0.117 0.235 0.47 0.939 1.878 0.127 0.127 0.255 0.509 l 1.018,-0.001 h 0.127 0.127 0.255 0.509 1.017 0.128 0.127 0.254 0.509 l 1.018,-10e-4 h 2.036 0.125 0.125 l 0.25,-10e-4 h 0.499 1 0.125 0.125 0.249 l 0.5,-0.001 h 0.999 0.125 0.125 0.25 0.5 l 0.999,-10e-4 1.998,-0.001 h 0.117 0.116 l 0.233,-10e-4 h 0.466 0.932 l 0.117,-0.001 h 0.116 0.233 0.466 l 0.932,-10e-4 h 0.117 0.116 0.233 l 0.466,-10e-4 0.932,-0.001 1.864,-10e-4 h 0.126 l 0.127,-0.001 h 0.252 0.506 l 1.011,-0.002 h 0.126 0.126 0.253 l 0.505,-0.001 1.011,-10e-4 h 0.127 l 0.126,-0.001 h 0.253 l 0.505,-10e-4 1.011,-0.001 2.021,-0.003 0.118,-10e-4 h 0.118 0.236 l 0.472,-0.001 0.943,-0.002 1.887,-0.004 h 0.118 0.118 l 0.236,-0.001 0.472,-10e-4 0.943,-0.002 1.887,-0.005 0.128,-10e-4 h 0.128 l 0.255,-0.001 0.511,-10e-4 1.023,-0.003 2.044,-0.007 0.128,-0.001 h 0.128 l 0.255,-10e-4 0.511,-0.002 1.023,-0.004 2.044,-0.008 0.126,-10e-4 h 0.125 l 0.251,-0.001 0.502,-0.003 1.004,-0.004 2.007,-0.011 0.126,-0.001 h 0.125 l 0.251,-0.002 0.502,-0.002 1.003,-0.006 2.008,-0.013 0.117,-0.001 0.117,-10e-4 0.234,-10e-4 0.468,-0.004 0.936,-0.007 1.873,-0.014 0.117,-10e-4 0.117,-0.001 0.234,-0.002 0.468,-0.004 0.937,-0.008 1.873,-0.018 0.126,-10e-4 0.127,-0.001 0.254,-0.003 0.508,-0.005 1.015,-0.011 2.03,-0.023 0.127,-0.002 0.127,-0.001 0.254,-0.003 0.507,-0.007 1.016,-0.013 2.03,-0.028 0.118,-0.002 0.119,-0.002 0.237,-0.003 0.474,-0.007 0.948,-0.015 1.895,-0.032 0.119,-0.002 0.118,-0.002 0.237,-0.004 0.474,-0.009 0.948,-0.017 1.896,-0.038 0.116,-0.002 0.116,-0.003 0.232,-0.005 0.465,-0.01 0.929,-0.02 1.859,-0.044 0.116,-0.003 0.116,-0.002 0.232,-0.006 0.465,-0.012 0.929,-0.024 1.859,-0.051 0.126,-0.004 0.126,-0.003 0.252,-0.008 0.504,-0.015 1.008,-0.031 2.016,-0.065 0.126,-0.005 0.126,-0.004 0.252,-0.009 0.504,-0.017 1.008,-0.037 2.016,-0.078 0.118,-0.004 0.117,-0.005 0.236,-0.01 0.47,-0.019 0.941,-0.04 1.881,-0.085 0.118,-0.006 0.117,-0.005 0.236,-0.011 0.47,-0.023 0.941,-0.046 1.881,-0.099 0.128,-0.007 0.127,-0.007 0.255,-0.014 0.51,-0.028 1.019,-0.059 2.039,-0.125 0.128,-0.008 0.127,-0.008 0.255,-0.017 0.51,-0.033 1.02,-0.069 2.039,-0.146 0.125,-0.009 0.125,-0.009 0.25,-0.019 0.501,-0.038 1.001,-0.079 2.002,-0.166 0.125,-0.011 0.125,-0.011 0.25,-0.022 0.501,-0.044 1.001,-0.091 2.002,-0.192 0.116,-0.012 0.117,-0.011 0.233,-0.024 0.467,-0.047 0.934,-0.098 1.867,-0.205 0.117,-0.014 0.116,-0.013 0.234,-0.027 0.467,-0.054 0.933,-0.112 1.868,-0.233 0.126,-0.017 0.127,-0.016 0.253,-0.033 0.506,-0.068 1.012,-0.138 2.025,-0.29 0.127,-0.019 0.127,-0.019 0.253,-0.038 0.506,-0.077 1.012,-0.158 2.025,-0.333 0.118,-0.02 0.119,-0.02 0.236,-0.041 0.472,-0.082 0.946,-0.168 1.89,-0.352 0.118,-0.023 0.118,-0.023 0.236,-0.046 0.473,-0.093 0.945,-0.19 1.89,-0.398 0.116,-0.025 0.116,-0.025 0.232,-0.051 0.463,-0.103 0.926,-0.21 1.853,-0.438 0.116,-0.029 0.116,-0.028 0.232,-0.057 0.463,-0.115 0.926,-0.236 1.853,-0.492 0.126,-0.034 0.126,-0.035 0.251,-0.069 0.503,-0.141 1.005,-0.287 2.011,-0.602 4.021,-1.317 0.118,-0.041 0.117,-0.041 0.234,-0.082 0.469,-0.166 0.938,-0.34 1.876,-0.707 3.752,-1.534 0.128,-0.054 0.127,-0.056 0.254,-0.11 0.508,-0.224 1.017,-0.458 2.034,-0.954 4.067,-2.078 0.119,-0.064 0.119,-0.064 0.237,-0.129 0.475,-0.262 0.949,-0.532 1.9,-1.106 3.798,-2.388 0.116,-0.077 0.116,-0.077 0.233,-0.155 0.466,-0.313 0.93,-0.637 1.862,-1.322 3.724,-2.841 0.126,-0.101 0.126,-0.101 0.253,-0.204 0.505,-0.411 1.009,-0.838 2.02,-1.741 4.039,-3.753 0.118,-0.115 0.118,-0.116 0.235,-0.232 0.471,-0.467 0.943,-0.951 1.885,-1.969 3.769,-4.209 0.128,-0.15 0.128,-0.149 0.255,-0.301 0.51,-0.606 1.022,-1.235 2.042,-2.559 4.085,-5.489 0.126,-0.177 0.125,-0.177 0.251,-0.355 0.501,-0.718 1.003,-1.458 2.005,-3.016 4.01,-6.445 7.483,-13.61 8.113,-17.354 7.575,-18.949 7.425,-21.461 8.056,-26.879 7.518,-28.817 0.131,-0.5367 0.131,-0.538 0.262,-1.0797 0.525,-2.1738 1.049,-4.4064 2.098,-9.0515 0.131,-0.5764 0.131,-0.5777 0.262,-1.1592 0.525,-2.3337 1.049,-4.7292 0.131,-0.597 0.131,-0.5983 0.262,-1.2005 0.525,-2.4166 0.131,-0.6075 0.131,-0.6087 0.262,-1.2215 0.132,-0.6128 0.131,-0.614 0.131,-0.6154 0.131,-0.6167"
       style="fill:none;stroke:#3f3d99;stroke-width:1px;stroke-opacity:1" />
    <path
       inkscape:connector-curvature="0"
       id="polyline16"
       d="m 90,264.253 h 1.8748 1.8747 3.7495 4.065 4.065 3.795 3.796 3.721 3.721 4.036 4.037 3.767 3.767 2.041 2.042 1.02 1.021 1.02 1.021 0.501 0.501 0.501 0.501 0.501 0.501 1.002 0.251 0.25 0.501 0.251 0.25 0.501 0.251 0.25 0.501 1.002 0.234 0.233 0.468 0.233 0.234 0.467 0.117 0.117 0.234 0.467 0.935 0.117 0.116 0.234 0.467 0.117 0.117 0.234 0.467 0.117 0.117 0.233 0.468 0.934 0.127 l 0.127,-10e-4 h 0.253 0.507 0.127 0.126 0.254 0.506 0.127 0.127 0.253 0.507 1.013 0.127 0.127 0.253 0.507 0.127 0.126 0.254 0.506 0.127 0.127 0.253 0.507 1.013 0.119 0.118 0.237 0.473 0.946 0.118 0.118 0.237 0.473 0.946 0.118 0.119 0.236 0.473 0.946 0.119 0.118 0.237 0.473 0.946 0.116 0.116 0.232 0.463 0.928 0.116 0.116 0.232 0.463 0.928 0.116 0.116 0.232 0.464 0.927 0.116 0.116 0.232 0.464 0.927 0.126 0.126 0.251 0.504 1.006 0.126 0.126 0.251 0.503 1.007 0.126 0.125 0.252 0.503 1.007 0.125 0.126 0.252 0.503 1.006 0.118 0.117 l 0.235,-0.001 h 0.469 0.94 0.117 0.117 0.235 0.47 0.939 0.117 0.117 0.235 0.47 0.939 l 1.878,-10e-4 h 0.127 0.127 0.255 0.509 1.018 0.127 0.127 0.255 0.509 1.017 0.128 0.127 l 0.254,-10e-4 h 0.509 1.018 l 2.036,-0.001 h 0.125 0.125 0.25 0.499 1 0.125 0.125 l 0.249,-10e-4 h 0.5 0.999 0.125 0.125 0.25 l 0.5,-0.001 h 0.999 l 1.998,-10e-4 h 0.117 l 0.116,-10e-4 h 0.233 0.466 l 0.932,-0.001 h 0.117 0.116 0.233 0.466 l 0.932,-10e-4 h 0.117 0.116 0.233 l 0.466,-0.001 0.932,-10e-4 1.864,-0.001 0.126,-10e-4 h 0.127 0.252 0.506 l 1.011,-0.002 h 0.126 0.126 0.253 l 0.505,-10e-4 1.011,-0.001 h 0.127 0.126 l 0.253,-10e-4 0.505,-10e-4 1.011,-0.001 2.021,-0.003 0.118,-0.001 h 0.118 0.236 l 0.472,-10e-4 0.943,-0.002 1.887,-0.004 h 0.118 0.118 l 0.236,-0.001 0.472,-10e-4 0.943,-0.002 1.887,-0.005 h 0.128 0.128 l 0.255,-0.001 0.511,-0.002 1.023,-0.003 2.044,-0.006 0.128,-0.001 h 0.128 l 0.255,-10e-4 0.511,-0.002 1.023,-0.004 2.044,-0.008 0.126,-10e-4 h 0.125 l 0.251,-0.001 0.502,-0.002 1.004,-0.005 2.007,-0.01 0.126,-10e-4 0.125,-0.001 0.251,-10e-4 0.502,-0.003 1.003,-0.006 2.008,-0.012 0.117,-10e-4 0.117,-0.001 0.234,-10e-4 0.468,-0.004 0.936,-0.006 1.873,-0.015 0.117,-0.001 h 0.117 l 0.234,-0.002 0.468,-0.004 0.937,-0.008 1.873,-0.018 0.126,-0.001 0.127,-10e-4 0.254,-0.003 0.508,-0.005 1.015,-0.01 2.03,-0.023 0.127,-0.002 0.127,-10e-4 0.254,-0.003 0.507,-0.006 1.016,-0.013 2.03,-0.028 0.118,-0.002 0.119,-10e-4 0.237,-0.004 0.474,-0.007 0.948,-0.014 1.895,-0.031 0.119,-0.002 0.118,-0.002 0.237,-0.004 0.474,-0.009 0.948,-0.017 1.896,-0.037 0.116,-0.002 0.116,-0.003 0.232,-0.004 0.465,-0.01 0.929,-0.02 1.859,-0.043 0.116,-0.003 0.116,-0.002 0.232,-0.006 0.465,-0.012 0.929,-0.023 1.859,-0.05 0.126,-0.004 0.126,-0.003 0.252,-0.008 0.504,-0.014 1.008,-0.03 2.016,-0.065 0.126,-0.004 0.126,-0.004 0.252,-0.009 0.504,-0.017 1.008,-0.036 2.016,-0.076 0.118,-0.005 0.117,-0.004 0.236,-0.01 0.47,-0.019 0.941,-0.039 1.881,-0.083 0.118,-0.006 0.117,-0.005 0.236,-0.011 0.47,-0.022 0.941,-0.046 1.881,-0.096 0.128,-0.007 0.127,-0.007 0.255,-0.014 0.51,-0.028 1.019,-0.057 2.039,-0.122 0.128,-0.008 0.127,-0.008 0.255,-0.016 0.51,-0.033 1.02,-0.067 2.039,-0.143 0.125,-0.009 0.125,-0.009 0.25,-0.019 0.501,-0.037 1.001,-0.077 2.002,-0.163 0.125,-0.01 0.125,-0.011 0.25,-0.021 0.501,-0.044 1.001,-0.089 2.002,-0.188 0.116,-0.012 0.117,-0.011 0.233,-0.023 0.467,-0.047 0.934,-0.095 1.867,-0.201 0.117,-0.013 0.116,-0.013 0.234,-0.027 0.467,-0.053 0.933,-0.109 1.868,-0.229 0.126,-0.016 0.127,-0.016 0.253,-0.033 0.506,-0.066 1.012,-0.135 2.025,-0.284 0.127,-0.019 0.127,-0.018 0.253,-0.037 0.506,-0.076 1.012,-0.155 2.025,-0.326 0.118,-0.019 0.119,-0.02 0.236,-0.04 0.472,-0.08 0.946,-0.165 1.89,-0.345 0.118,-0.022 0.118,-0.023 0.236,-0.045 0.473,-0.091 0.945,-0.186 1.89,-0.39 0.116,-0.024 0.116,-0.025 0.232,-0.05 0.463,-0.1 0.926,-0.206 1.853,-0.43 0.116,-0.027 0.116,-0.028 0.232,-0.056 0.463,-0.113 0.926,-0.231 1.853,-0.481 0.126,-0.034 0.126,-0.034 0.251,-0.068 0.503,-0.137 1.005,-0.282 2.011,-0.589 4.021,-1.29 0.118,-0.04 0.117,-0.04 0.234,-0.081 0.469,-0.163 0.938,-0.332 1.876,-0.693 3.752,-1.502 0.128,-0.054 0.127,-0.054 0.254,-0.108 0.508,-0.219 1.017,-0.448 2.034,-0.935 4.067,-2.035 0.119,-0.063 0.119,-0.063 0.237,-0.126 0.475,-0.256 0.949,-0.522 1.9,-1.083 3.798,-2.338 0.116,-0.075 0.116,-0.076 0.233,-0.152 0.466,-0.307 0.93,-0.624 1.862,-1.295 3.724,-2.781 0.126,-0.099 0.126,-0.099 0.253,-0.2 0.505,-0.403 1.009,-0.821 2.02,-1.705 4.039,-3.675 0.118,-0.113 0.118,-0.113 0.235,-0.227 0.471,-0.458 0.943,-0.932 1.885,-1.927 3.769,-4.124 0.128,-0.146 0.128,-0.146 0.255,-0.295 0.51,-0.594 1.022,-1.209 2.042,-2.506 4.085,-5.376 0.126,-0.173 0.125,-0.173 0.251,-0.349 0.501,-0.702 1.003,-1.428 2.005,-2.954 4.01,-6.312 7.483,-13.33 8.113,-16.995 7.575,-18.559 7.425,-21.018 8.056,-26.326 7.518,-28.2222 0.131,-0.5257 0.131,-0.5269 0.262,-1.0574 0.525,-2.129 1.049,-4.3155 2.098,-8.8649 0.131,-0.5645 0.131,-0.5658 0.262,-1.1353 0.525,-2.2856 1.049,-4.6317 0.131,-0.5847 0.131,-0.5859 0.262,-1.1757 0.525,-2.3669 0.131,-0.5949 0.131,-0.5962 0.262,-1.1963 0.132,-0.6001 0.131,-0.6014 0.131,-0.6027 0.131,-0.604"
       style="fill:none;stroke:#3f3d99;stroke-width:1px;stroke-opacity:1" />
    <path
       inkscape:connector-curvature="0"
       id="polyline18"
       d="m 90,257.169 h 1.8748 1.8747 3.7495 4.065 4.065 3.795 3.796 3.721 3.721 4.036 4.037 3.767 3.767 2.041 2.042 1.02 1.021 1.02 1.021 1.002 1.002 0.501 0.501 1.002 0.501 0.501 0.501 0.501 0.251 0.25 0.501 1.002 0.234 0.233 0.468 0.233 0.234 0.467 0.234 0.234 0.467 0.935 0.117 0.116 0.234 0.467 0.117 0.117 0.234 0.467 0.117 0.117 0.233 0.468 0.934 0.127 0.127 0.253 0.507 0.127 0.126 0.254 0.506 0.127 0.127 0.253 0.507 1.013 0.127 0.127 0.253 0.507 0.127 0.126 0.254 0.506 0.127 0.127 0.253 0.507 1.013 0.119 0.118 0.237 0.473 0.946 0.118 0.118 0.237 0.473 0.946 0.118 0.119 0.236 0.473 0.946 0.119 0.118 0.237 0.473 0.946 0.116 0.116 0.232 0.463 0.928 0.116 0.116 0.232 0.463 0.928 0.116 0.116 0.232 0.464 0.927 0.116 0.116 0.232 0.464 0.927 0.126 0.126 0.251 0.504 l 1.006,-10e-4 h 0.126 0.126 0.251 0.503 1.007 0.126 0.125 0.252 0.503 1.007 0.125 0.126 0.252 0.503 1.006 0.118 0.117 0.235 0.469 0.94 0.117 0.117 0.235 0.47 0.939 0.117 0.117 0.235 0.47 l 0.939,-0.001 h 1.878 0.127 0.127 0.255 0.509 1.018 0.127 0.127 0.255 l 0.509,-10e-4 h 1.017 0.128 0.127 0.254 0.509 1.018 l 2.036,-10e-4 h 0.125 0.125 0.25 0.499 l 1,-0.001 h 0.125 0.125 0.249 0.5 l 0.999,-10e-4 h 0.125 0.125 0.25 0.5 l 0.999,-0.001 1.998,-10e-4 h 0.117 0.116 0.233 0.466 l 0.932,-10e-4 h 0.117 0.116 0.233 0.466 l 0.932,-0.001 h 0.117 0.116 l 0.233,-10e-4 h 0.466 l 0.932,-0.001 1.864,-10e-4 0.126,-0.001 h 0.127 0.252 l 0.506,-10e-4 1.011,-10e-4 h 0.126 0.126 0.253 l 0.505,-0.001 1.011,-10e-4 h 0.127 0.126 l 0.253,-0.001 h 0.505 l 1.011,-0.002 2.021,-0.003 h 0.118 0.118 l 0.236,-10e-4 0.472,-0.001 0.943,-10e-4 1.887,-0.004 h 0.118 l 0.118,-10e-4 h 0.236 l 0.472,-10e-4 0.943,-0.002 1.887,-0.005 h 0.128 l 0.128,-0.001 h 0.255 l 0.511,-0.002 1.023,-0.003 2.044,-0.006 h 0.128 l 0.128,-0.001 0.255,-10e-4 0.511,-0.002 1.023,-0.003 2.044,-0.008 0.126,-10e-4 h 0.125 l 0.251,-10e-4 0.502,-0.003 1.004,-0.004 2.007,-0.01 0.126,-0.001 h 0.125 l 0.251,-0.002 0.502,-0.002 1.003,-0.006 2.008,-0.012 0.117,-10e-4 0.117,-0.001 0.234,-10e-4 0.468,-0.003 0.936,-0.007 1.873,-0.014 0.117,-0.001 h 0.117 l 0.234,-0.002 0.468,-0.004 0.937,-0.008 1.873,-0.017 0.126,-10e-4 0.127,-10e-4 0.254,-0.002 0.508,-0.005 1.015,-0.011 2.03,-0.022 0.127,-10e-4 0.127,-0.002 0.254,-0.003 0.507,-0.006 1.016,-0.012 2.03,-0.027 0.118,-0.002 0.119,-0.001 0.237,-0.004 0.474,-0.006 0.948,-0.014 1.895,-0.03 0.119,-0.002 0.118,-0.002 0.237,-0.004 0.474,-0.008 0.948,-0.017 1.896,-0.036 0.116,-0.002 0.116,-0.002 0.232,-0.005 0.465,-0.009 0.929,-0.02 1.859,-0.041 0.116,-0.003 0.116,-0.003 0.232,-0.005 0.465,-0.011 0.929,-0.023 1.859,-0.049 0.126,-0.003 0.126,-0.003 0.252,-0.007 0.504,-0.015 1.008,-0.029 2.016,-0.062 0.126,-0.004 0.126,-0.004 0.252,-0.009 0.504,-0.016 1.008,-0.035 2.016,-0.074 0.118,-0.004 0.117,-0.005 0.236,-0.009 0.47,-0.018 0.941,-0.038 1.881,-0.081 0.118,-0.005 0.117,-0.005 0.236,-0.011 0.47,-0.021 0.941,-0.045 1.881,-0.093 0.128,-0.007 0.127,-0.006 0.255,-0.014 0.51,-0.027 1.019,-0.055 2.039,-0.119 0.128,-0.007 0.127,-0.008 0.255,-0.016 0.51,-0.031 1.02,-0.066 2.039,-0.138 0.125,-0.009 0.125,-0.008 0.25,-0.018 0.501,-0.037 1.001,-0.074 2.002,-0.158 0.125,-0.01 0.125,-0.01 0.25,-0.021 0.501,-0.042 1.001,-0.086 2.002,-0.183 0.116,-0.011 0.117,-0.011 0.233,-0.022 0.467,-0.045 0.934,-0.093 1.867,-0.194 0.117,-0.013 0.116,-0.013 0.234,-0.025 0.467,-0.052 0.933,-0.105 1.868,-0.222 0.126,-0.016 0.127,-0.015 0.253,-0.032 0.506,-0.063 1.012,-0.131 2.025,-0.276 0.127,-0.018 0.127,-0.018 0.253,-0.036 0.506,-0.073 1.012,-0.15 2.025,-0.315 0.118,-0.019 0.119,-0.02 0.236,-0.038 0.472,-0.078 0.946,-0.159 1.89,-0.335 0.118,-0.021 0.118,-0.022 0.236,-0.043 0.473,-0.089 0.945,-0.18 1.89,-0.377 0.116,-0.024 0.116,-0.024 0.232,-0.048 0.463,-0.098 0.926,-0.199 1.853,-0.416 0.116,-0.027 0.116,-0.027 0.232,-0.054 0.463,-0.109 0.926,-0.224 1.853,-0.466 0.126,-0.033 0.126,-0.033 0.251,-0.065 0.503,-0.134 1.005,-0.272 2.011,-0.571 4.021,-1.249 0.118,-0.039 0.117,-0.039 0.234,-0.078 0.469,-0.157 0.938,-0.322 1.876,-0.671 3.752,-1.455 0.128,-0.052 0.127,-0.052 0.254,-0.105 0.508,-0.212 1.017,-0.434 2.034,-0.906 4.067,-1.97 0.119,-0.061 0.119,-0.061 0.237,-0.122 0.475,-0.248 0.949,-0.505 1.9,-1.05 3.798,-2.264 0.116,-0.073 0.116,-0.073 0.233,-0.147 0.466,-0.297 0.93,-0.605 1.862,-1.253 3.724,-2.694 0.126,-0.096 0.126,-0.096 0.253,-0.193 0.505,-0.39 1.009,-0.796 2.02,-1.651 4.039,-3.559 0.118,-0.109 0.118,-0.11 0.235,-0.22 0.471,-0.443 0.943,-0.902 1.885,-1.867 3.769,-3.993 0.128,-0.142 0.128,-0.141 0.255,-0.286 0.51,-0.575 1.022,-1.171 2.042,-2.427 4.085,-5.206 0.126,-0.168 0.125,-0.168 0.251,-0.337 0.501,-0.68 1.003,-1.383 2.005,-2.861 4.01,-6.112 7.483,-12.909 8.113,-16.459 7.575,-17.972 7.425,-20.355 8.056,-25.494 7.518,-27.3316 0.131,-0.5091 0.131,-0.5102 0.262,-1.024 0.525,-2.0618 1.049,-4.1792 2.098,-8.5849 0.131,-0.5468 0.131,-0.5479 0.262,-1.0994 0.525,-2.2134 1.049,-4.4855 0.131,-0.5662 0.131,-0.5674 0.262,-1.1386 0.525,-2.2921 0.131,-0.5762 0.131,-0.5774 0.262,-1.1585 0.132,-0.5811 0.131,-0.5824 0.131,-0.5837 0.131,-0.5849"
       style="fill:none;stroke:#3f3d99;stroke-width:1px;stroke-opacity:1" />
    <path
       inkscape:connector-curvature="0"
       id="polyline20"
       d="m 90,235.919 h 3.7495 3.7495 4.065 4.065 3.795 3.796 3.721 3.721 4.036 4.037 3.767 3.767 2.041 2.042 2.041 2.041 1.002 1.002 1.002 1.002 0.501 0.501 0.501 0.501 0.501 0.501 1.002 0.467 0.468 0.467 0.467 0.234 0.234 0.467 0.935 0.233 0.234 0.467 0.234 0.234 0.467 0.234 0.233 l 0.468,-0.001 h 0.934 0.127 0.127 0.253 0.507 0.127 0.126 0.254 0.506 0.127 0.127 0.253 0.507 1.013 0.127 0.127 0.253 0.507 0.127 0.126 0.254 0.506 0.127 0.127 0.253 0.507 1.013 0.119 0.118 0.237 0.473 0.946 0.118 0.118 0.237 0.473 0.946 0.118 0.119 0.236 0.473 0.946 0.119 0.118 0.237 0.473 0.946 0.116 0.116 0.232 0.463 0.928 0.116 0.116 0.232 0.463 0.928 0.116 0.116 0.232 0.464 0.927 0.116 0.116 0.232 0.464 0.927 0.126 0.126 0.251 0.504 1.006 0.126 0.126 0.251 0.503 1.007 0.126 0.125 0.252 0.503 1.007 0.125 0.126 0.252 0.503 1.006 0.118 0.117 0.235 0.469 l 0.94,-0.001 h 0.117 0.117 0.235 0.47 0.939 0.117 0.117 0.235 0.47 0.939 1.878 0.127 0.127 0.255 0.509 l 1.018,-0.001 h 0.127 0.127 0.255 0.509 1.017 0.128 0.127 0.254 0.509 l 1.018,-0.001 h 2.036 0.125 0.125 0.25 0.499 l 1,-0.001 h 0.125 0.125 0.249 0.5 0.999 l 0.125,-10e-4 h 0.125 0.25 0.5 0.999 l 1.998,-0.001 h 0.117 l 0.116,-0.001 h 0.233 0.466 0.932 l 0.117,-0.001 h 0.116 0.233 0.466 l 0.932,-0.001 h 0.117 0.116 0.233 0.466 l 0.932,-0.001 1.864,-0.002 h 0.126 0.127 0.252 l 0.506,-0.001 1.011,-0.001 h 0.126 0.126 0.253 l 0.505,-0.001 1.011,-0.001 h 0.127 0.126 0.253 l 0.505,-10e-4 1.011,-0.001 2.021,-0.003 h 0.118 l 0.118,-0.001 h 0.236 l 0.472,-10e-4 0.943,-0.001 1.887,-0.004 h 0.118 0.118 0.236 l 0.472,-10e-4 0.943,-0.002 1.887,-0.005 h 0.128 0.128 l 0.255,-0.001 0.511,-0.001 1.023,-0.003 2.044,-0.005 0.128,-0.001 h 0.128 l 0.255,-0.001 0.511,-0.002 1.023,-0.003 2.044,-0.007 0.126,-0.001 h 0.125 l 0.251,-0.001 0.502,-0.002 1.004,-0.004 2.007,-0.009 0.126,-0.001 h 0.125 l 0.251,-0.001 0.502,-0.003 1.003,-0.005 2.008,-0.011 0.117,-0.001 h 0.117 l 0.234,-0.002 0.468,-0.003 0.936,-0.005 1.873,-0.013 0.117,-0.001 0.117,-10e-4 0.234,-0.001 0.468,-0.004 0.937,-0.007 1.873,-0.015 0.126,-0.001 0.127,-0.001 0.254,-0.002 0.508,-0.005 1.015,-0.009 2.03,-0.02 0.127,-0.001 0.127,-0.001 0.254,-0.003 0.507,-0.005 1.016,-0.012 2.03,-0.024 0.118,-0.001 0.119,-0.002 0.237,-0.003 0.474,-0.006 0.948,-0.013 1.895,-0.027 0.119,-0.002 0.118,-0.001 0.237,-0.004 0.474,-0.007 0.948,-0.015 1.896,-0.032 0.116,-0.003 0.116,-0.002 0.232,-0.004 0.465,-0.008 0.929,-0.018 1.859,-0.037 0.116,-0.003 0.116,-0.002 0.232,-0.005 0.465,-0.01 0.929,-0.021 1.859,-0.043 0.126,-0.003 0.126,-0.004 0.252,-0.006 0.504,-0.013 1.008,-0.026 2.016,-0.056 0.126,-0.004 0.126,-0.004 0.252,-0.007 0.504,-0.015 1.008,-0.032 2.016,-0.066 0.118,-0.004 0.117,-0.004 0.236,-0.008 0.47,-0.017 0.941,-0.034 1.881,-0.073 0.118,-0.005 0.117,-0.004 0.236,-0.01 0.47,-0.019 0.941,-0.04 1.881,-0.084 0.128,-0.006 0.127,-0.006 0.255,-0.012 0.51,-0.025 1.019,-0.05 2.039,-0.107 0.128,-0.007 0.127,-0.007 0.255,-0.014 0.51,-0.028 1.02,-0.059 2.039,-0.125 0.125,-0.008 0.125,-0.008 0.25,-0.016 0.501,-0.033 1.001,-0.067 2.002,-0.142 0.125,-0.009 0.125,-0.01 0.25,-0.018 0.501,-0.038 1.001,-0.078 2.002,-0.164 0.116,-0.01 0.117,-0.01 0.233,-0.021 0.467,-0.04 0.934,-0.084 1.867,-0.176 0.117,-0.011 0.116,-0.011 0.234,-0.023 0.467,-0.047 0.933,-0.095 1.868,-0.2 0.126,-0.014 0.127,-0.014 0.253,-0.029 0.506,-0.057 1.012,-0.118 2.025,-0.249 0.127,-0.016 0.127,-0.016 0.253,-0.033 0.506,-0.066 1.012,-0.135 2.025,-0.285 0.118,-0.017 0.119,-0.017 0.236,-0.035 0.472,-0.07 0.946,-0.144 1.89,-0.301 0.118,-0.02 0.118,-0.019 0.236,-0.04 0.473,-0.079 0.945,-0.163 1.89,-0.34 0.116,-0.022 0.116,-0.022 0.232,-0.043 0.463,-0.088 0.926,-0.18 1.853,-0.375 0.116,-0.024 0.116,-0.024 0.232,-0.049 0.463,-0.099 0.926,-0.201 1.853,-0.421 0.126,-0.03 0.126,-0.029 0.251,-0.06 0.503,-0.12 1.005,-0.246 2.011,-0.515 4.021,-1.127 0.118,-0.035 0.117,-0.035 0.234,-0.07 0.469,-0.142 0.938,-0.291 1.876,-0.605 3.752,-1.312 0.128,-0.047 0.127,-0.047 0.254,-0.095 0.508,-0.192 1.017,-0.391 2.034,-0.817 4.067,-1.778 0.119,-0.054 0.119,-0.056 0.237,-0.11 0.475,-0.224 0.949,-0.455 1.9,-0.947 3.798,-2.043 0.116,-0.066 0.116,-0.066 0.233,-0.132 0.466,-0.268 0.93,-0.546 1.862,-1.131 3.724,-2.43 0.126,-0.087 0.126,-0.086 0.253,-0.175 0.505,-0.351 1.009,-0.718 2.02,-1.49 4.039,-3.211 0.118,-0.098 0.118,-0.099 0.235,-0.198 0.471,-0.4 0.943,-0.814 1.885,-1.685 3.769,-3.602 0.128,-0.127 0.128,-0.128 0.255,-0.258 0.51,-0.519 1.022,-1.056 2.042,-2.19 4.085,-4.697 0.126,-0.151 0.125,-0.151 0.251,-0.305 0.501,-0.613 1.003,-1.248 2.005,-2.581 4.01,-5.515 7.483,-11.645 8.113,-14.849 7.575,-16.214 7.425,-18.364 8.056,-23.0002 7.518,-24.6574 0.131,-0.4593 0.131,-0.4604 0.262,-0.9238 0.525,-1.86 1.049,-3.7705 2.098,-7.745 0.131,-0.4933 0.131,-0.4943 0.262,-0.9919 0.525,-1.9969 1.049,-4.0466 0.131,-0.5108 0.131,-0.512 0.262,-1.0272 0.525,-2.0679 0.131,-0.5197 0.131,-0.5209 0.262,-1.0452 0.132,-0.5243 0.131,-0.5255 0.131,-0.5265 0.131,-0.5277"
       style="fill:none;stroke:#3f3d99;stroke-width:1px;stroke-opacity:1" />
    <path
       inkscape:connector-curvature="0"
       id="polyline22"
       d="m 90,143.833 h 3.7495 3.7495 4.065 4.065 3.795 3.796 3.721 3.721 4.036 4.037 3.767 3.767 4.083 4.082 2.004 2.004 2.004 2.004 0.935 0.934 0.935 0.935 0.934 0.935 0.467 0.468 0.934 0.507 0.507 0.507 0.506 0.507 0.507 1.013 0.254 0.253 0.507 0.253 0.254 0.506 0.254 0.253 0.507 1.013 0.237 0.237 0.473 0.946 0.118 0.118 0.237 0.473 0.946 0.118 0.119 0.236 0.473 0.946 0.119 0.118 0.237 0.473 0.946 0.116 0.116 0.232 0.463 0.928 0.116 0.116 0.232 0.463 0.928 0.116 0.116 0.232 0.464 0.927 0.116 0.116 0.232 0.464 0.927 0.126 0.126 0.251 0.504 1.006 0.126 0.126 0.251 0.503 1.007 0.126 0.125 0.252 0.503 1.007 0.125 0.126 0.252 0.503 1.006 0.118 0.117 0.235 l 0.469,-0.001 h 0.94 0.117 0.117 0.235 0.47 0.939 0.117 0.117 0.235 0.47 0.939 1.878 0.127 0.127 0.255 0.509 1.018 0.127 0.127 0.255 0.509 1.017 0.128 0.127 0.254 0.509 l 1.018,-0.001 h 2.036 0.125 0.125 0.25 0.499 1 0.125 0.125 0.249 0.5 l 0.999,-10e-4 h 0.125 0.125 0.25 0.5 0.999 l 1.998,-0.001 h 0.117 0.116 0.233 0.466 0.932 0.117 0.116 0.233 l 0.466,-0.001 h 0.932 0.117 0.116 0.233 0.466 l 0.932,-0.001 h 1.864 l 0.126,-0.001 h 0.127 0.252 0.506 1.011 l 0.126,-0.001 h 0.126 0.253 0.505 l 1.011,-10e-4 h 0.127 0.126 0.253 0.505 l 1.011,-0.001 2.021,-0.002 h 0.118 0.118 0.236 0.472 l 0.943,-0.001 1.887,-0.002 h 0.118 0.118 0.236 l 0.472,-0.001 0.943,-0.001 1.887,-0.002 h 0.128 0.128 l 0.255,-0.001 h 0.511 l 1.023,-0.002 2.044,-0.003 h 0.128 0.128 l 0.255,-0.001 0.511,-10e-4 1.023,-0.001 2.044,-0.004 h 0.126 l 0.125,-10e-4 h 0.251 l 0.502,-0.001 1.004,-0.002 2.007,-0.005 h 0.126 l 0.125,-0.001 h 0.251 l 0.502,-0.002 1.003,-0.002 2.008,-0.006 0.117,-0.001 h 0.117 l 0.234,-0.001 0.468,-0.001 0.936,-0.003 1.873,-0.007 h 0.117 l 0.117,-0.001 0.234,-0.001 0.468,-0.001 0.937,-0.004 1.873,-0.008 0.126,-10e-4 h 0.127 l 0.254,-0.001 0.508,-0.003 1.015,-0.005 2.03,-0.01 0.127,-0.001 0.127,-0.001 0.254,-0.001 0.507,-0.003 1.016,-0.006 2.03,-0.013 0.118,-0.001 h 0.119 l 0.237,-0.002 0.474,-0.003 0.948,-0.007 1.895,-0.014 0.119,-0.001 0.118,-0.001 0.237,-0.002 0.474,-0.004 0.948,-0.008 1.896,-0.017 0.116,-0.001 0.116,-0.001 0.232,-0.002 0.465,-0.005 0.929,-0.009 1.859,-0.02 0.116,-0.001 0.116,-0.002 0.232,-0.002 0.465,-0.005 0.929,-0.011 1.859,-0.024 0.126,-0.001 0.126,-0.002 0.252,-0.003 0.504,-0.007 1.008,-0.014 2.016,-0.03 0.126,-0.002 0.126,-0.002 0.252,-0.004 0.504,-0.008 1.008,-0.016 2.016,-0.036 0.118,-0.002 0.117,-0.002 0.236,-0.004 0.47,-0.009 0.941,-0.018 1.881,-0.039 0.118,-0.002 0.117,-0.003 0.236,-0.005 0.47,-0.01 0.941,-0.021 1.881,-0.045 0.128,-0.003 0.127,-0.003 0.255,-0.007 0.51,-0.013 1.019,-0.026 2.039,-0.057 0.128,-0.003 0.127,-0.004 0.255,-0.008 0.51,-0.015 1.02,-0.031 2.039,-0.066 0.125,-0.004 0.125,-0.005 0.25,-0.008 0.501,-0.017 1.001,-0.036 2.002,-0.075 0.125,-0.005 0.125,-0.005 0.25,-0.01 0.501,-0.02 1.001,-0.041 2.002,-0.088 0.116,-0.005 0.117,-0.005 0.233,-0.011 0.467,-0.022 0.934,-0.044 1.867,-0.093 0.117,-0.006 0.116,-0.006 0.234,-0.012 0.467,-0.025 0.933,-0.05 1.868,-0.106 0.126,-0.008 0.127,-0.007 0.253,-0.015 0.506,-0.031 1.012,-0.062 2.025,-0.132 0.127,-0.009 0.127,-0.008 0.253,-0.018 0.506,-0.035 1.012,-0.071 2.025,-0.151 0.118,-0.009 0.119,-0.009 0.236,-0.019 0.472,-0.037 0.946,-0.076 1.89,-0.16 0.118,-0.011 0.118,-0.01 0.236,-0.021 0.473,-0.042 0.945,-0.086 1.89,-0.181 0.116,-0.011 0.116,-0.011 0.232,-0.024 0.463,-0.046 0.926,-0.095 1.853,-0.199 0.116,-0.013 0.116,-0.013 0.232,-0.026 0.463,-0.052 0.926,-0.107 1.853,-0.223 0.126,-0.016 0.126,-0.016 0.251,-0.031 0.503,-0.064 1.005,-0.13 2.011,-0.273 4.021,-0.597 0.118,-0.019 0.117,-0.019 0.234,-0.037 0.469,-0.075 0.938,-0.154 1.876,-0.321 3.752,-0.696 0.128,-0.025 0.127,-0.025 0.254,-0.05 0.508,-0.101 1.017,-0.208 2.034,-0.433 4.067,-0.942 0.119,-0.029 0.119,-0.03 0.237,-0.058 0.475,-0.119 0.949,-0.241 1.9,-0.502 3.798,-1.083 0.116,-0.035 0.116,-0.035 0.233,-0.07 0.466,-0.142 0.93,-0.289 1.862,-0.6 3.724,-1.288 0.126,-0.046 0.126,-0.046 0.253,-0.093 0.505,-0.186 1.009,-0.38 2.02,-0.79 4.039,-1.703 0.118,-0.052 0.118,-0.052 0.235,-0.105 0.471,-0.212 0.943,-0.432 1.885,-0.893 3.769,-1.909 0.128,-0.068 0.128,-0.068 0.255,-0.136 0.51,-0.275 1.022,-0.56 2.042,-1.161 4.085,-2.49 0.126,-0.08 0.125,-0.08 0.251,-0.162 0.501,-0.325 1.003,-0.662 2.005,-1.368 4.01,-2.923 7.483,-6.174 8.113,-7.872 7.575,-8.595 7.425,-9.7349 8.056,-12.1929 7.518,-13.0714 0.131,-0.2435 0.131,-0.244 0.262,-0.4897 0.525,-0.9861 1.049,-1.9988 2.098,-4.1058 0.131,-0.2615 0.131,-0.262 0.262,-0.5258 0.525,-1.0586 1.049,-2.1453 0.131,-0.2708 0.131,-0.2713 0.262,-0.5446 0.525,-1.0962 0.131,-0.2755 0.131,-0.2762 0.262,-0.5541 0.132,-0.2779 0.131,-0.2786 0.131,-0.2791 0.131,-0.2797"
       style="fill:none;stroke:#3f3d99;stroke-width:1px;stroke-opacity:1" />
    <path
       inkscape:connector-curvature="0"
       id="polyline24"
       d="m 90,51.7475 h 3.7495 3.7495 4.065 4.065 3.795 3.796 3.721 3.721 4.036 4.037 3.767 3.767 4.083 4.082 4.008 4.008 3.739 3.738 4.054 4.054 1.893 1.892 0.946 0.946 0.947 0.946 0.927 0.928 0.927 0.928 0.464 0.464 0.927 0.464 0.464 0.927 l 0.503,-1e-4 h 0.504 1.006 0.503 0.503 1.007 0.251 0.252 0.503 1.007 0.251 0.252 0.503 1.006 0.235 0.235 0.469 0.94 0.234 0.235 0.47 0.939 0.234 0.235 0.47 0.939 1.878 0.127 0.127 0.255 0.509 l 1.018,-10e-5 h 0.127 0.127 0.255 0.509 1.017 0.128 0.127 0.254 0.509 1.018 2.036 0.125 0.125 l 0.25,-1e-4 h 0.499 1 0.125 0.125 0.249 0.5 0.999 0.125 0.125 0.25 l 0.5,-10e-5 h 0.999 1.998 0.117 l 0.116,-1e-4 h 0.233 0.466 0.932 0.117 0.116 0.233 0.466 l 0.932,-1e-4 h 0.117 0.116 0.233 0.466 l 0.932,-10e-5 1.864,-1e-4 h 0.126 0.127 0.252 0.506 l 1.011,-10e-5 h 0.126 0.126 0.253 0.505 l 1.011,-1e-4 h 0.127 0.126 0.253 l 0.505,-10e-5 1.011,-1e-4 2.021,-10e-5 h 0.118 l 0.118,-1e-4 h 0.236 0.472 l 0.943,-10e-5 1.887,-2e-4 h 0.118 0.118 l 0.236,-1e-4 h 0.472 l 0.943,-10e-5 1.887,-3e-4 h 0.128 0.128 l 0.255,-1e-4 0.511,-10e-5 1.023,-1e-4 2.044,-4e-4 h 0.128 0.128 l 0.255,-10e-5 h 0.511 l 1.023,-2e-4 2.044,-5e-4 h 0.126 0.125 l 0.251,-1e-4 0.502,-10e-5 1.004,-3e-4 2.007,-5e-4 h 0.126 l 0.125,-1e-4 h 0.251 l 0.502,-2e-4 1.003,-3e-4 2.008,-7e-4 h 0.117 0.117 l 0.234,-1e-4 0.468,-2e-4 0.936,-3e-4 1.873,-8e-4 h 0.117 l 0.117,-10e-5 0.234,-1e-4 0.468,-2e-4 0.937,-4e-4 1.873,-9e-4 0.126,-10e-5 0.127,-1e-4 0.254,-10e-5 0.508,-3e-4 1.015,-5e-4 2.03,-0.0012 0.127,-1e-4 0.127,-10e-5 0.254,-1e-4 0.507,-4e-4 1.016,-7e-4 2.03,-0.0014 0.118,-1e-4 0.119,-10e-5 0.237,-2e-4 0.474,-3e-4 0.948,-8e-4 1.895,-0.0016 0.119,-1e-4 0.118,-1e-4 0.237,-3e-4 0.474,-4e-4 0.948,-9e-4 1.896,-0.002 0.116,-10e-5 0.116,-1e-4 0.232,-3e-4 0.465,-5e-4 0.929,-10e-4 1.859,-0.0023 0.116,-10e-5 0.116,-2e-4 0.232,-3e-4 0.465,-6e-4 0.929,-0.0012 1.859,-0.0026 0.126,-2e-4 0.126,-2e-4 0.252,-4e-4 0.504,-8e-4 1.008,-0.0016 2.016,-0.0033 0.126,-3e-4 0.126,-2e-4 0.252,-4e-4 0.504,-9e-4 1.008,-0.0019 2.016,-0.004 0.118,-3e-4 0.117,-2e-4 0.236,-5e-4 0.47,-0.001 0.941,-0.0021 1.881,-0.0044 0.118,-2e-4 0.117,-3e-4 0.236,-6e-4 0.47,-0.0012 0.941,-0.0024 1.881,-0.0051 0.128,-3e-4 0.127,-4e-4 0.255,-7e-4 0.51,-0.0015 1.019,-0.003 2.039,-0.0064 0.128,-4e-4 0.127,-5e-4 0.255,-8e-4 0.51,-0.0017 1.02,-0.0036 2.039,-0.0075 0.125,-5e-4 0.125,-5e-4 0.25,-9e-4 0.501,-0.002 1.001,-0.004 2.002,-0.0086 0.125,-6e-4 0.125,-5e-4 0.25,-0.0011 0.501,-0.0023 1.001,-0.0047 2.002,-0.0099 0.116,-6e-4 0.117,-6e-4 0.233,-0.0012 0.467,-0.0025 0.934,-0.005 1.867,-0.0106 0.117,-7e-4 0.116,-7e-4 0.234,-0.0014 0.467,-0.0028 0.933,-0.0057 1.868,-0.0121 0.126,-8e-4 0.127,-9e-4 0.253,-0.0017 0.506,-0.0034 1.012,-0.0071 2.025,-0.015 0.127,-10e-4 0.127,-10e-4 0.253,-0.0019 0.506,-0.004 1.012,-0.0081 2.025,-0.0172 0.118,-10e-4 0.119,-0.0011 0.236,-0.0021 0.472,-0.0042 0.946,-0.0087 1.89,-0.0181 0.118,-0.0012 0.118,-0.0012 0.236,-0.0023 0.473,-0.0048 0.945,-0.0098 1.89,-0.0205 0.116,-0.0013 0.116,-0.0013 0.232,-0.0027 0.463,-0.0053 0.926,-0.0108 1.853,-0.0226 0.116,-0.0014 0.116,-0.0015 0.232,-0.003 0.463,-0.0059 0.926,-0.0121 1.853,-0.0254 0.126,-0.0018 0.126,-0.0018 0.251,-0.0035 0.503,-0.0073 1.005,-0.0148 2.011,-0.031 4.021,-0.0679 0.118,-0.0021 0.117,-0.0021 0.234,-0.0042 0.469,-0.0086 0.938,-0.0175 1.876,-0.0365 3.752,-0.079 0.128,-0.0029 0.127,-0.0028 0.254,-0.0057 0.508,-0.0115 1.017,-0.0236 2.034,-0.0492 4.067,-0.1071 0.119,-0.0033 0.119,-0.0033 0.237,-0.0067 0.475,-0.0135 0.949,-0.0274 1.9,-0.057 3.798,-0.1231 0.116,-0.004 0.116,-0.0039 0.233,-0.008 0.466,-0.0162 0.93,-0.0328 1.862,-0.0682 3.724,-0.1464 0.126,-0.0052 0.126,-0.0052 0.253,-0.0105 0.505,-0.0212 1.009,-0.0432 2.02,-0.0898 4.039,-0.1934 0.118,-0.0059 0.118,-0.006 0.235,-0.0119 0.471,-0.0241 0.943,-0.0491 1.885,-0.1014 3.769,-0.217 0.128,-0.0077 0.128,-0.0077 0.255,-0.0155 0.51,-0.0313 1.022,-0.0637 2.042,-0.1319 4.085,-0.2829 0.126,-0.0091 0.125,-0.0091 0.251,-0.0184 0.501,-0.0369 1.003,-0.0752 2.005,-0.1555 4.01,-0.3322 7.483,-0.7015 8.113,-0.8945 7.575,-0.9768 7.425,-1.1062 8.056,-1.3856 7.518,-1.4854 0.131,-0.0276 0.131,-0.0278 0.262,-0.0556 0.525,-0.1121 1.049,-0.2271 2.098,-0.4666 0.131,-0.0297 0.131,-0.0298 0.262,-0.0597 0.525,-0.1203 1.049,-0.2438 0.131,-0.0308 0.131,-0.0308 0.262,-0.0619 0.525,-0.1246 0.131,-0.0313 0.131,-0.0314 0.262,-0.0629 0.132,-0.0316 0.131,-0.0317 0.131,-0.0317 0.131,-0.0318"
       style="fill:none;stroke:#3f3d99;stroke-width:1px;stroke-opacity:1" />
  </g>
  <g
     id="g33"
     clip-path="url(#cp3)"
     transform="translate(-74,-13)">
    <clipPath
       id="cp3">
      <polygon
         id="polygon28"
         points="474,293 474,33 74,33 74,293 " />
    </clipPath>
    <path
       inkscape:connector-curvature="0"
       id="polyline31"
       d="m 90,276.058 v -4"
       style="fill:none;stroke:#000000;stroke-width:1.91022003px;stroke-opacity:1" />
  </g>
  <g
     id="g40"
     clip-path="url(#cp4)"
     transform="translate(9.5,266.05836)">
    <clipPath
       id="cp4">
      <polygon
         id="polygon35"
         points="14.5,12.9416 14.5,-1.05836 -0.5,-1.05836 -0.5,12.9416 " />
    </clipPath>
    <g
       id="text38"
       style="font-size:10px;font-family:'Times New Roman';fill:#000000"
       aria-label="0.0">
      <path
         inkscape:connector-curvature="0"
         id="path1335"
         style="font-size:10px;font-family:'Times New Roman';fill:#000000"
         d="m 0.36132813,6.7285156 q 0,-1.1328125 0.34179687,-1.9482422 0.3417969,-0.8203125 0.9082031,-1.2207031 0.4394532,-0.3173828 0.9082032,-0.3173828 0.7617187,0 1.3671875,0.7763672 0.7568359,0.961914 0.7568359,2.6074219 0,1.1523437 -0.3320313,1.9580078 -0.3320312,0.805664 -0.8496093,1.171875 -0.5126953,0.3613286 -0.991211,0.3613286 -0.9472656,0 -1.57714841,-1.1181646 Q 0.36132813,8.0566406 0.36132813,6.7285156 Z M 1.3183594,6.8505859 q 0,1.3671875 0.336914,2.2314454 0.2783203,0.727539 0.8300782,0.727539 0.2636718,0 0.546875,-0.234375 0.2832031,-0.2392578 0.4296875,-0.7958984 0.2246093,-0.8398438 0.2246093,-2.3681641 0,-1.1328125 -0.234375,-1.8896484 Q 3.2763672,3.9599609 2.9980469,3.7255859 2.7978516,3.5644531 2.5146484,3.5644531 q -0.3320312,0 -0.5908203,0.2978516 Q 1.5722656,4.2675781 1.4453125,5.1367187 1.3183594,6.0058594 1.3183594,6.8505859 Z" />
      <path
         inkscape:connector-curvature="0"
         id="path1337"
         style="font-size:10px;font-family:'Times New Roman';fill:#000000"
         d="m 6.25,9.0527344 q 0.2294922,0 0.3857422,0.1611328 0.15625,0.15625 0.15625,0.3808594 0,0.2246093 -0.1611328,0.3857422 Q 6.4746094,10.136719 6.25,10.136719 q -0.2246094,0 -0.3857422,-0.1562502 -0.15625,-0.1611329 -0.15625,-0.3857422 0,-0.2294922 0.15625,-0.3857422 Q 6.0253906,9.0527344 6.25,9.0527344 Z" />
      <path
         inkscape:connector-curvature="0"
         id="path1339"
         style="font-size:10px;font-family:'Times New Roman';fill:#000000"
         d="m 7.8613281,6.7285156 q 0,-1.1328125 0.3417969,-1.9482422 0.3417969,-0.8203125 0.9082031,-1.2207031 0.4394532,-0.3173828 0.9082029,-0.3173828 0.761719,0 1.367188,0.7763672 0.756836,0.961914 0.756836,2.6074219 0,1.1523437 -0.332032,1.9580078 -0.332031,0.805664 -0.849609,1.171875 -0.512695,0.3613286 -0.9912109,0.3613286 -0.9472656,0 -1.5771484,-1.1181646 Q 7.8613281,8.0566406 7.8613281,6.7285156 Z m 0.9570313,0.1220703 q 0,1.3671875 0.336914,2.2314454 0.2783204,0.727539 0.8300782,0.727539 0.2636714,0 0.5468754,-0.234375 0.283203,-0.2392578 0.429687,-0.7958984 0.224609,-0.8398438 0.224609,-2.3681641 0,-1.1328125 -0.234375,-1.8896484 -0.175781,-0.5615235 -0.454101,-0.7958985 -0.200195,-0.1611328 -0.483399,-0.1611328 -0.3320308,0 -0.5908199,0.2978516 Q 9.0722656,4.2675781 8.9453125,5.1367187 8.8183594,6.0058594 8.8183594,6.8505859 Z" />
    </g>
  </g>
  <g
     id="g47"
     clip-path="url(#cp5)"
     transform="translate(-74,-13)">
    <clipPath
       id="cp5">
      <polygon
         id="polygon42"
         points="474,293 474,33 74,33 74,293 " />
    </clipPath>
    <path
       inkscape:connector-curvature="0"
       id="polyline45"
       d="m 102.161,276.058 v -2.4"
       style="fill:none;stroke:#000000;stroke-width:1.91022003px;stroke-opacity:1" />
  </g>
  <g
     id="g54"
     clip-path="url(#cp6)"
     transform="translate(-74,-13)">
    <clipPath
       id="cp6">
      <polygon
         id="polygon49"
         points="474,293 474,33 74,33 74,293 " />
    </clipPath>
    <path
       inkscape:connector-curvature="0"
       id="polyline52"
       d="m 114.322,276.058 v -2.4"
       style="fill:none;stroke:#000000;stroke-width:1.91022003px;stroke-opacity:1" />
  </g>
  <g
     id="g61"
     clip-path="url(#cp7)"
     transform="translate(-74,-13)">
    <clipPath
       id="cp7">
      <polygon
         id="polygon56"
         points="474,293 474,33 74,33 74,293 " />
    </clipPath>
    <path
       inkscape:connector-curvature="0"
       id="polyline59"
       d="m 126.483,276.058 v -2.4"
       style="fill:none;stroke:#000000;stroke-width:1.91022003px;stroke-opacity:1" />
  </g>
  <g
     id="g68"
     clip-path="url(#cp8)"
     transform="translate(-74,-13)">
    <clipPath
       id="cp8">
      <polygon
         id="polygon63"
         points="474,293 474,33 74,33 74,293 " />
    </clipPath>
    <path
       inkscape:connector-curvature="0"
       id="polyline66"
       d="m 138.643,276.058 v -4"
       style="fill:none;stroke:#000000;stroke-width:1.91022003px;stroke-opacity:1" />
  </g>
  <g
     id="g75"
     clip-path="url(#cp9)"
     transform="translate(58.14347,266.05836)">
    <clipPath
       id="cp9">
      <polygon
         id="polygon70"
         points="13.8565,12.9416 13.8565,-1.05836 -1.14347,-1.05836 -1.14347,12.9416 " />
    </clipPath>
    <g
       id="text73"
       style="font-size:10px;font-family:'Times New Roman';fill:#000000"
       aria-label="0.2">
      <path
         inkscape:connector-curvature="0"
         id="path1346"
         style="font-size:10px;font-family:'Times New Roman';fill:#000000"
         d="m 0.36132813,6.7285156 q 0,-1.1328125 0.34179687,-1.9482422 0.3417969,-0.8203125 0.9082031,-1.2207031 0.4394532,-0.3173828 0.9082032,-0.3173828 0.7617187,0 1.3671875,0.7763672 0.7568359,0.961914 0.7568359,2.6074219 0,1.1523437 -0.3320313,1.9580078 -0.3320312,0.805664 -0.8496093,1.171875 -0.5126953,0.3613286 -0.991211,0.3613286 -0.9472656,0 -1.57714841,-1.1181646 Q 0.36132813,8.0566406 0.36132813,6.7285156 Z M 1.3183594,6.8505859 q 0,1.3671875 0.336914,2.2314454 0.2783203,0.727539 0.8300782,0.727539 0.2636718,0 0.546875,-0.234375 0.2832031,-0.2392578 0.4296875,-0.7958984 0.2246093,-0.8398438 0.2246093,-2.3681641 0,-1.1328125 -0.234375,-1.8896484 Q 3.2763672,3.9599609 2.9980469,3.7255859 2.7978516,3.5644531 2.5146484,3.5644531 q -0.3320312,0 -0.5908203,0.2978516 Q 1.5722656,4.2675781 1.4453125,5.1367187 1.3183594,6.0058594 1.3183594,6.8505859 Z" />
      <path
         inkscape:connector-curvature="0"
         id="path1348"
         style="font-size:10px;font-family:'Times New Roman';fill:#000000"
         d="m 6.25,9.0527344 q 0.2294922,0 0.3857422,0.1611328 0.15625,0.15625 0.15625,0.3808594 0,0.2246093 -0.1611328,0.3857422 Q 6.4746094,10.136719 6.25,10.136719 q -0.2246094,0 -0.3857422,-0.1562502 -0.15625,-0.1611329 -0.15625,-0.3857422 0,-0.2294922 0.15625,-0.3857422 Q 6.0253906,9.0527344 6.25,9.0527344 Z" />
      <path
         inkscape:connector-curvature="0"
         id="path1350"
         style="font-size:10px;font-family:'Times New Roman';fill:#000000"
         d="M 12.084961,8.7255859 11.621094,10 H 7.7148437 V 9.8193359 q 1.7236329,-1.5722656 2.4267583,-2.5683593 0.703125,-0.9960938 0.703125,-1.8212891 0,-0.6298828 -0.385743,-1.0351563 -0.385742,-0.4052734 -0.9228512,-0.4052734 -0.4882812,0 -0.8789062,0.2880859 -0.3857422,0.2832032 -0.5712891,0.834961 H 7.9052734 q 0.1220704,-0.9033203 0.625,-1.3867188 0.5078125,-0.4833984 1.2646485,-0.4833984 0.8056641,0 1.3427731,0.5175781 0.541993,0.5175781 0.541993,1.2207031 0,0.5029297 -0.234375,1.0058594 -0.361329,0.7910156 -1.171875,1.6748047 -1.2158208,1.328125 -1.5185552,1.6015625 h 1.7285152 q 0.527344,0 0.737305,-0.039063 0.214844,-0.039063 0.385742,-0.15625 0.170899,-0.1220703 0.297852,-0.3417969 z" />
    </g>
  </g>
  <g
     id="g82"
     clip-path="url(#cp10)"
     transform="translate(-74,-13)">
    <clipPath
       id="cp10">
      <polygon
         id="polygon77"
         points="474,293 474,33 74,33 74,293 " />
    </clipPath>
    <path
       inkscape:connector-curvature="0"
       id="polyline80"
       d="m 150.804,276.058 v -2.4"
       style="fill:none;stroke:#000000;stroke-width:1.91022003px;stroke-opacity:1" />
  </g>
  <g
     id="g89"
     clip-path="url(#cp11)"
     transform="translate(-74,-13)">
    <clipPath
       id="cp11">
      <polygon
         id="polygon84"
         points="474,293 474,33 74,33 74,293 " />
    </clipPath>
    <path
       inkscape:connector-curvature="0"
       id="polyline87"
       d="m 162.965,276.058 v -2.4"
       style="fill:none;stroke:#000000;stroke-width:1.91022003px;stroke-opacity:1" />
  </g>
  <g
     id="g96"
     clip-path="url(#cp12)"
     transform="translate(-74,-13)">
    <clipPath
       id="cp12">
      <polygon
         id="polygon91"
         points="474,293 474,33 74,33 74,293 " />
    </clipPath>
    <path
       inkscape:connector-curvature="0"
       id="polyline94"
       d="m 175.126,276.058 v -2.4"
       style="fill:none;stroke:#000000;stroke-width:1.91022003px;stroke-opacity:1" />
  </g>
  <g
     id="g103"
     clip-path="url(#cp13)"
     transform="translate(-74,-13)">
    <clipPath
       id="cp13">
      <polygon
         id="polygon98"
         points="474,293 474,33 74,33 74,293 " />
    </clipPath>
    <path
       inkscape:connector-curvature="0"
       id="polyline101"
       d="m 187.287,276.058 v -4"
       style="fill:none;stroke:#000000;stroke-width:1.91022003px;stroke-opacity:1" />
  </g>
  <g
     id="g110"
     clip-path="url(#cp14)"
     transform="translate(106.78693,266.05836)">
    <clipPath
       id="cp14">
      <polygon
         id="polygon105"
         points="14.2131,12.9416 14.2131,-1.05836 -0.786932,-1.05836 -0.786932,12.9416 " />
    </clipPath>
    <g
       id="text108"
       style="font-size:10px;font-family:'Times New Roman';fill:#000000"
       aria-label="0.4">
      <path
         inkscape:connector-curvature="0"
         id="path1357"
         style="font-size:10px;font-family:'Times New Roman';fill:#000000"
         d="m 0.36132813,6.7285156 q 0,-1.1328125 0.34179687,-1.9482422 0.3417969,-0.8203125 0.9082031,-1.2207031 0.4394532,-0.3173828 0.9082032,-0.3173828 0.7617187,0 1.3671875,0.7763672 0.7568359,0.961914 0.7568359,2.6074219 0,1.1523437 -0.3320313,1.9580078 -0.3320312,0.805664 -0.8496093,1.171875 -0.5126953,0.3613286 -0.991211,0.3613286 -0.9472656,0 -1.57714841,-1.1181646 Q 0.36132813,8.0566406 0.36132813,6.7285156 Z M 1.3183594,6.8505859 q 0,1.3671875 0.336914,2.2314454 0.2783203,0.727539 0.8300782,0.727539 0.2636718,0 0.546875,-0.234375 0.2832031,-0.2392578 0.4296875,-0.7958984 0.2246093,-0.8398438 0.2246093,-2.3681641 0,-1.1328125 -0.234375,-1.8896484 Q 3.2763672,3.9599609 2.9980469,3.7255859 2.7978516,3.5644531 2.5146484,3.5644531 q -0.3320312,0 -0.5908203,0.2978516 Q 1.5722656,4.2675781 1.4453125,5.1367187 1.3183594,6.0058594 1.3183594,6.8505859 Z" />
      <path
         inkscape:connector-curvature="0"
         id="path1359"
         style="font-size:10px;font-family:'Times New Roman';fill:#000000"
         d="m 6.25,9.0527344 q 0.2294922,0 0.3857422,0.1611328 0.15625,0.15625 0.15625,0.3808594 0,0.2246093 -0.1611328,0.3857422 Q 6.4746094,10.136719 6.25,10.136719 q -0.2246094,0 -0.3857422,-0.1562502 -0.15625,-0.1611329 -0.15625,-0.3857422 0,-0.2294922 0.15625,-0.3857422 Q 6.0253906,9.0527344 6.25,9.0527344 Z" />
      <path
         inkscape:connector-curvature="0"
         id="path1361"
         style="font-size:10px;font-family:'Times New Roman';fill:#000000"
         d="M 12.15332,7.5585937 V 8.2519531 H 11.264648 V 10 H 10.458984 V 8.2519531 H 7.65625 v -0.625 l 3.071289,-4.3847656 h 0.537109 v 4.3164062 z m -1.694336,0 V 4.2724609 L 8.1347656,7.5585937 Z" />
    </g>
  </g>
  <g
     id="g117"
     clip-path="url(#cp15)"
     transform="translate(-74,-13)">
    <clipPath
       id="cp15">
      <polygon
         id="polygon112"
         points="474,293 474,33 74,33 74,293 " />
    </clipPath>
    <path
       inkscape:connector-curvature="0"
       id="polyline115"
       d="m 199.448,276.058 v -2.4"
       style="fill:none;stroke:#000000;stroke-width:1.91022003px;stroke-opacity:1" />
  </g>
  <g
     id="g124"
     clip-path="url(#cp16)"
     transform="translate(-74,-13)">
    <clipPath
       id="cp16">
      <polygon
         id="polygon119"
         points="474,293 474,33 74,33 74,293 " />
    </clipPath>
    <path
       inkscape:connector-curvature="0"
       id="polyline122"
       d="m 211.609,276.058 v -2.4"
       style="fill:none;stroke:#000000;stroke-width:1.91022003px;stroke-opacity:1" />
  </g>
  <g
     id="g131"
     clip-path="url(#cp17)"
     transform="translate(-74,-13)">
    <clipPath
       id="cp17">
      <polygon
         id="polygon126"
         points="474,293 474,33 74,33 74,293 " />
    </clipPath>
    <path
       inkscape:connector-curvature="0"
       id="polyline129"
       d="m 223.77,276.058 v -2.4"
       style="fill:none;stroke:#000000;stroke-width:1.91022003px;stroke-opacity:1" />
  </g>
  <g
     id="g138"
     clip-path="url(#cp18)"
     transform="translate(-74,-13)">
    <clipPath
       id="cp18">
      <polygon
         id="polygon133"
         points="474,293 474,33 74,33 74,293 " />
    </clipPath>
    <path
       inkscape:connector-curvature="0"
       id="polyline136"
       d="m 235.93,276.058 v -4"
       style="fill:none;stroke:#000000;stroke-width:1.91022003px;stroke-opacity:1" />
  </g>
  <g
     id="g145"
     clip-path="url(#cp19)"
     transform="translate(155.4304,266.05836)">
    <clipPath
       id="cp19">
      <polygon
         id="polygon140"
         points="13.5696,12.9416 13.5696,-1.05836 -1.4304,-1.05836 -1.4304,12.9416 " />
    </clipPath>
    <g
       id="text143"
       style="font-size:10px;font-family:'Times New Roman';fill:#000000"
       aria-label="0.6">
      <path
         inkscape:connector-curvature="0"
         id="path1368"
         style="font-size:10px;font-family:'Times New Roman';fill:#000000"
         d="m 0.36132813,6.7285156 q 0,-1.1328125 0.34179687,-1.9482422 0.3417969,-0.8203125 0.9082031,-1.2207031 0.4394532,-0.3173828 0.9082032,-0.3173828 0.7617187,0 1.3671875,0.7763672 0.7568359,0.961914 0.7568359,2.6074219 0,1.1523437 -0.3320313,1.9580078 -0.3320312,0.805664 -0.8496093,1.171875 -0.5126953,0.3613286 -0.991211,0.3613286 -0.9472656,0 -1.57714841,-1.1181646 Q 0.36132813,8.0566406 0.36132813,6.7285156 Z M 1.3183594,6.8505859 q 0,1.3671875 0.336914,2.2314454 0.2783203,0.727539 0.8300782,0.727539 0.2636718,0 0.546875,-0.234375 0.2832031,-0.2392578 0.4296875,-0.7958984 0.2246093,-0.8398438 0.2246093,-2.3681641 0,-1.1328125 -0.234375,-1.8896484 Q 3.2763672,3.9599609 2.9980469,3.7255859 2.7978516,3.5644531 2.5146484,3.5644531 q -0.3320312,0 -0.5908203,0.2978516 Q 1.5722656,4.2675781 1.4453125,5.1367187 1.3183594,6.0058594 1.3183594,6.8505859 Z" />
      <path
         inkscape:connector-curvature="0"
         id="path1370"
         style="font-size:10px;font-family:'Times New Roman';fill:#000000"
         d="m 6.25,9.0527344 q 0.2294922,0 0.3857422,0.1611328 0.15625,0.15625 0.15625,0.3808594 0,0.2246093 -0.1611328,0.3857422 Q 6.4746094,10.136719 6.25,10.136719 q -0.2246094,0 -0.3857422,-0.1562502 -0.15625,-0.1611329 -0.15625,-0.3857422 0,-0.2294922 0.15625,-0.3857422 Q 6.0253906,9.0527344 6.25,9.0527344 Z" />
      <path
         inkscape:connector-curvature="0"
         id="path1372"
         style="font-size:10px;font-family:'Times New Roman';fill:#000000"
         d="M 11.982422,3.2421875 V 3.4228516 Q 11.337891,3.4863281 10.927734,3.6816406 10.522461,3.8720703 10.12207,4.2675781 9.7265625,4.6630859 9.4628906,5.1513672 9.2041016,5.6347656 9.0283203,6.3037109 9.7314453,5.8203125 10.439453,5.8203125 q 0.678711,0 1.176758,0.546875 0.498047,0.546875 0.498047,1.40625 0,0.8300781 -0.50293,1.5136719 -0.605469,0.8300786 -1.601562,0.8300786 -0.6787113,0 -1.1523441,-0.4492192 -0.9277344,-0.8740235 -0.9277344,-2.2656251 0,-0.8886718 0.3564453,-1.6894531 Q 8.6425781,4.9121094 9.3017578,4.2919922 9.9658203,3.671875 10.571289,3.4570313 11.176758,3.2421875 11.699219,3.2421875 Z M 8.9453125,6.6601562 q -0.087891,0.6591797 -0.087891,1.0644532 0,0.46875 0.1708984,1.0205078 0.1757813,0.546875 0.5175781,0.8691406 0.2490235,0.2294922 0.605469,0.2294922 0.424805,0 0.756836,-0.4003906 0.336914,-0.4003906 0.336914,-1.1425781 0,-0.834961 -0.332031,-1.4453126 -0.332031,-0.6103515 -0.9423833,-0.6103515 -0.1855468,0 -0.4003906,0.078125 -0.2099609,0.078125 -0.6249996,0.336914 z" />
    </g>
  </g>
  <g
     id="g152"
     clip-path="url(#cp20)"
     transform="translate(-74,-13)">
    <clipPath
       id="cp20">
      <polygon
         id="polygon147"
         points="474,293 474,33 74,33 74,293 " />
    </clipPath>
    <path
       inkscape:connector-curvature="0"
       id="polyline150"
       d="m 248.091,276.058 v -2.4"
       style="fill:none;stroke:#000000;stroke-width:1.91022003px;stroke-opacity:1" />
  </g>
  <g
     id="g159"
     clip-path="url(#cp21)"
     transform="translate(-74,-13)">
    <clipPath
       id="cp21">
      <polygon
         id="polygon154"
         points="474,293 474,33 74,33 74,293 " />
    </clipPath>
    <path
       inkscape:connector-curvature="0"
       id="polyline157"
       d="m 260.252,276.058 v -2.4"
       style="fill:none;stroke:#000000;stroke-width:1.91022003px;stroke-opacity:1" />
  </g>
  <g
     id="g166"
     clip-path="url(#cp22)"
     transform="translate(-74,-13)">
    <clipPath
       id="cp22">
      <polygon
         id="polygon161"
         points="474,293 474,33 74,33 74,293 " />
    </clipPath>
    <path
       inkscape:connector-curvature="0"
       id="polyline164"
       d="m 272.413,276.058 v -2.4"
       style="fill:none;stroke:#000000;stroke-width:1.91022003px;stroke-opacity:1" />
  </g>
  <g
     id="g173"
     clip-path="url(#cp23)"
     transform="translate(-74,-13)">
    <clipPath
       id="cp23">
      <polygon
         id="polygon168"
         points="474,293 474,33 74,33 74,293 " />
    </clipPath>
    <path
       inkscape:connector-curvature="0"
       id="polyline171"
       d="m 284.574,276.058 v -4"
       style="fill:none;stroke:#000000;stroke-width:1.91022003px;stroke-opacity:1" />
  </g>
  <g
     id="g180"
     clip-path="url(#cp24)"
     transform="translate(204.07386,266.05836)">
    <clipPath
       id="cp24">
      <polygon
         id="polygon175"
         points="13.9261,12.9416 13.9261,-1.05836 -1.07386,-1.05836 -1.07386,12.9416 " />
    </clipPath>
    <g
       id="text178"
       style="font-size:10px;font-family:'Times New Roman';fill:#000000"
       aria-label="0.8">
      <path
         inkscape:connector-curvature="0"
         id="path1379"
         style="font-size:10px;font-family:'Times New Roman';fill:#000000"
         d="m 0.36132813,6.7285156 q 0,-1.1328125 0.34179687,-1.9482422 0.3417969,-0.8203125 0.9082031,-1.2207031 0.4394532,-0.3173828 0.9082032,-0.3173828 0.7617187,0 1.3671875,0.7763672 0.7568359,0.961914 0.7568359,2.6074219 0,1.1523437 -0.3320313,1.9580078 -0.3320312,0.805664 -0.8496093,1.171875 -0.5126953,0.3613286 -0.991211,0.3613286 -0.9472656,0 -1.57714841,-1.1181646 Q 0.36132813,8.0566406 0.36132813,6.7285156 Z M 1.3183594,6.8505859 q 0,1.3671875 0.336914,2.2314454 0.2783203,0.727539 0.8300782,0.727539 0.2636718,0 0.546875,-0.234375 0.2832031,-0.2392578 0.4296875,-0.7958984 0.2246093,-0.8398438 0.2246093,-2.3681641 0,-1.1328125 -0.234375,-1.8896484 Q 3.2763672,3.9599609 2.9980469,3.7255859 2.7978516,3.5644531 2.5146484,3.5644531 q -0.3320312,0 -0.5908203,0.2978516 Q 1.5722656,4.2675781 1.4453125,5.1367187 1.3183594,6.0058594 1.3183594,6.8505859 Z" />
      <path
         inkscape:connector-curvature="0"
         id="path1381"
         style="font-size:10px;font-family:'Times New Roman';fill:#000000"
         d="m 6.25,9.0527344 q 0.2294922,0 0.3857422,0.1611328 0.15625,0.15625 0.15625,0.3808594 0,0.2246093 -0.1611328,0.3857422 Q 6.4746094,10.136719 6.25,10.136719 q -0.2246094,0 -0.3857422,-0.1562502 -0.15625,-0.1611329 -0.15625,-0.3857422 0,-0.2294922 0.15625,-0.3857422 Q 6.0253906,9.0527344 6.25,9.0527344 Z" />
      <path
         inkscape:connector-curvature="0"
         id="path1383"
         style="font-size:10px;font-family:'Times New Roman';fill:#000000"
         d="M 9.4189453,6.6650391 Q 8.6328125,6.0205078 8.4033203,5.6298828 8.1787109,5.2392578 8.1787109,4.8193359 q 0,-0.6445312 0.4980469,-1.1083984 Q 9.1748047,3.2421875 10,3.2421875 q 0.800781,0 1.289063,0.4345703 0.488281,0.4345703 0.488281,0.9912109 0,0.3710938 -0.263672,0.756836 -0.263672,0.3857422 -1.098633,0.9082031 0.859375,0.6640625 1.137695,1.0449219 0.371094,0.4980469 0.371094,1.0498047 0,0.6982422 -0.532226,1.196289 -0.532227,0.4931646 -1.3964848,0.4931646 -0.9423828,0 -1.4697266,-0.5908208 -0.4199218,-0.4736328 -0.4199218,-1.0351563 0,-0.4394531 0.2929687,-0.8691406 Q 8.6962891,7.1875 9.4189453,6.6650391 Z M 10.185547,6.1425781 Q 10.771484,5.6152344 10.927734,5.3125 q 0.15625,-0.3076172 0.15625,-0.6933594 0,-0.5126953 -0.288086,-0.8007812 -0.288085,-0.2929688 -0.786132,-0.2929688 -0.4980472,0 -0.8105472,0.288086 -0.3125,0.2880859 -0.3125,0.6738281 0,0.2539062 0.1269531,0.5078125 0.1318359,0.2539062 0.3710937,0.4833984 z M 9.6484375,6.8505859 Q 9.2431641,7.1923828 9.0478516,7.5976562 8.8525391,7.9980469 8.8525391,8.4667969 q 0,0.6298828 0.3417968,1.0107422 0.3466797,0.3759765 0.8789061,0.3759765 0.527344,0 0.844727,-0.2978515 0.317383,-0.2978516 0.317383,-0.7226563 0,-0.3515625 -0.185547,-0.6298828 -0.34668,-0.5175781 -1.4013675,-1.3525391 z" />
    </g>
  </g>
  <g
     id="g187"
     clip-path="url(#cp25)"
     transform="translate(-74,-13)">
    <clipPath
       id="cp25">
      <polygon
         id="polygon182"
         points="474,293 474,33 74,33 74,293 " />
    </clipPath>
    <path
       inkscape:connector-curvature="0"
       id="polyline185"
       d="m 296.735,276.058 v -2.4"
       style="fill:none;stroke:#000000;stroke-width:1.91022003px;stroke-opacity:1" />
  </g>
  <g
     id="g194"
     clip-path="url(#cp26)"
     transform="translate(-74,-13)">
    <clipPath
       id="cp26">
      <polygon
         id="polygon189"
         points="474,293 474,33 74,33 74,293 " />
    </clipPath>
    <path
       inkscape:connector-curvature="0"
       id="polyline192"
       d="m 308.896,276.058 v -2.4"
       style="fill:none;stroke:#000000;stroke-width:1.91022003px;stroke-opacity:1" />
  </g>
  <g
     id="g201"
     clip-path="url(#cp27)"
     transform="translate(-74,-13)">
    <clipPath
       id="cp27">
      <polygon
         id="polygon196"
         points="474,293 474,33 74,33 74,293 " />
    </clipPath>
    <path
       inkscape:connector-curvature="0"
       id="polyline199"
       d="m 321.056,276.058 v -2.4"
       style="fill:none;stroke:#000000;stroke-width:1.91022003px;stroke-opacity:1" />
  </g>
  <g
     id="g208"
     clip-path="url(#cp28)"
     transform="translate(-74,-13)">
    <clipPath
       id="cp28">
      <polygon
         id="polygon203"
         points="474,293 474,33 74,33 74,293 " />
    </clipPath>
    <path
       inkscape:connector-curvature="0"
       id="polyline206"
       d="m 333.217,276.058 v -4"
       style="fill:none;stroke:#000000;stroke-width:1.91022003px;stroke-opacity:1" />
  </g>
  <g
     id="g215"
     clip-path="url(#cp29)"
     transform="translate(252.71733,266.05836)">
    <clipPath
       id="cp29">
      <polygon
         id="polygon210"
         points="14.2827,12.9416 14.2827,-1.05836 -0.717329,-1.05836 -0.717329,12.9416 " />
    </clipPath>
    <g
       id="text213"
       style="font-size:10px;font-family:'Times New Roman';fill:#000000"
       aria-label="1.0">
      <path
         inkscape:connector-curvature="0"
         id="path1390"
         style="font-size:10px;font-family:'Times New Roman';fill:#000000"
         d="M 1.171875,4.0283203 2.7832031,3.2421875 h 0.1611328 v 5.5908203 q 0,0.5566406 0.043945,0.6933594 0.048828,0.1367187 0.1953125,0.2099609 0.1464843,0.073242 0.5957031,0.083008 V 10 H 1.2890625 V 9.8193359 q 0.46875,-0.00977 0.6054687,-0.078125 Q 2.03125,9.6679688 2.0849609,9.5507813 2.1386719,9.4287109 2.1386719,8.8330078 V 5.2587891 q 0,-0.7226563 -0.048828,-0.9277344 Q 2.0556641,4.1748047 1.9628906,4.1015625 1.875,4.0283203 1.7480469,4.0283203 q -0.1806641,0 -0.5029297,0.1513672 z" />
      <path
         inkscape:connector-curvature="0"
         id="path1392"
         style="font-size:10px;font-family:'Times New Roman';fill:#000000"
         d="m 6.25,9.0527344 q 0.2294922,0 0.3857422,0.1611328 0.15625,0.15625 0.15625,0.3808594 0,0.2246093 -0.1611328,0.3857422 Q 6.4746094,10.136719 6.25,10.136719 q -0.2246094,0 -0.3857422,-0.1562502 -0.15625,-0.1611329 -0.15625,-0.3857422 0,-0.2294922 0.15625,-0.3857422 Q 6.0253906,9.0527344 6.25,9.0527344 Z" />
      <path
         inkscape:connector-curvature="0"
         id="path1394"
         style="font-size:10px;font-family:'Times New Roman';fill:#000000"
         d="m 7.8613281,6.7285156 q 0,-1.1328125 0.3417969,-1.9482422 0.3417969,-0.8203125 0.9082031,-1.2207031 0.4394532,-0.3173828 0.9082029,-0.3173828 0.761719,0 1.367188,0.7763672 0.756836,0.961914 0.756836,2.6074219 0,1.1523437 -0.332032,1.9580078 -0.332031,0.805664 -0.849609,1.171875 -0.512695,0.3613286 -0.9912109,0.3613286 -0.9472656,0 -1.5771484,-1.1181646 Q 7.8613281,8.0566406 7.8613281,6.7285156 Z m 0.9570313,0.1220703 q 0,1.3671875 0.336914,2.2314454 0.2783204,0.727539 0.8300782,0.727539 0.2636714,0 0.5468754,-0.234375 0.283203,-0.2392578 0.429687,-0.7958984 0.224609,-0.8398438 0.224609,-2.3681641 0,-1.1328125 -0.234375,-1.8896484 -0.175781,-0.5615235 -0.454101,-0.7958985 -0.200195,-0.1611328 -0.483399,-0.1611328 -0.3320308,0 -0.5908199,0.2978516 Q 9.0722656,4.2675781 8.9453125,5.1367187 8.8183594,6.0058594 8.8183594,6.8505859 Z" />
    </g>
  </g>
  <g
     id="g222"
     clip-path="url(#cp30)"
     transform="translate(-74,-13)">
    <clipPath
       id="cp30">
      <polygon
         id="polygon217"
         points="474,293 474,33 74,33 74,293 " />
    </clipPath>
    <path
       inkscape:connector-curvature="0"
       id="polyline220"
       d="m 345.378,276.058 v -2.4"
       style="fill:none;stroke:#000000;stroke-width:1.91022003px;stroke-opacity:1" />
  </g>
  <g
     id="g229"
     clip-path="url(#cp31)"
     transform="translate(-74,-13)">
    <clipPath
       id="cp31">
      <polygon
         id="polygon224"
         points="474,293 474,33 74,33 74,293 " />
    </clipPath>
    <path
       inkscape:connector-curvature="0"
       id="polyline227"
       d="m 357.539,276.058 v -2.4"
       style="fill:none;stroke:#000000;stroke-width:1.91022003px;stroke-opacity:1" />
  </g>
  <g
     id="g236"
     clip-path="url(#cp32)"
     transform="translate(-74,-13)">
    <clipPath
       id="cp32">
      <polygon
         id="polygon231"
         points="474,293 474,33 74,33 74,293 " />
    </clipPath>
    <path
       inkscape:connector-curvature="0"
       id="polyline234"
       d="m 369.7,276.058 v -2.4"
       style="fill:none;stroke:#000000;stroke-width:1.91022003px;stroke-opacity:1" />
  </g>
  <g
     id="g243"
     clip-path="url(#cp33)"
     transform="translate(-74,-13)">
    <clipPath
       id="cp33">
      <polygon
         id="polygon238"
         points="474,293 474,33 74,33 74,293 " />
    </clipPath>
    <path
       inkscape:connector-curvature="0"
       id="polyline241"
       d="m 381.861,276.058 v -4"
       style="fill:none;stroke:#000000;stroke-width:1.91022003px;stroke-opacity:1" />
  </g>
  <g
     id="g250"
     clip-path="url(#cp34)"
     transform="translate(301.36079,266.05836)">
    <clipPath
       id="cp34">
      <polygon
         id="polygon245"
         points="13.6392,12.9416 13.6392,-1.05836 -1.3608,-1.05836 -1.3608,12.9416 " />
    </clipPath>
    <g
       id="text248"
       style="font-size:10px;font-family:'Times New Roman';fill:#000000"
       aria-label="1.2">
      <path
         inkscape:connector-curvature="0"
         id="path1401"
         style="font-size:10px;font-family:'Times New Roman';fill:#000000"
         d="M 1.171875,4.0283203 2.7832031,3.2421875 h 0.1611328 v 5.5908203 q 0,0.5566406 0.043945,0.6933594 0.048828,0.1367187 0.1953125,0.2099609 0.1464843,0.073242 0.5957031,0.083008 V 10 H 1.2890625 V 9.8193359 q 0.46875,-0.00977 0.6054687,-0.078125 Q 2.03125,9.6679688 2.0849609,9.5507813 2.1386719,9.4287109 2.1386719,8.8330078 V 5.2587891 q 0,-0.7226563 -0.048828,-0.9277344 Q 2.0556641,4.1748047 1.9628906,4.1015625 1.875,4.0283203 1.7480469,4.0283203 q -0.1806641,0 -0.5029297,0.1513672 z" />
      <path
         inkscape:connector-curvature="0"
         id="path1403"
         style="font-size:10px;font-family:'Times New Roman';fill:#000000"
         d="m 6.25,9.0527344 q 0.2294922,0 0.3857422,0.1611328 0.15625,0.15625 0.15625,0.3808594 0,0.2246093 -0.1611328,0.3857422 Q 6.4746094,10.136719 6.25,10.136719 q -0.2246094,0 -0.3857422,-0.1562502 -0.15625,-0.1611329 -0.15625,-0.3857422 0,-0.2294922 0.15625,-0.3857422 Q 6.0253906,9.0527344 6.25,9.0527344 Z" />
      <path
         inkscape:connector-curvature="0"
         id="path1405"
         style="font-size:10px;font-family:'Times New Roman';fill:#000000"
         d="M 12.084961,8.7255859 11.621094,10 H 7.7148437 V 9.8193359 q 1.7236329,-1.5722656 2.4267583,-2.5683593 0.703125,-0.9960938 0.703125,-1.8212891 0,-0.6298828 -0.385743,-1.0351563 -0.385742,-0.4052734 -0.9228512,-0.4052734 -0.4882812,0 -0.8789062,0.2880859 -0.3857422,0.2832032 -0.5712891,0.834961 H 7.9052734 q 0.1220704,-0.9033203 0.625,-1.3867188 0.5078125,-0.4833984 1.2646485,-0.4833984 0.8056641,0 1.3427731,0.5175781 0.541993,0.5175781 0.541993,1.2207031 0,0.5029297 -0.234375,1.0058594 -0.361329,0.7910156 -1.171875,1.6748047 -1.2158208,1.328125 -1.5185552,1.6015625 h 1.7285152 q 0.527344,0 0.737305,-0.039063 0.214844,-0.039063 0.385742,-0.15625 0.170899,-0.1220703 0.297852,-0.3417969 z" />
    </g>
  </g>
  <g
     id="g257"
     clip-path="url(#cp35)"
     transform="translate(-74,-13)">
    <clipPath
       id="cp35">
      <polygon
         id="polygon252"
         points="474,293 474,33 74,33 74,293 " />
    </clipPath>
    <path
       inkscape:connector-curvature="0"
       id="polyline255"
       d="m 394.022,276.058 v -2.4"
       style="fill:none;stroke:#000000;stroke-width:1.91022003px;stroke-opacity:1" />
  </g>
  <g
     id="g264"
     clip-path="url(#cp36)"
     transform="translate(-74,-13)">
    <clipPath
       id="cp36">
      <polygon
         id="polygon259"
         points="474,293 474,33 74,33 74,293 " />
    </clipPath>
    <path
       inkscape:connector-curvature="0"
       id="polyline262"
       d="m 406.183,276.058 v -2.4"
       style="fill:none;stroke:#000000;stroke-width:1.91022003px;stroke-opacity:1" />
  </g>
  <g
     id="g271"
     clip-path="url(#cp37)"
     transform="translate(-74,-13)">
    <clipPath
       id="cp37">
      <polygon
         id="polygon266"
         points="474,293 474,33 74,33 74,293 " />
    </clipPath>
    <path
       inkscape:connector-curvature="0"
       id="polyline269"
       d="m 418.343,276.058 v -2.4"
       style="fill:none;stroke:#000000;stroke-width:1.91022003px;stroke-opacity:1" />
  </g>
  <g
     id="g278"
     clip-path="url(#cp38)"
     transform="translate(-74,-13)">
    <clipPath
       id="cp38">
      <polygon
         id="polygon273"
         points="474,293 474,33 74,33 74,293 " />
    </clipPath>
    <path
       inkscape:connector-curvature="0"
       id="polyline276"
       d="m 430.504,276.058 v -4"
       style="fill:none;stroke:#000000;stroke-width:1.91022003px;stroke-opacity:1" />
  </g>
  <g
     id="g285"
     clip-path="url(#cp39)"
     transform="translate(350.00426,266.05836)">
    <clipPath
       id="cp39">
      <polygon
         id="polygon280"
         points="13.9957,12.9416 13.9957,-1.05836 -1.00426,-1.05836 -1.00426,12.9416 " />
    </clipPath>
    <g
       id="text283"
       style="font-size:10px;font-family:'Times New Roman';fill:#000000"
       aria-label="1.4">
      <path
         inkscape:connector-curvature="0"
         id="path1412"
         style="font-size:10px;font-family:'Times New Roman';fill:#000000"
         d="M 1.171875,4.0283203 2.7832031,3.2421875 h 0.1611328 v 5.5908203 q 0,0.5566406 0.043945,0.6933594 0.048828,0.1367187 0.1953125,0.2099609 0.1464843,0.073242 0.5957031,0.083008 V 10 H 1.2890625 V 9.8193359 q 0.46875,-0.00977 0.6054687,-0.078125 Q 2.03125,9.6679688 2.0849609,9.5507813 2.1386719,9.4287109 2.1386719,8.8330078 V 5.2587891 q 0,-0.7226563 -0.048828,-0.9277344 Q 2.0556641,4.1748047 1.9628906,4.1015625 1.875,4.0283203 1.7480469,4.0283203 q -0.1806641,0 -0.5029297,0.1513672 z" />
      <path
         inkscape:connector-curvature="0"
         id="path1414"
         style="font-size:10px;font-family:'Times New Roman';fill:#000000"
         d="m 6.25,9.0527344 q 0.2294922,0 0.3857422,0.1611328 0.15625,0.15625 0.15625,0.3808594 0,0.2246093 -0.1611328,0.3857422 Q 6.4746094,10.136719 6.25,10.136719 q -0.2246094,0 -0.3857422,-0.1562502 -0.15625,-0.1611329 -0.15625,-0.3857422 0,-0.2294922 0.15625,-0.3857422 Q 6.0253906,9.0527344 6.25,9.0527344 Z" />
      <path
         inkscape:connector-curvature="0"
         id="path1416"
         style="font-size:10px;font-family:'Times New Roman';fill:#000000"
         d="M 12.15332,7.5585937 V 8.2519531 H 11.264648 V 10 H 10.458984 V 8.2519531 H 7.65625 v -0.625 l 3.071289,-4.3847656 h 0.537109 v 4.3164062 z m -1.694336,0 V 4.2724609 L 8.1347656,7.5585937 Z" />
    </g>
  </g>
  <g
     id="g292"
     clip-path="url(#cp40)"
     transform="translate(-74,-13)">
    <clipPath
       id="cp40">
      <polygon
         id="polygon287"
         points="474,293 474,33 74,33 74,293 " />
    </clipPath>
    <path
       inkscape:connector-curvature="0"
       id="polyline290"
       d="m 442.665,276.058 v -2.4"
       style="fill:none;stroke:#000000;stroke-width:1.91022003px;stroke-opacity:1" />
  </g>
  <g
     id="g299"
     clip-path="url(#cp41)"
     transform="translate(-74,-13)">
    <clipPath
       id="cp41">
      <polygon
         id="polygon294"
         points="474,293 474,33 74,33 74,293 " />
    </clipPath>
    <path
       inkscape:connector-curvature="0"
       id="polyline297"
       d="m 454.826,276.058 v -2.4"
       style="fill:none;stroke:#000000;stroke-width:1.91022003px;stroke-opacity:1" />
  </g>
  <g
     id="g306"
     clip-path="url(#cp42)"
     transform="translate(-74,-13)">
    <clipPath
       id="cp42">
      <polygon
         id="polygon301"
         points="474,293 474,33 74,33 74,293 " />
    </clipPath>
    <path
       inkscape:connector-curvature="0"
       id="polyline304"
       d="m 466.987,276.058 v -2.4"
       style="fill:none;stroke:#000000;stroke-width:1.91022003px;stroke-opacity:1" />
  </g>
  <g
     id="g313"
     clip-path="url(#cp43)"
     transform="translate(-74,-13)">
    <clipPath
       id="cp43">
      <polygon
         id="polygon308"
         points="474,293 474,33 74,33 74,293 " />
    </clipPath>
    <path
       inkscape:connector-curvature="0"
       id="polyline311"
       d="M 90,276.058 H 472.045"
       style="fill:none;stroke:#000000;stroke-width:1.91022003px;stroke-opacity:1" />
  </g>
  <g
     id="g320"
     clip-path="url(#cp44)"
     transform="translate(-74,-13)">
    <clipPath
       id="cp44">
      <polygon
         id="polygon315"
         points="474,293 474,33 74,33 74,293 " />
    </clipPath>
    <path
       inkscape:connector-curvature="0"
       id="polyline318"
       d="m 90,276.058 h 4"
       style="fill:none;stroke:#000000;stroke-width:1.91022003px;stroke-opacity:1" />
  </g>
  <g
     id="g327"
     clip-path="url(#cp45)"
     transform="translate(0,257.05836)">
    <clipPath
       id="cp45">
      <polygon
         id="polygon322"
         points="14,12.9416 14,-1.05836 0,-1.05836 0,12.9416 " />
    </clipPath>
    <g
       id="text325"
       style="font-size:10px;font-family:'Times New Roman';fill:#000000"
       aria-label="0.0">
      <path
         inkscape:connector-curvature="0"
         id="path1424"
         style="font-size:10px;font-family:'Times New Roman';fill:#000000"
         d="m 0.36132813,6.7285156 q 0,-1.1328125 0.34179687,-1.9482422 0.3417969,-0.8203125 0.9082031,-1.2207031 0.4394532,-0.3173828 0.9082032,-0.3173828 0.7617187,0 1.3671875,0.7763672 0.7568359,0.961914 0.7568359,2.6074219 0,1.1523437 -0.3320313,1.9580078 -0.3320312,0.805664 -0.8496093,1.171875 -0.5126953,0.3613286 -0.991211,0.3613286 -0.9472656,0 -1.57714841,-1.1181646 Q 0.36132813,8.0566406 0.36132813,6.7285156 Z M 1.3183594,6.8505859 q 0,1.3671875 0.336914,2.2314454 0.2783203,0.727539 0.8300782,0.727539 0.2636718,0 0.546875,-0.234375 0.2832031,-0.2392578 0.4296875,-0.7958984 0.2246093,-0.8398438 0.2246093,-2.3681641 0,-1.1328125 -0.234375,-1.8896484 Q 3.2763672,3.9599609 2.9980469,3.7255859 2.7978516,3.5644531 2.5146484,3.5644531 q -0.3320312,0 -0.5908203,0.2978516 Q 1.5722656,4.2675781 1.4453125,5.1367187 1.3183594,6.0058594 1.3183594,6.8505859 Z" />
      <path
         inkscape:connector-curvature="0"
         id="path1426"
         style="font-size:10px;font-family:'Times New Roman';fill:#000000"
         d="m 6.25,9.0527344 q 0.2294922,0 0.3857422,0.1611328 0.15625,0.15625 0.15625,0.3808594 0,0.2246093 -0.1611328,0.3857422 Q 6.4746094,10.136719 6.25,10.136719 q -0.2246094,0 -0.3857422,-0.1562502 -0.15625,-0.1611329 -0.15625,-0.3857422 0,-0.2294922 0.15625,-0.3857422 Q 6.0253906,9.0527344 6.25,9.0527344 Z" />
      <path
         inkscape:connector-curvature="0"
         id="path1428"
         style="font-size:10px;font-family:'Times New Roman';fill:#000000"
         d="m 7.8613281,6.7285156 q 0,-1.1328125 0.3417969,-1.9482422 0.3417969,-0.8203125 0.9082031,-1.2207031 0.4394532,-0.3173828 0.9082029,-0.3173828 0.761719,0 1.367188,0.7763672 0.756836,0.961914 0.756836,2.6074219 0,1.1523437 -0.332032,1.9580078 -0.332031,0.805664 -0.849609,1.171875 -0.512695,0.3613286 -0.9912109,0.3613286 -0.9472656,0 -1.5771484,-1.1181646 Q 7.8613281,8.0566406 7.8613281,6.7285156 Z m 0.9570313,0.1220703 q 0,1.3671875 0.336914,2.2314454 0.2783204,0.727539 0.8300782,0.727539 0.2636714,0 0.5468754,-0.234375 0.283203,-0.2392578 0.429687,-0.7958984 0.224609,-0.8398438 0.224609,-2.3681641 0,-1.1328125 -0.234375,-1.8896484 -0.175781,-0.5615235 -0.454101,-0.7958985 -0.200195,-0.1611328 -0.483399,-0.1611328 -0.3320308,0 -0.5908199,0.2978516 Q 9.0722656,4.2675781 8.9453125,5.1367187 8.8183594,6.0058594 8.8183594,6.8505859 Z" />
    </g>
  </g>
  <g
     id="g334"
     clip-path="url(#cp46)"
     transform="translate(-74,-13)">
    <clipPath
       id="cp46">
      <polygon
         id="polygon329"
         points="474,293 474,33 74,33 74,293 " />
    </clipPath>
    <path
       inkscape:connector-curvature="0"
       id="polyline332"
       d="m 90,264.253 h 2.4"
       style="fill:none;stroke:#000000;stroke-width:1.91022003px;stroke-opacity:1" />
  </g>
  <g
     id="g341"
     clip-path="url(#cp47)"
     transform="translate(-74,-13)">
    <clipPath
       id="cp47">
      <polygon
         id="polygon336"
         points="474,293 474,33 74,33 74,293 " />
    </clipPath>
    <path
       inkscape:connector-curvature="0"
       id="polyline339"
       d="m 90,252.447 h 2.4"
       style="fill:none;stroke:#000000;stroke-width:1.91022003px;stroke-opacity:1" />
  </g>
  <g
     id="g348"
     clip-path="url(#cp48)"
     transform="translate(-74,-13)">
    <clipPath
       id="cp48">
      <polygon
         id="polygon343"
         points="474,293 474,33 74,33 74,293 " />
    </clipPath>
    <path
       inkscape:connector-curvature="0"
       id="polyline346"
       d="m 90,240.641 h 2.4"
       style="fill:none;stroke:#000000;stroke-width:1.91022003px;stroke-opacity:1" />
  </g>
  <g
     id="g355"
     clip-path="url(#cp49)"
     transform="translate(-74,-13)">
    <clipPath
       id="cp49">
      <polygon
         id="polygon350"
         points="474,293 474,33 74,33 74,293 " />
    </clipPath>
    <path
       inkscape:connector-curvature="0"
       id="polyline353"
       d="m 90,228.835 h 4"
       style="fill:none;stroke:#000000;stroke-width:1.91022003px;stroke-opacity:1" />
  </g>
  <g
     id="g362"
     clip-path="url(#cp50)"
     transform="translate(0,209.83502)">
    <clipPath
       id="cp50">
      <polygon
         id="polygon357"
         points="14,13.165 14,-0.835018 0,-0.835018 0,13.165 " />
    </clipPath>
    <g
       id="text360"
       style="font-size:10px;font-family:'Times New Roman';fill:#000000"
       aria-label="0.2">
      <path
         inkscape:connector-curvature="0"
         id="path1435"
         style="font-size:10px;font-family:'Times New Roman';fill:#000000"
         d="m 0.36132813,6.7285156 q 0,-1.1328125 0.34179687,-1.9482422 0.3417969,-0.8203125 0.9082031,-1.2207031 0.4394532,-0.3173828 0.9082032,-0.3173828 0.7617187,0 1.3671875,0.7763672 0.7568359,0.961914 0.7568359,2.6074219 0,1.1523437 -0.3320313,1.9580078 -0.3320312,0.805664 -0.8496093,1.171875 -0.5126953,0.3613286 -0.991211,0.3613286 -0.9472656,0 -1.57714841,-1.1181646 Q 0.36132813,8.0566406 0.36132813,6.7285156 Z M 1.3183594,6.8505859 q 0,1.3671875 0.336914,2.2314454 0.2783203,0.727539 0.8300782,0.727539 0.2636718,0 0.546875,-0.234375 0.2832031,-0.2392578 0.4296875,-0.7958984 0.2246093,-0.8398438 0.2246093,-2.3681641 0,-1.1328125 -0.234375,-1.8896484 Q 3.2763672,3.9599609 2.9980469,3.7255859 2.7978516,3.5644531 2.5146484,3.5644531 q -0.3320312,0 -0.5908203,0.2978516 Q 1.5722656,4.2675781 1.4453125,5.1367187 1.3183594,6.0058594 1.3183594,6.8505859 Z" />
      <path
         inkscape:connector-curvature="0"
         id="path1437"
         style="font-size:10px;font-family:'Times New Roman';fill:#000000"
         d="m 6.25,9.0527344 q 0.2294922,0 0.3857422,0.1611328 0.15625,0.15625 0.15625,0.3808594 0,0.2246093 -0.1611328,0.3857422 Q 6.4746094,10.136719 6.25,10.136719 q -0.2246094,0 -0.3857422,-0.1562502 -0.15625,-0.1611329 -0.15625,-0.3857422 0,-0.2294922 0.15625,-0.3857422 Q 6.0253906,9.0527344 6.25,9.0527344 Z" />
      <path
         inkscape:connector-curvature="0"
         id="path1439"
         style="font-size:10px;font-family:'Times New Roman';fill:#000000"
         d="M 12.084961,8.7255859 11.621094,10 H 7.7148437 V 9.8193359 q 1.7236329,-1.5722656 2.4267583,-2.5683593 0.703125,-0.9960938 0.703125,-1.8212891 0,-0.6298828 -0.385743,-1.0351563 -0.385742,-0.4052734 -0.9228512,-0.4052734 -0.4882812,0 -0.8789062,0.2880859 -0.3857422,0.2832032 -0.5712891,0.834961 H 7.9052734 q 0.1220704,-0.9033203 0.625,-1.3867188 0.5078125,-0.4833984 1.2646485,-0.4833984 0.8056641,0 1.3427731,0.5175781 0.541993,0.5175781 0.541993,1.2207031 0,0.5029297 -0.234375,1.0058594 -0.361329,0.7910156 -1.171875,1.6748047 -1.2158208,1.328125 -1.5185552,1.6015625 h 1.7285152 q 0.527344,0 0.737305,-0.039063 0.214844,-0.039063 0.385742,-0.15625 0.170899,-0.1220703 0.297852,-0.3417969 z" />
    </g>
  </g>
  <g
     id="g369"
     clip-path="url(#cp51)"
     transform="translate(-74,-13)">
    <clipPath
       id="cp51">
      <polygon
         id="polygon364"
         points="474,293 474,33 74,33 74,293 " />
    </clipPath>
    <path
       inkscape:connector-curvature="0"
       id="polyline367"
       d="m 90,217.029 h 2.4"
       style="fill:none;stroke:#000000;stroke-width:1.91022003px;stroke-opacity:1" />
  </g>
  <g
     id="g376"
     clip-path="url(#cp52)"
     transform="translate(-74,-13)">
    <clipPath
       id="cp52">
      <polygon
         id="polygon371"
         points="474,293 474,33 74,33 74,293 " />
    </clipPath>
    <path
       inkscape:connector-curvature="0"
       id="polyline374"
       d="m 90,205.223 h 2.4"
       style="fill:none;stroke:#000000;stroke-width:1.91022003px;stroke-opacity:1" />
  </g>
  <g
     id="g383"
     clip-path="url(#cp53)"
     transform="translate(-74,-13)">
    <clipPath
       id="cp53">
      <polygon
         id="polygon378"
         points="474,293 474,33 74,33 74,293 " />
    </clipPath>
    <path
       inkscape:connector-curvature="0"
       id="polyline381"
       d="m 90,193.418 h 2.4"
       style="fill:none;stroke:#000000;stroke-width:1.91022003px;stroke-opacity:1" />
  </g>
  <g
     id="g390"
     clip-path="url(#cp54)"
     transform="translate(-74,-13)">
    <clipPath
       id="cp54">
      <polygon
         id="polygon385"
         points="474,293 474,33 74,33 74,293 " />
    </clipPath>
    <path
       inkscape:connector-curvature="0"
       id="polyline388"
       d="m 90,181.612 h 4"
       style="fill:none;stroke:#000000;stroke-width:1.91022003px;stroke-opacity:1" />
  </g>
  <g
     id="g397"
     clip-path="url(#cp55)"
     transform="translate(0,162.61167)">
    <clipPath
       id="cp55">
      <polygon
         id="polygon392"
         points="14,13.3883 14,-0.611673 0,-0.611673 0,13.3883 " />
    </clipPath>
    <g
       id="text395"
       style="font-size:10px;font-family:'Times New Roman';fill:#000000"
       aria-label="0.4">
      <path
         inkscape:connector-curvature="0"
         id="path1446"
         style="font-size:10px;font-family:'Times New Roman';fill:#000000"
         d="m 0.36132813,6.7285156 q 0,-1.1328125 0.34179687,-1.9482422 0.3417969,-0.8203125 0.9082031,-1.2207031 0.4394532,-0.3173828 0.9082032,-0.3173828 0.7617187,0 1.3671875,0.7763672 0.7568359,0.961914 0.7568359,2.6074219 0,1.1523437 -0.3320313,1.9580078 -0.3320312,0.805664 -0.8496093,1.171875 -0.5126953,0.3613286 -0.991211,0.3613286 -0.9472656,0 -1.57714841,-1.1181646 Q 0.36132813,8.0566406 0.36132813,6.7285156 Z M 1.3183594,6.8505859 q 0,1.3671875 0.336914,2.2314454 0.2783203,0.727539 0.8300782,0.727539 0.2636718,0 0.546875,-0.234375 0.2832031,-0.2392578 0.4296875,-0.7958984 0.2246093,-0.8398438 0.2246093,-2.3681641 0,-1.1328125 -0.234375,-1.8896484 Q 3.2763672,3.9599609 2.9980469,3.7255859 2.7978516,3.5644531 2.5146484,3.5644531 q -0.3320312,0 -0.5908203,0.2978516 Q 1.5722656,4.2675781 1.4453125,5.1367187 1.3183594,6.0058594 1.3183594,6.8505859 Z" />
      <path
         inkscape:connector-curvature="0"
         id="path1448"
         style="font-size:10px;font-family:'Times New Roman';fill:#000000"
         d="m 6.25,9.0527344 q 0.2294922,0 0.3857422,0.1611328 0.15625,0.15625 0.15625,0.3808594 0,0.2246093 -0.1611328,0.3857422 Q 6.4746094,10.136719 6.25,10.136719 q -0.2246094,0 -0.3857422,-0.1562502 -0.15625,-0.1611329 -0.15625,-0.3857422 0,-0.2294922 0.15625,-0.3857422 Q 6.0253906,9.0527344 6.25,9.0527344 Z" />
      <path
         inkscape:connector-curvature="0"
         id="path1450"
         style="font-size:10px;font-family:'Times New Roman';fill:#000000"
         d="M 12.15332,7.5585937 V 8.2519531 H 11.264648 V 10 H 10.458984 V 8.2519531 H 7.65625 v -0.625 l 3.071289,-4.3847656 h 0.537109 v 4.3164062 z m -1.694336,0 V 4.2724609 L 8.1347656,7.5585937 Z" />
    </g>
  </g>
  <g
     id="g404"
     clip-path="url(#cp56)"
     transform="translate(-74,-13)">
    <clipPath
       id="cp56">
      <polygon
         id="polygon399"
         points="474,293 474,33 74,33 74,293 " />
    </clipPath>
    <path
       inkscape:connector-curvature="0"
       id="polyline402"
       d="m 90,169.806 h 2.4"
       style="fill:none;stroke:#000000;stroke-width:1.91022003px;stroke-opacity:1" />
  </g>
  <g
     id="g411"
     clip-path="url(#cp57)"
     transform="translate(-74,-13)">
    <clipPath
       id="cp57">
      <polygon
         id="polygon406"
         points="474,293 474,33 74,33 74,293 " />
    </clipPath>
    <path
       inkscape:connector-curvature="0"
       id="polyline409"
       d="m 90,158 h 2.4"
       style="fill:none;stroke:#000000;stroke-width:1.91022003px;stroke-opacity:1" />
  </g>
  <g
     id="g418"
     clip-path="url(#cp58)"
     transform="translate(-74,-13)">
    <clipPath
       id="cp58">
      <polygon
         id="polygon413"
         points="474,293 474,33 74,33 74,293 " />
    </clipPath>
    <path
       inkscape:connector-curvature="0"
       id="polyline416"
       d="m 90,146.194 h 2.4"
       style="fill:none;stroke:#000000;stroke-width:1.91022003px;stroke-opacity:1" />
  </g>
  <g
     id="g425"
     clip-path="url(#cp59)"
     transform="translate(-74,-13)">
    <clipPath
       id="cp59">
      <polygon
         id="polygon420"
         points="474,293 474,33 74,33 74,293 " />
    </clipPath>
    <path
       inkscape:connector-curvature="0"
       id="polyline423"
       d="m 90,134.388 h 4"
       style="fill:none;stroke:#000000;stroke-width:1.91022003px;stroke-opacity:1" />
  </g>
  <g
     id="g432"
     clip-path="url(#cp60)"
     transform="translate(0,115.38833)">
    <clipPath
       id="cp60">
      <polygon
         id="polygon427"
         points="14,12.6117 14,-1.38833 0,-1.38833 0,12.6117 " />
    </clipPath>
    <g
       id="text430"
       style="font-size:10px;font-family:'Times New Roman';fill:#000000"
       aria-label="0.6">
      <path
         inkscape:connector-curvature="0"
         id="path1457"
         style="font-size:10px;font-family:'Times New Roman';fill:#000000"
         d="m 0.36132813,6.7285156 q 0,-1.1328125 0.34179687,-1.9482422 0.3417969,-0.8203125 0.9082031,-1.2207031 0.4394532,-0.3173828 0.9082032,-0.3173828 0.7617187,0 1.3671875,0.7763672 0.7568359,0.961914 0.7568359,2.6074219 0,1.1523437 -0.3320313,1.9580078 -0.3320312,0.805664 -0.8496093,1.171875 -0.5126953,0.3613286 -0.991211,0.3613286 -0.9472656,0 -1.57714841,-1.1181646 Q 0.36132813,8.0566406 0.36132813,6.7285156 Z M 1.3183594,6.8505859 q 0,1.3671875 0.336914,2.2314454 0.2783203,0.727539 0.8300782,0.727539 0.2636718,0 0.546875,-0.234375 0.2832031,-0.2392578 0.4296875,-0.7958984 0.2246093,-0.8398438 0.2246093,-2.3681641 0,-1.1328125 -0.234375,-1.8896484 Q 3.2763672,3.9599609 2.9980469,3.7255859 2.7978516,3.5644531 2.5146484,3.5644531 q -0.3320312,0 -0.5908203,0.2978516 Q 1.5722656,4.2675781 1.4453125,5.1367187 1.3183594,6.0058594 1.3183594,6.8505859 Z" />
      <path
         inkscape:connector-curvature="0"
         id="path1459"
         style="font-size:10px;font-family:'Times New Roman';fill:#000000"
         d="m 6.25,9.0527344 q 0.2294922,0 0.3857422,0.1611328 0.15625,0.15625 0.15625,0.3808594 0,0.2246093 -0.1611328,0.3857422 Q 6.4746094,10.136719 6.25,10.136719 q -0.2246094,0 -0.3857422,-0.1562502 -0.15625,-0.1611329 -0.15625,-0.3857422 0,-0.2294922 0.15625,-0.3857422 Q 6.0253906,9.0527344 6.25,9.0527344 Z" />
      <path
         inkscape:connector-curvature="0"
         id="path1461"
         style="font-size:10px;font-family:'Times New Roman';fill:#000000"
         d="M 11.982422,3.2421875 V 3.4228516 Q 11.337891,3.4863281 10.927734,3.6816406 10.522461,3.8720703 10.12207,4.2675781 9.7265625,4.6630859 9.4628906,5.1513672 9.2041016,5.6347656 9.0283203,6.3037109 9.7314453,5.8203125 10.439453,5.8203125 q 0.678711,0 1.176758,0.546875 0.498047,0.546875 0.498047,1.40625 0,0.8300781 -0.50293,1.5136719 -0.605469,0.8300786 -1.601562,0.8300786 -0.6787113,0 -1.1523441,-0.4492192 -0.9277344,-0.8740235 -0.9277344,-2.2656251 0,-0.8886718 0.3564453,-1.6894531 Q 8.6425781,4.9121094 9.3017578,4.2919922 9.9658203,3.671875 10.571289,3.4570313 11.176758,3.2421875 11.699219,3.2421875 Z M 8.9453125,6.6601562 q -0.087891,0.6591797 -0.087891,1.0644532 0,0.46875 0.1708984,1.0205078 0.1757813,0.546875 0.5175781,0.8691406 0.2490235,0.2294922 0.605469,0.2294922 0.424805,0 0.756836,-0.4003906 0.336914,-0.4003906 0.336914,-1.1425781 0,-0.834961 -0.332031,-1.4453126 -0.332031,-0.6103515 -0.9423833,-0.6103515 -0.1855468,0 -0.4003906,0.078125 -0.2099609,0.078125 -0.6249996,0.336914 z" />
    </g>
  </g>
  <g
     id="g439"
     clip-path="url(#cp61)"
     transform="translate(-74,-13)">
    <clipPath
       id="cp61">
      <polygon
         id="polygon434"
         points="474,293 474,33 74,33 74,293 " />
    </clipPath>
    <path
       inkscape:connector-curvature="0"
       id="polyline437"
       d="m 90,122.582 h 2.4"
       style="fill:none;stroke:#000000;stroke-width:1.91022003px;stroke-opacity:1" />
  </g>
  <g
     id="g446"
     clip-path="url(#cp62)"
     transform="translate(-74,-13)">
    <clipPath
       id="cp62">
      <polygon
         id="polygon441"
         points="474,293 474,33 74,33 74,293 " />
    </clipPath>
    <path
       inkscape:connector-curvature="0"
       id="polyline444"
       d="m 90,110.777 h 2.4"
       style="fill:none;stroke:#000000;stroke-width:1.91022003px;stroke-opacity:1" />
  </g>
  <g
     id="g453"
     clip-path="url(#cp63)"
     transform="translate(-74,-13)">
    <clipPath
       id="cp63">
      <polygon
         id="polygon448"
         points="474,293 474,33 74,33 74,293 " />
    </clipPath>
    <path
       inkscape:connector-curvature="0"
       id="polyline451"
       d="m 90,98.9708 h 2.4"
       style="fill:none;stroke:#000000;stroke-width:1.91022003px;stroke-opacity:1" />
  </g>
  <g
     id="g460"
     clip-path="url(#cp64)"
     transform="translate(-74,-13)">
    <clipPath
       id="cp64">
      <polygon
         id="polygon455"
         points="474,293 474,33 74,33 74,293 " />
    </clipPath>
    <path
       inkscape:connector-curvature="0"
       id="polyline458"
       d="m 90,87.165 h 4"
       style="fill:none;stroke:#000000;stroke-width:1.91022003px;stroke-opacity:1" />
  </g>
  <g
     id="g467"
     clip-path="url(#cp65)"
     transform="translate(0,68.164982)">
    <clipPath
       id="cp65">
      <polygon
         id="polygon462"
         points="14,12.835 14,-1.16498 0,-1.16498 0,12.835 " />
    </clipPath>
    <g
       id="text465"
       style="font-size:10px;font-family:'Times New Roman';fill:#000000"
       aria-label="0.8">
      <path
         inkscape:connector-curvature="0"
         id="path1468"
         style="font-size:10px;font-family:'Times New Roman';fill:#000000"
         d="m 0.36132813,6.7285156 q 0,-1.1328125 0.34179687,-1.9482422 0.3417969,-0.8203125 0.9082031,-1.2207031 0.4394532,-0.3173828 0.9082032,-0.3173828 0.7617187,0 1.3671875,0.7763672 0.7568359,0.961914 0.7568359,2.6074219 0,1.1523437 -0.3320313,1.9580078 -0.3320312,0.805664 -0.8496093,1.171875 -0.5126953,0.3613286 -0.991211,0.3613286 -0.9472656,0 -1.57714841,-1.1181646 Q 0.36132813,8.0566406 0.36132813,6.7285156 Z M 1.3183594,6.8505859 q 0,1.3671875 0.336914,2.2314454 0.2783203,0.727539 0.8300782,0.727539 0.2636718,0 0.546875,-0.234375 0.2832031,-0.2392578 0.4296875,-0.7958984 0.2246093,-0.8398438 0.2246093,-2.3681641 0,-1.1328125 -0.234375,-1.8896484 Q 3.2763672,3.9599609 2.9980469,3.7255859 2.7978516,3.5644531 2.5146484,3.5644531 q -0.3320312,0 -0.5908203,0.2978516 Q 1.5722656,4.2675781 1.4453125,5.1367187 1.3183594,6.0058594 1.3183594,6.8505859 Z" />
      <path
         inkscape:connector-curvature="0"
         id="path1470"
         style="font-size:10px;font-family:'Times New Roman';fill:#000000"
         d="m 6.25,9.0527344 q 0.2294922,0 0.3857422,0.1611328 0.15625,0.15625 0.15625,0.3808594 0,0.2246093 -0.1611328,0.3857422 Q 6.4746094,10.136719 6.25,10.136719 q -0.2246094,0 -0.3857422,-0.1562502 -0.15625,-0.1611329 -0.15625,-0.3857422 0,-0.2294922 0.15625,-0.3857422 Q 6.0253906,9.0527344 6.25,9.0527344 Z" />
      <path
         inkscape:connector-curvature="0"
         id="path1472"
         style="font-size:10px;font-family:'Times New Roman';fill:#000000"
         d="M 9.4189453,6.6650391 Q 8.6328125,6.0205078 8.4033203,5.6298828 8.1787109,5.2392578 8.1787109,4.8193359 q 0,-0.6445312 0.4980469,-1.1083984 Q 9.1748047,3.2421875 10,3.2421875 q 0.800781,0 1.289063,0.4345703 0.488281,0.4345703 0.488281,0.9912109 0,0.3710938 -0.263672,0.756836 -0.263672,0.3857422 -1.098633,0.9082031 0.859375,0.6640625 1.137695,1.0449219 0.371094,0.4980469 0.371094,1.0498047 0,0.6982422 -0.532226,1.196289 -0.532227,0.4931646 -1.3964848,0.4931646 -0.9423828,0 -1.4697266,-0.5908208 -0.4199218,-0.4736328 -0.4199218,-1.0351563 0,-0.4394531 0.2929687,-0.8691406 Q 8.6962891,7.1875 9.4189453,6.6650391 Z M 10.185547,6.1425781 Q 10.771484,5.6152344 10.927734,5.3125 q 0.15625,-0.3076172 0.15625,-0.6933594 0,-0.5126953 -0.288086,-0.8007812 -0.288085,-0.2929688 -0.786132,-0.2929688 -0.4980472,0 -0.8105472,0.288086 -0.3125,0.2880859 -0.3125,0.6738281 0,0.2539062 0.1269531,0.5078125 0.1318359,0.2539062 0.3710937,0.4833984 z M 9.6484375,6.8505859 Q 9.2431641,7.1923828 9.0478516,7.5976562 8.8525391,7.9980469 8.8525391,8.4667969 q 0,0.6298828 0.3417968,1.0107422 0.3466797,0.3759765 0.8789061,0.3759765 0.527344,0 0.844727,-0.2978515 0.317383,-0.2978516 0.317383,-0.7226563 0,-0.3515625 -0.185547,-0.6298828 -0.34668,-0.5175781 -1.4013675,-1.3525391 z" />
    </g>
  </g>
  <g
     id="g474"
     clip-path="url(#cp66)"
     transform="translate(-74,-13)">
    <clipPath
       id="cp66">
      <polygon
         id="polygon469"
         points="474,293 474,33 74,33 74,293 " />
    </clipPath>
    <path
       inkscape:connector-curvature="0"
       id="polyline472"
       d="m 90,75.3591 h 2.4"
       style="fill:none;stroke:#000000;stroke-width:1.91022003px;stroke-opacity:1" />
  </g>
  <g
     id="g481"
     clip-path="url(#cp67)"
     transform="translate(-74,-13)">
    <clipPath
       id="cp67">
      <polygon
         id="polygon476"
         points="474,293 474,33 74,33 74,293 " />
    </clipPath>
    <path
       inkscape:connector-curvature="0"
       id="polyline479"
       d="m 90,63.5533 h 2.4"
       style="fill:none;stroke:#000000;stroke-width:1.91022003px;stroke-opacity:1" />
  </g>
  <g
     id="g488"
     clip-path="url(#cp68)"
     transform="translate(-74,-13)">
    <clipPath
       id="cp68">
      <polygon
         id="polygon483"
         points="474,293 474,33 74,33 74,293 " />
    </clipPath>
    <path
       inkscape:connector-curvature="0"
       id="polyline486"
       d="m 90,51.7475 h 2.4"
       style="fill:none;stroke:#000000;stroke-width:1.91022003px;stroke-opacity:1" />
  </g>
  <g
     id="g495"
     clip-path="url(#cp69)"
     transform="translate(-74,-13)">
    <clipPath
       id="cp69">
      <polygon
         id="polygon490"
         points="474,293 474,33 74,33 74,293 " />
    </clipPath>
    <path
       inkscape:connector-curvature="0"
       id="polyline493"
       d="m 90,39.9416 h 4"
       style="fill:none;stroke:#000000;stroke-width:1.91022003px;stroke-opacity:1" />
  </g>
  <g
     id="g502"
     clip-path="url(#cp70)"
     transform="translate(0,20.941637)">
    <clipPath
       id="cp70">
      <polygon
         id="polygon497"
         points="14,13.0584 14,-0.941637 0,-0.941637 0,13.0584 " />
    </clipPath>
    <g
       id="text500"
       style="font-size:10px;font-family:'Times New Roman';fill:#000000"
       aria-label="1.0">
      <path
         inkscape:connector-curvature="0"
         id="path1479"
         style="font-size:10px;font-family:'Times New Roman';fill:#000000"
         d="M 1.171875,4.0283203 2.7832031,3.2421875 h 0.1611328 v 5.5908203 q 0,0.5566406 0.043945,0.6933594 0.048828,0.1367187 0.1953125,0.2099609 0.1464843,0.073242 0.5957031,0.083008 V 10 H 1.2890625 V 9.8193359 q 0.46875,-0.00977 0.6054687,-0.078125 Q 2.03125,9.6679688 2.0849609,9.5507813 2.1386719,9.4287109 2.1386719,8.8330078 V 5.2587891 q 0,-0.7226563 -0.048828,-0.9277344 Q 2.0556641,4.1748047 1.9628906,4.1015625 1.875,4.0283203 1.7480469,4.0283203 q -0.1806641,0 -0.5029297,0.1513672 z" />
      <path
         inkscape:connector-curvature="0"
         id="path1481"
         style="font-size:10px;font-family:'Times New Roman';fill:#000000"
         d="m 6.25,9.0527344 q 0.2294922,0 0.3857422,0.1611328 0.15625,0.15625 0.15625,0.3808594 0,0.2246093 -0.1611328,0.3857422 Q 6.4746094,10.136719 6.25,10.136719 q -0.2246094,0 -0.3857422,-0.1562502 -0.15625,-0.1611329 -0.15625,-0.3857422 0,-0.2294922 0.15625,-0.3857422 Q 6.0253906,9.0527344 6.25,9.0527344 Z" />
      <path
         inkscape:connector-curvature="0"
         id="path1483"
         style="font-size:10px;font-family:'Times New Roman';fill:#000000"
         d="m 7.8613281,6.7285156 q 0,-1.1328125 0.3417969,-1.9482422 0.3417969,-0.8203125 0.9082031,-1.2207031 0.4394532,-0.3173828 0.9082029,-0.3173828 0.761719,0 1.367188,0.7763672 0.756836,0.961914 0.756836,2.6074219 0,1.1523437 -0.332032,1.9580078 -0.332031,0.805664 -0.849609,1.171875 -0.512695,0.3613286 -0.9912109,0.3613286 -0.9472656,0 -1.5771484,-1.1181646 Q 7.8613281,8.0566406 7.8613281,6.7285156 Z m 0.9570313,0.1220703 q 0,1.3671875 0.336914,2.2314454 0.2783204,0.727539 0.8300782,0.727539 0.2636714,0 0.5468754,-0.234375 0.283203,-0.2392578 0.429687,-0.7958984 0.224609,-0.8398438 0.224609,-2.3681641 0,-1.1328125 -0.234375,-1.8896484 -0.175781,-0.5615235 -0.454101,-0.7958985 -0.200195,-0.1611328 -0.483399,-0.1611328 -0.3320308,0 -0.5908199,0.2978516 Q 9.0722656,4.2675781 8.9453125,5.1367187 8.8183594,6.0058594 8.8183594,6.8505859 Z" />
    </g>
  </g>
  <g
     id="g509"
     clip-path="url(#cp71)"
     transform="translate(-74,-13)">
    <clipPath
       id="cp71">
      <polygon
         id="polygon504"
         points="474,293 474,33 74,33 74,293 " />
    </clipPath>
    <path
       inkscape:connector-curvature="0"
       id="polyline507"
       d="M 90,276.058 V 39.9416"
       style="fill:none;stroke:#000000;stroke-width:1.91022003px;stroke-opacity:1" />
  </g>
  <defs
     id="defs513" />
</svg>
