<?xml version="1.0" encoding="UTF-8" standalone="no"?>
<!-- Created with Inkscape (http://www.inkscape.org/) -->

<svg
   width="300"
   height="300"
   viewBox="0 0 300 300"
   version="1.1"
   id="svg9691"
   inkscape:version="1.1.2 (b8e25be833, 2022-02-05)"
   sodipodi:docname="rotate_axis_1.svg"
   xmlns:inkscape="http://www.inkscape.org/namespaces/inkscape"
   xmlns:sodipodi="http://sodipodi.sourceforge.net/DTD/sodipodi-0.dtd"
   xmlns="http://www.w3.org/2000/svg"
   xmlns:svg="http://www.w3.org/2000/svg"
   xmlns:rdf="http://www.w3.org/1999/02/22-rdf-syntax-ns#"
   xmlns:cc="http://creativecommons.org/ns#"
   xmlns:dc="http://purl.org/dc/elements/1.1/">
  <sodipodi:namedview
     id="base"
     pagecolor="#ffffff"
     bordercolor="#666666"
     borderopacity="1.0"
     inkscape:pageopacity="0.0"
     inkscape:pageshadow="2"
     inkscape:zoom="2.7866666"
     inkscape:cx="45.215312"
     inkscape:cy="66.746413"
     inkscape:document-units="px"
     inkscape:current-layer="layer1"
     showgrid="true"
     units="px"
     showguides="true"
     inkscape:guide-bbox="true"
     inkscape:window-width="2560"
     inkscape:window-height="1346"
     inkscape:window-x="-11"
     inkscape:window-y="-11"
     inkscape:window-maximized="1"
     inkscape:snap-intersection-paths="true"
     inkscape:object-paths="true"
     inkscape:snap-object-midpoints="true"
     inkscape:snap-center="true"
     inkscape:pagecheckerboard="0">
    <inkscape:grid
       enabled="false"
       spacingy="10"
       spacingx="10"
       id="grid10259"
       type="xygrid" />
  </sodipodi:namedview>
  <defs
     id="defs9685">
    <marker
       inkscape:stockid="Arrow1Mend"
       orient="auto"
       refY="0"
       refX="0"
       id="marker5704"
       style="overflow:visible"
       inkscape:isstock="true">
      <path
         id="path5702"
         d="M 0,0 5,-5 -12.5,0 5,5 Z"
         style="fill:#000000;fill-opacity:1;fill-rule:evenodd;stroke:#000000;stroke-width:1.00000003pt;stroke-opacity:1"
         transform="matrix(-0.4,0,0,-0.4,-4,0)"
         inkscape:connector-curvature="0" />
    </marker>
    <marker
       inkscape:stockid="Arrow1Mend"
       orient="auto"
       refY="0.0"
       refX="0.0"
       id="marker4857"
       style="overflow:visible;"
       inkscape:isstock="true">
      <path
         id="path4603"
         d="M 0.0,0.0 L 5.0,-5.0 L -12.5,0.0 L 5.0,5.0 L 0.0,0.0 z "
         style="fill-rule:evenodd;stroke:#000000;stroke-width:1pt;stroke-opacity:1;fill:#000000;fill-opacity:1"
         transform="scale(0.4) rotate(180) translate(10,0)" />
    </marker>
    <marker
       inkscape:isstock="true"
       style="overflow:visible"
       id="marker4587"
       refX="0"
       refY="0"
       orient="auto"
       inkscape:stockid="Arrow1Mend">
      <path
         inkscape:connector-curvature="0"
         transform="matrix(-0.4,0,0,-0.4,-4,0)"
         style="fill:#000000;fill-opacity:1;fill-rule:evenodd;stroke:#000000;stroke-width:1.00000003pt;stroke-opacity:1"
         d="M 0,0 5,-5 -12.5,0 5,5 Z"
         id="path4585" />
    </marker>
    <marker
       inkscape:stockid="Arrow1Mend"
       orient="auto"
       refY="0"
       refX="0"
       id="marker4576"
       style="overflow:visible"
       inkscape:isstock="true">
      <path
         id="path4574"
         d="M 0,0 5,-5 -12.5,0 5,5 Z"
         style="fill:#000000;fill-opacity:1;fill-rule:evenodd;stroke:#000000;stroke-width:1.00000003pt;stroke-opacity:1"
         transform="matrix(-0.4,0,0,-0.4,-4,0)"
         inkscape:connector-curvature="0" />
    </marker>
    <marker
       inkscape:isstock="true"
       style="overflow:visible"
       id="marker4568"
       refX="0"
       refY="0"
       orient="auto"
       inkscape:stockid="Arrow1Mend">
      <path
         inkscape:connector-curvature="0"
         transform="matrix(-0.4,0,0,-0.4,-4,0)"
         style="fill:#000000;fill-opacity:1;fill-rule:evenodd;stroke:#000000;stroke-width:1.00000003pt;stroke-opacity:1"
         d="M 0,0 5,-5 -12.5,0 5,5 Z"
         id="path4566" />
    </marker>
    <marker
       inkscape:stockid="Arrow2Mend"
       orient="auto"
       refY="0.0"
       refX="0.0"
       id="Arrow2Mend"
       style="overflow:visible;"
       inkscape:isstock="true">
      <path
         id="path4735"
         style="fill-rule:evenodd;stroke-width:0.625;stroke-linejoin:round;stroke:#000000;stroke-opacity:1;fill:#000000;fill-opacity:1"
         d="M 8.7185878,4.0337352 L -2.2072895,0.016013256 L 8.7185884,-4.0017078 C 6.9730900,-1.6296469 6.9831476,1.6157441 8.7185878,4.0337352 z "
         transform="scale(0.6) rotate(180) translate(0,0)" />
    </marker>
    <marker
       inkscape:stockid="Arrow1Mend"
       orient="auto"
       refY="0"
       refX="0"
       id="marker11360"
       style="overflow:visible"
       inkscape:isstock="true">
      <path
         id="path11358"
         d="M 0,0 5,-5 -12.5,0 5,5 Z"
         style="fill:#000000;fill-opacity:1;fill-rule:evenodd;stroke:#000000;stroke-width:1.00000003pt;stroke-opacity:1"
         transform="matrix(-0.4,0,0,-0.4,-4,0)"
         inkscape:connector-curvature="0" />
    </marker>
    <marker
       inkscape:collect="always"
       inkscape:isstock="true"
       style="overflow:visible"
       id="marker10545"
       refX="0"
       refY="0"
       orient="auto"
       inkscape:stockid="Arrow1Mend">
      <path
         inkscape:connector-curvature="0"
         transform="matrix(-0.4,0,0,-0.4,-4,0)"
         style="fill:#000000;fill-opacity:1;fill-rule:evenodd;stroke:#000000;stroke-width:1.00000003pt;stroke-opacity:1"
         d="M 0,0 5,-5 -12.5,0 5,5 Z"
         id="path10543" />
    </marker>
    <marker
       inkscape:isstock="true"
       style="overflow:visible"
       id="marker10461"
       refX="0"
       refY="0"
       orient="auto"
       inkscape:stockid="Arrow1Mend">
      <path
         inkscape:connector-curvature="0"
         transform="matrix(-0.4,0,0,-0.4,-4,0)"
         style="fill:#000000;fill-opacity:1;fill-rule:evenodd;stroke:#000000;stroke-width:1.00000003pt;stroke-opacity:1"
         d="M 0,0 5,-5 -12.5,0 5,5 Z"
         id="path10459" />
    </marker>
    <marker
       inkscape:isstock="true"
       style="overflow:visible"
       id="marker10361"
       refX="0"
       refY="0"
       orient="auto"
       inkscape:stockid="Arrow1Mend">
      <path
         inkscape:connector-curvature="0"
         transform="matrix(-0.4,0,0,-0.4,-4,0)"
         style="fill:#000000;fill-opacity:1;fill-rule:evenodd;stroke:#000000;stroke-width:1.00000003pt;stroke-opacity:1"
         d="M 0,0 5,-5 -12.5,0 5,5 Z"
         id="path10359" />
    </marker>
    <marker
       inkscape:collect="always"
       inkscape:stockid="Arrow1Mend"
       orient="auto"
       refY="0"
       refX="0"
       id="marker10327"
       style="overflow:visible"
       inkscape:isstock="true">
      <path
         inkscape:connector-curvature="0"
         id="path10325"
         d="M 0,0 5,-5 -12.5,0 5,5 Z"
         style="fill:#000000;fill-opacity:1;fill-rule:evenodd;stroke:#000000;stroke-width:1.00000003pt;stroke-opacity:1"
         transform="matrix(-0.4,0,0,-0.4,-4,0)" />
    </marker>
    <marker
       inkscape:isstock="true"
       style="overflow:visible"
       id="Arrow1Mend"
       refX="0"
       refY="0"
       orient="auto"
       inkscape:stockid="Arrow1Mend"
       inkscape:collect="always">
      <path
         inkscape:connector-curvature="0"
         transform="matrix(-0.4,0,0,-0.4,-4,0)"
         style="fill:#000000;fill-opacity:1;fill-rule:evenodd;stroke:#000000;stroke-width:1.00000003pt;stroke-opacity:1"
         d="M 0,0 5,-5 -12.5,0 5,5 Z"
         id="path5985" />
    </marker>
  </defs>
  <metadata
     id="metadata9688">
    <rdf:RDF>
      <cc:Work
         rdf:about="">
        <dc:format>image/svg+xml</dc:format>
        <dc:type
           rdf:resource="http://purl.org/dc/dcmitype/StillImage" />
        <dc:title />
      </cc:Work>
    </rdf:RDF>
  </metadata>
  <g
     style="display:inline"
     transform="translate(0,-291.16665)"
     id="layer1"
     inkscape:groupmode="layer"
     inkscape:label="Layer 1">
    <path
       style="fill:none;stroke:#000000;stroke-width:0.5;stroke-linecap:butt;stroke-linejoin:miter;stroke-miterlimit:4;stroke-dasharray:none;stroke-opacity:1"
       d="M 137.42714 36.886924 L 141.66972 47.96502 "
       id="path5692"
       transform="translate(0,291.16665)" />
    <path
       style="fill:none;stroke:#000000;stroke-width:0.5;stroke-linecap:butt;stroke-linejoin:miter;stroke-opacity:1;stroke-miterlimit:4;stroke-dasharray:none"
       d="M 154.10115 52.64654 L 141.66972 47.965024 "
       id="path4590"
       transform="translate(0,291.16665)" />
    <path
       id="path10518"
       d="m 67.225667,509.89832 a 11.50032,34.500962 25 0 1 1.94643,1.85364 11.50032,34.500962 25 0 1 1.208933,10.224"
       style="fill:none;fill-opacity:0.11522636;stroke:#000000;stroke-width:0.5;stroke-miterlimit:4;stroke-dasharray:none;stroke-dashoffset:0;stroke-opacity:1"
       inkscape:connector-curvature="0" />
    <path
       id="path10419"
       d="m 163.2519,346.79109 a 23.000642,11.50032 25 0 1 -8.14733,-0.35838"
       style="fill:none;fill-opacity:0.11522636;stroke:#000000;stroke-width:0.5;stroke-miterlimit:4;stroke-dasharray:none;stroke-dashoffset:0;stroke-opacity:1"
       inkscape:connector-curvature="0" />
    <path
       id="path10252"
       d="M 52.644534,541.16665 177.82022,405.72709"
       style="fill:none;stroke:#000000;stroke-width:1;stroke-linecap:butt;stroke-linejoin:miter;stroke-miterlimit:4;stroke-dasharray:none;stroke-opacity:1;marker-end:url(#marker10327)"
       inkscape:connector-curvature="0" />
    <path
       inkscape:connector-curvature="0"
       id="path10250"
       d="M 271.21388,422.05061 A 172.50481,57.501603 25 0 1 162.16654,400.19792 172.50481,57.501603 25 0 1 32.37348,327.16123"
       style="fill:none;fill-opacity:0.11522636;stroke:#000000;stroke-width:0.5;stroke-miterlimit:4;stroke-dasharray:none;stroke-dashoffset:0;stroke-opacity:1" />
    <path
       inkscape:connector-curvature="0"
       id="path10240"
       d="m 126.89369,381.93881 32.67625,-70.07442"
       style="fill:none;stroke:#000000;stroke-width:0.5;stroke-linecap:butt;stroke-linejoin:miter;stroke-miterlimit:4;stroke-dasharray:none;stroke-opacity:1"
       sodipodi:nodetypes="cc" />
    <path
       id="path10261"
       d="M 52.644534,541.16665 232.65748,419.58064"
       style="fill:none;stroke:#000000;stroke-width:1;stroke-linecap:butt;stroke-linejoin:miter;stroke-miterlimit:4;stroke-dasharray:none;stroke-opacity:1;marker-end:url(#marker10361)"
       inkscape:connector-curvature="0" />
    <path
       inkscape:connector-curvature="0"
       id="path10263"
       d="m 149.84944,332.71006 82.73631,86.92335"
       style="fill:none;stroke:#000000;stroke-width:1;stroke-linecap:butt;stroke-linejoin:miter;stroke-miterlimit:4;stroke-dasharray:none;stroke-opacity:1;marker-end:url(#Arrow2Mend)" />
    <path
       inkscape:connector-curvature="0"
       id="path10274"
       d="M 52.644534,541.16665 76.945762,489.0525"
       style="fill:none;stroke:#000000;stroke-width:1;stroke-linecap:butt;stroke-linejoin:miter;stroke-miterlimit:4;stroke-dasharray:none;stroke-opacity:1;marker-end:url(#Arrow1Mend)" />
    <g
       id="g10866"
       transform="matrix(0.58391455,0,0,0.58391455,132.27809,407.45397)">
      <g
         word-spacing="normal"
         letter-spacing="normal"
         font-size-adjust="none"
         font-stretch="normal"
         font-weight="normal"
         font-variant="normal"
         font-style="normal"
         stroke-miterlimit="10.433"
         xml:space="preserve"
         transform="matrix(0.57142857,0,0,-0.57142857,-100,300)"
         id="content"
         style="font-style:normal;font-variant:normal;font-weight:normal;font-stretch:normal;letter-spacing:normal;word-spacing:normal;text-anchor:start;fill:none;fill-opacity:1;fill-rule:evenodd;stroke:#000000;stroke-linecap:butt;stroke-linejoin:miter;stroke-miterlimit:10.433;stroke-dasharray:none;stroke-dashoffset:0;stroke-opacity:1"><path
           id="path10853"
           d="m 481.38,423.14 0.47,0.11 0.48,0.12 0.48,0.14 0.48,0.15 0.49,0.16 0.48,0.18 0.48,0.19 0.47,0.2 0.47,0.22 0.47,0.23 0.46,0.24 0.45,0.25 0.43,0.27 0.43,0.28 0.42,0.29 0.4,0.3 0.39,0.31 0.37,0.32 0.36,0.34 0.33,0.35 0.32,0.35 0.29,0.37 0.28,0.38 0.25,0.39 0.22,0.4 0.2,0.41 0.17,0.42 0.15,0.43 0.11,0.44 0.08,0.45 0.05,0.46 0.02,0.47 c 0,4.28 -4.48,7.47 -11,7.47 h -14.2 c -1,0 -1.45,0 -1.45,-1 0,-0.55 0.45,-0.55 1.4,-0.55 0.1,0 1.05,0 1.89,-0.09 0.89,-0.11 1.35,-0.16 1.35,-0.8 0,-0.2 -0.05,-0.36 -0.21,-0.95 l -6.67,-26.75 c -0.5,-1.95 -0.59,-2.34 -4.53,-2.34 -0.91,0 -1.34,0 -1.34,-1 0,-0.55 0.59,-0.55 0.68,-0.55 1.41,0 4.89,0.16 6.29,0.16 1.39,0 4.93,-0.16 6.32,-0.16 0.41,0 1,0 1,1 0,0.55 -0.45,0.55 -1.39,0.55 -1.84,0 -3.25,0 -3.25,0.89 0,0.29 0.11,0.54 0.16,0.84 l 3.28,13.2 h 5.94 l -0.05,1.11 h -5.59 l 3.25,13 c 0.29,1.19 0.43,1.69 1.39,1.85 0.45,0.04 2.04,0.04 3.03,0.04 3.55,0 9.08,0 9.08,-4.93 0,-1.69 -0.8,-5.13 -2.75,-7.07 -1.28,-1.29 -3.92,-2.89 -8.41,-2.89 l 0.05,-1.11 c 4.53,0 5.42,-2.78 5.42,-4.53 0,-0.75 -0.39,-2.28 -0.69,-3.44 -0.36,-1.39 -0.79,-3.23 -0.79,-4.23 0,-5.37 5.96,-5.37 6.62,-5.37 4.23,0 5.97,5.03 5.97,5.73 0,0.59 -0.55,0.59 -0.59,0.59 -0.46,0 -0.55,-0.36 -0.65,-0.7 -1.25,-3.69 -3.39,-4.53 -4.54,-4.53 -1.64,0 -1.99,1.09 -1.99,3.05 0,1.53 0.3,4.07 0.5,5.67 0.1,0.7 0.21,1.64 0.21,2.34 0,3.83 -3.35,5.38 -4.69,5.88 z"
           inkscape:connector-curvature="0"
           style="fill:#000000;stroke-width:0" /><path
           id="path10855"
           d="m 497.57,400.95 -0.01,-0.04 -0.02,-0.05 -0.01,-0.04 -0.01,-0.05 -0.02,-0.05 -0.01,-0.06 -0.02,-0.05 -0.01,-0.05 -0.03,-0.11 -0.03,-0.11 -0.03,-0.12 -0.02,-0.1 -0.02,-0.06 -0.01,-0.05 -0.01,-0.05 -0.01,-0.05 -0.01,-0.05 -0.01,-0.04 -0.01,-0.05 -0.01,-0.04 -0.01,-0.03 v -0.04 l -0.01,-0.03 v -0.03 l -0.01,-0.02 v -0.02 -0.01 -0.01 -0.01 0 c 0,-0.77 0.62,-1.11 1.18,-1.11 0.63,0 1.18,0.45 1.36,0.76 0.18,0.32 0.46,1.43 0.63,2.16 0.17,0.66 0.55,2.27 0.76,3.14 0.21,0.77 0.43,1.53 0.6,2.33 0.37,1.44 0.45,1.7 1.45,3.14 0.99,1.39 2.63,3.2 5.24,3.2 2.01,0 2.04,-1.78 2.04,-2.44 0,-2.09 -1.48,-5.95 -2.04,-7.42 -0.4,-0.98 -0.54,-1.29 -0.54,-1.89 0,-1.84 1.55,-2.98 3.32,-2.98 3.48,0 5.01,4.79 5.01,5.33 0,0.45 -0.45,0.45 -0.54,0.45 -0.5,0 -0.54,-0.2 -0.68,-0.59 -0.79,-2.79 -2.29,-4.22 -3.68,-4.22 -0.74,0 -0.88,0.48 -0.88,1.22 0,0.79 0.17,1.25 0.8,2.82 0.42,1.08 1.86,4.77 1.86,6.72 0,3.39 -2.69,3.97 -4.53,3.97 -2.89,0 -4.85,-1.76 -5.89,-3.16 -0.25,2.4 -2.3,3.16 -3.74,3.16 -1.5,0 -2.3,-1.08 -2.75,-1.87 -0.76,-1.29 -1.25,-3.29 -1.25,-3.46 0,-0.45 0.49,-0.45 0.59,-0.45 0.49,0 0.52,0.11 0.77,1.05 0.52,2.06 1.19,3.76 2.55,3.76 0.9,0 1.14,-0.76 1.14,-1.7 0,-0.67 -0.31,-1.95 -0.56,-2.89 -0.24,-0.95 -0.58,-2.38 -0.77,-3.14 z"
           inkscape:connector-curvature="0"
           style="fill:#000000;stroke-width:0" /><path
           id="path10857"
           d="m 536.93,394.25 v 0.02 l -0.01,0.03 v 0.01 0.02 0.01 l -0.01,0.02 v 0.01 l -0.01,0.02 -0.01,0.02 -0.01,0.02 -0.01,0.02 -0.01,0.03 -0.02,0.02 -0.02,0.03 -0.02,0.03 -0.02,0.03 -0.03,0.03 -0.03,0.04 -0.02,0.02 -0.01,0.02 -0.02,0.02 -0.02,0.02 -0.02,0.02 -0.02,0.03 -0.02,0.02 -0.02,0.02 -0.02,0.03 -0.03,0.02 -0.02,0.03 -0.03,0.03 -0.02,0.03 -0.03,0.03 -0.03,0.03 -0.03,0.03 -0.03,0.03 -0.03,0.03 -0.04,0.04 -0.03,0.03 -0.03,0.04 -0.04,0.03 -0.04,0.04 -0.04,0.04 c -6.22,6.28 -7.81,15.69 -7.81,23.31 0,8.67 1.89,17.35 8.01,23.56 0.65,0.61 0.65,0.71 0.65,0.86 0,0.35 -0.19,0.49 -0.49,0.49 -0.5,0 -4.98,-3.38 -7.92,-9.7 -2.55,-5.49 -3.14,-11.02 -3.14,-15.21 0,-3.89 0.55,-9.9 3.28,-15.54 2.99,-6.13 7.28,-9.36 7.78,-9.36 0.3,0 0.49,0.14 0.49,0.5 z"
           inkscape:connector-curvature="0"
           style="fill:#000000;stroke-width:0" /><path
           id="path10859"
           d="m 565.31,436.56 -0.07,-0.06 -0.07,-0.07 -0.08,-0.07 -0.08,-0.07 -0.08,-0.08 -0.09,-0.08 -0.09,-0.08 -0.1,-0.09 -0.09,-0.09 -0.1,-0.09 -0.19,-0.19 -0.2,-0.2 -0.19,-0.2 -0.09,-0.1 -0.09,-0.11 -0.09,-0.1 -0.08,-0.1 -0.08,-0.11 -0.08,-0.1 -0.07,-0.1 -0.07,-0.1 -0.05,-0.1 -0.06,-0.1 -0.04,-0.09 -0.04,-0.1 -0.03,-0.09 -0.03,-0.09 -0.01,-0.09 v -0.08 c 0,-0.5 0.5,-1 1,-1 0.45,0 0.7,0.35 0.95,0.65 0.59,0.75 1.73,2.14 3.93,3.24 0.35,0.2 0.85,0.45 0.85,1.04 0,0.5 -0.35,0.75 -0.7,1 -1.1,0.75 -1.65,1.64 -2.05,2.83 -0.1,0.45 -0.3,1.11 -0.98,1.11 -0.71,0 -1,-0.66 -1,-1.05 0,-0.25 0.38,-1.84 1.18,-2.89 h -16.78 c -0.84,0 -1.75,0 -1.75,-1 0,-1 0.91,-1 1.75,-1 z"
           inkscape:connector-curvature="0"
           style="fill:#000000;stroke-width:0" /><path
           id="path10861"
           d="m 566.72,424.23 -0.01,0.21 v 0.2 l -0.02,0.2 -0.01,0.19 -0.02,0.18 -0.03,0.18 -0.03,0.17 -0.03,0.17 -0.03,0.16 -0.04,0.15 -0.05,0.15 -0.04,0.14 -0.05,0.14 -0.06,0.13 -0.05,0.13 -0.06,0.12 -0.06,0.12 -0.06,0.11 -0.07,0.11 -0.06,0.1 -0.07,0.1 -0.07,0.09 -0.07,0.09 -0.08,0.09 -0.07,0.08 -0.08,0.07 -0.15,0.15 -0.16,0.12 -0.15,0.12 -0.16,0.1 -0.16,0.08 -0.15,0.08 -0.15,0.06 -0.15,0.06 -0.14,0.04 -0.13,0.04 -0.13,0.03 -0.11,0.02 -0.11,0.02 -0.09,0.01 -0.08,0.01 -0.06,0.01 h -0.05 -0.02 -0.01 -0.01 -0.01 c -1.98,0 -3.78,-2.08 -3.78,-3.78 0,-1.39 1.05,-1.98 1.5,-2.23 2.08,-1.25 2.49,-2.16 2.49,-3.14 0,-1.1 -2.89,-12.02 -8.72,-12.02 -3.59,0 -3.59,3 -3.59,3.89 0,2.89 1.4,6.53 3,10.52 0.38,1 0.54,1.43 0.54,2.23 0,2.89 -2.89,4.48 -5.64,4.48 -5.28,0 -7.77,-6.76 -7.77,-7.76 0,-0.7 0.75,-0.7 1.21,-0.7 0.59,0 0.94,0 1.14,0.65 1.59,5.38 4.23,6.02 5.12,6.02 0.36,0 0.86,0 0.86,-1.05 0,-1.14 -0.61,-2.58 -0.75,-2.98 -2.29,-5.78 -3.04,-8.02 -3.04,-10.41 0,-5.28 4.28,-6.69 8.62,-6.69 8.56,0 12.21,14.16 12.21,18.44 z"
           inkscape:connector-curvature="0"
           style="fill:#000000;stroke-width:0" /><path
           id="path10863"
           d="m 584.39,418.65 v 0.37 l -0.01,0.39 v 0.39 l -0.02,0.41 -0.04,0.84 -0.06,0.88 -0.08,0.92 -0.11,0.95 -0.13,0.97 -0.16,1.01 -0.2,1.02 -0.23,1.03 -0.27,1.05 -0.3,1.06 -0.35,1.07 -0.39,1.07 -0.22,0.53 -0.22,0.53 -0.24,0.53 -0.25,0.53 c -2.98,6.12 -7.27,9.36 -7.77,9.36 -0.29,0 -0.5,-0.19 -0.5,-0.49 0,-0.15 0,-0.25 0.94,-1.15 4.89,-4.92 7.74,-12.85 7.74,-23.27 0,-8.51 -1.85,-17.28 -8.04,-23.56 -0.64,-0.59 -0.64,-0.7 -0.64,-0.84 0,-0.3 0.21,-0.5 0.5,-0.5 0.5,0 4.97,3.39 7.93,9.71 2.53,5.47 3.12,11 3.12,15.19 z"
           inkscape:connector-curvature="0"
           style="fill:#000000;stroke-width:0" /></g>
    </g>
    <g
       transform="matrix(0.58391455,0,0,0.58391455,78.383197,387.86656)"
       id="g10944">
      <g
         style="font-style:normal;font-variant:normal;font-weight:normal;font-stretch:normal;letter-spacing:normal;word-spacing:normal;text-anchor:start;fill:none;fill-opacity:1;fill-rule:evenodd;stroke:#000000;stroke-linecap:butt;stroke-linejoin:miter;stroke-miterlimit:10.433;stroke-dasharray:none;stroke-dashoffset:0;stroke-opacity:1"
         id="g10942"
         transform="matrix(0.57142857,0,0,-0.57142857,-100,300)"
         xml:space="preserve"
         stroke-miterlimit="10.433"
         font-style="normal"
         font-variant="normal"
         font-weight="normal"
         font-stretch="normal"
         font-size-adjust="none"
         letter-spacing="normal"
         word-spacing="normal"><path
           style="fill:#000000;stroke-width:0"
           inkscape:connector-curvature="0"
           d="m 481.07,436.56 -0.07,-0.06 -0.07,-0.07 -0.08,-0.07 -0.08,-0.07 -0.08,-0.08 -0.09,-0.08 -0.09,-0.08 -0.1,-0.09 -0.09,-0.09 -0.1,-0.09 -0.19,-0.19 -0.2,-0.2 -0.19,-0.2 -0.09,-0.1 -0.09,-0.11 -0.09,-0.1 -0.08,-0.1 -0.08,-0.11 -0.08,-0.1 -0.07,-0.1 -0.06,-0.1 -0.06,-0.1 -0.06,-0.1 -0.04,-0.09 -0.04,-0.1 -0.03,-0.09 -0.02,-0.09 -0.02,-0.09 v -0.08 c 0,-0.5 0.5,-1 1,-1 0.45,0 0.7,0.35 0.95,0.65 0.59,0.75 1.73,2.14 3.94,3.24 0.34,0.2 0.84,0.45 0.84,1.04 0,0.5 -0.34,0.75 -0.7,1 -1.1,0.75 -1.64,1.64 -2.05,2.83 -0.09,0.45 -0.3,1.11 -0.98,1.11 -0.71,0 -1,-0.66 -1,-1.05 0,-0.25 0.39,-1.84 1.18,-2.89 h -16.78 c -0.84,0 -1.75,0 -1.75,-1 0,-1 0.91,-1 1.75,-1 z"
           id="path10938" /><path
           style="fill:#000000;stroke-width:0"
           inkscape:connector-curvature="0"
           d="m 482.47,424.23 v 0.21 l -0.01,0.2 -0.01,0.2 -0.01,0.19 -0.03,0.18 -0.02,0.18 -0.03,0.17 -0.03,0.17 -0.04,0.16 -0.04,0.15 -0.04,0.15 -0.05,0.14 -0.05,0.14 -0.05,0.13 -0.05,0.13 -0.06,0.12 -0.06,0.12 -0.06,0.11 -0.07,0.11 -0.06,0.1 -0.07,0.1 -0.07,0.09 -0.07,0.09 -0.08,0.09 -0.07,0.08 -0.08,0.07 -0.15,0.15 -0.16,0.12 -0.15,0.12 -0.16,0.1 -0.16,0.08 -0.15,0.08 -0.15,0.06 -0.15,0.06 -0.14,0.04 -0.13,0.04 -0.13,0.03 -0.11,0.02 -0.11,0.02 -0.09,0.01 -0.08,0.01 -0.06,0.01 h -0.05 -0.02 -0.01 -0.01 -0.01 c -1.98,0 -3.78,-2.08 -3.78,-3.78 0,-1.39 1.05,-1.98 1.5,-2.23 2.08,-1.25 2.49,-2.16 2.49,-3.14 0,-1.1 -2.9,-12.02 -8.72,-12.02 -3.6,0 -3.6,3 -3.6,3.89 0,2.89 1.41,6.53 3,10.52 0.39,1 0.55,1.43 0.55,2.23 0,2.89 -2.89,4.48 -5.64,4.48 -5.28,0 -7.77,-6.76 -7.77,-7.76 0,-0.7 0.75,-0.7 1.21,-0.7 0.59,0 0.93,0 1.14,0.65 1.59,5.38 4.23,6.02 5.12,6.02 0.36,0 0.86,0 0.86,-1.05 0,-1.14 -0.61,-2.58 -0.75,-2.98 -2.3,-5.78 -3.05,-8.02 -3.05,-10.41 0,-5.28 4.29,-6.69 8.63,-6.69 8.56,0 12.2,14.16 12.2,18.44 z"
           id="path10940" /></g>
    </g>
    <g
       id="g11030"
       transform="matrix(0.58391455,0,0,0.58391455,-41.36387,452.19321)">
      <g
         word-spacing="normal"
         letter-spacing="normal"
         font-size-adjust="none"
         font-stretch="normal"
         font-weight="normal"
         font-variant="normal"
         font-style="normal"
         stroke-miterlimit="10.433"
         xml:space="preserve"
         transform="matrix(0.57142857,0,0,-0.57142857,-100,300)"
         id="g11028"
         style="font-style:normal;font-variant:normal;font-weight:normal;font-stretch:normal;letter-spacing:normal;word-spacing:normal;text-anchor:start;fill:none;fill-opacity:1;fill-rule:evenodd;stroke:#000000;stroke-linecap:butt;stroke-linejoin:miter;stroke-miterlimit:10.433;stroke-dasharray:none;stroke-dashoffset:0;stroke-opacity:1"><path
           id="path11024"
           d="m 483.83,436.56 -0.07,-0.06 -0.07,-0.07 -0.08,-0.07 -0.08,-0.07 -0.09,-0.08 -0.08,-0.08 -0.09,-0.08 -0.1,-0.09 -0.09,-0.09 -0.1,-0.09 -0.2,-0.19 -0.19,-0.2 -0.19,-0.2 -0.09,-0.1 -0.09,-0.11 -0.09,-0.1 -0.09,-0.1 -0.08,-0.11 -0.07,-0.1 -0.07,-0.1 -0.07,-0.1 -0.06,-0.1 -0.05,-0.1 -0.04,-0.09 -0.04,-0.1 -0.03,-0.09 -0.03,-0.09 -0.01,-0.09 -0.01,-0.08 c 0,-0.5 0.5,-1 1,-1 0.46,0 0.71,0.35 0.96,0.65 0.59,0.75 1.73,2.14 3.94,3.24 0.34,0.2 0.84,0.45 0.84,1.04 0,0.5 -0.34,0.75 -0.7,1 -1.1,0.75 -1.64,1.64 -2.05,2.83 -0.09,0.45 -0.3,1.11 -0.99,1.11 -0.7,0 -1,-0.66 -1,-1.05 0,-0.25 0.4,-1.84 1.19,-2.89 h -16.78 c -0.84,0 -1.75,0 -1.75,-1 0,-1 0.91,-1 1.75,-1 z"
           inkscape:connector-curvature="0"
           style="fill:#000000;stroke-width:0" /><path
           id="path11026"
           d="m 469.47,424.93 -0.07,0.23 -0.08,0.23 -0.1,0.21 -0.1,0.21 -0.12,0.2 -0.12,0.2 -0.14,0.18 -0.14,0.18 -0.16,0.18 -0.16,0.16 -0.17,0.16 -0.18,0.15 -0.18,0.15 -0.19,0.13 -0.2,0.13 -0.21,0.13 -0.21,0.11 -0.21,0.11 -0.22,0.1 -0.23,0.09 -0.23,0.09 -0.23,0.08 -0.24,0.07 -0.24,0.06 -0.24,0.06 -0.25,0.05 -0.25,0.04 -0.25,0.03 -0.25,0.03 -0.25,0.02 -0.25,0.01 h -0.25 c -1.85,0 -3.25,-1.04 -4.35,-2.84 -1.25,-1.98 -1.89,-4.67 -1.89,-4.92 0,-0.7 0.75,-0.7 1.21,-0.7 0.54,0 0.73,0 0.98,0.25 0.11,0.09 0.11,0.2 0.41,1.45 1,3.87 2.09,4.97 3.39,4.97 0.73,0 1.14,-0.49 1.14,-1.85 0,-0.84 -0.2,-1.64 -0.7,-3.62 -0.35,-1.41 -0.85,-3.39 -1.1,-4.49 l -1.8,-6.98 c -0.14,-0.69 -0.39,-1.64 -0.39,-1.98 0,-1.05 0.8,-2.21 2.35,-2.21 2.59,0 3.19,2.3 3.53,3.8 0.5,1.84 0.91,3.44 1.39,5.58 0.2,0.64 1.45,5.78 1.55,5.92 0.04,0.31 1.45,2.55 3.09,3.89 1.39,1.09 3.03,1.94 5.13,1.94 1.29,0 2.5,-0.49 2.5,-2.94 0,-2.83 -2.19,-8.66 -3.15,-11.16 -0.54,-1.34 -0.7,-1.68 -0.7,-2.54 0,-2.88 2.89,-4.49 5.64,-4.49 5.28,0 7.77,6.78 7.77,7.78 0,0.71 -0.75,0.71 -1.19,0.71 -0.61,0 -0.95,0 -1.16,-0.66 -1.64,-5.53 -4.32,-6.03 -5.12,-6.03 -0.36,0 -0.84,0 -0.84,1.05 0,1.15 0.48,2.39 0.98,3.64 0.8,2.04 3.09,7.87 3.09,10.65 0,4.6 -3.84,5.78 -7.42,5.78 -1.05,0 -4.69,0 -8.22,-3.78 z"
           inkscape:connector-curvature="0"
           style="fill:#000000;stroke-width:0" /></g>
    </g>
    <g
       transform="matrix(0.58391455,0,0,0.58391455,73.90082,334.70406)"
       id="g11122">
      <g
         style="font-style:normal;font-variant:normal;font-weight:normal;font-stretch:normal;letter-spacing:normal;word-spacing:normal;text-anchor:start;fill:none;fill-opacity:1;fill-rule:evenodd;stroke:#000000;stroke-linecap:butt;stroke-linejoin:miter;stroke-miterlimit:10.433;stroke-dasharray:none;stroke-dashoffset:0;stroke-opacity:1"
         id="g11120"
         transform="matrix(0.57142857,0,0,-0.57142857,-100,300)"
         xml:space="preserve"
         stroke-miterlimit="10.433"
         font-style="normal"
         font-variant="normal"
         font-weight="normal"
         font-stretch="normal"
         font-size-adjust="none"
         letter-spacing="normal"
         word-spacing="normal"><path
           style="fill:#000000;stroke-width:0"
           inkscape:connector-curvature="0"
           d="m 478.19,431.11 v 0.31 l -0.01,0.34 -0.02,0.36 -0.02,0.37 -0.03,0.39 -0.04,0.39 -0.04,0.41 -0.06,0.41 -0.07,0.42 -0.07,0.43 -0.09,0.42 -0.1,0.43 -0.12,0.42 -0.12,0.42 -0.14,0.41 -0.16,0.41 -0.17,0.4 -0.18,0.38 -0.2,0.37 -0.22,0.36 -0.23,0.34 -0.25,0.32 -0.28,0.3 -0.29,0.27 -0.31,0.25 -0.16,0.12 -0.17,0.1 -0.17,0.1 -0.18,0.1 -0.18,0.08 -0.19,0.08 -0.19,0.07 -0.2,0.06 -0.21,0.05 -0.21,0.05 -0.22,0.03 -0.22,0.02 -0.23,0.02 h -0.23 l -0.05,-1.09 c 2.44,0 2.73,-3.19 2.73,-6.03 0,-2.44 -0.39,-4.99 -1.59,-9.92 h -10.41 c 0.85,3.2 1.85,7.18 3.83,10.72 1.36,2.43 3.19,5.23 5.44,5.23 l 0.05,1.09 c -6.92,0 -14.6,-14.04 -14.6,-25.45 0,-4.69 1.44,-10.22 5.99,-10.22 v 1.1 c -1.66,0 -2.71,1.45 -2.71,6.07 0,2.1 0.3,4.99 1.6,9.86 h 10.37 c -0.54,-2.28 -1.59,-6.51 -3.5,-10.11 -1.73,-3.39 -3.62,-5.82 -5.76,-5.82 v -1.1 c 7.01,0 14.59,14.3 14.59,25.46 z"
           id="path11118" /></g>
    </g>
    <path
       inkscape:connector-curvature="0"
       id="path11326"
       d="M 52.644534,541.16665 124.52308,387.02261 m 2.37061,-5.0838 22.95575,-49.22875"
       style="fill:none;stroke:#000000;stroke-width:1px;stroke-linecap:butt;stroke-linejoin:miter;stroke-opacity:1;marker-end:url(#marker10545)"
       sodipodi:nodetypes="cccc" />
    <g
       transform="matrix(0.8,0,0,0.8,23.31618,310.24154)"
       id="g11601">
      <g
         style="font-style:normal;font-variant:normal;font-weight:normal;font-stretch:normal;letter-spacing:normal;word-spacing:normal;text-anchor:start;fill:none;fill-opacity:1;fill-rule:evenodd;stroke:#000000;stroke-linecap:butt;stroke-linejoin:miter;stroke-miterlimit:10.433;stroke-dasharray:none;stroke-dashoffset:0;stroke-opacity:1"
         id="g11599"
         transform="matrix(0.42857143,0,0,-0.42857143,-75,225)"
         xml:space="preserve"
         stroke-miterlimit="10.433"
         font-style="normal"
         font-variant="normal"
         font-weight="normal"
         font-stretch="normal"
         font-size-adjust="none"
         letter-spacing="normal"
         word-spacing="normal"><path
           style="fill:#000000;stroke-width:0"
           inkscape:connector-curvature="0"
           d="m 481.07,436.56 -0.07,-0.06 -0.07,-0.07 -0.08,-0.07 -0.08,-0.07 -0.08,-0.08 -0.09,-0.08 -0.09,-0.08 -0.1,-0.09 -0.09,-0.09 -0.1,-0.09 -0.19,-0.19 -0.2,-0.2 -0.19,-0.2 -0.09,-0.1 -0.09,-0.11 -0.09,-0.1 -0.08,-0.1 -0.08,-0.11 -0.08,-0.1 -0.07,-0.1 -0.06,-0.1 -0.06,-0.1 -0.06,-0.1 -0.04,-0.09 -0.04,-0.1 -0.03,-0.09 -0.02,-0.09 -0.02,-0.09 v -0.08 c 0,-0.5 0.5,-1 1,-1 0.45,0 0.7,0.35 0.95,0.65 0.59,0.75 1.73,2.14 3.94,3.24 0.34,0.2 0.84,0.45 0.84,1.04 0,0.5 -0.34,0.75 -0.7,1 -1.1,0.75 -1.64,1.64 -2.05,2.83 -0.09,0.45 -0.3,1.11 -0.98,1.11 -0.71,0 -1,-0.66 -1,-1.05 0,-0.25 0.39,-1.84 1.18,-2.89 h -16.78 c -0.84,0 -1.75,0 -1.75,-1 0,-1 0.91,-1 1.75,-1 z"
           id="path11593" /><path
           style="fill:#000000;stroke-width:0"
           inkscape:connector-curvature="0"
           d="m 482.47,424.23 v 0.21 l -0.01,0.2 -0.01,0.2 -0.01,0.19 -0.03,0.18 -0.02,0.18 -0.03,0.17 -0.03,0.17 -0.04,0.16 -0.04,0.15 -0.04,0.15 -0.05,0.14 -0.05,0.14 -0.05,0.13 -0.05,0.13 -0.06,0.12 -0.06,0.12 -0.06,0.11 -0.07,0.11 -0.06,0.1 -0.07,0.1 -0.07,0.09 -0.07,0.09 -0.08,0.09 -0.07,0.08 -0.08,0.07 -0.15,0.15 -0.16,0.12 -0.15,0.12 -0.16,0.1 -0.16,0.08 -0.15,0.08 -0.15,0.06 -0.15,0.06 -0.14,0.04 -0.13,0.04 -0.13,0.03 -0.11,0.02 -0.11,0.02 -0.09,0.01 -0.08,0.01 -0.06,0.01 h -0.05 -0.02 -0.01 -0.01 -0.01 c -1.98,0 -3.78,-2.08 -3.78,-3.78 0,-1.39 1.05,-1.98 1.5,-2.23 2.08,-1.25 2.49,-2.16 2.49,-3.14 0,-1.1 -2.9,-12.02 -8.72,-12.02 -3.6,0 -3.6,3 -3.6,3.89 0,2.89 1.41,6.53 3,10.52 0.39,1 0.55,1.43 0.55,2.23 0,2.89 -2.89,4.48 -5.64,4.48 -5.28,0 -7.77,-6.76 -7.77,-7.76 0,-0.7 0.75,-0.7 1.21,-0.7 0.59,0 0.93,0 1.14,0.65 1.59,5.38 4.23,6.02 5.12,6.02 0.36,0 0.86,0 0.86,-1.05 0,-1.14 -0.61,-2.58 -0.75,-2.98 -2.3,-5.78 -3.05,-8.02 -3.05,-10.41 0,-5.28 4.29,-6.69 8.63,-6.69 8.56,0 12.2,14.16 12.2,18.44 z"
           id="path11595" /><path
           style="fill:#000000;stroke-width:0"
           inkscape:connector-curvature="0"
           d="m 497.31,420.92 v 0.04 0.04 0.05 0.04 0.03 0.04 0.04 0.03 0.04 0.03 l -0.01,0.03 v 0.03 0.03 l -0.01,0.03 v 0.03 0.02 l -0.01,0.03 v 0.02 l -0.01,0.03 v 0.02 l -0.01,0.04 -0.02,0.04 -0.02,0.03 -0.02,0.03 -0.02,0.03 -0.02,0.03 -0.03,0.02 -0.03,0.02 -0.03,0.02 -0.04,0.01 -0.04,0.01 -0.05,0.02 h -0.02 -0.02 l -0.03,0.01 h -0.03 l -0.02,0.01 h -0.03 -0.03 -0.03 -0.03 l -0.04,0.01 h -0.03 -0.04 -0.03 -0.04 -0.04 -0.04 -0.04 -0.04 -0.05 -0.04 c -2.24,-2.2 -5.39,-2.23 -6.83,-2.23 v -1.25 c 0.84,0 3.14,0 5.04,0.97 v -17.77 c 0,-1.16 0,-1.61 -3.48,-1.61 h -1.31 v -1.25 c 0.62,0.03 4.9,0.14 6.2,0.14 1.08,0 5.47,-0.11 6.24,-0.14 v 1.25 h -1.33 c -3.49,0 -3.49,0.45 -3.49,1.61 z"
           id="path11597" /></g>
    </g>
    <g
       id="g11724"
       transform="matrix(0.8,0,0,0.8,84.434771,359.52649)">
      <g
         word-spacing="normal"
         letter-spacing="normal"
         font-size-adjust="none"
         font-stretch="normal"
         font-weight="normal"
         font-variant="normal"
         font-style="normal"
         stroke-miterlimit="10.433"
         xml:space="preserve"
         transform="matrix(0.42857143,0,0,-0.42857143,-75,225)"
         id="g11722"
         style="font-style:normal;font-variant:normal;font-weight:normal;font-stretch:normal;letter-spacing:normal;word-spacing:normal;text-anchor:start;fill:none;fill-opacity:1;fill-rule:evenodd;stroke:#000000;stroke-linecap:butt;stroke-linejoin:miter;stroke-miterlimit:10.433;stroke-dasharray:none;stroke-dashoffset:0;stroke-opacity:1"><path
           id="path11716"
           d="m 481.07,436.56 -0.07,-0.06 -0.07,-0.07 -0.08,-0.07 -0.08,-0.07 -0.08,-0.08 -0.09,-0.08 -0.09,-0.08 -0.1,-0.09 -0.09,-0.09 -0.1,-0.09 -0.19,-0.19 -0.2,-0.2 -0.19,-0.2 -0.09,-0.1 -0.09,-0.11 -0.09,-0.1 -0.08,-0.1 -0.08,-0.11 -0.08,-0.1 -0.07,-0.1 -0.06,-0.1 -0.06,-0.1 -0.06,-0.1 -0.04,-0.09 -0.04,-0.1 -0.03,-0.09 -0.02,-0.09 -0.02,-0.09 v -0.08 c 0,-0.5 0.5,-1 1,-1 0.45,0 0.7,0.35 0.95,0.65 0.59,0.75 1.73,2.14 3.94,3.24 0.34,0.2 0.84,0.45 0.84,1.04 0,0.5 -0.34,0.75 -0.7,1 -1.1,0.75 -1.64,1.64 -2.05,2.83 -0.09,0.45 -0.3,1.11 -0.98,1.11 -0.71,0 -1,-0.66 -1,-1.05 0,-0.25 0.39,-1.84 1.18,-2.89 h -16.78 c -0.84,0 -1.75,0 -1.75,-1 0,-1 0.91,-1 1.75,-1 z"
           inkscape:connector-curvature="0"
           style="fill:#000000;stroke-width:0" /><path
           id="path11718"
           d="m 482.47,424.23 v 0.21 l -0.01,0.2 -0.01,0.2 -0.01,0.19 -0.03,0.18 -0.02,0.18 -0.03,0.17 -0.03,0.17 -0.04,0.16 -0.04,0.15 -0.04,0.15 -0.05,0.14 -0.05,0.14 -0.05,0.13 -0.05,0.13 -0.06,0.12 -0.06,0.12 -0.06,0.11 -0.07,0.11 -0.06,0.1 -0.07,0.1 -0.07,0.09 -0.07,0.09 -0.08,0.09 -0.07,0.08 -0.08,0.07 -0.15,0.15 -0.16,0.12 -0.15,0.12 -0.16,0.1 -0.16,0.08 -0.15,0.08 -0.15,0.06 -0.15,0.06 -0.14,0.04 -0.13,0.04 -0.13,0.03 -0.11,0.02 -0.11,0.02 -0.09,0.01 -0.08,0.01 -0.06,0.01 h -0.05 -0.02 -0.01 -0.01 -0.01 c -1.98,0 -3.78,-2.08 -3.78,-3.78 0,-1.39 1.05,-1.98 1.5,-2.23 2.08,-1.25 2.49,-2.16 2.49,-3.14 0,-1.1 -2.9,-12.02 -8.72,-12.02 -3.6,0 -3.6,3 -3.6,3.89 0,2.89 1.41,6.53 3,10.52 0.39,1 0.55,1.43 0.55,2.23 0,2.89 -2.89,4.48 -5.64,4.48 -5.28,0 -7.77,-6.76 -7.77,-7.76 0,-0.7 0.75,-0.7 1.21,-0.7 0.59,0 0.93,0 1.14,0.65 1.59,5.38 4.23,6.02 5.12,6.02 0.36,0 0.86,0 0.86,-1.05 0,-1.14 -0.61,-2.58 -0.75,-2.98 -2.3,-5.78 -3.05,-8.02 -3.05,-10.41 0,-5.28 4.29,-6.69 8.63,-6.69 8.56,0 12.2,14.16 12.2,18.44 z"
           inkscape:connector-curvature="0"
           style="fill:#000000;stroke-width:0" /><path
           id="path11720"
           d="m 503.23,405.11 h -1.18 c -0.1,-0.77 -0.46,-2.83 -0.91,-3.18 -0.26,-0.2 -2.95,-0.2 -3.44,-0.2 h -6.42 c 3.66,3.23 4.88,4.2 6.97,5.84 2.58,2.07 4.98,4.22 4.98,7.54 0,4.21 -3.68,6.79 -8.15,6.79 -4.31,0 -7.25,-3.03 -7.25,-6.23 0,-1.78 1.5,-1.96 1.86,-1.96 0.83,0 1.84,0.6 1.84,1.85 0,0.62 -0.25,1.84 -2.06,1.84 1.08,2.47 3.45,3.24 5.09,3.24 3.49,0 5.3,-2.71 5.3,-5.53 0,-3.04 -2.16,-5.44 -3.28,-6.69 l -8.39,-8.3 c -0.36,-0.31 -0.36,-0.39 -0.36,-1.36 h 14.36 z"
           inkscape:connector-curvature="0"
           style="fill:#000000;stroke-width:0" /></g>
    </g>
    <g
       transform="matrix(0.8,0,0,0.8,-13.928094,452.37079)"
       id="g11848">
      <g
         style="font-style:normal;font-variant:normal;font-weight:normal;font-stretch:normal;letter-spacing:normal;word-spacing:normal;text-anchor:start;fill:none;fill-opacity:1;fill-rule:evenodd;stroke:#000000;stroke-linecap:butt;stroke-linejoin:miter;stroke-miterlimit:10.433;stroke-dasharray:none;stroke-dashoffset:0;stroke-opacity:1"
         id="g11846"
         transform="matrix(0.42857143,0,0,-0.42857143,-75,225)"
         xml:space="preserve"
         stroke-miterlimit="10.433"
         font-style="normal"
         font-variant="normal"
         font-weight="normal"
         font-stretch="normal"
         font-size-adjust="none"
         letter-spacing="normal"
         word-spacing="normal"><path
           style="fill:#000000;stroke-width:0"
           inkscape:connector-curvature="0"
           d="m 479.29,417.96 -0.01,0.37 -0.01,0.35 -0.02,0.35 -0.02,0.34 -0.06,0.65 -0.09,0.63 -0.11,0.59 -0.14,0.57 -0.15,0.54 -0.18,0.51 -0.19,0.49 -0.21,0.45 -0.23,0.44 -0.25,0.4 -0.26,0.38 -0.27,0.36 -0.29,0.33 -0.3,0.31 -0.31,0.29 -0.31,0.26 -0.33,0.24 -0.34,0.22 -0.34,0.2 -0.35,0.18 -0.35,0.16 -0.36,0.14 -0.35,0.12 -0.36,0.11 -0.37,0.09 -0.36,0.06 -0.36,0.06 -0.35,0.04 -0.35,0.02 h -0.35 l -0.05,-1.09 c 4.94,0 4.94,-6.53 4.94,-10.41 0,-1.84 0,-4.73 0.09,-5.57 v 0 c -4.37,-3.85 -8.22,-4.39 -10.2,-4.39 -3,0 -4.49,2.25 -4.49,5.43 0,2.44 1.3,7.82 2.89,10.36 2.33,3.64 5.04,4.58 6.77,4.58 l 0.05,1.09 c -6.82,0 -13.39,-7.12 -13.39,-14.14 0,-4.64 2.98,-8.42 8.06,-8.42 3.14,0 6.73,1.14 10.51,4.19 0.66,-2.64 2.3,-4.19 4.54,-4.19 2.64,0 4.18,2.74 4.18,3.53 0,0.36 -0.29,0.5 -0.59,0.5 -0.36,0 -0.5,-0.14 -0.66,-0.5 -0.89,-2.43 -2.68,-2.43 -2.78,-2.43 -1.54,0 -1.54,3.89 -1.54,5.07 0,1.05 0,1.16 0.5,1.75 4.68,5.88 5.73,11.66 5.73,11.71 0,0.11 -0.06,0.5 -0.61,0.5 -0.5,0 -0.5,-0.14 -0.75,-1.05 -0.89,-3.14 -2.53,-6.92 -4.87,-9.86 z"
           id="path11844" /></g>
    </g>
    <path
       style="fill:none;stroke:#000000;stroke-width:1px;stroke-linecap:butt;stroke-linejoin:miter;stroke-opacity:1;marker-end:url(#marker4857)"
       d="m 149.84944,332.71006 27.96447,73.02385"
       id="path4592"
       inkscape:connector-curvature="0" />
    <path
       style="fill:none;stroke:#000000;stroke-width:1px;stroke-linecap:butt;stroke-linejoin:miter;stroke-opacity:1;marker-end:url(#marker5704)"
       d="M 149.84944,332.71006 62.803608,299.95077"
       id="path5694"
       inkscape:connector-curvature="0" />
    <g
       transform="matrix(0.8,0,0,0.8,-64.749297,278.41822)"
       id="g5966">
      <g
         style="font-style:normal;font-variant:normal;font-weight:normal;font-stretch:normal;letter-spacing:normal;word-spacing:normal;text-anchor:start;fill:none;fill-opacity:1;fill-rule:evenodd;stroke:#000000;stroke-linecap:butt;stroke-linejoin:miter;stroke-miterlimit:10.433;stroke-dasharray:none;stroke-dashoffset:0;stroke-opacity:1"
         id="g5964"
         transform="matrix(0.42857143,0,0,-0.42857143,-75,225)"
         xml:space="preserve"
         stroke-miterlimit="10.433"
         font-style="normal"
         font-variant="normal"
         font-weight="normal"
         font-stretch="normal"
         font-size-adjust="none"
         letter-spacing="normal"
         word-spacing="normal"><path
           style="fill:#000000;stroke-width:0"
           inkscape:connector-curvature="0"
           d="m 481.07,436.56 -0.07,-0.06 -0.07,-0.07 -0.08,-0.07 -0.08,-0.07 -0.08,-0.08 -0.09,-0.08 -0.09,-0.08 -0.1,-0.09 -0.09,-0.09 -0.1,-0.09 -0.19,-0.19 -0.2,-0.2 -0.19,-0.2 -0.09,-0.1 -0.09,-0.11 -0.09,-0.1 -0.08,-0.1 -0.08,-0.11 -0.08,-0.1 -0.07,-0.1 -0.06,-0.1 -0.06,-0.1 -0.06,-0.1 -0.04,-0.09 -0.04,-0.1 -0.03,-0.09 -0.02,-0.09 -0.02,-0.09 v -0.08 c 0,-0.5 0.5,-1 1,-1 0.45,0 0.7,0.35 0.95,0.65 0.59,0.75 1.73,2.14 3.94,3.24 0.34,0.2 0.84,0.45 0.84,1.04 0,0.5 -0.34,0.75 -0.7,1 -1.1,0.75 -1.64,1.64 -2.05,2.83 -0.09,0.45 -0.3,1.11 -0.98,1.11 -0.71,0 -1,-0.66 -1,-1.05 0,-0.25 0.39,-1.84 1.18,-2.89 h -16.78 c -0.84,0 -1.75,0 -1.75,-1 0,-1 0.91,-1 1.75,-1 z"
           id="path5954" /><path
           style="fill:#000000;stroke-width:0"
           inkscape:connector-curvature="0"
           d="m 482.47,424.23 v 0.21 l -0.01,0.2 -0.01,0.2 -0.01,0.19 -0.03,0.18 -0.02,0.18 -0.03,0.17 -0.03,0.17 -0.04,0.16 -0.04,0.15 -0.04,0.15 -0.05,0.14 -0.05,0.14 -0.05,0.13 -0.05,0.13 -0.06,0.12 -0.06,0.12 -0.06,0.11 -0.07,0.11 -0.06,0.1 -0.07,0.1 -0.07,0.09 -0.07,0.09 -0.08,0.09 -0.07,0.08 -0.08,0.07 -0.15,0.15 -0.16,0.12 -0.15,0.12 -0.16,0.1 -0.16,0.08 -0.15,0.08 -0.15,0.06 -0.15,0.06 -0.14,0.04 -0.13,0.04 -0.13,0.03 -0.11,0.02 -0.11,0.02 -0.09,0.01 -0.08,0.01 -0.06,0.01 h -0.05 -0.02 -0.01 -0.01 -0.01 c -1.98,0 -3.78,-2.08 -3.78,-3.78 0,-1.39 1.05,-1.98 1.5,-2.23 2.08,-1.25 2.49,-2.16 2.49,-3.14 0,-1.1 -2.9,-12.02 -8.72,-12.02 -3.6,0 -3.6,3 -3.6,3.89 0,2.89 1.41,6.53 3,10.52 0.39,1 0.55,1.43 0.55,2.23 0,2.89 -2.89,4.48 -5.64,4.48 -5.28,0 -7.77,-6.76 -7.77,-7.76 0,-0.7 0.75,-0.7 1.21,-0.7 0.59,0 0.93,0 1.14,0.65 1.59,5.38 4.23,6.02 5.12,6.02 0.36,0 0.86,0 0.86,-1.05 0,-1.14 -0.61,-2.58 -0.75,-2.98 -2.3,-5.78 -3.05,-8.02 -3.05,-10.41 0,-5.28 4.29,-6.69 8.63,-6.69 8.56,0 12.2,14.16 12.2,18.44 z"
           id="path5956" /><path
           style="fill:#000000;stroke-width:0"
           inkscape:connector-curvature="0"
           d="m 516.05,420.04 -9.95,9.92 c -0.61,0.6 -0.7,0.71 -1.11,0.71 -0.48,0 -0.98,-0.46 -0.98,-1 0,-0.36 0.09,-0.46 0.64,-1 l 9.97,-10.02 -9.97,-10.01 c -0.55,-0.55 -0.64,-0.64 -0.64,-1 0,-0.55 0.5,-0.99 0.98,-0.99 0.41,0 0.5,0.1 1.11,0.69 l 9.91,9.92 10.31,-10.31 c 0.11,-0.05 0.45,-0.3 0.75,-0.3 0.59,0 1,0.44 1,0.99 0,0.11 0,0.31 -0.16,0.56 -0.04,0.09 -7.96,7.92 -10.45,10.45 l 9.11,9.13 c 0.25,0.29 1,0.93 1.25,1.23 0.05,0.11 0.25,0.3 0.25,0.66 0,0.54 -0.41,1 -1,1 -0.39,0 -0.59,-0.21 -1.14,-0.75 z"
           id="path5958" /><path
           style="fill:#000000;stroke-width:0"
           inkscape:connector-curvature="0"
           d="m 574.79,436.56 -0.07,-0.06 -0.07,-0.07 -0.08,-0.07 -0.08,-0.07 -0.08,-0.08 -0.09,-0.08 -0.09,-0.08 -0.1,-0.09 -0.09,-0.09 -0.1,-0.09 -0.19,-0.19 -0.2,-0.2 -0.19,-0.2 -0.09,-0.1 -0.09,-0.11 -0.09,-0.1 -0.08,-0.1 -0.08,-0.11 -0.08,-0.1 -0.07,-0.1 -0.07,-0.1 -0.05,-0.1 -0.06,-0.1 -0.04,-0.09 -0.04,-0.1 -0.03,-0.09 -0.03,-0.09 -0.01,-0.09 v -0.08 c 0,-0.5 0.5,-1 1,-1 0.45,0 0.7,0.35 0.95,0.65 0.59,0.75 1.73,2.14 3.94,3.24 0.34,0.2 0.84,0.45 0.84,1.04 0,0.5 -0.34,0.75 -0.7,1 -1.1,0.75 -1.64,1.64 -2.05,2.83 -0.09,0.45 -0.3,1.11 -0.98,1.11 -0.71,0 -1,-0.66 -1,-1.05 0,-0.25 0.39,-1.84 1.18,-2.89 h -16.78 c -0.84,0 -1.75,0 -1.75,-1 0,-1 0.91,-1 1.75,-1 z"
           id="path5960" /><path
           style="fill:#000000;stroke-width:0"
           inkscape:connector-curvature="0"
           d="m 560.43,424.93 -0.07,0.23 -0.08,0.23 -0.1,0.21 -0.1,0.21 -0.12,0.2 -0.12,0.2 -0.14,0.18 -0.14,0.18 -0.16,0.18 -0.16,0.16 -0.17,0.16 -0.17,0.15 -0.19,0.15 -0.19,0.13 -0.2,0.13 -0.2,0.13 -0.22,0.11 -0.21,0.11 -0.22,0.1 -0.23,0.09 -0.23,0.09 -0.23,0.08 -0.24,0.07 -0.24,0.06 -0.24,0.06 -0.25,0.05 -0.25,0.04 -0.25,0.03 -0.25,0.03 -0.25,0.02 -0.25,0.01 h -0.25 c -1.84,0 -3.25,-1.04 -4.34,-2.84 -1.25,-1.98 -1.9,-4.67 -1.9,-4.92 0,-0.7 0.75,-0.7 1.21,-0.7 0.54,0 0.73,0 0.98,0.25 0.11,0.09 0.11,0.2 0.41,1.45 1,3.87 2.09,4.97 3.39,4.97 0.73,0 1.14,-0.49 1.14,-1.85 0,-0.84 -0.2,-1.64 -0.7,-3.62 -0.35,-1.41 -0.85,-3.39 -1.1,-4.49 l -1.8,-6.98 c -0.13,-0.69 -0.38,-1.64 -0.38,-1.98 0,-1.05 0.79,-2.21 2.34,-2.21 2.59,0 3.19,2.3 3.53,3.8 0.5,1.84 0.91,3.44 1.39,5.58 0.2,0.64 1.45,5.78 1.55,5.92 0.04,0.31 1.45,2.55 3.09,3.89 1.39,1.09 3.03,1.94 5.13,1.94 1.29,0 2.5,-0.49 2.5,-2.94 0,-2.83 -2.19,-8.66 -3.15,-11.16 -0.54,-1.34 -0.7,-1.68 -0.7,-2.54 0,-2.88 2.89,-4.49 5.64,-4.49 5.28,0 7.77,6.78 7.77,7.78 0,0.71 -0.75,0.71 -1.19,0.71 -0.61,0 -0.95,0 -1.15,-0.66 -1.65,-5.53 -4.33,-6.03 -5.13,-6.03 -0.36,0 -0.84,0 -0.84,1.05 0,1.15 0.48,2.39 0.98,3.64 0.8,2.04 3.09,7.87 3.09,10.65 0,4.6 -3.84,5.78 -7.42,5.78 -1.05,0 -4.68,0 -8.22,-3.78 z"
           id="path5962" /></g>
    </g>
    <g
       id="g6919"
       transform="matrix(0.8,0,0,0.8,134.83937,365.72934)">
      <g
         word-spacing="normal"
         letter-spacing="normal"
         font-size-adjust="none"
         font-stretch="normal"
         font-weight="normal"
         font-variant="normal"
         font-style="normal"
         stroke-miterlimit="10.433"
         xml:space="preserve"
         transform="matrix(0.42857143,0,0,-0.42857143,-75,225)"
         id="g6917"
         style="font-style:normal;font-variant:normal;font-weight:normal;font-stretch:normal;letter-spacing:normal;word-spacing:normal;text-anchor:start;fill:none;fill-opacity:1;fill-rule:evenodd;stroke:#000000;stroke-linecap:butt;stroke-linejoin:miter;stroke-miterlimit:10.433;stroke-dasharray:none;stroke-dashoffset:0;stroke-opacity:1"><path
           id="path6903"
           d="m 481.38,423.14 0.47,0.11 0.48,0.12 0.48,0.14 0.48,0.15 0.49,0.16 0.48,0.18 0.48,0.19 0.47,0.2 0.47,0.22 0.47,0.23 0.46,0.24 0.45,0.25 0.43,0.27 0.43,0.28 0.42,0.29 0.4,0.3 0.39,0.31 0.37,0.32 0.36,0.34 0.33,0.35 0.32,0.35 0.29,0.37 0.28,0.38 0.25,0.39 0.22,0.4 0.2,0.41 0.17,0.42 0.15,0.43 0.11,0.44 0.08,0.45 0.05,0.46 0.02,0.47 c 0,4.28 -4.48,7.47 -11,7.47 h -14.2 c -1,0 -1.45,0 -1.45,-1 0,-0.55 0.45,-0.55 1.4,-0.55 0.1,0 1.05,0 1.89,-0.09 0.89,-0.11 1.35,-0.16 1.35,-0.8 0,-0.2 -0.05,-0.36 -0.21,-0.95 l -6.67,-26.75 c -0.5,-1.95 -0.59,-2.34 -4.53,-2.34 -0.91,0 -1.34,0 -1.34,-1 0,-0.55 0.59,-0.55 0.68,-0.55 1.41,0 4.89,0.16 6.29,0.16 1.39,0 4.93,-0.16 6.32,-0.16 0.41,0 1,0 1,1 0,0.55 -0.45,0.55 -1.39,0.55 -1.84,0 -3.25,0 -3.25,0.89 0,0.29 0.11,0.54 0.16,0.84 l 3.28,13.2 h 5.94 l -0.05,1.11 h -5.59 l 3.25,13 c 0.29,1.19 0.43,1.69 1.39,1.85 0.45,0.04 2.04,0.04 3.03,0.04 3.55,0 9.08,0 9.08,-4.93 0,-1.69 -0.8,-5.13 -2.75,-7.07 -1.28,-1.29 -3.92,-2.89 -8.41,-2.89 l 0.05,-1.11 c 4.53,0 5.42,-2.78 5.42,-4.53 0,-0.75 -0.39,-2.28 -0.69,-3.44 -0.36,-1.39 -0.79,-3.23 -0.79,-4.23 0,-5.37 5.96,-5.37 6.62,-5.37 4.23,0 5.97,5.03 5.97,5.73 0,0.59 -0.55,0.59 -0.59,0.59 -0.46,0 -0.55,-0.36 -0.65,-0.7 -1.25,-3.69 -3.39,-4.53 -4.54,-4.53 -1.64,0 -1.99,1.09 -1.99,3.05 0,1.53 0.3,4.07 0.5,5.67 0.1,0.7 0.21,1.64 0.21,2.34 0,3.83 -3.35,5.38 -4.69,5.88 z"
           inkscape:connector-curvature="0"
           style="fill:#000000;stroke-width:0" /><path
           id="path6905"
           d="m 497.57,400.95 -0.01,-0.04 -0.02,-0.05 -0.01,-0.04 -0.01,-0.05 -0.02,-0.05 -0.01,-0.06 -0.02,-0.05 -0.01,-0.05 -0.03,-0.11 -0.03,-0.11 -0.03,-0.12 -0.02,-0.1 -0.02,-0.06 -0.01,-0.05 -0.01,-0.05 -0.01,-0.05 -0.01,-0.05 -0.01,-0.04 -0.01,-0.05 -0.01,-0.04 -0.01,-0.03 v -0.04 l -0.01,-0.03 v -0.03 l -0.01,-0.02 v -0.02 -0.01 -0.01 -0.01 0 c 0,-0.77 0.62,-1.11 1.18,-1.11 0.63,0 1.18,0.45 1.36,0.76 0.18,0.32 0.46,1.43 0.63,2.16 0.17,0.66 0.55,2.27 0.76,3.14 0.21,0.77 0.43,1.53 0.6,2.33 0.37,1.44 0.45,1.7 1.45,3.14 0.99,1.39 2.63,3.2 5.24,3.2 2.01,0 2.04,-1.78 2.04,-2.44 0,-2.09 -1.48,-5.95 -2.04,-7.42 -0.4,-0.98 -0.54,-1.29 -0.54,-1.89 0,-1.84 1.55,-2.98 3.32,-2.98 3.48,0 5.01,4.79 5.01,5.33 0,0.45 -0.45,0.45 -0.54,0.45 -0.5,0 -0.54,-0.2 -0.68,-0.59 -0.79,-2.79 -2.29,-4.22 -3.68,-4.22 -0.74,0 -0.88,0.48 -0.88,1.22 0,0.79 0.17,1.25 0.8,2.82 0.42,1.08 1.86,4.77 1.86,6.72 0,3.39 -2.69,3.97 -4.53,3.97 -2.89,0 -4.85,-1.76 -5.89,-3.16 -0.25,2.4 -2.3,3.16 -3.74,3.16 -1.5,0 -2.3,-1.08 -2.75,-1.87 -0.76,-1.29 -1.25,-3.29 -1.25,-3.46 0,-0.45 0.49,-0.45 0.59,-0.45 0.49,0 0.52,0.11 0.77,1.05 0.52,2.06 1.19,3.76 2.55,3.76 0.9,0 1.14,-0.76 1.14,-1.7 0,-0.67 -0.31,-1.95 -0.56,-2.89 -0.24,-0.95 -0.58,-2.38 -0.77,-3.14 z"
           inkscape:connector-curvature="0"
           style="fill:#000000;stroke-width:0" /><path
           id="path6907"
           d="m 536.93,394.25 v 0.02 l -0.01,0.03 v 0.01 0.02 0.01 l -0.01,0.02 v 0.01 l -0.01,0.02 -0.01,0.02 -0.01,0.02 -0.01,0.02 -0.01,0.03 -0.02,0.02 -0.02,0.03 -0.02,0.03 -0.02,0.03 -0.03,0.03 -0.03,0.04 -0.02,0.02 -0.01,0.02 -0.02,0.02 -0.02,0.02 -0.02,0.02 -0.02,0.03 -0.02,0.02 -0.02,0.02 -0.02,0.03 -0.03,0.02 -0.02,0.03 -0.03,0.03 -0.02,0.03 -0.03,0.03 -0.03,0.03 -0.03,0.03 -0.03,0.03 -0.03,0.03 -0.04,0.04 -0.03,0.03 -0.03,0.04 -0.04,0.03 -0.04,0.04 -0.04,0.04 c -6.22,6.28 -7.81,15.69 -7.81,23.31 0,8.67 1.89,17.35 8.01,23.56 0.65,0.61 0.65,0.71 0.65,0.86 0,0.35 -0.19,0.49 -0.49,0.49 -0.5,0 -4.98,-3.38 -7.92,-9.7 -2.55,-5.49 -3.14,-11.02 -3.14,-15.21 0,-3.89 0.55,-9.9 3.28,-15.54 2.99,-6.13 7.28,-9.36 7.78,-9.36 0.3,0 0.49,0.14 0.49,0.5 z"
           inkscape:connector-curvature="0"
           style="fill:#000000;stroke-width:0" /><path
           id="path6909"
           d="m 565.31,436.56 -0.07,-0.06 -0.07,-0.07 -0.08,-0.07 -0.08,-0.07 -0.08,-0.08 -0.09,-0.08 -0.09,-0.08 -0.1,-0.09 -0.09,-0.09 -0.1,-0.09 -0.19,-0.19 -0.2,-0.2 -0.19,-0.2 -0.09,-0.1 -0.09,-0.11 -0.09,-0.1 -0.08,-0.1 -0.08,-0.11 -0.08,-0.1 -0.07,-0.1 -0.07,-0.1 -0.05,-0.1 -0.06,-0.1 -0.04,-0.09 -0.04,-0.1 -0.03,-0.09 -0.03,-0.09 -0.01,-0.09 v -0.08 c 0,-0.5 0.5,-1 1,-1 0.45,0 0.7,0.35 0.95,0.65 0.59,0.75 1.73,2.14 3.93,3.24 0.35,0.2 0.85,0.45 0.85,1.04 0,0.5 -0.35,0.75 -0.7,1 -1.1,0.75 -1.65,1.64 -2.05,2.83 -0.1,0.45 -0.3,1.11 -0.98,1.11 -0.71,0 -1,-0.66 -1,-1.05 0,-0.25 0.38,-1.84 1.18,-2.89 h -16.78 c -0.84,0 -1.75,0 -1.75,-1 0,-1 0.91,-1 1.75,-1 z"
           inkscape:connector-curvature="0"
           style="fill:#000000;stroke-width:0" /><path
           id="path6911"
           d="m 566.72,424.23 -0.01,0.21 v 0.2 l -0.02,0.2 -0.01,0.19 -0.02,0.18 -0.03,0.18 -0.03,0.17 -0.03,0.17 -0.03,0.16 -0.04,0.15 -0.05,0.15 -0.04,0.14 -0.05,0.14 -0.06,0.13 -0.05,0.13 -0.06,0.12 -0.06,0.12 -0.06,0.11 -0.07,0.11 -0.06,0.1 -0.07,0.1 -0.07,0.09 -0.07,0.09 -0.08,0.09 -0.07,0.08 -0.08,0.07 -0.15,0.15 -0.16,0.12 -0.15,0.12 -0.16,0.1 -0.16,0.08 -0.15,0.08 -0.15,0.06 -0.15,0.06 -0.14,0.04 -0.13,0.04 -0.13,0.03 -0.11,0.02 -0.11,0.02 -0.09,0.01 -0.08,0.01 -0.06,0.01 h -0.05 -0.02 -0.01 -0.01 -0.01 c -1.98,0 -3.78,-2.08 -3.78,-3.78 0,-1.39 1.05,-1.98 1.5,-2.23 2.08,-1.25 2.49,-2.16 2.49,-3.14 0,-1.1 -2.89,-12.02 -8.72,-12.02 -3.59,0 -3.59,3 -3.59,3.89 0,2.89 1.4,6.53 3,10.52 0.38,1 0.54,1.43 0.54,2.23 0,2.89 -2.89,4.48 -5.64,4.48 -5.28,0 -7.77,-6.76 -7.77,-7.76 0,-0.7 0.75,-0.7 1.21,-0.7 0.59,0 0.94,0 1.14,0.65 1.59,5.38 4.23,6.02 5.12,6.02 0.36,0 0.86,0 0.86,-1.05 0,-1.14 -0.61,-2.58 -0.75,-2.98 -2.29,-5.78 -3.04,-8.02 -3.04,-10.41 0,-5.28 4.28,-6.69 8.62,-6.69 8.56,0 12.21,14.16 12.21,18.44 z"
           inkscape:connector-curvature="0"
           style="fill:#000000;stroke-width:0" /><path
           id="path6913"
           d="m 587.59,405.11 h -1.18 c -0.1,-0.77 -0.46,-2.83 -0.91,-3.18 -0.27,-0.2 -2.95,-0.2 -3.44,-0.2 h -6.42 c 3.66,3.23 4.88,4.2 6.97,5.84 2.58,2.07 4.98,4.22 4.98,7.54 0,4.21 -3.68,6.79 -8.15,6.79 -4.31,0 -7.25,-3.03 -7.25,-6.23 0,-1.78 1.5,-1.96 1.86,-1.96 0.83,0 1.84,0.6 1.84,1.85 0,0.62 -0.25,1.84 -2.06,1.84 1.08,2.47 3.45,3.24 5.09,3.24 3.49,0 5.3,-2.71 5.3,-5.53 0,-3.04 -2.16,-5.44 -3.28,-6.69 l -8.39,-8.3 c -0.36,-0.31 -0.36,-0.39 -0.36,-1.36 h 14.36 z"
           inkscape:connector-curvature="0"
           style="fill:#000000;stroke-width:0" /><path
           id="path6915"
           d="m 606.71,418.65 v 0.37 l -0.01,0.39 v 0.39 l -0.02,0.41 -0.04,0.84 -0.06,0.88 -0.08,0.92 -0.11,0.95 -0.13,0.97 -0.16,1.01 -0.2,1.02 -0.23,1.03 -0.27,1.05 -0.3,1.06 -0.35,1.07 -0.39,1.07 -0.22,0.53 -0.22,0.53 -0.24,0.53 -0.25,0.53 c -2.98,6.12 -7.27,9.36 -7.77,9.36 -0.29,0 -0.5,-0.19 -0.5,-0.49 0,-0.15 0,-0.25 0.94,-1.15 4.89,-4.92 7.74,-12.85 7.74,-23.27 0,-8.51 -1.85,-17.28 -8.04,-23.56 -0.64,-0.59 -0.64,-0.7 -0.64,-0.84 0,-0.3 0.21,-0.5 0.5,-0.5 0.5,0 4.97,3.39 7.93,9.71 2.53,5.47 3.12,11 3.12,15.19 z"
           inkscape:connector-curvature="0"
           style="fill:#000000;stroke-width:0" /></g>
    </g>
  </g>
  <g
     transform="translate(0,-100)"
     style="display:none"
     inkscape:label="Layer 2"
     id="layer2"
     inkscape:groupmode="layer" />
</svg>
