<?xml version="1.0" encoding="UTF-8" standalone="no"?>
<!-- Created with Inkscape (http://www.inkscape.org/) -->

<svg
   width="400"
   height="180"
   viewBox="0 0 105.83334 47.625"
   version="1.1"
   id="svg1"
   inkscape:version="1.4 (86a8ad7, 2024-10-11)"
   sodipodi:docname="triangle_title_3.svg"
   xmlns:inkscape="http://www.inkscape.org/namespaces/inkscape"
   xmlns:sodipodi="http://sodipodi.sourceforge.net/DTD/sodipodi-0.dtd"
   xmlns="http://www.w3.org/2000/svg"
   xmlns:svg="http://www.w3.org/2000/svg">
  <sodipodi:namedview
     id="namedview1"
     pagecolor="#ffffff"
     bordercolor="#000000"
     borderopacity="0.25"
     inkscape:showpageshadow="2"
     inkscape:pageopacity="0.0"
     inkscape:pagecheckerboard="0"
     inkscape:deskcolor="#d1d1d1"
     inkscape:document-units="mm"
     showgrid="true"
     inkscape:zoom="4.3366723"
     inkscape:cx="181.93674"
     inkscape:cy="99.730847"
     inkscape:window-width="2560"
     inkscape:window-height="1494"
     inkscape:window-x="-11"
     inkscape:window-y="-11"
     inkscape:window-maximized="1"
     inkscape:current-layer="layer1">
    <inkscape:grid
       id="grid1"
       units="mm"
       originx="0"
       originy="0"
       spacingx="0.99999999"
       spacingy="0.99999999"
       empcolor="#0099e5"
       empopacity="0.30196078"
       color="#0099e5"
       opacity="0.14901961"
       empspacing="5"
       enabled="true"
       visible="true" />
  </sodipodi:namedview>
  <defs
     id="defs1">
    <g
       id="g1681">
      <g
         id="g260">
        <path
           d="m 3.53125,-3.796875 h 2.015625 c 1.65625,0 3.296875,-1.21875 3.296875,-2.59375 0,-0.921875 -0.78125,-1.765625 -2.296875,-1.765625 h -3.6875 c -0.234375,0 -0.34375,0 -0.34375,0.21875 0,0.125 0.109375,0.125 0.296875,0.125 0.71875,0 0.71875,0.09375 0.71875,0.21875 0,0.03125 0,0.09375 -0.046875,0.28125 L 1.875,-0.890625 C 1.765625,-0.46875 1.75,-0.34375 0.90625,-0.34375 c -0.21875,0 -0.34375,0 -0.34375,0.21875 C 0.5625,0 0.671875,0 0.734375,0 0.96875,0 1.203125,-0.03125 1.4375,-0.03125 H 2.828125 C 3.0625,-0.03125 3.3125,0 3.53125,0 3.640625,0 3.765625,0 3.765625,-0.234375 3.765625,-0.34375 3.65625,-0.34375 3.484375,-0.34375 2.765625,-0.34375 2.75,-0.4375 2.75,-0.546875 2.75,-0.609375 2.765625,-0.6875 2.765625,-0.75 Z m 0.875,-3.546875 C 4.5,-7.796875 4.546875,-7.8125 5.015625,-7.8125 h 1.1875 c 0.890625,0 1.640625,0.28125 1.640625,1.171875 0,0.3125 -0.15625,1.328125 -0.703125,1.890625 -0.203125,0.203125 -0.78125,0.65625 -1.875,0.65625 h -1.6875 z m 0,0"
           id="path3254" />
      </g>
      <g
         id="g5185">
        <path
           d="m 3.890625,-2.546875 c 0,-0.84375 -0.078125,-1.359375 -0.34375,-1.875 -0.34375,-0.703125 -1,-0.875 -1.4375,-0.875 -1,0 -1.375,0.75 -1.484375,0.96875 -0.28125,0.578125 -0.296875,1.375 -0.296875,1.78125 0,0.53125 0.015625,1.328125 0.40625,1.96875 0.359375,0.59375 0.953125,0.75 1.375,0.75 0.390625,0 1.0625,-0.125 1.46875,-0.90625 0.296875,-0.578125 0.3125,-1.296875 0.3125,-1.8125 z M 2.109375,-0.0625 C 1.84375,-0.0625 1.296875,-0.1875 1.125,-1.015625 1.03125,-1.46875 1.03125,-2.21875 1.03125,-2.640625 1.03125,-3.1875 1.03125,-3.75 1.125,-4.1875 1.296875,-5 1.90625,-5.078125 2.109375,-5.078125 c 0.265625,0 0.828125,0.140625 0.984375,0.859375 0.09375,0.4375 0.09375,1.046875 0.09375,1.578125 0,0.46875 0,1.1875 -0.09375,1.640625 -0.171875,0.828125 -0.71875,0.9375 -0.984375,0.9375 z m 0,0"
           id="path4218" />
      </g>
    </g>
    <g
       id="g1959">
      <g
         id="g4797">
        <path
           d="m 3.53125,-3.796875 h 2.015625 c 1.65625,0 3.296875,-1.21875 3.296875,-2.59375 0,-0.921875 -0.78125,-1.765625 -2.296875,-1.765625 h -3.6875 c -0.234375,0 -0.34375,0 -0.34375,0.21875 0,0.125 0.109375,0.125 0.296875,0.125 0.71875,0 0.71875,0.09375 0.71875,0.21875 0,0.03125 0,0.09375 -0.046875,0.28125 L 1.875,-0.890625 C 1.765625,-0.46875 1.75,-0.34375 0.90625,-0.34375 c -0.21875,0 -0.34375,0 -0.34375,0.21875 C 0.5625,0 0.671875,0 0.734375,0 0.96875,0 1.203125,-0.03125 1.4375,-0.03125 H 2.828125 C 3.0625,-0.03125 3.3125,0 3.53125,0 3.640625,0 3.765625,0 3.765625,-0.234375 3.765625,-0.34375 3.65625,-0.34375 3.484375,-0.34375 2.765625,-0.34375 2.75,-0.4375 2.75,-0.546875 2.75,-0.609375 2.765625,-0.6875 2.765625,-0.75 Z m 0.875,-3.546875 C 4.5,-7.796875 4.546875,-7.8125 5.015625,-7.8125 h 1.1875 c 0.890625,0 1.640625,0.28125 1.640625,1.171875 0,0.3125 -0.15625,1.328125 -0.703125,1.890625 -0.203125,0.203125 -0.78125,0.65625 -1.875,0.65625 h -1.6875 z m 0,0"
           id="path2226" />
      </g>
      <g
         id="g349">
        <path
           d="m 2.5,-5.078125 c 0,-0.21875 -0.015625,-0.21875 -0.234375,-0.21875 -0.328125,0.3125 -0.75,0.5 -1.5,0.5 v 0.265625 c 0.21875,0 0.640625,0 1.109375,-0.203125 v 4.078125 c 0,0.296875 -0.03125,0.390625 -0.78125,0.390625 H 0.8125 V 0 c 0.328125,-0.03125 1.015625,-0.03125 1.375,-0.03125 0.359375,0 1.046875,0 1.375,0.03125 V -0.265625 H 3.28125 c -0.75,0 -0.78125,-0.09375 -0.78125,-0.390625 z m 0,0"
           id="path5412" />
      </g>
    </g>
    <g
       id="g2306">
      <g
         id="g7741">
        <path
           d="m 2.140625,-2.765625 c 0.328125,0 1.140625,-0.03125 1.703125,-0.25 0.90625,-0.34375 1,-1.03125 1,-1.25 0,-0.53125 -0.453125,-1 -1.25,-1 -1.25,0 -3.0625,1.125 -3.0625,3.25 C 0.53125,-0.75 1.25,0.125 2.34375,0.125 3.96875,0.125 5,-1.140625 5,-1.296875 5,-1.375 4.921875,-1.4375 4.875,-1.4375 c -0.03125,0 -0.046875,0.015625 -0.15625,0.125 -0.765625,1.015625 -1.890625,1.1875 -2.359375,1.1875 -0.671875,0 -1.03125,-0.53125 -1.03125,-1.421875 0,-0.15625 0,-0.46875 0.171875,-1.21875 z m -0.578125,-0.25 c 0.515625,-1.84375 1.65625,-2.015625 2.03125,-2.015625 0.53125,0 0.890625,0.3125 0.890625,0.765625 0,1.25 -1.921875,1.25 -2.421875,1.25 z m 0,0"
           id="path5510" />
      </g>
      <g
         id="g4318">
        <path
           d="m 5.671875,-4.875 c -0.390625,0.0625 -0.53125,0.359375 -0.53125,0.578125 0,0.296875 0.21875,0.390625 0.390625,0.390625 0.359375,0 0.609375,-0.3125 0.609375,-0.640625 0,-0.5 -0.578125,-0.71875 -1.078125,-0.71875 -0.71875,0 -1.125,0.71875 -1.234375,0.9375 -0.28125,-0.890625 -1.015625,-0.9375 -1.234375,-0.9375 -1.21875,0 -1.859375,1.5625 -1.859375,1.828125 0,0.046875 0.046875,0.109375 0.125,0.109375 0.09375,0 0.125,-0.078125 0.140625,-0.125 0.40625,-1.328125 1.21875,-1.578125 1.5625,-1.578125 0.53125,0 0.640625,0.5 0.640625,0.78125 0,0.265625 -0.078125,0.546875 -0.21875,1.125 L 2.578125,-1.5 c -0.171875,0.71875 -0.515625,1.375 -1.15625,1.375 -0.0625,0 -0.359375,0 -0.609375,-0.15625 C 1.25,-0.359375 1.34375,-0.71875 1.34375,-0.859375 1.34375,-1.09375 1.15625,-1.25 0.9375,-1.25 c -0.296875,0 -0.609375,0.265625 -0.609375,0.640625 0,0.5 0.5625,0.734375 1.078125,0.734375 0.578125,0 0.984375,-0.453125 1.234375,-0.953125 C 2.828125,-0.125 3.4375,0.125 3.875,0.125 5.09375,0.125 5.734375,-1.453125 5.734375,-1.703125 5.734375,-1.765625 5.6875,-1.8125 5.625,-1.8125 5.515625,-1.8125 5.5,-1.75 5.46875,-1.65625 5.140625,-0.609375 4.453125,-0.125 3.90625,-0.125 3.484375,-0.125 3.265625,-0.4375 3.265625,-0.921875 3.265625,-1.1875 3.3125,-1.375 3.5,-2.15625 L 3.921875,-3.796875 C 4.09375,-4.5 4.5,-5.03125 5.0625,-5.03125 c 0.015625,0 0.359375,0 0.609375,0.15625 z m 0,0"
           id="path2097" />
      </g>
      <g
         id="g3769">
        <path
           d="m 2.328125,0.046875 c 0,-0.6875 -0.21875,-1.203125 -0.71875,-1.203125 -0.375,0 -0.5625,0.3125 -0.5625,0.578125 C 1.046875,-0.328125 1.21875,0 1.625,0 1.78125,0 1.90625,-0.046875 2.015625,-0.15625 2.046875,-0.171875 2.0625,-0.171875 2.0625,-0.171875 c 0.03125,0 0.03125,0.15625 0.03125,0.21875 C 2.09375,0.4375 2.015625,1.21875 1.328125,2 1.1875,2.140625 1.1875,2.15625 1.1875,2.1875 c 0,0.0625 0.0625,0.125 0.125,0.125 0.09375,0 1.015625,-0.890625 1.015625,-2.265625 z m 0,0"
           id="path4658" />
      </g>
      <g
         id="g8717">
        <path
           d="m 3.140625,1.34375 c -0.3125,0.453125 -0.78125,0.859375 -1.375,0.859375 C 1.625,2.203125 1.046875,2.171875 0.875,1.625 c 0.03125,0.015625 0.09375,0.015625 0.109375,0.015625 0.359375,0 0.609375,-0.3125 0.609375,-0.59375 C 1.59375,0.78125 1.359375,0.6875 1.1875,0.6875 c -0.203125,0 -0.609375,0.140625 -0.609375,0.71875 0,0.609375 0.515625,1.03125 1.1875,1.03125 C 2.96875,2.4375 4.171875,1.34375 4.5,0.015625 L 5.671875,-4.65625 C 5.6875,-4.703125 5.71875,-4.78125 5.71875,-4.859375 5.71875,-5.03125 5.5625,-5.15625 5.390625,-5.15625 5.28125,-5.15625 5.03125,-5.109375 4.9375,-4.75 L 4.046875,-1.234375 C 4,-1.015625 4,-0.984375 3.890625,-0.859375 3.65625,-0.53125 3.265625,-0.125 2.6875,-0.125 c -0.671875,0 -0.734375,-0.65625 -0.734375,-0.96875 0,-0.6875 0.328125,-1.609375 0.65625,-2.46875 0.125,-0.34375 0.203125,-0.515625 0.203125,-0.75 0,-0.5 -0.359375,-0.953125 -0.953125,-0.953125 -1.09375,0 -1.53125,1.734375 -1.53125,1.828125 0,0.046875 0.046875,0.109375 0.125,0.109375 0.109375,0 0.125,-0.046875 0.171875,-0.21875 0.28125,-1 0.734375,-1.484375 1.203125,-1.484375 0.109375,0 0.3125,0 0.3125,0.390625 0,0.3125 -0.125,0.65625 -0.3125,1.109375 C 1.25,-1.953125 1.25,-1.5625 1.25,-1.28125 1.25,-0.140625 2.0625,0.125 2.65625,0.125 3,0.125 3.4375,0.015625 3.84375,-0.4375 l 0.015625,0.015625 C 3.6875,0.28125 3.5625,0.75 3.140625,1.34375 Z m 0,0"
           id="path5499" />
      </g>
      <g
         id="g2050">
        <path
           d="m 7.875,-2.71875 c 0.234375,-0.109375 0.234375,-0.1875 0.234375,-0.265625 0,-0.078125 -0.015625,-0.15625 -0.234375,-0.25 L 1.40625,-6.21875 C 1.25,-6.28125 1.234375,-6.296875 1.203125,-6.296875 c -0.140625,0 -0.21875,0.109375 -0.21875,0.21875 0,0.140625 0.09375,0.1875 0.25,0.25 L 7.375,-2.984375 1.21875,-0.140625 C 0.984375,-0.03125 0.984375,0.046875 0.984375,0.125 c 0,0.09375 0.078125,0.203125 0.21875,0.203125 0.03125,0 0.046875,0 0.203125,-0.078125 z m 0,0"
           id="path6887" />
      </g>
      <g
         id="g5595">
        <path
           d="m 3.890625,2.90625 c 0,-0.03125 0,-0.0625 -0.203125,-0.265625 C 2.484375,1.4375 1.8125,-0.53125 1.8125,-2.96875 c 0,-2.328125 0.5625,-4.328125 1.953125,-5.734375 0.125,-0.109375 0.125,-0.125 0.125,-0.171875 0,-0.0625 -0.0625,-0.09375 -0.109375,-0.09375 -0.15625,0 -1.140625,0.859375 -1.71875,2.03125 -0.609375,1.21875 -0.890625,2.484375 -0.890625,3.96875 0,1.0625 0.171875,2.484375 0.78125,3.75 C 2.671875,2.21875 3.640625,3 3.78125,3 3.828125,3 3.890625,2.96875 3.890625,2.90625 Z m 0,0"
           id="path946" />
      </g>
      <g
         id="g7886">
        <path
           d="M 3.375,-2.96875 C 3.375,-3.890625 3.25,-5.359375 2.578125,-6.75 1.875,-8.1875 0.890625,-8.96875 0.765625,-8.96875 c -0.046875,0 -0.109375,0.03125 -0.109375,0.09375 0,0.046875 0,0.0625 0.203125,0.265625 1.203125,1.203125 1.859375,3.1875 1.859375,5.625 0,2.3125 -0.5625,4.3125 -1.9375,5.71875 C 0.65625,2.84375 0.65625,2.875 0.65625,2.90625 0.65625,2.96875 0.71875,3 0.765625,3 0.921875,3 1.90625,2.140625 2.484375,0.96875 3.09375,-0.25 3.375,-1.546875 3.375,-2.96875 Z m 0,0"
           id="path8967" />
      </g>
      <g
         id="g2403">
        <path
           d="m 5.359375,-3.828125 c 0,-0.984375 -0.0625,-1.953125 -0.5,-2.859375 -0.484375,-1 -1.34375,-1.265625 -1.9375,-1.265625 -0.6875,0 -1.53125,0.34375 -1.984375,1.34375 -0.328125,0.75 -0.453125,1.5 -0.453125,2.78125 0,1.15625 0.09375,2.03125 0.515625,2.890625 0.46875,0.90625 1.296875,1.1875 1.921875,1.1875 1.03125,0 1.625,-0.625 1.984375,-1.3125 0.421875,-0.890625 0.453125,-2.0625 0.453125,-2.765625 z m -2.4375,3.84375 C 2.53125,0.015625 1.75,-0.203125 1.53125,-1.5 c -0.125,-0.71875 -0.125,-1.625 -0.125,-2.46875 0,-0.984375 0,-1.859375 0.1875,-2.5625 0.203125,-0.8125 0.8125,-1.171875 1.328125,-1.171875 0.453125,0 1.140625,0.265625 1.375,1.296875 0.15625,0.6875 0.15625,1.625 0.15625,2.4375 0,0.796875 0,1.703125 -0.140625,2.4375 -0.21875,1.3125 -0.984375,1.546875 -1.390625,1.546875 z m 0,0"
           id="path7929" />
      </g>
    </g>
    <g
       id="g5038">
      <g
         id="g7721">
        <path
           d="m 2.140625,-2.765625 c 0.328125,0 1.140625,-0.03125 1.703125,-0.25 0.90625,-0.34375 1,-1.03125 1,-1.25 0,-0.53125 -0.453125,-1 -1.25,-1 -1.25,0 -3.0625,1.125 -3.0625,3.25 C 0.53125,-0.75 1.25,0.125 2.34375,0.125 3.96875,0.125 5,-1.140625 5,-1.296875 5,-1.375 4.921875,-1.4375 4.875,-1.4375 c -0.03125,0 -0.046875,0.015625 -0.15625,0.125 -0.765625,1.015625 -1.890625,1.1875 -2.359375,1.1875 -0.671875,0 -1.03125,-0.53125 -1.03125,-1.421875 0,-0.15625 0,-0.46875 0.171875,-1.21875 z m -0.578125,-0.25 c 0.515625,-1.84375 1.65625,-2.015625 2.03125,-2.015625 0.53125,0 0.890625,0.3125 0.890625,0.765625 0,1.25 -1.921875,1.25 -2.421875,1.25 z m 0,0"
           id="path5276" />
      </g>
      <g
         id="g2129">
        <path
           d="m 5.671875,-4.875 c -0.390625,0.0625 -0.53125,0.359375 -0.53125,0.578125 0,0.296875 0.21875,0.390625 0.390625,0.390625 0.359375,0 0.609375,-0.3125 0.609375,-0.640625 0,-0.5 -0.578125,-0.71875 -1.078125,-0.71875 -0.71875,0 -1.125,0.71875 -1.234375,0.9375 -0.28125,-0.890625 -1.015625,-0.9375 -1.234375,-0.9375 -1.21875,0 -1.859375,1.5625 -1.859375,1.828125 0,0.046875 0.046875,0.109375 0.125,0.109375 0.09375,0 0.125,-0.078125 0.140625,-0.125 0.40625,-1.328125 1.21875,-1.578125 1.5625,-1.578125 0.53125,0 0.640625,0.5 0.640625,0.78125 0,0.265625 -0.078125,0.546875 -0.21875,1.125 L 2.578125,-1.5 c -0.171875,0.71875 -0.515625,1.375 -1.15625,1.375 -0.0625,0 -0.359375,0 -0.609375,-0.15625 C 1.25,-0.359375 1.34375,-0.71875 1.34375,-0.859375 1.34375,-1.09375 1.15625,-1.25 0.9375,-1.25 c -0.296875,0 -0.609375,0.265625 -0.609375,0.640625 0,0.5 0.5625,0.734375 1.078125,0.734375 0.578125,0 0.984375,-0.453125 1.234375,-0.953125 C 2.828125,-0.125 3.4375,0.125 3.875,0.125 5.09375,0.125 5.734375,-1.453125 5.734375,-1.703125 5.734375,-1.765625 5.6875,-1.8125 5.625,-1.8125 5.515625,-1.8125 5.5,-1.75 5.46875,-1.65625 5.140625,-0.609375 4.453125,-0.125 3.90625,-0.125 3.484375,-0.125 3.265625,-0.4375 3.265625,-0.921875 3.265625,-1.1875 3.3125,-1.375 3.5,-2.15625 L 3.921875,-3.796875 C 4.09375,-4.5 4.5,-5.03125 5.0625,-5.03125 c 0.015625,0 0.359375,0 0.609375,0.15625 z m 0,0"
           id="path9459" />
      </g>
      <g
         id="g96">
        <path
           d="m 2.328125,0.046875 c 0,-0.6875 -0.21875,-1.203125 -0.71875,-1.203125 -0.375,0 -0.5625,0.3125 -0.5625,0.578125 C 1.046875,-0.328125 1.21875,0 1.625,0 1.78125,0 1.90625,-0.046875 2.015625,-0.15625 2.046875,-0.171875 2.0625,-0.171875 2.0625,-0.171875 c 0.03125,0 0.03125,0.15625 0.03125,0.21875 C 2.09375,0.4375 2.015625,1.21875 1.328125,2 1.1875,2.140625 1.1875,2.15625 1.1875,2.1875 c 0,0.0625 0.0625,0.125 0.125,0.125 0.09375,0 1.015625,-0.890625 1.015625,-2.265625 z m 0,0"
           id="path2955" />
      </g>
      <g
         id="g6028">
        <path
           d="m 3.140625,1.34375 c -0.3125,0.453125 -0.78125,0.859375 -1.375,0.859375 C 1.625,2.203125 1.046875,2.171875 0.875,1.625 c 0.03125,0.015625 0.09375,0.015625 0.109375,0.015625 0.359375,0 0.609375,-0.3125 0.609375,-0.59375 C 1.59375,0.78125 1.359375,0.6875 1.1875,0.6875 c -0.203125,0 -0.609375,0.140625 -0.609375,0.71875 0,0.609375 0.515625,1.03125 1.1875,1.03125 C 2.96875,2.4375 4.171875,1.34375 4.5,0.015625 L 5.671875,-4.65625 C 5.6875,-4.703125 5.71875,-4.78125 5.71875,-4.859375 5.71875,-5.03125 5.5625,-5.15625 5.390625,-5.15625 5.28125,-5.15625 5.03125,-5.109375 4.9375,-4.75 L 4.046875,-1.234375 C 4,-1.015625 4,-0.984375 3.890625,-0.859375 3.65625,-0.53125 3.265625,-0.125 2.6875,-0.125 c -0.671875,0 -0.734375,-0.65625 -0.734375,-0.96875 0,-0.6875 0.328125,-1.609375 0.65625,-2.46875 0.125,-0.34375 0.203125,-0.515625 0.203125,-0.75 0,-0.5 -0.359375,-0.953125 -0.953125,-0.953125 -1.09375,0 -1.53125,1.734375 -1.53125,1.828125 0,0.046875 0.046875,0.109375 0.125,0.109375 0.109375,0 0.125,-0.046875 0.171875,-0.21875 0.28125,-1 0.734375,-1.484375 1.203125,-1.484375 0.109375,0 0.3125,0 0.3125,0.390625 0,0.3125 -0.125,0.65625 -0.3125,1.109375 C 1.25,-1.953125 1.25,-1.5625 1.25,-1.28125 1.25,-0.140625 2.0625,0.125 2.65625,0.125 3,0.125 3.4375,0.015625 3.84375,-0.4375 l 0.015625,0.015625 C 3.6875,0.28125 3.5625,0.75 3.140625,1.34375 Z m 0,0"
           id="path3572" />
      </g>
      <g
         id="g524">
        <path
           d="m 7.875,-5.828125 c 0.21875,-0.09375 0.234375,-0.171875 0.234375,-0.25 0,-0.125 -0.09375,-0.21875 -0.21875,-0.21875 -0.03125,0 -0.03125,0.015625 -0.203125,0.078125 L 1.21875,-3.234375 C 1,-3.140625 0.984375,-3.0625 0.984375,-2.984375 c 0,0.078125 0,0.15625 0.234375,0.265625 L 7.6875,0.25 c 0.15625,0.078125 0.171875,0.078125 0.203125,0.078125 0.125,0 0.21875,-0.09375 0.21875,-0.21875 0,-0.078125 -0.015625,-0.15625 -0.234375,-0.25 L 1.71875,-2.96875 Z m 0,0"
           id="path70" />
      </g>
      <g
         id="g6713">
        <path
           d="m 3.890625,2.90625 c 0,-0.03125 0,-0.0625 -0.203125,-0.265625 C 2.484375,1.4375 1.8125,-0.53125 1.8125,-2.96875 c 0,-2.328125 0.5625,-4.328125 1.953125,-5.734375 0.125,-0.109375 0.125,-0.125 0.125,-0.171875 0,-0.0625 -0.0625,-0.09375 -0.109375,-0.09375 -0.15625,0 -1.140625,0.859375 -1.71875,2.03125 -0.609375,1.21875 -0.890625,2.484375 -0.890625,3.96875 0,1.0625 0.171875,2.484375 0.78125,3.75 C 2.671875,2.21875 3.640625,3 3.78125,3 3.828125,3 3.890625,2.96875 3.890625,2.90625 Z m 0,0"
           id="path6174" />
      </g>
      <g
         id="g4614">
        <path
           d="M 3.375,-2.96875 C 3.375,-3.890625 3.25,-5.359375 2.578125,-6.75 1.875,-8.1875 0.890625,-8.96875 0.765625,-8.96875 c -0.046875,0 -0.109375,0.03125 -0.109375,0.09375 0,0.046875 0,0.0625 0.203125,0.265625 1.203125,1.203125 1.859375,3.1875 1.859375,5.625 0,2.3125 -0.5625,4.3125 -1.9375,5.71875 C 0.65625,2.84375 0.65625,2.875 0.65625,2.90625 0.65625,2.96875 0.71875,3 0.765625,3 0.921875,3 1.90625,2.140625 2.484375,0.96875 3.09375,-0.25 3.375,-1.546875 3.375,-2.96875 Z m 0,0"
           id="path1045" />
      </g>
      <g
         id="g7961">
        <path
           d="m 5.359375,-3.828125 c 0,-0.984375 -0.0625,-1.953125 -0.5,-2.859375 -0.484375,-1 -1.34375,-1.265625 -1.9375,-1.265625 -0.6875,0 -1.53125,0.34375 -1.984375,1.34375 -0.328125,0.75 -0.453125,1.5 -0.453125,2.78125 0,1.15625 0.09375,2.03125 0.515625,2.890625 0.46875,0.90625 1.296875,1.1875 1.921875,1.1875 1.03125,0 1.625,-0.625 1.984375,-1.3125 0.421875,-0.890625 0.453125,-2.0625 0.453125,-2.765625 z m -2.4375,3.84375 C 2.53125,0.015625 1.75,-0.203125 1.53125,-1.5 c -0.125,-0.71875 -0.125,-1.625 -0.125,-2.46875 0,-0.984375 0,-1.859375 0.1875,-2.5625 0.203125,-0.8125 0.8125,-1.171875 1.328125,-1.171875 0.453125,0 1.140625,0.265625 1.375,1.296875 0.15625,0.6875 0.15625,1.625 0.15625,2.4375 0,0.796875 0,1.703125 -0.140625,2.4375 -0.21875,1.3125 -0.984375,1.546875 -1.390625,1.546875 z m 0,0"
           id="path1453" />
      </g>
    </g>
    <g
       id="g3927">
      <g
         id="g6331">
        <path
           d="m 2.140625,-2.765625 c 0.328125,0 1.140625,-0.03125 1.703125,-0.25 0.90625,-0.34375 1,-1.03125 1,-1.25 0,-0.53125 -0.453125,-1 -1.25,-1 -1.25,0 -3.0625,1.125 -3.0625,3.25 C 0.53125,-0.75 1.25,0.125 2.34375,0.125 3.96875,0.125 5,-1.140625 5,-1.296875 5,-1.375 4.921875,-1.4375 4.875,-1.4375 c -0.03125,0 -0.046875,0.015625 -0.15625,0.125 -0.765625,1.015625 -1.890625,1.1875 -2.359375,1.1875 -0.671875,0 -1.03125,-0.53125 -1.03125,-1.421875 0,-0.15625 0,-0.46875 0.171875,-1.21875 z m -0.578125,-0.25 c 0.515625,-1.84375 1.65625,-2.015625 2.03125,-2.015625 0.53125,0 0.890625,0.3125 0.890625,0.765625 0,1.25 -1.921875,1.25 -2.421875,1.25 z m 0,0"
           id="path9636" />
      </g>
      <g
         id="g3121">
        <path
           d="m 5.671875,-4.875 c -0.390625,0.0625 -0.53125,0.359375 -0.53125,0.578125 0,0.296875 0.21875,0.390625 0.390625,0.390625 0.359375,0 0.609375,-0.3125 0.609375,-0.640625 0,-0.5 -0.578125,-0.71875 -1.078125,-0.71875 -0.71875,0 -1.125,0.71875 -1.234375,0.9375 -0.28125,-0.890625 -1.015625,-0.9375 -1.234375,-0.9375 -1.21875,0 -1.859375,1.5625 -1.859375,1.828125 0,0.046875 0.046875,0.109375 0.125,0.109375 0.09375,0 0.125,-0.078125 0.140625,-0.125 0.40625,-1.328125 1.21875,-1.578125 1.5625,-1.578125 0.53125,0 0.640625,0.5 0.640625,0.78125 0,0.265625 -0.078125,0.546875 -0.21875,1.125 L 2.578125,-1.5 c -0.171875,0.71875 -0.515625,1.375 -1.15625,1.375 -0.0625,0 -0.359375,0 -0.609375,-0.15625 C 1.25,-0.359375 1.34375,-0.71875 1.34375,-0.859375 1.34375,-1.09375 1.15625,-1.25 0.9375,-1.25 c -0.296875,0 -0.609375,0.265625 -0.609375,0.640625 0,0.5 0.5625,0.734375 1.078125,0.734375 0.578125,0 0.984375,-0.453125 1.234375,-0.953125 C 2.828125,-0.125 3.4375,0.125 3.875,0.125 5.09375,0.125 5.734375,-1.453125 5.734375,-1.703125 5.734375,-1.765625 5.6875,-1.8125 5.625,-1.8125 5.515625,-1.8125 5.5,-1.75 5.46875,-1.65625 5.140625,-0.609375 4.453125,-0.125 3.90625,-0.125 3.484375,-0.125 3.265625,-0.4375 3.265625,-0.921875 3.265625,-1.1875 3.3125,-1.375 3.5,-2.15625 L 3.921875,-3.796875 C 4.09375,-4.5 4.5,-5.03125 5.0625,-5.03125 c 0.015625,0 0.359375,0 0.609375,0.15625 z m 0,0"
           id="path8884" />
      </g>
      <g
         id="g2653">
        <path
           d="m 2.328125,0.046875 c 0,-0.6875 -0.21875,-1.203125 -0.71875,-1.203125 -0.375,0 -0.5625,0.3125 -0.5625,0.578125 C 1.046875,-0.328125 1.21875,0 1.625,0 1.78125,0 1.90625,-0.046875 2.015625,-0.15625 2.046875,-0.171875 2.0625,-0.171875 2.0625,-0.171875 c 0.03125,0 0.03125,0.15625 0.03125,0.21875 C 2.09375,0.4375 2.015625,1.21875 1.328125,2 1.1875,2.140625 1.1875,2.15625 1.1875,2.1875 c 0,0.0625 0.0625,0.125 0.125,0.125 0.09375,0 1.015625,-0.890625 1.015625,-2.265625 z m 0,0"
           id="path5257" />
      </g>
      <g
         id="g8535">
        <path
           d="m 3.140625,1.34375 c -0.3125,0.453125 -0.78125,0.859375 -1.375,0.859375 C 1.625,2.203125 1.046875,2.171875 0.875,1.625 c 0.03125,0.015625 0.09375,0.015625 0.109375,0.015625 0.359375,0 0.609375,-0.3125 0.609375,-0.59375 C 1.59375,0.78125 1.359375,0.6875 1.1875,0.6875 c -0.203125,0 -0.609375,0.140625 -0.609375,0.71875 0,0.609375 0.515625,1.03125 1.1875,1.03125 C 2.96875,2.4375 4.171875,1.34375 4.5,0.015625 L 5.671875,-4.65625 C 5.6875,-4.703125 5.71875,-4.78125 5.71875,-4.859375 5.71875,-5.03125 5.5625,-5.15625 5.390625,-5.15625 5.28125,-5.15625 5.03125,-5.109375 4.9375,-4.75 L 4.046875,-1.234375 C 4,-1.015625 4,-0.984375 3.890625,-0.859375 3.65625,-0.53125 3.265625,-0.125 2.6875,-0.125 c -0.671875,0 -0.734375,-0.65625 -0.734375,-0.96875 0,-0.6875 0.328125,-1.609375 0.65625,-2.46875 0.125,-0.34375 0.203125,-0.515625 0.203125,-0.75 0,-0.5 -0.359375,-0.953125 -0.953125,-0.953125 -1.09375,0 -1.53125,1.734375 -1.53125,1.828125 0,0.046875 0.046875,0.109375 0.125,0.109375 0.109375,0 0.125,-0.046875 0.171875,-0.21875 0.28125,-1 0.734375,-1.484375 1.203125,-1.484375 0.109375,0 0.3125,0 0.3125,0.390625 0,0.3125 -0.125,0.65625 -0.3125,1.109375 C 1.25,-1.953125 1.25,-1.5625 1.25,-1.28125 1.25,-0.140625 2.0625,0.125 2.65625,0.125 3,0.125 3.4375,0.015625 3.84375,-0.4375 l 0.015625,0.015625 C 3.6875,0.28125 3.5625,0.75 3.140625,1.34375 Z m 0,0"
           id="path7258" />
      </g>
      <g
         id="g5168">
        <path
           d="m 3.890625,2.90625 c 0,-0.03125 0,-0.0625 -0.203125,-0.265625 C 2.484375,1.4375 1.8125,-0.53125 1.8125,-2.96875 c 0,-2.328125 0.5625,-4.328125 1.953125,-5.734375 0.125,-0.109375 0.125,-0.125 0.125,-0.171875 0,-0.0625 -0.0625,-0.09375 -0.109375,-0.09375 -0.15625,0 -1.140625,0.859375 -1.71875,2.03125 -0.609375,1.21875 -0.890625,2.484375 -0.890625,3.96875 0,1.0625 0.171875,2.484375 0.78125,3.75 C 2.671875,2.21875 3.640625,3 3.78125,3 3.828125,3 3.890625,2.96875 3.890625,2.90625 Z m 0,0"
           id="path7969" />
      </g>
      <g
         id="g7220">
        <path
           d="M 3.375,-2.96875 C 3.375,-3.890625 3.25,-5.359375 2.578125,-6.75 1.875,-8.1875 0.890625,-8.96875 0.765625,-8.96875 c -0.046875,0 -0.109375,0.03125 -0.109375,0.09375 0,0.046875 0,0.0625 0.203125,0.265625 1.203125,1.203125 1.859375,3.1875 1.859375,5.625 0,2.3125 -0.5625,4.3125 -1.9375,5.71875 C 0.65625,2.84375 0.65625,2.875 0.65625,2.90625 0.65625,2.96875 0.71875,3 0.765625,3 0.921875,3 1.90625,2.140625 2.484375,0.96875 3.09375,-0.25 3.375,-1.546875 3.375,-2.96875 Z m 0,0"
           id="path1969" />
      </g>
      <g
         id="g6980">
        <path
           d="m 8.0625,-3.875 c 0.171875,0 0.390625,0 0.390625,-0.21875 C 8.453125,-4.3125 8.25,-4.3125 8.0625,-4.3125 H 1.03125 c -0.171875,0 -0.390625,0 -0.390625,0.21875 0,0.21875 0.203125,0.21875 0.390625,0.21875 z m 0,2.21875 c 0.171875,0 0.390625,0 0.390625,-0.203125 C 8.453125,-2.09375 8.25,-2.09375 8.0625,-2.09375 H 1.03125 c -0.171875,0 -0.390625,0 -0.390625,0.21875 0,0.21875 0.203125,0.21875 0.390625,0.21875 z m 0,0"
           id="path8119" />
      </g>
      <g
         id="g6742">
        <path
           d="m 5.359375,-3.828125 c 0,-0.984375 -0.0625,-1.953125 -0.5,-2.859375 -0.484375,-1 -1.34375,-1.265625 -1.9375,-1.265625 -0.6875,0 -1.53125,0.34375 -1.984375,1.34375 -0.328125,0.75 -0.453125,1.5 -0.453125,2.78125 0,1.15625 0.09375,2.03125 0.515625,2.890625 0.46875,0.90625 1.296875,1.1875 1.921875,1.1875 1.03125,0 1.625,-0.625 1.984375,-1.3125 0.421875,-0.890625 0.453125,-2.0625 0.453125,-2.765625 z m -2.4375,3.84375 C 2.53125,0.015625 1.75,-0.203125 1.53125,-1.5 c -0.125,-0.71875 -0.125,-1.625 -0.125,-2.46875 0,-0.984375 0,-1.859375 0.1875,-2.5625 0.203125,-0.8125 0.8125,-1.171875 1.328125,-1.171875 0.453125,0 1.140625,0.265625 1.375,1.296875 0.15625,0.6875 0.15625,1.625 0.15625,2.4375 0,0.796875 0,1.703125 -0.140625,2.4375 -0.21875,1.3125 -0.984375,1.546875 -1.390625,1.546875 z m 0,0"
           id="path7750" />
      </g>
    </g>
    <g
       id="g1414">
      <g
         id="g2302">
        <path
           d="m 2.140625,-2.765625 c 0.328125,0 1.140625,-0.03125 1.703125,-0.25 0.90625,-0.34375 1,-1.03125 1,-1.25 0,-0.53125 -0.453125,-1 -1.25,-1 -1.25,0 -3.0625,1.125 -3.0625,3.25 C 0.53125,-0.75 1.25,0.125 2.34375,0.125 3.96875,0.125 5,-1.140625 5,-1.296875 5,-1.375 4.921875,-1.4375 4.875,-1.4375 c -0.03125,0 -0.046875,0.015625 -0.15625,0.125 -0.765625,1.015625 -1.890625,1.1875 -2.359375,1.1875 -0.671875,0 -1.03125,-0.53125 -1.03125,-1.421875 0,-0.15625 0,-0.46875 0.171875,-1.21875 z m -0.578125,-0.25 c 0.515625,-1.84375 1.65625,-2.015625 2.03125,-2.015625 0.53125,0 0.890625,0.3125 0.890625,0.765625 0,1.25 -1.921875,1.25 -2.421875,1.25 z m 0,0"
           id="path4273" />
      </g>
      <g
         id="g5992">
        <path
           d="m 5.671875,-4.875 c -0.390625,0.0625 -0.53125,0.359375 -0.53125,0.578125 0,0.296875 0.21875,0.390625 0.390625,0.390625 0.359375,0 0.609375,-0.3125 0.609375,-0.640625 0,-0.5 -0.578125,-0.71875 -1.078125,-0.71875 -0.71875,0 -1.125,0.71875 -1.234375,0.9375 -0.28125,-0.890625 -1.015625,-0.9375 -1.234375,-0.9375 -1.21875,0 -1.859375,1.5625 -1.859375,1.828125 0,0.046875 0.046875,0.109375 0.125,0.109375 0.09375,0 0.125,-0.078125 0.140625,-0.125 0.40625,-1.328125 1.21875,-1.578125 1.5625,-1.578125 0.53125,0 0.640625,0.5 0.640625,0.78125 0,0.265625 -0.078125,0.546875 -0.21875,1.125 L 2.578125,-1.5 c -0.171875,0.71875 -0.515625,1.375 -1.15625,1.375 -0.0625,0 -0.359375,0 -0.609375,-0.15625 C 1.25,-0.359375 1.34375,-0.71875 1.34375,-0.859375 1.34375,-1.09375 1.15625,-1.25 0.9375,-1.25 c -0.296875,0 -0.609375,0.265625 -0.609375,0.640625 0,0.5 0.5625,0.734375 1.078125,0.734375 0.578125,0 0.984375,-0.453125 1.234375,-0.953125 C 2.828125,-0.125 3.4375,0.125 3.875,0.125 5.09375,0.125 5.734375,-1.453125 5.734375,-1.703125 5.734375,-1.765625 5.6875,-1.8125 5.625,-1.8125 5.515625,-1.8125 5.5,-1.75 5.46875,-1.65625 5.140625,-0.609375 4.453125,-0.125 3.90625,-0.125 3.484375,-0.125 3.265625,-0.4375 3.265625,-0.921875 3.265625,-1.1875 3.3125,-1.375 3.5,-2.15625 L 3.921875,-3.796875 C 4.09375,-4.5 4.5,-5.03125 5.0625,-5.03125 c 0.015625,0 0.359375,0 0.609375,0.15625 z m 0,0"
           id="path9069" />
      </g>
      <g
         id="g6827">
        <path
           d="m 2.328125,0.046875 c 0,-0.6875 -0.21875,-1.203125 -0.71875,-1.203125 -0.375,0 -0.5625,0.3125 -0.5625,0.578125 C 1.046875,-0.328125 1.21875,0 1.625,0 1.78125,0 1.90625,-0.046875 2.015625,-0.15625 2.046875,-0.171875 2.0625,-0.171875 2.0625,-0.171875 c 0.03125,0 0.03125,0.15625 0.03125,0.21875 C 2.09375,0.4375 2.015625,1.21875 1.328125,2 1.1875,2.140625 1.1875,2.15625 1.1875,2.1875 c 0,0.0625 0.0625,0.125 0.125,0.125 0.09375,0 1.015625,-0.890625 1.015625,-2.265625 z m 0,0"
           id="path847" />
      </g>
      <g
         id="g1209">
        <path
           d="m 3.140625,1.34375 c -0.3125,0.453125 -0.78125,0.859375 -1.375,0.859375 C 1.625,2.203125 1.046875,2.171875 0.875,1.625 c 0.03125,0.015625 0.09375,0.015625 0.109375,0.015625 0.359375,0 0.609375,-0.3125 0.609375,-0.59375 C 1.59375,0.78125 1.359375,0.6875 1.1875,0.6875 c -0.203125,0 -0.609375,0.140625 -0.609375,0.71875 0,0.609375 0.515625,1.03125 1.1875,1.03125 C 2.96875,2.4375 4.171875,1.34375 4.5,0.015625 L 5.671875,-4.65625 C 5.6875,-4.703125 5.71875,-4.78125 5.71875,-4.859375 5.71875,-5.03125 5.5625,-5.15625 5.390625,-5.15625 5.28125,-5.15625 5.03125,-5.109375 4.9375,-4.75 L 4.046875,-1.234375 C 4,-1.015625 4,-0.984375 3.890625,-0.859375 3.65625,-0.53125 3.265625,-0.125 2.6875,-0.125 c -0.671875,0 -0.734375,-0.65625 -0.734375,-0.96875 0,-0.6875 0.328125,-1.609375 0.65625,-2.46875 0.125,-0.34375 0.203125,-0.515625 0.203125,-0.75 0,-0.5 -0.359375,-0.953125 -0.953125,-0.953125 -1.09375,0 -1.53125,1.734375 -1.53125,1.828125 0,0.046875 0.046875,0.109375 0.125,0.109375 0.109375,0 0.125,-0.046875 0.171875,-0.21875 0.28125,-1 0.734375,-1.484375 1.203125,-1.484375 0.109375,0 0.3125,0 0.3125,0.390625 0,0.3125 -0.125,0.65625 -0.3125,1.109375 C 1.25,-1.953125 1.25,-1.5625 1.25,-1.28125 1.25,-0.140625 2.0625,0.125 2.65625,0.125 3,0.125 3.4375,0.015625 3.84375,-0.4375 l 0.015625,0.015625 C 3.6875,0.28125 3.5625,0.75 3.140625,1.34375 Z m 0,0"
           id="path4899" />
      </g>
      <g
         id="g2708">
        <path
           d="m 3.890625,2.90625 c 0,-0.03125 0,-0.0625 -0.203125,-0.265625 C 2.484375,1.4375 1.8125,-0.53125 1.8125,-2.96875 c 0,-2.328125 0.5625,-4.328125 1.953125,-5.734375 0.125,-0.109375 0.125,-0.125 0.125,-0.171875 0,-0.0625 -0.0625,-0.09375 -0.109375,-0.09375 -0.15625,0 -1.140625,0.859375 -1.71875,2.03125 -0.609375,1.21875 -0.890625,2.484375 -0.890625,3.96875 0,1.0625 0.171875,2.484375 0.78125,3.75 C 2.671875,2.21875 3.640625,3 3.78125,3 3.828125,3 3.890625,2.96875 3.890625,2.90625 Z m 0,0"
           id="path2578" />
      </g>
      <g
         id="g9846">
        <path
           d="M 3.375,-2.96875 C 3.375,-3.890625 3.25,-5.359375 2.578125,-6.75 1.875,-8.1875 0.890625,-8.96875 0.765625,-8.96875 c -0.046875,0 -0.109375,0.03125 -0.109375,0.09375 0,0.046875 0,0.0625 0.203125,0.265625 1.203125,1.203125 1.859375,3.1875 1.859375,5.625 0,2.3125 -0.5625,4.3125 -1.9375,5.71875 C 0.65625,2.84375 0.65625,2.875 0.65625,2.90625 0.65625,2.96875 0.71875,3 0.765625,3 0.921875,3 1.90625,2.140625 2.484375,0.96875 3.09375,-0.25 3.375,-1.546875 3.375,-2.96875 Z m 0,0"
           id="path210" />
      </g>
      <g
         id="g7479">
        <path
           d="m 8.0625,-3.875 c 0.171875,0 0.390625,0 0.390625,-0.21875 C 8.453125,-4.3125 8.25,-4.3125 8.0625,-4.3125 H 1.03125 c -0.171875,0 -0.390625,0 -0.390625,0.21875 0,0.21875 0.203125,0.21875 0.390625,0.21875 z m 0,2.21875 c 0.171875,0 0.390625,0 0.390625,-0.203125 C 8.453125,-2.09375 8.25,-2.09375 8.0625,-2.09375 H 1.03125 c -0.171875,0 -0.390625,0 -0.390625,0.21875 0,0.21875 0.203125,0.21875 0.390625,0.21875 z m 0,0"
           id="path7710" />
      </g>
      <g
         id="g1722">
        <path
           d="m 5.359375,-3.828125 c 0,-0.984375 -0.0625,-1.953125 -0.5,-2.859375 -0.484375,-1 -1.34375,-1.265625 -1.9375,-1.265625 -0.6875,0 -1.53125,0.34375 -1.984375,1.34375 -0.328125,0.75 -0.453125,1.5 -0.453125,2.78125 0,1.15625 0.09375,2.03125 0.515625,2.890625 0.46875,0.90625 1.296875,1.1875 1.921875,1.1875 1.03125,0 1.625,-0.625 1.984375,-1.3125 0.421875,-0.890625 0.453125,-2.0625 0.453125,-2.765625 z m -2.4375,3.84375 C 2.53125,0.015625 1.75,-0.203125 1.53125,-1.5 c -0.125,-0.71875 -0.125,-1.625 -0.125,-2.46875 0,-0.984375 0,-1.859375 0.1875,-2.5625 0.203125,-0.8125 0.8125,-1.171875 1.328125,-1.171875 0.453125,0 1.140625,0.265625 1.375,1.296875 0.15625,0.6875 0.15625,1.625 0.15625,2.4375 0,0.796875 0,1.703125 -0.140625,2.4375 -0.21875,1.3125 -0.984375,1.546875 -1.390625,1.546875 z m 0,0"
           id="path3449" />
      </g>
    </g>
  </defs>
  <g
     inkscape:label="Layer 1"
     inkscape:groupmode="layer"
     id="layer1">
    <path
       style="fill:#ffcb00;fill-opacity:1;stroke:#000000;stroke-width:0.264583;stroke-dasharray:none"
       d="M 25.685426,40.552428 59.895138,6.3427151 76.999995,32 Z"
       id="path1"
       sodipodi:nodetypes="cccc" />
    <rect
       style="fill:none;fill-opacity:0.541176;stroke:#000000;stroke-width:0.13229167;stroke-dasharray:none"
       id="rect1"
       width="8.4894409"
       height="8.4894409"
       x="54.755276"
       y="33" />
    <rect
       style="fill:none;fill-opacity:0.541176;stroke:#000000;stroke-width:0.13229167;stroke-dasharray:none"
       id="rect1-8"
       width="9.8918819"
       height="9.8918829"
       x="13.999999"
       y="35.554058" />
    <rect
       style="fill:none;fill-opacity:0.541176;stroke:#000000;stroke-width:0.13229167;stroke-dasharray:none"
       id="rect1-8-5"
       width="8.3907948"
       height="8.3907948"
       x="55.503368"
       y="5.1058335" />
    <path
       style="fill:#ffcb00;fill-opacity:1;stroke:#000000;stroke-width:0.132292;stroke-dasharray:0.529163, 0.529163;stroke-dashoffset:0"
       d="M 56.229812,0.7893511 84.330645,42.995978"
       id="path2"
       sodipodi:nodetypes="cc" />
    <path
       style="fill:#ffcb00;fill-opacity:1;stroke:#000000;stroke-width:0.132292;stroke-dasharray:0.529163, 0.529163;stroke-dashoffset:0"
       d="M 4.9152432,44.217754 97.770178,28.334674"
       id="path3"
       sodipodi:nodetypes="cc" />
    <path
       style="fill:#ffcb00;fill-opacity:1;stroke:#000000;stroke-width:0.132292;stroke-dasharray:0.529163, 0.529163;stroke-dashoffset:0"
       d="M 19.576549,46.661306 64.782238,1.4556133"
       id="path4"
       sodipodi:nodetypes="cc" />
  </g>
</svg>
