<?xml version="1.0" encoding="UTF-8" standalone="no"?>
<!-- Created with Inkscape (http://www.inkscape.org/) -->

<svg
   width="245"
   height="96"
   viewBox="0 0 163.33333 64.000002"
   version="1.1"
   id="svg1"
   inkscape:version="1.4 (86a8ad7, 2024-10-11)"
   sodipodi:docname="vector_trip.svg"
   xmlns:inkscape="http://www.inkscape.org/namespaces/inkscape"
   xmlns:sodipodi="http://sodipodi.sourceforge.net/DTD/sodipodi-0.dtd"
   xmlns="http://www.w3.org/2000/svg"
   xmlns:svg="http://www.w3.org/2000/svg">
  <sodipodi:namedview
     id="namedview1"
     pagecolor="#ffffff"
     bordercolor="#000000"
     borderopacity="0.25"
     inkscape:showpageshadow="2"
     inkscape:pageopacity="0.0"
     inkscape:pagecheckerboard="0"
     inkscape:deskcolor="#d1d1d1"
     inkscape:document-units="mm"
     inkscape:zoom="2.9682216"
     inkscape:cx="133.75012"
     inkscape:cy="62.326883"
     inkscape:window-width="2560"
     inkscape:window-height="1476"
     inkscape:window-x="-12"
     inkscape:window-y="-12"
     inkscape:window-maximized="1"
     inkscape:current-layer="layer1" />
  <defs
     id="defs1" />
  <g
     inkscape:label="Layer 1"
     inkscape:groupmode="layer"
     id="layer1">
    <g
       id="XMLID_3_"
       transform="translate(-1.2553831,1.346337)">
	<g
   id="XMLID_22_">
		<g
   id="XMLID_28_">
			<polygon
   id="XMLID_29_"
   class="st0"
   points="83.167328,33.668629 73.855377,34.215168 74.459168,36.032917 35.842651,48.859608 36.15741,49.807209 74.773926,36.980518 75.377624,38.798115 "
   style="fill:#a7a9ac" />

		</g>

	</g>

</g>
    <g
       id="XMLID_1_"
       transform="translate(-1.2553831,1.346337)">
	<g
   id="XMLID_12_">
		<g
   id="XMLID_13_">
			<polygon
   id="XMLID_14_"
   points="92.370575,59.105213 83.906097,55.185535 83.57901,57.072773 36.085251,48.84148 35.914734,49.825336 83.408508,58.056629 83.081451,59.943745 " />

		</g>

	</g>

</g>
    <g
       id="XMLID_2_"
       transform="translate(-1.2553831,1.346337)">
	<g
   id="XMLID_57_">
		<g
   id="XMLID_62_">
			<polygon
   id="XMLID_67_"
   points="36.002075,8.6666765 33.585434,17.676138 35.500824,17.676138 35.500824,49.333332 36.499344,49.333332 36.499344,17.676138 38.414566,17.676138 " />

		</g>

	</g>

</g>
    <g
       id="XMLID_4_"
       transform="translate(-1.2553831,1.346337)">
	<g
   id="XMLID_24_">
		<g
   id="XMLID_25_">
			<polygon
   id="XMLID_26_"
   points="57.501709,18.001181 50.411652,24.062674 51.990997,25.146353 35.588409,49.050892 36.411743,49.615864 52.814301,25.711325 54.393524,26.794912 " />

		</g>

	</g>

</g>
    <line
       id="XMLID_5_"
       class="st1"
       x1="81.911278"
       y1="35.013"
       x2="103.41127"
       y2="3.6796699"
       style="fill:none;stroke:#a7a9ac;stroke-miterlimit:10" />
    <line
       id="XMLID_6_"
       class="st2"
       x1="56.244617"
       y1="19.34634"
       x2="103.41127"
       y2="3.6796718"
       style="fill:none;stroke:#000000;stroke-miterlimit:10" />
    <line
       id="XMLID_7_"
       class="st1"
       x1="81.911278"
       y1="35.013"
       x2="138.2822"
       y2="44.782825"
       style="fill:none;stroke:#a7a9ac;stroke-miterlimit:10" />
    <line
       id="XMLID_8_"
       class="st2"
       x1="91.115532"
       y1="60.449497"
       x2="138.2822"
       y2="44.782829"
       style="fill:none;stroke:#000000;stroke-miterlimit:10" />
    <line
       id="XMLID_9_"
       class="st2"
       x1="56.244617"
       y1="19.346336"
       x2="112.61553"
       y2="29.116161"
       style="fill:none;stroke:#000000;stroke-miterlimit:10" />
    <line
       id="XMLID_10_"
       class="st2"
       x1="91.115524"
       y1="60.449497"
       x2="112.61553"
       y2="29.116161"
       style="fill:none;stroke:#000000;stroke-miterlimit:10" />
    <line
       id="XMLID_27_"
       class="st2"
       x1="138.2822"
       y1="44.782825"
       x2="159.7822"
       y2="13.449494"
       style="fill:none;stroke:#000000;stroke-miterlimit:10" />
    <line
       id="XMLID_32_"
       class="st2"
       x1="112.61553"
       y1="29.116161"
       x2="159.7822"
       y2="13.449494"
       style="fill:none;stroke:#000000;stroke-miterlimit:10" />
    <line
       id="XMLID_37_"
       class="st2"
       x1="103.41127"
       y1="3.6796718"
       x2="159.7822"
       y2="13.449496"
       style="fill:none;stroke:#000000;stroke-miterlimit:10" />
    <g
       id="XMLID_16_"
       transform="translate(-1.2553831,1.346337)">
	<g
   id="XMLID_17_">
		<path
   id="XMLID_51_"
   class="st3"
   d="m 84.331055,49.637043 h -2.791016 l -0.332031,0.767578 c -0.108887,0.255859 -0.163574,0.467773 -0.163574,0.633789 0,0.22168 0.08935,0.383789 0.268066,0.489258 0.10498,0.06152 0.363281,0.108398 0.775391,0.139648 v 0.214844 h -2.628418 v -0.214844 c 0.283691,-0.04297 0.516601,-0.160156 0.699218,-0.352539 0.182618,-0.191406 0.408203,-0.58789 0.67627,-1.189453 l 2.826172,-6.293457 h 0.11084 l 2.850097,6.468262 c 0.271485,0.612305 0.495117,0.998047 0.669922,1.157226 0.131836,0.120118 0.31836,0.19043 0.559571,0.209961 V 51.88216 H 84.02832 v -0.214844 h 0.158203 c 0.306641,0 0.521485,-0.04297 0.646485,-0.127929 0.08496,-0.0625 0.12793,-0.151368 0.12793,-0.267578 0,-0.07031 -0.01172,-0.141602 -0.03516,-0.215821 -0.0078,-0.03516 -0.06641,-0.179687 -0.174804,-0.435547 z m -0.197266,-0.430664 -1.177734,-2.716309 -1.211914,2.716309 z"
   style="fill:#010101" />

	</g>

</g>
    <g
       id="XMLID_18_"
       transform="translate(-1.2553831,1.346337)">
	<g
   id="XMLID_19_">
		<path
   id="XMLID_47_"
   class="st0"
   d="m 68.577148,29.485189 c 0.761719,0.173828 1.296875,0.385743 1.604493,0.633789 0.441406,0.35254 0.663085,0.810547 0.663085,1.372071 0,0.593748 -0.243164,1.083982 -0.728515,1.471678 -0.595703,0.469726 -1.461914,0.704101 -2.598145,0.704101 h -4.078125 v -0.214844 c 0.371094,0 0.622559,-0.03418 0.754883,-0.102539 0.131836,-0.06738 0.22461,-0.155273 0.277832,-0.264648 0.05371,-0.108398 0.08008,-0.375977 0.08008,-0.802734 V 27.1639 c 0,-0.426757 -0.02637,-0.695312 -0.08008,-0.805664 -0.05322,-0.110351 -0.146973,-0.19873 -0.280761,-0.264648 -0.134278,-0.06592 -0.384766,-0.09863 -0.751954,-0.09863 v -0.215332 h 3.847168 c 0.919922,0 1.570313,0.08057 1.953125,0.241211 0.382813,0.161133 0.684571,0.401367 0.90625,0.721191 0.220703,0.319825 0.331055,0.660157 0.331055,1.020996 0,0.379883 -0.139648,0.718262 -0.419922,1.015137 -0.280273,0.296387 -0.773437,0.532227 -1.480469,0.707031 z m -2.153808,0.295899 v 2.530271 l -0.0059,0.291016 c 0,0.208984 0.0542,0.367188 0.162598,0.473633 0.108398,0.107422 0.269043,0.160156 0.482422,0.160156 0.31543,0 0.606445,-0.06836 0.873047,-0.206055 0.266602,-0.137695 0.470703,-0.33789 0.612305,-0.599609 0.142578,-0.261719 0.21289,-0.552733 0.21289,-0.874998 0,-0.368164 -0.08691,-0.699219 -0.259765,-0.992188 -0.173828,-0.291992 -0.413086,-0.49707 -0.715821,-0.613281 -0.304687,-0.116211 -0.758301,-0.172851 -1.361816,-0.168945 z m 0,-0.454102 c 0.560058,0 0.973633,-0.06152 1.239746,-0.185547 0.266601,-0.124023 0.470703,-0.298339 0.612305,-0.523437 0.142578,-0.224609 0.213867,-0.511719 0.213867,-0.86084 0,-0.349121 -0.07031,-0.634766 -0.210938,-0.85791 -0.139648,-0.223145 -0.339844,-0.392578 -0.600586,-0.508789 -0.260254,-0.116699 -0.678711,-0.172852 -1.254394,-0.168946 z"
   style="fill:#a7a9ac" />

	</g>

</g>
    <g
       id="XMLID_20_"
       transform="translate(-1.2553831,1.346337)">
	<g
   id="XMLID_30_">
		<path
   id="XMLID_45_"
   class="st3"
   d="M 56.84082,8.0706377 V 10.820638 H 56.610351 C 56.436523,10.102864 56.113281,9.5530596 55.639648,9.1707354 55.166016,8.7884112 54.628906,8.5974932 54.029297,8.5974932 c -0.500977,0 -0.960449,0.1420898 -1.378907,0.4267578 -0.417968,0.2851563 -0.724121,0.6577148 -0.91748,1.117676 -0.248535,0.589355 -0.372559,1.244629 -0.372559,1.966308 0,0.709961 0.09082,1.356446 0.271973,1.939454 0.181641,0.583007 0.46582,1.024414 0.852539,1.322265 0.386719,0.298828 0.888184,0.448242 1.503418,0.448242 0.504883,0 0.967774,-0.109375 1.387695,-0.328125 0.420899,-0.21875 0.863282,-0.594726 1.329102,-1.128906 v 0.68457 c -0.450195,0.463868 -0.918945,0.800782 -1.40625,1.00879 -0.487305,0.208985 -1.055664,0.313477 -1.707031,0.313477 -0.856445,0 -1.617188,-0.169922 -2.281738,-0.509767 -0.66504,-0.338867 -1.178223,-0.826172 -1.539063,-1.461914 -0.36084,-0.635742 -0.541504,-1.313476 -0.541504,-2.03125 0,-0.756347 0.200195,-1.474121 0.600586,-2.152832 0.400391,-0.6787107 0.941406,-1.2055662 1.62207,-1.5795896 0.680664,-0.3745117 1.403321,-0.5620117 2.168946,-0.5620117 0.564453,0 1.160156,0.1210938 1.788085,0.362793 0.362305,0.140625 0.59375,0.2109375 0.692383,0.2109375 0.125977,0 0.235352,-0.045898 0.328125,-0.1376953 0.09277,-0.091797 0.153321,-0.2368164 0.180664,-0.4360352 z"
   style="fill:#010101" />

	</g>

</g>
    <g
       id="XMLID_31_"
       transform="translate(-1.2553831,1.346337)">
	<g
   id="XMLID_34_">
		<path
   id="XMLID_43_"
   class="st3"
   d="m 12.708008,14.328939 2.172851,2.152344 2.171875,-2.152344 0.403321,0.395507 -2.166992,2.169923 2.166992,2.152344 -0.403321,0.407226 -2.171875,-2.158203 -2.172851,2.158203 -0.408692,-0.407226 2.172364,-2.158203 -2.172364,-2.152345 z"
   style="fill:#010101" />

	</g>

	<g
   id="XMLID_33_">
		<path
   id="XMLID_35_"
   class="st3"
   d="M 6.4746094,17.691244 H 3.6772461 l -0.3330078,0.767578 c -0.1088867,0.25586 -0.1630859,0.467774 -0.1630859,0.633789 0,0.22168 0.089355,0.383789 0.2685547,0.489258 0.1049805,0.06152 0.3637695,0.108398 0.7763672,0.139648 v 0.214844 H 1.5922852 v -0.214844 c 0.2841797,-0.04297 0.5180664,-0.160156 0.7011719,-0.352539 0.1826172,-0.191406 0.4086914,-0.58789 0.6772461,-1.189453 l 2.8325195,-6.293458 h 0.1108398 l 2.8554688,6.468263 c 0.2724609,0.612305 0.496582,0.998047 0.671875,1.157227 0.1323242,0.120117 0.3193359,0.190429 0.5605467,0.20996 v 0.214844 H 6.1708984 v -0.214844 h 0.1577148 c 0.3076172,0 0.5234375,-0.04297 0.6484375,-0.127929 0.085449,-0.0625 0.128418,-0.151367 0.128418,-0.267578 0,-0.07031 -0.011719,-0.141602 -0.035156,-0.215821 -0.00781,-0.03516 -0.066406,-0.179687 -0.175293,-0.435547 z M 6.2758789,17.26058 5.0961914,14.544271 3.8818359,17.26058 Z"
   style="fill:#010101" />

		<path
   id="XMLID_39_"
   class="st3"
   d="m 24.941406,15.75472 c 0.750977,0.173828 1.278321,0.385743 1.582032,0.63379 0.436523,0.352539 0.654296,0.810547 0.654296,1.37207 0,0.59375 -0.239257,1.083984 -0.717773,1.47168 -0.587891,0.469726 -1.442383,0.704101 -2.564453,0.704101 H 19.87207 v -0.214844 c 0.366211,0 0.614258,-0.03418 0.745118,-0.102539 0.129882,-0.06738 0.221679,-0.155273 0.274414,-0.264648 0.05176,-0.108398 0.07813,-0.375977 0.07813,-0.802734 v -5.118165 c 0,-0.426758 -0.02637,-0.695313 -0.07813,-0.805664 -0.05273,-0.110352 -0.145508,-0.198731 -0.277344,-0.264649 -0.132813,-0.06592 -0.379883,-0.09863 -0.742188,-0.09863 v -0.215332 h 3.795899 c 0.907226,0 1.549805,0.08057 1.927734,0.241211 0.376953,0.161133 0.674805,0.401367 0.893555,0.721192 0.217773,0.319824 0.326172,0.660156 0.326172,1.020996 0,0.379883 -0.137695,0.718261 -0.414063,1.015136 -0.276367,0.296387 -0.763672,0.532227 -1.459961,0.707032 z m -2.125976,0.295899 v 2.530273 l -0.0059,0.291016 c 0,0.208984 0.05371,0.367188 0.161133,0.473633 0.106445,0.107422 0.265625,0.160156 0.475586,0.160156 0.311523,0 0.598633,-0.06836 0.861328,-0.206055 0.262695,-0.137695 0.463867,-0.33789 0.604492,-0.599609 0.139649,-0.261719 0.209961,-0.552734 0.209961,-0.875 0,-0.368164 -0.08496,-0.699219 -0.256836,-0.992187 -0.170898,-0.291993 -0.407226,-0.497071 -0.706054,-0.613282 -0.300782,-0.116211 -0.748047,-0.172851 -1.34375,-0.168945 z m 0,-0.454102 c 0.552734,0 0.960937,-0.06152 1.223632,-0.185547 0.262696,-0.124024 0.463868,-0.29834 0.604493,-0.523438 0.139648,-0.224609 0.209961,-0.511719 0.209961,-0.86084 0,-0.349121 -0.06934,-0.634765 -0.207032,-0.85791 -0.138672,-0.223144 -0.335937,-0.392578 -0.592773,-0.508789 -0.256836,-0.116699 -0.669922,-0.172851 -1.238281,-0.168945 z"
   style="fill:#010101" />

	</g>

</g>
    <g
       id="XMLID_15_"
       transform="translate(-1.2553831,1.346337)">
</g>
    <g
       id="XMLID_55_"
       transform="translate(-1.2553831,1.346337)">
</g>
    <g
       id="XMLID_56_"
       transform="translate(-1.2553831,1.346337)">
</g>
    <g
       id="XMLID_58_"
       transform="translate(-1.2553831,1.346337)">
</g>
    <g
       id="XMLID_59_"
       transform="translate(-1.2553831,1.346337)">
</g>
    <g
       id="XMLID_60_"
       transform="translate(-1.2553831,1.346337)">
</g>
  </g>
</svg>
