<?xml version="1.0" encoding="UTF-8" standalone="no"?>
<!-- Created with Inkscape (http://www.inkscape.org/) -->

<svg
   width="160mm"
   height="60mm"
   viewBox="0 0 160 60"
   version="1.1"
   id="svg1"
   inkscape:version="1.4 (86a8ad7, 2024-10-11)"
   sodipodi:docname="bc_corrected_show.svg"
   xmlns:inkscape="http://www.inkscape.org/namespaces/inkscape"
   xmlns:sodipodi="http://sodipodi.sourceforge.net/DTD/sodipodi-0.dtd"
   xmlns="http://www.w3.org/2000/svg"
   xmlns:svg="http://www.w3.org/2000/svg">
  <sodipodi:namedview
     id="namedview1"
     pagecolor="#ffffff"
     bordercolor="#000000"
     borderopacity="0.25"
     inkscape:showpageshadow="2"
     inkscape:pageopacity="0.0"
     inkscape:pagecheckerboard="0"
     inkscape:deskcolor="#d1d1d1"
     inkscape:document-units="mm"
     showgrid="true"
     inkscape:zoom="3.0664904"
     inkscape:cx="327.41013"
     inkscape:cy="25.925403"
     inkscape:window-width="2560"
     inkscape:window-height="1494"
     inkscape:window-x="-11"
     inkscape:window-y="-11"
     inkscape:window-maximized="1"
     inkscape:current-layer="layer1">
    <inkscape:grid
       id="grid1"
       units="mm"
       originx="0"
       originy="0"
       spacingx="0.99999998"
       spacingy="1"
       empcolor="#0099e5"
       empopacity="0.30196078"
       color="#0099e5"
       opacity="0.14901961"
       empspacing="5"
       enabled="true"
       visible="true" />
  </sodipodi:namedview>
  <defs
     id="defs1">
    <marker
       style="overflow:visible"
       id="ConcaveTriangle"
       refX="0"
       refY="0"
       orient="auto-start-reverse"
       inkscape:stockid="Concave triangle arrow"
       markerWidth="1"
       markerHeight="1"
       viewBox="0 0 1 1"
       inkscape:isstock="true"
       inkscape:collect="always"
       preserveAspectRatio="xMidYMid">
      <path
         transform="scale(0.7)"
         d="M -2,-4 9,0 -2,4 c 2,-2.33 2,-5.66 0,-8 z"
         style="fill:context-stroke;fill-rule:evenodd;stroke:none"
         id="path7" />
    </marker>
    <g
       id="g5333">
      <g
         id="g3266">
        <path
           d="m 8.921875,-8.3125 c 0,-0.109375 -0.078125,-0.109375 -0.09375,-0.109375 -0.03125,0 -0.078125,0 -0.171875,0.125 l -0.828125,1 c -0.421875,-0.71875 -1.078125,-1.125 -1.96875,-1.125 -2.578125,0 -5.265625,2.625 -5.265625,5.4375 0,2 1.40625,3.234375 3.140625,3.234375 0.96875,0 1.796875,-0.40625 2.5,-0.984375 1.03125,-0.875 1.34375,-2.03125 1.34375,-2.140625 0,-0.09375 -0.09375,-0.09375 -0.125,-0.09375 -0.109375,0 -0.125,0.0625 -0.15625,0.109375 -0.546875,1.875 -2.15625,2.765625 -3.359375,2.765625 -1.265625,0 -2.359375,-0.8125 -2.359375,-2.515625 0,-0.375 0.125,-2.453125 1.46875,-4.03125 0.65625,-0.765625 1.78125,-1.421875 2.921875,-1.421875 1.3125,0 1.890625,1.078125 1.890625,2.296875 0,0.3125 -0.03125,0.578125 -0.03125,0.625 0,0.109375 0.125,0.109375 0.15625,0.109375 0.125,0 0.140625,-0.015625 0.1875,-0.234375 z m 0,0"
           id="path1743" />
      </g>
      <g
         id="g944">
        <path
           d="M 3.59375,-1.421875 C 3.53125,-1.21875 3.53125,-1.1875 3.375,-0.96875 3.109375,-0.640625 2.578125,-0.125 2.015625,-0.125 1.53125,-0.125 1.25,-0.5625 1.25,-1.265625 c 0,-0.65625 0.375,-2 0.609375,-2.5 0.40625,-0.84375 0.96875,-1.265625 1.421875,-1.265625 0.796875,0 0.953125,0.984375 0.953125,1.078125 0,0.015625 -0.03125,0.15625 -0.046875,0.1875 z m 0.765625,-3.0625 c -0.125,-0.3125 -0.453125,-0.78125 -1.078125,-0.78125 -1.34375,0 -2.796875,1.734375 -2.796875,3.515625 0,1.171875 0.6875,1.875 1.5,1.875 0.65625,0 1.21875,-0.515625 1.546875,-0.90625 0.125,0.703125 0.6875,0.90625 1.046875,0.90625 0.359375,0 0.640625,-0.21875 0.859375,-0.65625 0.1875,-0.40625 0.359375,-1.125 0.359375,-1.171875 0,-0.0625 -0.046875,-0.109375 -0.125,-0.109375 C 5.5625,-1.8125 5.5625,-1.75 5.515625,-1.578125 5.328125,-0.875 5.109375,-0.125 4.609375,-0.125 4.265625,-0.125 4.25,-0.4375 4.25,-0.671875 c 0,-0.265625 0.03125,-0.40625 0.140625,-0.875 C 4.46875,-1.84375 4.53125,-2.109375 4.625,-2.453125 5.0625,-4.25 5.171875,-4.671875 5.171875,-4.75 c 0,-0.15625 -0.125,-0.296875 -0.3125,-0.296875 -0.375,0 -0.46875,0.421875 -0.5,0.5625 z m 0,0"
           id="path5501" />
      </g>
      <g
         id="g707">
        <path
           d="M 2.46875,-3.5 C 2.484375,-3.578125 2.78125,-4.171875 3.234375,-4.546875 3.53125,-4.84375 3.9375,-5.03125 4.40625,-5.03125 c 0.484375,0 0.65625,0.359375 0.65625,0.828125 0,0.078125 0,0.3125 -0.15625,0.875 L 4.609375,-2.09375 c -0.09375,0.359375 -0.3125,1.25 -0.34375,1.375 -0.046875,0.1875 -0.125,0.484375 -0.125,0.546875 0,0.15625 0.140625,0.296875 0.3125,0.296875 0.359375,0 0.421875,-0.28125 0.53125,-0.703125 L 5.703125,-3.4375 C 5.71875,-3.53125 6.34375,-5.03125 7.65625,-5.03125 c 0.484375,0 0.65625,0.359375 0.65625,0.828125 0,0.671875 -0.46875,1.984375 -0.734375,2.703125 -0.109375,0.28125 -0.171875,0.4375 -0.171875,0.65625 0,0.53125 0.375,0.96875 0.953125,0.96875 1.109375,0 1.53125,-1.765625 1.53125,-1.828125 0,-0.0625 -0.046875,-0.109375 -0.125,-0.109375 -0.109375,0 -0.125,0.03125 -0.171875,0.234375 C 9.3125,-0.625 8.875,-0.125 8.390625,-0.125 c -0.125,0 -0.3125,0 -0.3125,-0.390625 0,-0.3125 0.140625,-0.6875 0.1875,-0.828125 0.21875,-0.5625 0.765625,-1.984375 0.765625,-2.671875 0,-0.71875 -0.421875,-1.25 -1.328125,-1.25 -0.8125,0 -1.453125,0.453125 -1.9375,1.15625 -0.03125,-0.640625 -0.421875,-1.15625 -1.3125,-1.15625 -1.078125,0 -1.625,0.75 -1.84375,1.046875 -0.046875,-0.6875 -0.53125,-1.046875 -1.0625,-1.046875 -0.34375,0 -0.609375,0.15625 -0.84375,0.609375 -0.21875,0.4375 -0.375,1.171875 -0.375,1.21875 0,0.046875 0.046875,0.109375 0.125,0.109375 0.09375,0 0.109375,-0.015625 0.1875,-0.296875 0.171875,-0.703125 0.40625,-1.40625 0.875,-1.40625 0.28125,0 0.375,0.1875 0.375,0.546875 0,0.265625 -0.125,0.734375 -0.203125,1.109375 l -0.34375,1.28125 c -0.046875,0.234375 -0.171875,0.765625 -0.234375,0.984375 -0.078125,0.3125 -0.21875,0.875 -0.21875,0.9375 0,0.15625 0.140625,0.296875 0.3125,0.296875 0.140625,0 0.3125,-0.078125 0.40625,-0.25 C 1.640625,-0.1875 1.75,-0.609375 1.8125,-0.84375 l 0.25,-1.078125 z m 0,0"
           id="path1315" />
      </g>
      <g
         id="g6809">
        <path
           d="m 2.140625,-2.765625 c 0.328125,0 1.140625,-0.03125 1.703125,-0.25 0.90625,-0.34375 1,-1.03125 1,-1.25 0,-0.53125 -0.453125,-1 -1.25,-1 -1.25,0 -3.0625,1.125 -3.0625,3.25 C 0.53125,-0.75 1.25,0.125 2.34375,0.125 3.96875,0.125 5,-1.140625 5,-1.296875 5,-1.375 4.921875,-1.4375 4.875,-1.4375 c -0.03125,0 -0.046875,0.015625 -0.15625,0.125 -0.765625,1.015625 -1.890625,1.1875 -2.359375,1.1875 -0.671875,0 -1.03125,-0.53125 -1.03125,-1.421875 0,-0.15625 0,-0.46875 0.171875,-1.21875 z m -0.578125,-0.25 c 0.515625,-1.84375 1.65625,-2.015625 2.03125,-2.015625 0.53125,0 0.890625,0.3125 0.890625,0.765625 0,1.25 -1.921875,1.25 -2.421875,1.25 z m 0,0"
           id="path313" />
      </g>
      <g
         id="g8630">
        <path
           d="m 4.65625,-4.890625 c -0.375,0.078125 -0.5625,0.34375 -0.5625,0.59375 0,0.296875 0.21875,0.390625 0.390625,0.390625 0.328125,0 0.609375,-0.296875 0.609375,-0.640625 0,-0.390625 -0.375,-0.71875 -0.96875,-0.71875 -0.484375,0 -1.03125,0.203125 -1.53125,0.9375 -0.078125,-0.625 -0.5625,-0.9375 -1.046875,-0.9375 -0.453125,0 -0.703125,0.359375 -0.84375,0.609375 -0.203125,0.4375 -0.375,1.15625 -0.375,1.21875 0,0.046875 0.046875,0.109375 0.125,0.109375 0.09375,0 0.109375,-0.015625 0.1875,-0.296875 0.171875,-0.71875 0.40625,-1.40625 0.875,-1.40625 0.296875,0 0.375,0.203125 0.375,0.546875 0,0.265625 -0.125,0.734375 -0.203125,1.109375 l -0.34375,1.28125 c -0.046875,0.234375 -0.171875,0.765625 -0.234375,0.984375 -0.078125,0.3125 -0.21875,0.875 -0.21875,0.9375 0,0.15625 0.140625,0.296875 0.3125,0.296875 0.140625,0 0.359375,-0.09375 0.4375,-0.328125 C 1.671875,-0.296875 2.109375,-2.109375 2.1875,-2.375 2.25,-2.640625 2.3125,-2.890625 2.375,-3.15625 2.421875,-3.328125 2.46875,-3.515625 2.515625,-3.671875 2.546875,-3.78125 2.875,-4.359375 3.171875,-4.625 3.3125,-4.75 3.625,-5.03125 4.109375,-5.03125 4.296875,-5.03125 4.5,-5 4.65625,-4.890625 Z m 0,0"
           id="path4353" />
      </g>
    </g>
  </defs>
  <g
     inkscape:groupmode="layer"
     id="layer2"
     inkscape:label="bak" />
  <g
     inkscape:label="Layer 1"
     inkscape:groupmode="layer"
     id="layer1">
    <g
       id="g13"
       transform="translate(-0.43935191,8.9325597)">
      <rect
         style="fill:none;stroke:#000000;stroke-width:0.396875;stroke-dasharray:none"
         id="rect1"
         width="53.39505"
         height="13.34876"
         x="20.044302"
         y="16.718681" />
      <path
         style="fill:none;stroke:#000000;stroke-width:0.396875;stroke-dasharray:none"
         d="m 20.044303,16.718682 5.339504,-5.339505 h 53.395045 l -5.339504,5.339504"
         id="path1"
         sodipodi:nodetypes="cccc" />
      <path
         style="fill:none;stroke:#000000;stroke-width:0.396875;stroke-dasharray:none"
         d="m 73.439348,30.067442 5.339504,-5.339505 v -13.34876"
         id="path2" />
      <path
         style="fill:none;stroke:#000000;stroke-width:0.176593;stroke-dasharray:none"
         d="M 60.090589,16.718681 V 30.067442"
         id="path3-5-1-2" />
      <path
         style="fill:none;stroke:#000000;stroke-width:0.176593;stroke-dasharray:none"
         d="M 46.741828,16.718681 V 30.067442"
         id="path3-5-1-1" />
      <path
         style="fill:none;stroke:#000000;stroke-width:0.176593;stroke-dasharray:none"
         d="M 33.393065,16.718681 V 30.067442"
         id="path3-5-1-76" />
    </g>
    <path
       style="fill:none;stroke:#000000;stroke-width:0.396875;stroke-dasharray:none;marker-end:url(#ConcaveTriangle)"
       d="M 1.5606486,27.932559 H 9.5606481"
       id="path4" />
    <g
       id="g16"
       transform="translate(4.0231428,8.9999999)">
      <rect
         style="fill:#000000;fill-opacity:0.148862;stroke:#000000;stroke-width:0.396875;stroke-dasharray:none"
         id="rect14"
         width="64"
         height="37.999996"
         x="89.198441"
         y="2.1984375" />
      <path
         style="fill:#ffffff;fill-opacity:1;stroke:none;stroke-width:0.396875;stroke-dasharray:none"
         d="M 120,11 V 30.999998 L 146.69752,24.34876 V 17.67438 Z"
         id="path16" />
      <rect
         style="fill:#ffffff;fill-opacity:1;stroke:#000000;stroke-width:0.396875;stroke-dasharray:none"
         id="rect4"
         width="20.023142"
         height="20.023142"
         x="99.97686"
         y="11" />
      <path
         style="fill:#ffffff;fill-opacity:1;stroke:#000000;stroke-width:0.396875;stroke-dasharray:none"
         d="m 146.69752,17.67438 v 6.67438"
         id="path5" />
      <path
         style="fill:#ffffff;fill-opacity:1;stroke:#000000;stroke-width:0.396875;stroke-dasharray:none"
         d="m 120,10.999999 26.69752,6.674381"
         id="path6" />
      <path
         style="fill:#ffffff;fill-opacity:1;stroke:#000000;stroke-width:0.396875;stroke-dasharray:none"
         d="M 120,31.023141 146.69752,24.34876"
         id="path8" />
      <path
         style="fill:#ffffff;fill-opacity:1;stroke:#000000;stroke-width:0.141274;stroke-dasharray:none"
         d="M 137.85095,15.672067 V 26.560403"
         id="path9" />
      <path
         style="fill:#ffffff;fill-opacity:1;stroke:#000000;stroke-width:0.141274;stroke-dasharray:none"
         d="m 143.37894,16.844735 -0.083,8.354428"
         id="path10" />
      <path
         style="fill:#ffffff;fill-opacity:1;stroke:#000000;stroke-width:0.176593;stroke-dasharray:none"
         d="m 130.04231,13.510578 0.0149,14.842811"
         id="path11" />
    </g>
    <g
       inkscape:label=""
       transform="translate(1.3102697,23.411204)"
       id="g11">
      <g
         fill="#000000"
         fill-opacity="1"
         id="g6"
         transform="matrix(0.352778,0,0,0.352778,-0.912548,-0.613525)">
        <g
           id="use5"
           transform="translate(1.993,10.161)">
          <path
             d="m 8.921875,-8.3125 c 0,-0.109375 -0.078125,-0.109375 -0.09375,-0.109375 -0.03125,0 -0.078125,0 -0.171875,0.125 l -0.828125,1 c -0.421875,-0.71875 -1.078125,-1.125 -1.96875,-1.125 -2.578125,0 -5.265625,2.625 -5.265625,5.4375 0,2 1.40625,3.234375 3.140625,3.234375 0.96875,0 1.796875,-0.40625 2.5,-0.984375 1.03125,-0.875 1.34375,-2.03125 1.34375,-2.140625 0,-0.09375 -0.09375,-0.09375 -0.125,-0.09375 -0.109375,0 -0.125,0.0625 -0.15625,0.109375 -0.546875,1.875 -2.15625,2.765625 -3.359375,2.765625 -1.265625,0 -2.359375,-0.8125 -2.359375,-2.515625 0,-0.375 0.125,-2.453125 1.46875,-4.03125 0.65625,-0.765625 1.78125,-1.421875 2.921875,-1.421875 1.3125,0 1.890625,1.078125 1.890625,2.296875 0,0.3125 -0.03125,0.578125 -0.03125,0.625 0,0.109375 0.125,0.109375 0.15625,0.109375 0.125,0 0.140625,-0.015625 0.1875,-0.234375 z m 0,0"
             id="path10-1" />
        </g>
      </g>
      <g
         fill="#000000"
         fill-opacity="1"
         id="g9"
         transform="matrix(0.352778,0,0,0.352778,-0.912548,-0.613525)">
        <g
           id="use6"
           transform="translate(11.228392,10.161)">
          <path
             d="M 3.59375,-1.421875 C 3.53125,-1.21875 3.53125,-1.1875 3.375,-0.96875 3.109375,-0.640625 2.578125,-0.125 2.015625,-0.125 1.53125,-0.125 1.25,-0.5625 1.25,-1.265625 c 0,-0.65625 0.375,-2 0.609375,-2.5 0.40625,-0.84375 0.96875,-1.265625 1.421875,-1.265625 0.796875,0 0.953125,0.984375 0.953125,1.078125 0,0.015625 -0.03125,0.15625 -0.046875,0.1875 z m 0.765625,-3.0625 c -0.125,-0.3125 -0.453125,-0.78125 -1.078125,-0.78125 -1.34375,0 -2.796875,1.734375 -2.796875,3.515625 0,1.171875 0.6875,1.875 1.5,1.875 0.65625,0 1.21875,-0.515625 1.546875,-0.90625 0.125,0.703125 0.6875,0.90625 1.046875,0.90625 0.359375,0 0.640625,-0.21875 0.859375,-0.65625 0.1875,-0.40625 0.359375,-1.125 0.359375,-1.171875 0,-0.0625 -0.046875,-0.109375 -0.125,-0.109375 C 5.5625,-1.8125 5.5625,-1.75 5.515625,-1.578125 5.328125,-0.875 5.109375,-0.125 4.609375,-0.125 4.265625,-0.125 4.25,-0.4375 4.25,-0.671875 c 0,-0.265625 0.03125,-0.40625 0.140625,-0.875 C 4.46875,-1.84375 4.53125,-2.109375 4.625,-2.453125 5.0625,-4.25 5.171875,-4.671875 5.171875,-4.75 c 0,-0.15625 -0.125,-0.296875 -0.3125,-0.296875 -0.375,0 -0.46875,0.421875 -0.5,0.5625 z m 0,0"
             id="path11-1" />
        </g>
        <g
           id="use7"
           transform="translate(17.373365,10.161)">
          <path
             d="M 2.46875,-3.5 C 2.484375,-3.578125 2.78125,-4.171875 3.234375,-4.546875 3.53125,-4.84375 3.9375,-5.03125 4.40625,-5.03125 c 0.484375,0 0.65625,0.359375 0.65625,0.828125 0,0.078125 0,0.3125 -0.15625,0.875 L 4.609375,-2.09375 c -0.09375,0.359375 -0.3125,1.25 -0.34375,1.375 -0.046875,0.1875 -0.125,0.484375 -0.125,0.546875 0,0.15625 0.140625,0.296875 0.3125,0.296875 0.359375,0 0.421875,-0.28125 0.53125,-0.703125 L 5.703125,-3.4375 C 5.71875,-3.53125 6.34375,-5.03125 7.65625,-5.03125 c 0.484375,0 0.65625,0.359375 0.65625,0.828125 0,0.671875 -0.46875,1.984375 -0.734375,2.703125 -0.109375,0.28125 -0.171875,0.4375 -0.171875,0.65625 0,0.53125 0.375,0.96875 0.953125,0.96875 1.109375,0 1.53125,-1.765625 1.53125,-1.828125 0,-0.0625 -0.046875,-0.109375 -0.125,-0.109375 -0.109375,0 -0.125,0.03125 -0.171875,0.234375 C 9.3125,-0.625 8.875,-0.125 8.390625,-0.125 c -0.125,0 -0.3125,0 -0.3125,-0.390625 0,-0.3125 0.140625,-0.6875 0.1875,-0.828125 0.21875,-0.5625 0.765625,-1.984375 0.765625,-2.671875 0,-0.71875 -0.421875,-1.25 -1.328125,-1.25 -0.8125,0 -1.453125,0.453125 -1.9375,1.15625 -0.03125,-0.640625 -0.421875,-1.15625 -1.3125,-1.15625 -1.078125,0 -1.625,0.75 -1.84375,1.046875 -0.046875,-0.6875 -0.53125,-1.046875 -1.0625,-1.046875 -0.34375,0 -0.609375,0.15625 -0.84375,0.609375 -0.21875,0.4375 -0.375,1.171875 -0.375,1.21875 0,0.046875 0.046875,0.109375 0.125,0.109375 0.09375,0 0.109375,-0.015625 0.1875,-0.296875 0.171875,-0.703125 0.40625,-1.40625 0.875,-1.40625 0.28125,0 0.375,0.1875 0.375,0.546875 0,0.265625 -0.125,0.734375 -0.203125,1.109375 l -0.34375,1.28125 c -0.046875,0.234375 -0.171875,0.765625 -0.234375,0.984375 -0.078125,0.3125 -0.21875,0.875 -0.21875,0.9375 0,0.15625 0.140625,0.296875 0.3125,0.296875 0.140625,0 0.3125,-0.078125 0.40625,-0.25 C 1.640625,-0.1875 1.75,-0.609375 1.8125,-0.84375 l 0.25,-1.078125 z m 0,0"
             id="path12" />
        </g>
        <g
           id="use8"
           transform="translate(27.612993,10.161)">
          <path
             d="m 2.140625,-2.765625 c 0.328125,0 1.140625,-0.03125 1.703125,-0.25 0.90625,-0.34375 1,-1.03125 1,-1.25 0,-0.53125 -0.453125,-1 -1.25,-1 -1.25,0 -3.0625,1.125 -3.0625,3.25 C 0.53125,-0.75 1.25,0.125 2.34375,0.125 3.96875,0.125 5,-1.140625 5,-1.296875 5,-1.375 4.921875,-1.4375 4.875,-1.4375 c -0.03125,0 -0.046875,0.015625 -0.15625,0.125 -0.765625,1.015625 -1.890625,1.1875 -2.359375,1.1875 -0.671875,0 -1.03125,-0.53125 -1.03125,-1.421875 0,-0.15625 0,-0.46875 0.171875,-1.21875 z m -0.578125,-0.25 c 0.515625,-1.84375 1.65625,-2.015625 2.03125,-2.015625 0.53125,0 0.890625,0.3125 0.890625,0.765625 0,1.25 -1.921875,1.25 -2.421875,1.25 z m 0,0"
             id="path13" />
        </g>
        <g
           id="use9"
           transform="translate(33.038261,10.161)">
          <path
             d="m 4.65625,-4.890625 c -0.375,0.078125 -0.5625,0.34375 -0.5625,0.59375 0,0.296875 0.21875,0.390625 0.390625,0.390625 0.328125,0 0.609375,-0.296875 0.609375,-0.640625 0,-0.390625 -0.375,-0.71875 -0.96875,-0.71875 -0.484375,0 -1.03125,0.203125 -1.53125,0.9375 -0.078125,-0.625 -0.5625,-0.9375 -1.046875,-0.9375 -0.453125,0 -0.703125,0.359375 -0.84375,0.609375 -0.203125,0.4375 -0.375,1.15625 -0.375,1.21875 0,0.046875 0.046875,0.109375 0.125,0.109375 0.09375,0 0.109375,-0.015625 0.1875,-0.296875 0.171875,-0.71875 0.40625,-1.40625 0.875,-1.40625 0.296875,0 0.375,0.203125 0.375,0.546875 0,0.265625 -0.125,0.734375 -0.203125,1.109375 l -0.34375,1.28125 c -0.046875,0.234375 -0.171875,0.765625 -0.234375,0.984375 -0.078125,0.3125 -0.21875,0.875 -0.21875,0.9375 0,0.15625 0.140625,0.296875 0.3125,0.296875 0.140625,0 0.359375,-0.09375 0.4375,-0.328125 C 1.671875,-0.296875 2.109375,-2.109375 2.1875,-2.375 2.25,-2.640625 2.3125,-2.890625 2.375,-3.15625 2.421875,-3.328125 2.46875,-3.515625 2.515625,-3.671875 2.546875,-3.78125 2.875,-4.359375 3.171875,-4.625 3.3125,-4.75 3.625,-5.03125 4.109375,-5.03125 4.296875,-5.03125 4.5,-5 4.65625,-4.890625 Z m 0,0"
             id="path14" />
        </g>
      </g>
      <g
         fill="#000000"
         fill-opacity="1"
         id="g10"
         transform="matrix(0.352778,0,0,0.352778,-0.912548,-0.613525)">
        <g
           id="use10"
           transform="translate(38.636883,10.161)">
          <path
             d="M 3.59375,-1.421875 C 3.53125,-1.21875 3.53125,-1.1875 3.375,-0.96875 3.109375,-0.640625 2.578125,-0.125 2.015625,-0.125 1.53125,-0.125 1.25,-0.5625 1.25,-1.265625 c 0,-0.65625 0.375,-2 0.609375,-2.5 0.40625,-0.84375 0.96875,-1.265625 1.421875,-1.265625 0.796875,0 0.953125,0.984375 0.953125,1.078125 0,0.015625 -0.03125,0.15625 -0.046875,0.1875 z m 0.765625,-3.0625 c -0.125,-0.3125 -0.453125,-0.78125 -1.078125,-0.78125 -1.34375,0 -2.796875,1.734375 -2.796875,3.515625 0,1.171875 0.6875,1.875 1.5,1.875 0.65625,0 1.21875,-0.515625 1.546875,-0.90625 0.125,0.703125 0.6875,0.90625 1.046875,0.90625 0.359375,0 0.640625,-0.21875 0.859375,-0.65625 0.1875,-0.40625 0.359375,-1.125 0.359375,-1.171875 0,-0.0625 -0.046875,-0.109375 -0.125,-0.109375 C 5.5625,-1.8125 5.5625,-1.75 5.515625,-1.578125 5.328125,-0.875 5.109375,-0.125 4.609375,-0.125 4.265625,-0.125 4.25,-0.4375 4.25,-0.671875 c 0,-0.265625 0.03125,-0.40625 0.140625,-0.875 C 4.46875,-1.84375 4.53125,-2.109375 4.625,-2.453125 5.0625,-4.25 5.171875,-4.671875 5.171875,-4.75 c 0,-0.15625 -0.125,-0.296875 -0.3125,-0.296875 -0.375,0 -0.46875,0.421875 -0.5,0.5625 z m 0,0"
             id="path15" />
        </g>
      </g>
    </g>
  </g>
</svg>
