<?xml version="1.0" encoding="UTF-8" standalone="no"?>
<!-- Created with Inkscape (http://www.inkscape.org/) -->

<svg
   width="320"
   height="300"
   viewBox="0 0 320 300"
   version="1.1"
   id="svg8"
   inkscape:version="1.4 (86a8ad7, 2024-10-11)"
   sodipodi:docname="rotate_axis_2.svg"
   xmlns:inkscape="http://www.inkscape.org/namespaces/inkscape"
   xmlns:sodipodi="http://sodipodi.sourceforge.net/DTD/sodipodi-0.dtd"
   xmlns="http://www.w3.org/2000/svg"
   xmlns:svg="http://www.w3.org/2000/svg"
   xmlns:rdf="http://www.w3.org/1999/02/22-rdf-syntax-ns#"
   xmlns:cc="http://creativecommons.org/ns#"
   xmlns:dc="http://purl.org/dc/elements/1.1/">
  <sodipodi:namedview
     id="base"
     pagecolor="#ffffff"
     bordercolor="#666666"
     borderopacity="1.0"
     inkscape:pageopacity="0.0"
     inkscape:pageshadow="2"
     inkscape:zoom="3.9409418"
     inkscape:cx="156.81531"
     inkscape:cy="153.5166"
     inkscape:document-units="px"
     inkscape:current-layer="layer2"
     showgrid="true"
     units="px"
     inkscape:snap-intersection-paths="true"
     inkscape:window-width="2560"
     inkscape:window-height="1476"
     inkscape:window-x="-12"
     inkscape:window-y="-12"
     inkscape:window-maximized="1"
     inkscape:pagecheckerboard="0"
     inkscape:showpageshadow="2"
     inkscape:deskcolor="#d1d1d1">
    <inkscape:grid
       enabled="false"
       spacingy="10"
       spacingx="10"
       id="grid4485"
       type="xygrid"
       originx="0"
       originy="0"
       units="px" />
  </sodipodi:namedview>
  <defs
     id="defs2">
    <marker
       inkscape:isstock="true"
       style="overflow:visible"
       id="marker5501"
       refX="0"
       refY="0"
       orient="auto"
       inkscape:stockid="Arrow1Mend">
      <path
         inkscape:connector-curvature="0"
         transform="matrix(-0.4,0,0,-0.4,-4,0)"
         style="fill:#000000;fill-opacity:1;fill-rule:evenodd;stroke:#000000;stroke-width:1.00000003pt;stroke-opacity:1"
         d="M 0,0 5,-5 -12.5,0 5,5 Z"
         id="path5499" />
    </marker>
    <marker
       inkscape:collect="always"
       inkscape:stockid="Arrow1Mend"
       orient="auto"
       refY="0"
       refX="0"
       id="marker5429"
       style="overflow:visible"
       inkscape:isstock="true">
      <path
         inkscape:connector-curvature="0"
         id="path5427"
         d="M 0,0 5,-5 -12.5,0 5,5 Z"
         style="fill:#000000;fill-opacity:1;fill-rule:evenodd;stroke:#000000;stroke-width:1.00000003pt;stroke-opacity:1"
         transform="matrix(-0.4,0,0,-0.4,-4,0)" />
    </marker>
    <marker
       inkscape:collect="always"
       inkscape:isstock="true"
       style="overflow:visible"
       id="marker5246"
       refX="0"
       refY="0"
       orient="auto"
       inkscape:stockid="Arrow1Mend"
       viewBox="0 0 8.88692697 5.07824398"
       markerWidth="8.88692697"
       markerHeight="5.07824398"
       preserveAspectRatio="xMidYMid">
      <path
         inkscape:connector-curvature="0"
         transform="matrix(-0.4,0,0,-0.4,-4,0)"
         style="fill:#000000;fill-opacity:1;fill-rule:evenodd;stroke:#000000;stroke-width:1.00000003pt;stroke-opacity:1"
         d="M 0,0 5,-5 -12.5,0 5,5 Z"
         id="path5244" />
    </marker>
    <marker
       inkscape:collect="always"
       inkscape:stockid="Arrow1Mend"
       orient="auto"
       refY="0"
       refX="0"
       id="marker5138"
       style="overflow:visible"
       inkscape:isstock="true"
       viewBox="0 0 8.88692697 5.07824398"
       markerWidth="8.88692665"
       markerHeight="5.0782438"
       preserveAspectRatio="xMidYMid">
      <path
         inkscape:connector-curvature="0"
         id="path5136"
         d="M 0,0 5,-5 -12.5,0 5,5 Z"
         style="fill:#000000;fill-opacity:1;fill-rule:evenodd;stroke:#000000;stroke-width:1.00000003pt;stroke-opacity:1"
         transform="matrix(-0.4,0,0,-0.4,-4,0)" />
    </marker>
    <marker
       inkscape:collect="always"
       inkscape:stockid="Arrow1Mend"
       orient="auto"
       refY="0"
       refX="0"
       id="marker5044"
       style="overflow:visible"
       inkscape:isstock="true"
       viewBox="0 0 8.88692697 5.07824398"
       markerWidth="8.88692654"
       markerHeight="5.07824373"
       preserveAspectRatio="xMidYMid">
      <path
         inkscape:connector-curvature="0"
         id="path5042"
         d="M 0,0 5,-5 -12.5,0 5,5 Z"
         style="fill:#000000;fill-opacity:1;fill-rule:evenodd;stroke:#000000;stroke-width:1.00000003pt;stroke-opacity:1"
         transform="matrix(-0.4,0,0,-0.4,-4,0)" />
    </marker>
    <marker
       inkscape:isstock="true"
       style="overflow:visible"
       id="Arrow1Mstart"
       refX="0"
       refY="0"
       orient="auto"
       inkscape:stockid="Arrow1Mstart">
      <path
         inkscape:connector-curvature="0"
         transform="matrix(0.4,0,0,0.4,4,0)"
         style="fill:#000000;fill-opacity:1;fill-rule:evenodd;stroke:#000000;stroke-width:1.00000003pt;stroke-opacity:1"
         d="M 0,0 5,-5 -12.5,0 5,5 Z"
         id="path4510" />
    </marker>
    <g
       id="g3482">
      <g
         id="g4361">
        <path
           d="m 5.359375,-5.9375 c -0.140625,0.140625 -0.46875,0.421875 -0.46875,0.59375 0,0.09375 0.09375,0.203125 0.1875,0.203125 0.09375,0 0.140625,-0.078125 0.203125,-0.140625 C 5.390625,-5.421875 5.625,-5.703125 6.0625,-5.921875 6.125,-5.96875 6.234375,-6.015625 6.234375,-6.125 6.234375,-6.234375 6.15625,-6.28125 6.09375,-6.328125 5.875,-6.484375 5.765625,-6.65625 5.6875,-6.890625 5.65625,-6.984375 5.625,-7.125 5.484375,-7.125 c -0.140625,0 -0.203125,0.140625 -0.203125,0.21875 0,0.046875 0.078125,0.359375 0.234375,0.578125 H 2.15625 c -0.15625,0 -0.34375,0 -0.34375,0.203125 0,0.1875 0.1875,0.1875 0.34375,0.1875 z m 0,0"
           id="path9339" />
      </g>
      <g
         id="g7722">
        <path
           d="m 0.875,-0.59375 c -0.03125,0.15625 -0.09375,0.390625 -0.09375,0.4375 0,0.171875 0.140625,0.265625 0.296875,0.265625 0.125,0 0.296875,-0.078125 0.375,-0.28125 0,-0.015625 0.125,-0.484375 0.1875,-0.734375 l 0.21875,-0.890625 C 1.90625,-2.03125 1.96875,-2.25 2.03125,-2.46875 c 0.03125,-0.171875 0.109375,-0.46875 0.125,-0.5 0.140625,-0.3125 0.671875,-1.21875 1.625,-1.21875 0.453125,0 0.53125,0.375 0.53125,0.703125 0,0.609375 -0.484375,1.890625 -0.640625,2.3125 C 3.578125,-0.9375 3.5625,-0.8125 3.5625,-0.703125 c 0,0.46875 0.359375,0.8125 0.828125,0.8125 0.9375,0 1.296875,-1.453125 1.296875,-1.53125 0,-0.109375 -0.078125,-0.109375 -0.109375,-0.109375 -0.109375,0 -0.109375,0.03125 -0.15625,0.1875 -0.203125,0.671875 -0.53125,1.234375 -1.015625,1.234375 -0.171875,0 -0.234375,-0.09375 -0.234375,-0.328125 0,-0.25 0.078125,-0.484375 0.171875,-0.703125 0.1875,-0.53125 0.609375,-1.625 0.609375,-2.203125 0,-0.65625 -0.421875,-1.0625 -1.140625,-1.0625 -0.90625,0 -1.390625,0.640625 -1.5625,0.875 -0.046875,-0.5625 -0.453125,-0.875 -0.921875,-0.875 -0.453125,0 -0.640625,0.390625 -0.734375,0.5625 C 0.421875,-3.5 0.296875,-2.90625 0.296875,-2.875 c 0,0.109375 0.09375,0.109375 0.109375,0.109375 0.109375,0 0.109375,-0.015625 0.171875,-0.234375 0.171875,-0.703125 0.375,-1.1875 0.734375,-1.1875 0.1875,0 0.296875,0.125 0.296875,0.453125 0,0.21875 -0.03125,0.328125 -0.15625,0.84375 z m 0,0"
           id="path300" />
      </g>
      <g
         id="g6684">
        <path
           d="m 4.671875,-3.703125 c 0,-0.546875 -0.265625,-0.703125 -0.4375,-0.703125 -0.25,0 -0.5,0.265625 -0.5,0.484375 0,0.125 0.046875,0.1875 0.15625,0.296875 0.21875,0.203125 0.34375,0.453125 0.34375,0.8125 0,0.421875 -0.609375,2.703125 -1.765625,2.703125 -0.515625,0 -0.75,-0.34375 -0.75,-0.875 0,-0.546875 0.28125,-1.28125 0.578125,-2.109375 0.078125,-0.171875 0.125,-0.3125 0.125,-0.5 0,-0.4375 -0.3125,-0.8125 -0.8125,-0.8125 -0.9375,0 -1.3125,1.453125 -1.3125,1.53125 0,0.109375 0.09375,0.109375 0.109375,0.109375 0.109375,0 0.109375,-0.03125 0.15625,-0.1875 0.296875,-1 0.71875,-1.234375 1.015625,-1.234375 0.078125,0 0.25,0 0.25,0.3125 0,0.25 -0.109375,0.53125 -0.171875,0.703125 -0.4375,1.15625 -0.5625,1.609375 -0.5625,2.046875 0,1.078125 0.875,1.234375 1.328125,1.234375 1.671875,0 2.25,-3.296875 2.25,-3.8125 z m 0,0"
           id="path1845" />
      </g>
      <g
         id="g9969">
        <path
           d="M 3.875,-2.765625 1.890625,-4.75 C 1.765625,-4.875 1.75,-4.890625 1.671875,-4.890625 1.5625,-4.890625 1.46875,-4.8125 1.46875,-4.6875 c 0,0.0625 0.015625,0.078125 0.125,0.1875 l 2,2 -2,2.015625 c -0.109375,0.109375 -0.125,0.125 -0.125,0.1875 0,0.125 0.09375,0.203125 0.203125,0.203125 0.078125,0 0.09375,-0.015625 0.21875,-0.140625 L 3.875,-2.21875 l 2.0625,2.0625 c 0.015625,0.015625 0.078125,0.0625 0.140625,0.0625 0.125,0 0.203125,-0.078125 0.203125,-0.203125 0,-0.015625 0,-0.046875 -0.03125,-0.109375 C 6.234375,-0.421875 4.65625,-1.984375 4.15625,-2.5 l 1.828125,-1.8125 c 0.046875,-0.0625 0.203125,-0.1875 0.25,-0.25 0,-0.015625 0.046875,-0.0625 0.046875,-0.125 0,-0.125 -0.078125,-0.203125 -0.203125,-0.203125 C 6,-4.890625 5.96875,-4.859375 5.859375,-4.75 Z m 0,0"
           id="path643" />
      </g>
    </g>
    <g
       id="g6500">
      <g
         id="g3746">
        <path
           d="M 7.671875,-8.5625 C 7.5,-8.40625 6.96875,-7.90625 6.96875,-7.703125 c 0,0.140625 0.125,0.265625 0.28125,0.265625 0.125,0 0.1875,-0.078125 0.28125,-0.21875 0.34375,-0.4375 0.734375,-0.703125 1.0625,-0.890625 0.140625,-0.09375 0.234375,-0.125 0.234375,-0.28125 0,-0.140625 -0.109375,-0.203125 -0.1875,-0.28125 C 8.234375,-9.375 8.140625,-9.765625 8.09375,-9.9375 8.046875,-10.0625 8,-10.234375 7.796875,-10.234375 c -0.078125,0 -0.25,0.0625 -0.25,0.28125 0,0.125 0.078125,0.46875 0.359375,0.859375 H 3.078125 c -0.234375,0 -0.484375,0 -0.484375,0.265625 0,0.265625 0.265625,0.265625 0.484375,0.265625 z m 0,0"
           id="path235" />
      </g>
      <g
         id="g2253">
        <path
           d="M 2.953125,-4.203125 C 2.984375,-4.28125 3.34375,-5 3.875,-5.46875 c 0.375,-0.34375 0.859375,-0.5625 1.421875,-0.5625 0.5625,0 0.765625,0.421875 0.765625,1 0,0.8125 -0.578125,2.453125 -0.875,3.21875 -0.125,0.34375 -0.203125,0.53125 -0.203125,0.796875 0,0.640625 0.453125,1.15625 1.140625,1.15625 1.328125,0 1.828125,-2.109375 1.828125,-2.1875 C 7.953125,-2.125 7.90625,-2.1875 7.8125,-2.1875 c -0.125,0 -0.140625,0.046875 -0.203125,0.296875 -0.34375,1.171875 -0.875,1.75 -1.4375,1.75 -0.140625,0 -0.375,-0.015625 -0.375,-0.46875 0,-0.359375 0.15625,-0.796875 0.234375,-1 C 6.328125,-2.390625 6.921875,-4 6.921875,-4.8125 c 0,-0.875 -0.5,-1.515625 -1.59375,-1.515625 -1.265625,0 -1.9375,0.90625 -2.203125,1.265625 C 3.078125,-5.875 2.5,-6.328125 1.859375,-6.328125 c -0.453125,0 -0.765625,0.28125 -1.015625,0.765625 -0.25,0.515625 -0.453125,1.375 -0.453125,1.4375 0,0.046875 0.046875,0.125 0.15625,0.125 0.109375,0 0.125,-0.015625 0.21875,-0.34375 0.21875,-0.875 0.484375,-1.6875 1.0625,-1.6875 0.328125,0 0.4375,0.21875 0.4375,0.65625 0,0.3125 -0.140625,0.875 -0.25,1.3125 L 1.625,-2.515625 c -0.0625,0.28125 -0.21875,0.921875 -0.296875,1.1875 -0.09375,0.359375 -0.25,1.046875 -0.25,1.109375 0,0.203125 0.15625,0.359375 0.375,0.359375 0.171875,0 0.375,-0.078125 0.484375,-0.296875 0.03125,-0.078125 0.15625,-0.578125 0.234375,-0.859375 l 0.3125,-1.296875 z m 0,0"
           id="path8919" />
      </g>
      <g
         id="g1683">
        <path
           d="m 6.5625,-5.359375 c 0,-0.90625 -0.46875,-0.96875 -0.578125,-0.96875 -0.34375,0 -0.65625,0.34375 -0.65625,0.640625 0,0.171875 0.09375,0.265625 0.15625,0.328125 C 5.625,-5.234375 6,-4.84375 6,-4.109375 6,-3.5 5.140625,-0.140625 3.40625,-0.140625 c -0.875,0 -1.046875,-0.734375 -1.046875,-1.265625 0,-0.71875 0.34375,-1.71875 0.71875,-2.75 C 3.3125,-4.75 3.375,-4.890625 3.375,-5.171875 c 0,-0.609375 -0.4375,-1.15625 -1.140625,-1.15625 -1.3125,0 -1.84375,2.078125 -1.84375,2.203125 0,0.046875 0.046875,0.125 0.15625,0.125 C 0.671875,-4 0.6875,-4.0625 0.75,-4.265625 1.09375,-5.5 1.65625,-6.03125 2.1875,-6.03125 c 0.140625,0 0.375,0 0.375,0.46875 0,0.375 -0.15625,0.78125 -0.375,1.328125 -0.6875,1.84375 -0.6875,2.28125 -0.6875,2.625 0,0.3125 0.046875,0.90625 0.5,1.3125 0.515625,0.4375 1.234375,0.4375 1.359375,0.4375 2.375,0 3.203125,-4.6875 3.203125,-5.5 z m 0,0"
           id="path2607" />
      </g>
      <g
         id="g8701">
        <path
           d="M 5.578125,-3.984375 2.71875,-6.84375 c -0.1875,-0.171875 -0.203125,-0.203125 -0.328125,-0.203125 -0.140625,0 -0.28125,0.140625 -0.28125,0.296875 0,0.09375 0.03125,0.125 0.1875,0.28125 l 2.859375,2.890625 -2.859375,2.875 c -0.15625,0.15625 -0.1875,0.1875 -0.1875,0.28125 0,0.15625 0.140625,0.296875 0.28125,0.296875 0.125,0 0.140625,-0.03125 0.328125,-0.203125 L 5.5625,-3.1875 8.53125,-0.21875 C 8.5625,-0.203125 8.65625,-0.125 8.75,-0.125 c 0.171875,0 0.28125,-0.140625 0.28125,-0.296875 0,-0.015625 0,-0.078125 -0.03125,-0.15625 -0.015625,-0.03125 -2.296875,-2.28125 -3.015625,-3 l 2.625,-2.625 c 0.0625,-0.09375 0.28125,-0.28125 0.359375,-0.359375 0.015625,-0.03125 0.0625,-0.09375 0.0625,-0.1875 0,-0.15625 -0.109375,-0.296875 -0.28125,-0.296875 -0.109375,0 -0.171875,0.0625 -0.328125,0.21875 z m 0,0"
           id="path5475" />
      </g>
    </g>
    <g
       id="g5080">
      <g
         id="g6786">
        <path
           d="M 6.390625,-7.140625 C 6.25,-7 5.8125,-6.59375 5.8125,-6.421875 c 0,0.125 0.109375,0.234375 0.21875,0.234375 0.109375,0 0.15625,-0.078125 0.25,-0.203125 0.28125,-0.34375 0.609375,-0.578125 0.875,-0.734375 0.125,-0.078125 0.203125,-0.109375 0.203125,-0.234375 0,-0.109375 -0.09375,-0.171875 -0.15625,-0.234375 C 6.859375,-7.8125 6.78125,-8.140625 6.734375,-8.28125 6.703125,-8.375 6.671875,-8.515625 6.5,-8.515625 c -0.0625,0 -0.21875,0.046875 -0.21875,0.21875 0,0.109375 0.078125,0.390625 0.3125,0.71875 H 2.5625 c -0.203125,0 -0.40625,0 -0.40625,0.234375 0,0.203125 0.21875,0.203125 0.40625,0.203125 z m 0,0"
           id="path6173" />
      </g>
      <g
         id="g2326">
        <path
           d="M 3.34375,-4.5 C 3.171875,-5.09375 2.515625,-5.40625 1.875,-5.40625 c -0.4375,0 -0.78125,0.25 -1.03125,0.6875 -0.3125,0.46875 -0.46875,1.125 -0.46875,1.1875 0,0.15625 0.1875,0.15625 0.296875,0.15625 0.125,0 0.171875,0 0.234375,-0.0625 C 0.9375,-3.453125 0.9375,-3.484375 1,-3.78125 c 0.25,-0.921875 0.5,-1.1875 0.8125,-1.1875 0.1875,0 0.28125,0.109375 0.28125,0.4375 0,0.203125 -0.046875,0.390625 -0.171875,0.875 C 1.84375,-3.328125 1.71875,-2.84375 1.65625,-2.578125 L 1.234375,-0.90625 c -0.046875,0.171875 -0.09375,0.390625 -0.09375,0.46875 0,0.265625 0.1875,0.53125 0.5625,0.53125 0.609375,0 0.765625,-0.546875 0.84375,-0.90625 C 2.671875,-1.25 2.765625,-1.640625 2.875,-2.15625 2.921875,-2.3125 3.234375,-3.53125 3.25,-3.578125 3.265625,-3.640625 3.59375,-4.1875 4,-4.5 c 0.328125,-0.265625 0.71875,-0.46875 1.21875,-0.46875 0.3125,0 0.609375,0.109375 0.609375,0.703125 0,0.6875 -0.53125,2.078125 -0.765625,2.671875 -0.125,0.328125 -0.15625,0.40625 -0.15625,0.609375 0,0.703125 0.6875,1.078125 1.34375,1.078125 1.265625,0 1.859375,-1.625 1.859375,-1.859375 0,-0.171875 -0.171875,-0.171875 -0.28125,-0.171875 -0.140625,0 -0.21875,0 -0.28125,0.15625 -0.390625,1.328125 -1.03125,1.453125 -1.21875,1.453125 -0.09375,0 -0.203125,0 -0.203125,-0.25 0,-0.28125 0.109375,-0.578125 0.234375,-0.875 0.1875,-0.5 0.734375,-1.890625 0.734375,-2.5625 0,-1.09375 -0.90625,-1.390625 -1.78125,-1.390625 -0.25,0 -1.109375,0 -1.96875,0.90625 z m 0,0"
           id="path359" />
      </g>
      <g
         id="g9818">
        <path
           d="m 6.46875,-4.328125 c 0,-1.09375 -0.796875,-1.09375 -0.8125,-1.09375 C 5.171875,-5.421875 4.75,-4.90625 4.75,-4.5 c 0,0.328125 0.25,0.46875 0.359375,0.53125 0.5,0.296875 0.59375,0.515625 0.59375,0.75 0,0.265625 -0.6875,2.890625 -2.09375,2.890625 -0.859375,0 -0.859375,-0.71875 -0.859375,-0.9375 0,-0.6875 0.328125,-1.5625 0.71875,-2.53125 0.09375,-0.234375 0.125,-0.34375 0.125,-0.53125 0,-0.6875 -0.6875,-1.078125 -1.34375,-1.078125 -1.265625,0 -1.875,1.625 -1.875,1.875 0,0.15625 0.1875,0.15625 0.296875,0.15625 0.140625,0 0.21875,0 0.265625,-0.15625 0.390625,-1.28125 1.015625,-1.4375 1.234375,-1.4375 0.09375,0 0.203125,0 0.203125,0.25 0,0.265625 -0.140625,0.625 -0.171875,0.71875 -0.546875,1.375 -0.734375,1.921875 -0.734375,2.5 0,1.265625 1.03125,1.59375 2.0625,1.59375 2.0625,0 2.9375,-3.390625 2.9375,-4.421875 z m 0,0"
           id="path8653" />
      </g>
      <g
         id="g9421">
        <path
           d="m 4.65625,-3.328125 -2.390625,-2.375 C 2.109375,-5.84375 2.09375,-5.875 2,-5.875 c -0.125,0 -0.25,0.109375 -0.25,0.25 0,0.078125 0.03125,0.109375 0.15625,0.234375 l 2.390625,2.40625 -2.390625,2.40625 C 1.78125,-0.453125 1.75,-0.4375 1.75,-0.34375 c 0,0.125 0.125,0.234375 0.25,0.234375 0.09375,0 0.109375,-0.015625 0.265625,-0.171875 l 2.375,-2.375 2.46875,2.484375 c 0.03125,0 0.109375,0.0625 0.1875,0.0625 0.140625,0 0.234375,-0.109375 0.234375,-0.234375 0,-0.03125 0,-0.078125 -0.03125,-0.140625 C 7.484375,-0.5 5.578125,-2.375 4.984375,-2.984375 l 2.1875,-2.1875 C 7.234375,-5.25 7.40625,-5.40625 7.46875,-5.46875 7.484375,-5.5 7.53125,-5.546875 7.53125,-5.625 c 0,-0.140625 -0.09375,-0.25 -0.234375,-0.25 -0.09375,0 -0.15625,0.046875 -0.28125,0.1875 z m 0,0"
           id="path3876" />
      </g>
    </g>
  </defs>
  <metadata
     id="metadata5">
    <rdf:RDF>
      <cc:Work
         rdf:about="">
        <dc:format>image/svg+xml</dc:format>
        <dc:type
           rdf:resource="http://purl.org/dc/dcmitype/StillImage" />
        <dc:title />
      </cc:Work>
    </rdf:RDF>
  </metadata>
  <g
     style="display:inline"
     inkscape:label="Layer 2"
     id="layer2"
     inkscape:groupmode="layer">
    <path
       inkscape:connector-curvature="0"
       id="path5489"
       d="M 225.25878,84.150802 A 100,100 0 0 1 241.56626,190.19478 100,100 0 0 1 140.06802,249.50556 100,100 0 0 1 56.02047,184.17379"
       style="fill:none;fill-opacity:0.11522636;stroke:#000000;stroke-width:0.5;stroke-miterlimit:4;stroke-dasharray:none;stroke-dashoffset:0;stroke-opacity:1" />
    <path
       inkscape:connector-curvature="0"
       id="path5403"
       d="m 158.94414,154.47241 a 10,10 0 0 1 -2.55646,3.22159 10,10 0 0 1 -1.59962,1.08521"
       style="fill:none;fill-opacity:0.11522636;stroke:#000000;stroke-width:0.5;stroke-miterlimit:4;stroke-dasharray:none;stroke-dashoffset:0;stroke-opacity:1" />
    <path
       inkscape:connector-curvature="0"
       id="path5034"
       d="m 150,149.99999 39.30782,72.06721"
       style="fill:none;stroke:#000000;stroke-width:1px;stroke-linecap:butt;stroke-linejoin:miter;stroke-opacity:1;marker-end:url(#marker5044)" />
    <path
       inkscape:connector-curvature="0"
       id="path5080"
       d="m 150,150 87.79175,-47.88121"
       style="fill:none;stroke:#000000;stroke-width:1;stroke-linecap:butt;stroke-linejoin:miter;stroke-miterlimit:4;stroke-dasharray:none;stroke-opacity:1;marker-end:url(#marker5138)" />
    <path
       inkscape:connector-curvature="0"
       id="path5128"
       d="m 150,150 50.13325,-27.34541"
       style="fill:none;stroke:#000000;stroke-width:1px;stroke-linecap:butt;stroke-linejoin:miter;stroke-opacity:1;marker-end:url(#marker5138)" />
    <path
       inkscape:connector-curvature="0"
       id="path5230"
       d="m 200.13325,122.65459 39.3091,72.06749 -50.13453,27.34512"
       style="fill:none;stroke:#000000;stroke-width:0.5;stroke-linecap:butt;stroke-linejoin:miter;stroke-miterlimit:4;stroke-dasharray:2, 2;stroke-dashoffset:0;stroke-opacity:1" />
    <path
       inkscape:connector-curvature="0"
       id="path5405"
       d="m 150,150 89.44235,44.72208"
       style="fill:none;stroke:#000000;stroke-width:1px;stroke-linecap:butt;stroke-linejoin:miter;stroke-opacity:1;marker-end:url(#marker5246)" />
    <path
       inkscape:connector-curvature="0"
       id="path5419"
       d="M 150,150 62.211529,197.88462"
       style="fill:none;stroke:#000000;stroke-width:1px;stroke-linecap:butt;stroke-linejoin:miter;stroke-opacity:1;marker-end:url(#marker5429)" />
    <path
       inkscape:connector-curvature="0"
       id="path5605"
       d="m 150,150 47.88374,87.79035"
       style="fill:none;stroke:#000000;stroke-width:1px;stroke-linecap:butt;stroke-linejoin:miter;stroke-opacity:1;marker-end:url(#marker5501)" />
    <g
       inkscape:label=""
       transform="translate(239.52185,89.47474)"
       id="g3">
      <g
         fill="#000000"
         fill-opacity="1"
         id="g5-1-1"
         transform="matrix(1.33333,0,0,1.33333,-3.15733,-2.6645)">
        <g
           id="use4-1-1"
           transform="translate(2.408,10.514)">
          <path
             d="M 6.390625,-7.140625 C 6.25,-7 5.8125,-6.59375 5.8125,-6.421875 c 0,0.125 0.109375,0.234375 0.21875,0.234375 0.109375,0 0.15625,-0.078125 0.25,-0.203125 0.28125,-0.34375 0.609375,-0.578125 0.875,-0.734375 0.125,-0.078125 0.203125,-0.109375 0.203125,-0.234375 0,-0.109375 -0.09375,-0.171875 -0.15625,-0.234375 C 6.859375,-7.8125 6.78125,-8.140625 6.734375,-8.28125 6.703125,-8.375 6.671875,-8.515625 6.5,-8.515625 c -0.0625,0 -0.21875,0.046875 -0.21875,0.21875 0,0.109375 0.078125,0.390625 0.3125,0.71875 H 2.5625 c -0.203125,0 -0.40625,0 -0.40625,0.234375 0,0.203125 0.21875,0.203125 0.40625,0.203125 z m 0,0"
             id="path9-1-1" />
        </g>
      </g>
      <g
         fill="#000000"
         fill-opacity="1"
         id="g6-1-1"
         transform="matrix(1.33333,0,0,1.33333,-3.15733,-2.6645)">
        <g
           id="use5-1-1"
           transform="translate(1.993,10.68)">
          <path
             d="M 3.34375,-4.5 C 3.171875,-5.09375 2.515625,-5.40625 1.875,-5.40625 c -0.4375,0 -0.78125,0.25 -1.03125,0.6875 -0.3125,0.46875 -0.46875,1.125 -0.46875,1.1875 0,0.15625 0.1875,0.15625 0.296875,0.15625 0.125,0 0.171875,0 0.234375,-0.0625 C 0.9375,-3.453125 0.9375,-3.484375 1,-3.78125 c 0.25,-0.921875 0.5,-1.1875 0.8125,-1.1875 0.1875,0 0.28125,0.109375 0.28125,0.4375 0,0.203125 -0.046875,0.390625 -0.171875,0.875 C 1.84375,-3.328125 1.71875,-2.84375 1.65625,-2.578125 L 1.234375,-0.90625 c -0.046875,0.171875 -0.09375,0.390625 -0.09375,0.46875 0,0.265625 0.1875,0.53125 0.5625,0.53125 0.609375,0 0.765625,-0.546875 0.84375,-0.90625 C 2.671875,-1.25 2.765625,-1.640625 2.875,-2.15625 2.921875,-2.3125 3.234375,-3.53125 3.25,-3.578125 3.265625,-3.640625 3.59375,-4.1875 4,-4.5 c 0.328125,-0.265625 0.71875,-0.46875 1.21875,-0.46875 0.3125,0 0.609375,0.109375 0.609375,0.703125 0,0.6875 -0.53125,2.078125 -0.765625,2.671875 -0.125,0.328125 -0.15625,0.40625 -0.15625,0.609375 0,0.703125 0.6875,1.078125 1.34375,1.078125 1.265625,0 1.859375,-1.625 1.859375,-1.859375 0,-0.171875 -0.171875,-0.171875 -0.28125,-0.171875 -0.140625,0 -0.21875,0 -0.28125,0.15625 -0.390625,1.328125 -1.03125,1.453125 -1.21875,1.453125 -0.09375,0 -0.203125,0 -0.203125,-0.25 0,-0.28125 0.109375,-0.578125 0.234375,-0.875 0.1875,-0.5 0.734375,-1.890625 0.734375,-2.5625 0,-1.09375 -0.90625,-1.390625 -1.78125,-1.390625 -0.25,0 -1.109375,0 -1.96875,0.90625 z m 0,0"
             id="path10-1-1" />
        </g>
      </g>
      <g
         fill="#000000"
         fill-opacity="1"
         id="g7-1-1"
         transform="matrix(1.33333,0,0,1.33333,-3.15733,-2.6645)">
        <g
           id="use6-1-1"
           transform="translate(13.173,10.68)">
          <path
             d="m 4.65625,-3.328125 -2.390625,-2.375 C 2.109375,-5.84375 2.09375,-5.875 2,-5.875 c -0.125,0 -0.25,0.109375 -0.25,0.25 0,0.078125 0.03125,0.109375 0.15625,0.234375 l 2.390625,2.40625 -2.390625,2.40625 C 1.78125,-0.453125 1.75,-0.4375 1.75,-0.34375 c 0,0.125 0.125,0.234375 0.25,0.234375 0.09375,0 0.109375,-0.015625 0.265625,-0.171875 l 2.375,-2.375 2.46875,2.484375 c 0.03125,0 0.109375,0.0625 0.1875,0.0625 0.140625,0 0.234375,-0.109375 0.234375,-0.234375 0,-0.03125 0,-0.078125 -0.03125,-0.140625 C 7.484375,-0.5 5.578125,-2.375 4.984375,-2.984375 l 2.1875,-2.1875 C 7.234375,-5.25 7.40625,-5.40625 7.46875,-5.46875 7.484375,-5.5 7.53125,-5.546875 7.53125,-5.625 c 0,-0.140625 -0.09375,-0.25 -0.234375,-0.25 -0.09375,0 -0.15625,0.046875 -0.28125,0.1875 z m 0,0"
             id="path11-1-1" />
        </g>
      </g>
      <g
         fill="#000000"
         fill-opacity="1"
         id="g8-1-1"
         transform="matrix(1.33333,0,0,1.33333,-3.15733,-2.6645)">
        <g
           id="use7-1-1"
           transform="translate(24.891001,10.514)">
          <path
             d="M 6.390625,-7.140625 C 6.25,-7 5.8125,-6.59375 5.8125,-6.421875 c 0,0.125 0.109375,0.234375 0.21875,0.234375 0.109375,0 0.15625,-0.078125 0.25,-0.203125 0.28125,-0.34375 0.609375,-0.578125 0.875,-0.734375 0.125,-0.078125 0.203125,-0.109375 0.203125,-0.234375 0,-0.109375 -0.09375,-0.171875 -0.15625,-0.234375 C 6.859375,-7.8125 6.78125,-8.140625 6.734375,-8.28125 6.703125,-8.375 6.671875,-8.515625 6.5,-8.515625 c -0.0625,0 -0.21875,0.046875 -0.21875,0.21875 0,0.109375 0.078125,0.390625 0.3125,0.71875 H 2.5625 c -0.203125,0 -0.40625,0 -0.40625,0.234375 0,0.203125 0.21875,0.203125 0.40625,0.203125 z m 0,0"
             id="path12-1-1" />
        </g>
      </g>
      <g
         fill="#000000"
         fill-opacity="1"
         id="g9-1-1"
         transform="matrix(1.33333,0,0,1.33333,-3.15733,-2.6645)">
        <g
           id="use8-1-1"
           transform="translate(25.128,10.68)">
          <path
             d="m 6.46875,-4.328125 c 0,-1.09375 -0.796875,-1.09375 -0.8125,-1.09375 C 5.171875,-5.421875 4.75,-4.90625 4.75,-4.5 c 0,0.328125 0.25,0.46875 0.359375,0.53125 0.5,0.296875 0.59375,0.515625 0.59375,0.75 0,0.265625 -0.6875,2.890625 -2.09375,2.890625 -0.859375,0 -0.859375,-0.71875 -0.859375,-0.9375 0,-0.6875 0.328125,-1.5625 0.71875,-2.53125 0.09375,-0.234375 0.125,-0.34375 0.125,-0.53125 0,-0.6875 -0.6875,-1.078125 -1.34375,-1.078125 -1.265625,0 -1.875,1.625 -1.875,1.875 0,0.15625 0.1875,0.15625 0.296875,0.15625 0.140625,0 0.21875,0 0.265625,-0.15625 0.390625,-1.28125 1.015625,-1.4375 1.234375,-1.4375 0.09375,0 0.203125,0 0.203125,0.25 0,0.265625 -0.140625,0.625 -0.171875,0.71875 -0.546875,1.375 -0.734375,1.921875 -0.734375,2.5 0,1.265625 1.03125,1.59375 2.0625,1.59375 2.0625,0 2.9375,-3.390625 2.9375,-4.421875 z m 0,0"
             id="path13-1-1" />
        </g>
      </g>
    </g>
  </g>
  <g
     inkscape:label="Layer 3"
     id="layer3"
     inkscape:groupmode="layer"
     style="display:inline">
    <g
       id="g5681"
       transform="matrix(0.8,0,0,0.8,-82.370133,174.69706)">
      <g
         word-spacing="normal"
         letter-spacing="normal"
         font-size-adjust="none"
         font-stretch="normal"
         font-weight="normal"
         font-variant="normal"
         font-style="normal"
         stroke-miterlimit="10.433"
         xml:space="preserve"
         transform="matrix(0.42857143,0,0,-0.42857143,-75,225)"
         id="content"
         style="font-style:normal;font-variant:normal;font-weight:normal;font-stretch:normal;letter-spacing:normal;word-spacing:normal;text-anchor:start;fill:none;fill-opacity:1;fill-rule:evenodd;stroke:#000000;stroke-linecap:butt;stroke-linejoin:miter;stroke-miterlimit:10.433;stroke-dasharray:none;stroke-dashoffset:0;stroke-opacity:1"><path
           id="path5670"
           d="m 481.07,436.56 -0.07,-0.06 -0.07,-0.07 -0.08,-0.07 -0.08,-0.07 -0.08,-0.08 -0.09,-0.08 -0.09,-0.08 -0.1,-0.09 -0.09,-0.09 -0.1,-0.09 -0.19,-0.19 -0.2,-0.2 -0.19,-0.2 -0.09,-0.1 -0.09,-0.11 -0.09,-0.1 -0.08,-0.1 -0.08,-0.11 -0.08,-0.1 -0.07,-0.1 -0.06,-0.1 -0.06,-0.1 -0.06,-0.1 -0.04,-0.09 -0.04,-0.1 -0.03,-0.09 -0.02,-0.09 -0.02,-0.09 v -0.08 c 0,-0.5 0.5,-1 1,-1 0.45,0 0.7,0.35 0.95,0.65 0.59,0.75 1.73,2.14 3.94,3.24 0.34,0.2 0.84,0.45 0.84,1.04 0,0.5 -0.34,0.75 -0.7,1 -1.1,0.75 -1.64,1.64 -2.05,2.83 -0.09,0.45 -0.3,1.11 -0.98,1.11 -0.71,0 -1,-0.66 -1,-1.05 0,-0.25 0.39,-1.84 1.18,-2.89 h -16.78 c -0.84,0 -1.75,0 -1.75,-1 0,-1 0.91,-1 1.75,-1 z"
           inkscape:connector-curvature="0"
           style="fill:#000000;stroke-width:0" /><path
           id="path5672"
           d="m 482.47,424.23 v 0.21 l -0.01,0.2 -0.01,0.2 -0.01,0.19 -0.03,0.18 -0.02,0.18 -0.03,0.17 -0.03,0.17 -0.04,0.16 -0.04,0.15 -0.04,0.15 -0.05,0.14 -0.05,0.14 -0.05,0.13 -0.05,0.13 -0.06,0.12 -0.06,0.12 -0.06,0.11 -0.07,0.11 -0.06,0.1 -0.07,0.1 -0.07,0.09 -0.07,0.09 -0.08,0.09 -0.07,0.08 -0.08,0.07 -0.15,0.15 -0.16,0.12 -0.15,0.12 -0.16,0.1 -0.16,0.08 -0.15,0.08 -0.15,0.06 -0.15,0.06 -0.14,0.04 -0.13,0.04 -0.13,0.03 -0.11,0.02 -0.11,0.02 -0.09,0.01 -0.08,0.01 -0.06,0.01 h -0.05 -0.02 -0.01 -0.01 -0.01 c -1.98,0 -3.78,-2.08 -3.78,-3.78 0,-1.39 1.05,-1.98 1.5,-2.23 2.08,-1.25 2.49,-2.16 2.49,-3.14 0,-1.1 -2.9,-12.02 -8.72,-12.02 -3.6,0 -3.6,3 -3.6,3.89 0,2.89 1.41,6.53 3,10.52 0.39,1 0.55,1.43 0.55,2.23 0,2.89 -2.89,4.48 -5.64,4.48 -5.28,0 -7.77,-6.76 -7.77,-7.76 0,-0.7 0.75,-0.7 1.21,-0.7 0.59,0 0.93,0 1.14,0.65 1.59,5.38 4.23,6.02 5.12,6.02 0.36,0 0.86,0 0.86,-1.05 0,-1.14 -0.61,-2.58 -0.75,-2.98 -2.3,-5.78 -3.05,-8.02 -3.05,-10.41 0,-5.28 4.29,-6.69 8.63,-6.69 8.56,0 12.2,14.16 12.2,18.44 z"
           inkscape:connector-curvature="0"
           style="fill:#000000;stroke-width:0" /><path
           id="path5674"
           d="m 516.05,420.04 -9.95,9.92 c -0.61,0.6 -0.7,0.71 -1.11,0.71 -0.48,0 -0.98,-0.46 -0.98,-1 0,-0.36 0.09,-0.46 0.64,-1 l 9.97,-10.02 -9.97,-10.01 c -0.55,-0.55 -0.64,-0.64 -0.64,-1 0,-0.55 0.5,-0.99 0.98,-0.99 0.41,0 0.5,0.1 1.11,0.69 l 9.91,9.92 10.31,-10.31 c 0.11,-0.05 0.45,-0.3 0.75,-0.3 0.59,0 1,0.44 1,0.99 0,0.11 0,0.31 -0.16,0.56 -0.04,0.09 -7.96,7.92 -10.45,10.45 l 9.11,9.13 c 0.25,0.29 1,0.93 1.25,1.23 0.05,0.11 0.25,0.3 0.25,0.66 0,0.54 -0.41,1 -1,1 -0.39,0 -0.59,-0.21 -1.14,-0.75 z"
           inkscape:connector-curvature="0"
           style="fill:#000000;stroke-width:0" /><path
           id="path5676"
           d="m 574.79,436.56 -0.07,-0.06 -0.07,-0.07 -0.08,-0.07 -0.08,-0.07 -0.08,-0.08 -0.09,-0.08 -0.09,-0.08 -0.1,-0.09 -0.09,-0.09 -0.1,-0.09 -0.19,-0.19 -0.2,-0.2 -0.19,-0.2 -0.09,-0.1 -0.09,-0.11 -0.09,-0.1 -0.08,-0.1 -0.08,-0.11 -0.08,-0.1 -0.07,-0.1 -0.07,-0.1 -0.05,-0.1 -0.06,-0.1 -0.04,-0.09 -0.04,-0.1 -0.03,-0.09 -0.03,-0.09 -0.01,-0.09 v -0.08 c 0,-0.5 0.5,-1 1,-1 0.45,0 0.7,0.35 0.95,0.65 0.59,0.75 1.73,2.14 3.94,3.24 0.34,0.2 0.84,0.45 0.84,1.04 0,0.5 -0.34,0.75 -0.7,1 -1.1,0.75 -1.64,1.64 -2.05,2.83 -0.09,0.45 -0.3,1.11 -0.98,1.11 -0.71,0 -1,-0.66 -1,-1.05 0,-0.25 0.39,-1.84 1.18,-2.89 h -16.78 c -0.84,0 -1.75,0 -1.75,-1 0,-1 0.91,-1 1.75,-1 z"
           inkscape:connector-curvature="0"
           style="fill:#000000;stroke-width:0" /><path
           id="path5678"
           d="m 560.43,424.93 -0.07,0.23 -0.08,0.23 -0.1,0.21 -0.1,0.21 -0.12,0.2 -0.12,0.2 -0.14,0.18 -0.14,0.18 -0.16,0.18 -0.16,0.16 -0.17,0.16 -0.17,0.15 -0.19,0.15 -0.19,0.13 -0.2,0.13 -0.2,0.13 -0.22,0.11 -0.21,0.11 -0.22,0.1 -0.23,0.09 -0.23,0.09 -0.23,0.08 -0.24,0.07 -0.24,0.06 -0.24,0.06 -0.25,0.05 -0.25,0.04 -0.25,0.03 -0.25,0.03 -0.25,0.02 -0.25,0.01 h -0.25 c -1.84,0 -3.25,-1.04 -4.34,-2.84 -1.25,-1.98 -1.9,-4.67 -1.9,-4.92 0,-0.7 0.75,-0.7 1.21,-0.7 0.54,0 0.73,0 0.98,0.25 0.11,0.09 0.11,0.2 0.41,1.45 1,3.87 2.09,4.97 3.39,4.97 0.73,0 1.14,-0.49 1.14,-1.85 0,-0.84 -0.2,-1.64 -0.7,-3.62 -0.35,-1.41 -0.85,-3.39 -1.1,-4.49 l -1.8,-6.98 c -0.13,-0.69 -0.38,-1.64 -0.38,-1.98 0,-1.05 0.79,-2.21 2.34,-2.21 2.59,0 3.19,2.3 3.53,3.8 0.5,1.84 0.91,3.44 1.39,5.58 0.2,0.64 1.45,5.78 1.55,5.92 0.04,0.31 1.45,2.55 3.09,3.89 1.39,1.09 3.03,1.94 5.13,1.94 1.29,0 2.5,-0.49 2.5,-2.94 0,-2.83 -2.19,-8.66 -3.15,-11.16 -0.54,-1.34 -0.7,-1.68 -0.7,-2.54 0,-2.88 2.89,-4.49 5.64,-4.49 5.28,0 7.77,6.78 7.77,7.78 0,0.71 -0.75,0.71 -1.19,0.71 -0.61,0 -0.95,0 -1.15,-0.66 -1.65,-5.53 -4.33,-6.03 -5.13,-6.03 -0.36,0 -0.84,0 -0.84,1.05 0,1.15 0.48,2.39 0.98,3.64 0.8,2.04 3.09,7.87 3.09,10.65 0,4.6 -3.84,5.78 -7.42,5.78 -1.05,0 -4.68,0 -8.22,-3.78 z"
           inkscape:connector-curvature="0"
           style="fill:#000000;stroke-width:0" /></g>
    </g>
    <g
       id="g5903"
       transform="matrix(0.8,0,0,0.8,104.81883,215.49561)">
      <g
         word-spacing="normal"
         letter-spacing="normal"
         font-size-adjust="none"
         font-stretch="normal"
         font-weight="normal"
         font-variant="normal"
         font-style="normal"
         stroke-miterlimit="10.433"
         xml:space="preserve"
         transform="matrix(0.42857143,0,0,-0.42857143,-75,225)"
         id="g5901"
         style="font-style:normal;font-variant:normal;font-weight:normal;font-stretch:normal;letter-spacing:normal;word-spacing:normal;text-anchor:start;fill:none;fill-opacity:1;fill-rule:evenodd;stroke:#000000;stroke-linecap:butt;stroke-linejoin:miter;stroke-miterlimit:10.433;stroke-dasharray:none;stroke-dashoffset:0;stroke-opacity:1"><path
           id="path5895"
           d="m 481.07,436.56 -0.07,-0.06 -0.07,-0.07 -0.08,-0.07 -0.08,-0.07 -0.08,-0.08 -0.09,-0.08 -0.09,-0.08 -0.1,-0.09 -0.09,-0.09 -0.1,-0.09 -0.19,-0.19 -0.2,-0.2 -0.19,-0.2 -0.09,-0.1 -0.09,-0.11 -0.09,-0.1 -0.08,-0.1 -0.08,-0.11 -0.08,-0.1 -0.07,-0.1 -0.06,-0.1 -0.06,-0.1 -0.06,-0.1 -0.04,-0.09 -0.04,-0.1 -0.03,-0.09 -0.02,-0.09 -0.02,-0.09 v -0.08 c 0,-0.5 0.5,-1 1,-1 0.45,0 0.7,0.35 0.95,0.65 0.59,0.75 1.73,2.14 3.94,3.24 0.34,0.2 0.84,0.45 0.84,1.04 0,0.5 -0.34,0.75 -0.7,1 -1.1,0.75 -1.64,1.64 -2.05,2.83 -0.09,0.45 -0.3,1.11 -0.98,1.11 -0.71,0 -1,-0.66 -1,-1.05 0,-0.25 0.39,-1.84 1.18,-2.89 h -16.78 c -0.84,0 -1.75,0 -1.75,-1 0,-1 0.91,-1 1.75,-1 z"
           inkscape:connector-curvature="0"
           style="fill:#000000;stroke-width:0" /><path
           id="path5897"
           d="m 482.47,424.23 v 0.21 l -0.01,0.2 -0.01,0.2 -0.01,0.19 -0.03,0.18 -0.02,0.18 -0.03,0.17 -0.03,0.17 -0.04,0.16 -0.04,0.15 -0.04,0.15 -0.05,0.14 -0.05,0.14 -0.05,0.13 -0.05,0.13 -0.06,0.12 -0.06,0.12 -0.06,0.11 -0.07,0.11 -0.06,0.1 -0.07,0.1 -0.07,0.09 -0.07,0.09 -0.08,0.09 -0.07,0.08 -0.08,0.07 -0.15,0.15 -0.16,0.12 -0.15,0.12 -0.16,0.1 -0.16,0.08 -0.15,0.08 -0.15,0.06 -0.15,0.06 -0.14,0.04 -0.13,0.04 -0.13,0.03 -0.11,0.02 -0.11,0.02 -0.09,0.01 -0.08,0.01 -0.06,0.01 h -0.05 -0.02 -0.01 -0.01 -0.01 c -1.98,0 -3.78,-2.08 -3.78,-3.78 0,-1.39 1.05,-1.98 1.5,-2.23 2.08,-1.25 2.49,-2.16 2.49,-3.14 0,-1.1 -2.9,-12.02 -8.72,-12.02 -3.6,0 -3.6,3 -3.6,3.89 0,2.89 1.41,6.53 3,10.52 0.39,1 0.55,1.43 0.55,2.23 0,2.89 -2.89,4.48 -5.64,4.48 -5.28,0 -7.77,-6.76 -7.77,-7.76 0,-0.7 0.75,-0.7 1.21,-0.7 0.59,0 0.93,0 1.14,0.65 1.59,5.38 4.23,6.02 5.12,6.02 0.36,0 0.86,0 0.86,-1.05 0,-1.14 -0.61,-2.58 -0.75,-2.98 -2.3,-5.78 -3.05,-8.02 -3.05,-10.41 0,-5.28 4.29,-6.69 8.63,-6.69 8.56,0 12.2,14.16 12.2,18.44 z"
           inkscape:connector-curvature="0"
           style="fill:#000000;stroke-width:0" /><path
           id="path5899"
           d="m 503.23,405.11 h -1.18 c -0.1,-0.77 -0.46,-2.83 -0.91,-3.18 -0.26,-0.2 -2.95,-0.2 -3.44,-0.2 h -6.42 c 3.66,3.23 4.88,4.2 6.97,5.84 2.58,2.07 4.98,4.22 4.98,7.54 0,4.21 -3.68,6.79 -8.15,6.79 -4.31,0 -7.25,-3.03 -7.25,-6.23 0,-1.78 1.5,-1.96 1.86,-1.96 0.83,0 1.84,0.6 1.84,1.85 0,0.62 -0.25,1.84 -2.06,1.84 1.08,2.47 3.45,3.24 5.09,3.24 3.49,0 5.3,-2.71 5.3,-5.53 0,-3.04 -2.16,-5.44 -3.28,-6.69 l -8.39,-8.3 c -0.36,-0.31 -0.36,-0.39 -0.36,-1.36 h 14.36 z"
           inkscape:connector-curvature="0"
           style="fill:#000000;stroke-width:0" /></g>
    </g>
    <g
       transform="matrix(0.8,0,0,0.8,153.42528,166.94558)"
       id="g6037">
      <g
         style="font-style:normal;font-variant:normal;font-weight:normal;font-stretch:normal;letter-spacing:normal;word-spacing:normal;text-anchor:start;fill:none;fill-opacity:1;fill-rule:evenodd;stroke:#000000;stroke-linecap:butt;stroke-linejoin:miter;stroke-miterlimit:10.433;stroke-dasharray:none;stroke-dashoffset:0;stroke-opacity:1"
         id="g6035"
         transform="matrix(0.42857143,0,0,-0.42857143,-75,225)"
         xml:space="preserve"
         stroke-miterlimit="10.433"
         font-style="normal"
         font-variant="normal"
         font-weight="normal"
         font-stretch="normal"
         font-size-adjust="none"
         letter-spacing="normal"
         word-spacing="normal"><path
           style="fill:#000000;stroke-width:0"
           inkscape:connector-curvature="0"
           d="m 481.38,423.14 0.47,0.11 0.48,0.12 0.48,0.14 0.48,0.15 0.49,0.16 0.48,0.18 0.48,0.19 0.47,0.2 0.47,0.22 0.47,0.23 0.46,0.24 0.45,0.25 0.43,0.27 0.43,0.28 0.42,0.29 0.4,0.3 0.39,0.31 0.37,0.32 0.36,0.34 0.33,0.35 0.32,0.35 0.29,0.37 0.28,0.38 0.25,0.39 0.22,0.4 0.2,0.41 0.17,0.42 0.15,0.43 0.11,0.44 0.08,0.45 0.05,0.46 0.02,0.47 c 0,4.28 -4.48,7.47 -11,7.47 h -14.2 c -1,0 -1.45,0 -1.45,-1 0,-0.55 0.45,-0.55 1.4,-0.55 0.1,0 1.05,0 1.89,-0.09 0.89,-0.11 1.35,-0.16 1.35,-0.8 0,-0.2 -0.05,-0.36 -0.21,-0.95 l -6.67,-26.75 c -0.5,-1.95 -0.59,-2.34 -4.53,-2.34 -0.91,0 -1.34,0 -1.34,-1 0,-0.55 0.59,-0.55 0.68,-0.55 1.41,0 4.89,0.16 6.29,0.16 1.39,0 4.93,-0.16 6.32,-0.16 0.41,0 1,0 1,1 0,0.55 -0.45,0.55 -1.39,0.55 -1.84,0 -3.25,0 -3.25,0.89 0,0.29 0.11,0.54 0.16,0.84 l 3.28,13.2 h 5.94 l -0.05,1.11 h -5.59 l 3.25,13 c 0.29,1.19 0.43,1.69 1.39,1.85 0.45,0.04 2.04,0.04 3.03,0.04 3.55,0 9.08,0 9.08,-4.93 0,-1.69 -0.8,-5.13 -2.75,-7.07 -1.28,-1.29 -3.92,-2.89 -8.41,-2.89 l 0.05,-1.11 c 4.53,0 5.42,-2.78 5.42,-4.53 0,-0.75 -0.39,-2.28 -0.69,-3.44 -0.36,-1.39 -0.79,-3.23 -0.79,-4.23 0,-5.37 5.96,-5.37 6.62,-5.37 4.23,0 5.97,5.03 5.97,5.73 0,0.59 -0.55,0.59 -0.59,0.59 -0.46,0 -0.55,-0.36 -0.65,-0.7 -1.25,-3.69 -3.39,-4.53 -4.54,-4.53 -1.64,0 -1.99,1.09 -1.99,3.05 0,1.53 0.3,4.07 0.5,5.67 0.1,0.7 0.21,1.64 0.21,2.34 0,3.83 -3.35,5.38 -4.69,5.88 z"
           id="path6021" /><path
           style="fill:#000000;stroke-width:0"
           inkscape:connector-curvature="0"
           d="m 497.57,400.95 -0.01,-0.04 -0.02,-0.05 -0.01,-0.04 -0.01,-0.05 -0.02,-0.05 -0.01,-0.06 -0.02,-0.05 -0.01,-0.05 -0.03,-0.11 -0.03,-0.11 -0.03,-0.12 -0.02,-0.1 -0.02,-0.06 -0.01,-0.05 -0.01,-0.05 -0.01,-0.05 -0.01,-0.05 -0.01,-0.04 -0.01,-0.05 -0.01,-0.04 -0.01,-0.03 v -0.04 l -0.01,-0.03 v -0.03 l -0.01,-0.02 v -0.02 -0.01 -0.01 -0.01 0 c 0,-0.77 0.62,-1.11 1.18,-1.11 0.63,0 1.18,0.45 1.36,0.76 0.18,0.32 0.46,1.43 0.63,2.16 0.17,0.66 0.55,2.27 0.76,3.14 0.21,0.77 0.43,1.53 0.6,2.33 0.37,1.44 0.45,1.7 1.45,3.14 0.99,1.39 2.63,3.2 5.24,3.2 2.01,0 2.04,-1.78 2.04,-2.44 0,-2.09 -1.48,-5.95 -2.04,-7.42 -0.4,-0.98 -0.54,-1.29 -0.54,-1.89 0,-1.84 1.55,-2.98 3.32,-2.98 3.48,0 5.01,4.79 5.01,5.33 0,0.45 -0.45,0.45 -0.54,0.45 -0.5,0 -0.54,-0.2 -0.68,-0.59 -0.79,-2.79 -2.29,-4.22 -3.68,-4.22 -0.74,0 -0.88,0.48 -0.88,1.22 0,0.79 0.17,1.25 0.8,2.82 0.42,1.08 1.86,4.77 1.86,6.72 0,3.39 -2.69,3.97 -4.53,3.97 -2.89,0 -4.85,-1.76 -5.89,-3.16 -0.25,2.4 -2.3,3.16 -3.74,3.16 -1.5,0 -2.3,-1.08 -2.75,-1.87 -0.76,-1.29 -1.25,-3.29 -1.25,-3.46 0,-0.45 0.49,-0.45 0.59,-0.45 0.49,0 0.52,0.11 0.77,1.05 0.52,2.06 1.19,3.76 2.55,3.76 0.9,0 1.14,-0.76 1.14,-1.7 0,-0.67 -0.31,-1.95 -0.56,-2.89 -0.24,-0.95 -0.58,-2.38 -0.77,-3.14 z"
           id="path6023" /><path
           style="fill:#000000;stroke-width:0"
           inkscape:connector-curvature="0"
           d="m 536.93,394.25 v 0.02 l -0.01,0.03 v 0.01 0.02 0.01 l -0.01,0.02 v 0.01 l -0.01,0.02 -0.01,0.02 -0.01,0.02 -0.01,0.02 -0.01,0.03 -0.02,0.02 -0.02,0.03 -0.02,0.03 -0.02,0.03 -0.03,0.03 -0.03,0.04 -0.02,0.02 -0.01,0.02 -0.02,0.02 -0.02,0.02 -0.02,0.02 -0.02,0.03 -0.02,0.02 -0.02,0.02 -0.02,0.03 -0.03,0.02 -0.02,0.03 -0.03,0.03 -0.02,0.03 -0.03,0.03 -0.03,0.03 -0.03,0.03 -0.03,0.03 -0.03,0.03 -0.04,0.04 -0.03,0.03 -0.03,0.04 -0.04,0.03 -0.04,0.04 -0.04,0.04 c -6.22,6.28 -7.81,15.69 -7.81,23.31 0,8.67 1.89,17.35 8.01,23.56 0.65,0.61 0.65,0.71 0.65,0.86 0,0.35 -0.19,0.49 -0.49,0.49 -0.5,0 -4.98,-3.38 -7.92,-9.7 -2.55,-5.49 -3.14,-11.02 -3.14,-15.21 0,-3.89 0.55,-9.9 3.28,-15.54 2.99,-6.13 7.28,-9.36 7.78,-9.36 0.3,0 0.49,0.14 0.49,0.5 z"
           id="path6025" /><path
           style="fill:#000000;stroke-width:0"
           inkscape:connector-curvature="0"
           d="m 565.31,436.56 -0.07,-0.06 -0.07,-0.07 -0.08,-0.07 -0.08,-0.07 -0.08,-0.08 -0.09,-0.08 -0.09,-0.08 -0.1,-0.09 -0.09,-0.09 -0.1,-0.09 -0.19,-0.19 -0.2,-0.2 -0.19,-0.2 -0.09,-0.1 -0.09,-0.11 -0.09,-0.1 -0.08,-0.1 -0.08,-0.11 -0.08,-0.1 -0.07,-0.1 -0.07,-0.1 -0.05,-0.1 -0.06,-0.1 -0.04,-0.09 -0.04,-0.1 -0.03,-0.09 -0.03,-0.09 -0.01,-0.09 v -0.08 c 0,-0.5 0.5,-1 1,-1 0.45,0 0.7,0.35 0.95,0.65 0.59,0.75 1.73,2.14 3.93,3.24 0.35,0.2 0.85,0.45 0.85,1.04 0,0.5 -0.35,0.75 -0.7,1 -1.1,0.75 -1.65,1.64 -2.05,2.83 -0.1,0.45 -0.3,1.11 -0.98,1.11 -0.71,0 -1,-0.66 -1,-1.05 0,-0.25 0.38,-1.84 1.18,-2.89 h -16.78 c -0.84,0 -1.75,0 -1.75,-1 0,-1 0.91,-1 1.75,-1 z"
           id="path6027" /><path
           style="fill:#000000;stroke-width:0"
           inkscape:connector-curvature="0"
           d="m 566.72,424.23 -0.01,0.21 v 0.2 l -0.02,0.2 -0.01,0.19 -0.02,0.18 -0.03,0.18 -0.03,0.17 -0.03,0.17 -0.03,0.16 -0.04,0.15 -0.05,0.15 -0.04,0.14 -0.05,0.14 -0.06,0.13 -0.05,0.13 -0.06,0.12 -0.06,0.12 -0.06,0.11 -0.07,0.11 -0.06,0.1 -0.07,0.1 -0.07,0.09 -0.07,0.09 -0.08,0.09 -0.07,0.08 -0.08,0.07 -0.15,0.15 -0.16,0.12 -0.15,0.12 -0.16,0.1 -0.16,0.08 -0.15,0.08 -0.15,0.06 -0.15,0.06 -0.14,0.04 -0.13,0.04 -0.13,0.03 -0.11,0.02 -0.11,0.02 -0.09,0.01 -0.08,0.01 -0.06,0.01 h -0.05 -0.02 -0.01 -0.01 -0.01 c -1.98,0 -3.78,-2.08 -3.78,-3.78 0,-1.39 1.05,-1.98 1.5,-2.23 2.08,-1.25 2.49,-2.16 2.49,-3.14 0,-1.1 -2.89,-12.02 -8.72,-12.02 -3.59,0 -3.59,3 -3.59,3.89 0,2.89 1.4,6.53 3,10.52 0.38,1 0.54,1.43 0.54,2.23 0,2.89 -2.89,4.48 -5.64,4.48 -5.28,0 -7.77,-6.76 -7.77,-7.76 0,-0.7 0.75,-0.7 1.21,-0.7 0.59,0 0.94,0 1.14,0.65 1.59,5.38 4.23,6.02 5.12,6.02 0.36,0 0.86,0 0.86,-1.05 0,-1.14 -0.61,-2.58 -0.75,-2.98 -2.29,-5.78 -3.04,-8.02 -3.04,-10.41 0,-5.28 4.28,-6.69 8.62,-6.69 8.56,0 12.21,14.16 12.21,18.44 z"
           id="path6029" /><path
           style="fill:#000000;stroke-width:0"
           inkscape:connector-curvature="0"
           d="m 587.59,405.11 h -1.18 c -0.1,-0.77 -0.46,-2.83 -0.91,-3.18 -0.27,-0.2 -2.95,-0.2 -3.44,-0.2 h -6.42 c 3.66,3.23 4.88,4.2 6.97,5.84 2.58,2.07 4.98,4.22 4.98,7.54 0,4.21 -3.68,6.79 -8.15,6.79 -4.31,0 -7.25,-3.03 -7.25,-6.23 0,-1.78 1.5,-1.96 1.86,-1.96 0.83,0 1.84,0.6 1.84,1.85 0,0.62 -0.25,1.84 -2.06,1.84 1.08,2.47 3.45,3.24 5.09,3.24 3.49,0 5.3,-2.71 5.3,-5.53 0,-3.04 -2.16,-5.44 -3.28,-6.69 l -8.39,-8.3 c -0.36,-0.31 -0.36,-0.39 -0.36,-1.36 h 14.36 z"
           id="path6031" /><path
           style="fill:#000000;stroke-width:0"
           inkscape:connector-curvature="0"
           d="m 606.71,418.65 v 0.37 l -0.01,0.39 v 0.39 l -0.02,0.41 -0.04,0.84 -0.06,0.88 -0.08,0.92 -0.11,0.95 -0.13,0.97 -0.16,1.01 -0.2,1.02 -0.23,1.03 -0.27,1.05 -0.3,1.06 -0.35,1.07 -0.39,1.07 -0.22,0.53 -0.22,0.53 -0.24,0.53 -0.25,0.53 c -2.98,6.12 -7.27,9.36 -7.77,9.36 -0.29,0 -0.5,-0.19 -0.5,-0.49 0,-0.15 0,-0.25 0.94,-1.15 4.89,-4.92 7.74,-12.85 7.74,-23.27 0,-8.51 -1.85,-17.28 -8.04,-23.56 -0.64,-0.59 -0.64,-0.7 -0.64,-0.84 0,-0.3 0.21,-0.5 0.5,-0.5 0.5,0 4.97,3.39 7.93,9.71 2.53,5.47 3.12,11 3.12,15.19 z"
           id="path6033" /></g>
    </g>
    <g
       id="g7093"
       transform="matrix(0.8,0,0,0.8,72.392469,124.42466)">
      <g
         word-spacing="normal"
         letter-spacing="normal"
         font-size-adjust="none"
         font-stretch="normal"
         font-weight="normal"
         font-variant="normal"
         font-style="normal"
         stroke-miterlimit="10.433"
         xml:space="preserve"
         transform="matrix(0.42857143,0,0,-0.42857143,-75,240)"
         id="g7091"
         style="font-style:normal;font-variant:normal;font-weight:normal;font-stretch:normal;letter-spacing:normal;word-spacing:normal;text-anchor:start;fill:none;fill-opacity:1;fill-rule:evenodd;stroke:#000000;stroke-linecap:butt;stroke-linejoin:miter;stroke-miterlimit:10.433;stroke-dasharray:none;stroke-dashoffset:0;stroke-opacity:1"><path
           id="path7089"
           d="m 478.19,431.11 v 0.31 l -0.01,0.34 -0.02,0.36 -0.02,0.37 -0.03,0.39 -0.04,0.39 -0.04,0.41 -0.06,0.41 -0.07,0.42 -0.07,0.43 -0.09,0.42 -0.1,0.43 -0.12,0.42 -0.12,0.42 -0.14,0.41 -0.16,0.41 -0.17,0.4 -0.18,0.38 -0.2,0.37 -0.22,0.36 -0.23,0.34 -0.25,0.32 -0.28,0.3 -0.29,0.27 -0.31,0.25 -0.16,0.12 -0.17,0.1 -0.17,0.1 -0.18,0.1 -0.18,0.08 -0.19,0.08 -0.19,0.07 -0.2,0.06 -0.21,0.05 -0.21,0.05 -0.22,0.03 -0.22,0.02 -0.23,0.02 h -0.23 l -0.05,-1.09 c 2.44,0 2.73,-3.19 2.73,-6.03 0,-2.44 -0.39,-4.99 -1.59,-9.92 h -10.41 c 0.85,3.2 1.85,7.18 3.83,10.72 1.36,2.43 3.19,5.23 5.44,5.23 l 0.05,1.09 c -6.92,0 -14.6,-14.04 -14.6,-25.45 0,-4.69 1.44,-10.22 5.99,-10.22 v 1.1 c -1.66,0 -2.71,1.45 -2.71,6.07 0,2.1 0.3,4.99 1.6,9.86 h 10.37 c -0.54,-2.28 -1.59,-6.51 -3.5,-10.11 -1.73,-3.39 -3.62,-5.82 -5.76,-5.82 v -1.1 c 7.01,0 14.59,14.3 14.59,25.46 z"
           inkscape:connector-curvature="0"
           style="fill:#000000;stroke-width:0" /></g>
    </g>
    <g
       transform="matrix(0.8,0,0,0.8,15.33602,170.96057)"
       id="g7255">
      <g
         style="font-style:normal;font-variant:normal;font-weight:normal;font-stretch:normal;letter-spacing:normal;word-spacing:normal;text-anchor:start;fill:none;fill-opacity:1;fill-rule:evenodd;stroke:#000000;stroke-linecap:butt;stroke-linejoin:miter;stroke-miterlimit:10.433;stroke-dasharray:none;stroke-dashoffset:0;stroke-opacity:1"
         id="g7253"
         transform="matrix(0.42857143,0,0,-0.42857143,-75,240)"
         xml:space="preserve"
         stroke-miterlimit="10.433"
         font-style="normal"
         font-variant="normal"
         font-weight="normal"
         font-stretch="normal"
         font-size-adjust="none"
         letter-spacing="normal"
         word-spacing="normal"><path
           style="fill:#000000;stroke-width:0"
           inkscape:connector-curvature="0"
           d="m 481.07,436.56 -0.07,-0.06 -0.07,-0.07 -0.08,-0.07 -0.08,-0.07 -0.08,-0.08 -0.09,-0.08 -0.09,-0.08 -0.1,-0.09 -0.09,-0.09 -0.1,-0.09 -0.19,-0.19 -0.2,-0.2 -0.19,-0.2 -0.09,-0.1 -0.09,-0.11 -0.09,-0.1 -0.08,-0.1 -0.08,-0.11 -0.08,-0.1 -0.07,-0.1 -0.06,-0.1 -0.06,-0.1 -0.06,-0.1 -0.04,-0.09 -0.04,-0.1 -0.03,-0.09 -0.02,-0.09 -0.02,-0.09 v -0.08 c 0,-0.5 0.5,-1 1,-1 0.45,0 0.7,0.35 0.95,0.65 0.59,0.75 1.73,2.14 3.94,3.24 0.34,0.2 0.84,0.45 0.84,1.04 0,0.5 -0.34,0.75 -0.7,1 -1.1,0.75 -1.64,1.64 -2.05,2.83 -0.09,0.45 -0.3,1.11 -0.98,1.11 -0.71,0 -1,-0.66 -1,-1.05 0,-0.25 0.39,-1.84 1.18,-2.89 h -16.78 c -0.84,0 -1.75,0 -1.75,-1 0,-1 0.91,-1 1.75,-1 z"
           id="path7235" /><path
           style="fill:#000000;stroke-width:0"
           inkscape:connector-curvature="0"
           d="m 482.47,424.23 v 0.21 l -0.01,0.2 -0.01,0.2 -0.01,0.19 -0.03,0.18 -0.02,0.18 -0.03,0.17 -0.03,0.17 -0.04,0.16 -0.04,0.15 -0.04,0.15 -0.05,0.14 -0.05,0.14 -0.05,0.13 -0.05,0.13 -0.06,0.12 -0.06,0.12 -0.06,0.11 -0.07,0.11 -0.06,0.1 -0.07,0.1 -0.07,0.09 -0.07,0.09 -0.08,0.09 -0.07,0.08 -0.08,0.07 -0.15,0.15 -0.16,0.12 -0.15,0.12 -0.16,0.1 -0.16,0.08 -0.15,0.08 -0.15,0.06 -0.15,0.06 -0.14,0.04 -0.13,0.04 -0.13,0.03 -0.11,0.02 -0.11,0.02 -0.09,0.01 -0.08,0.01 -0.06,0.01 h -0.05 -0.02 -0.01 -0.01 -0.01 c -1.98,0 -3.78,-2.08 -3.78,-3.78 0,-1.39 1.05,-1.98 1.5,-2.23 2.08,-1.25 2.49,-2.16 2.49,-3.14 0,-1.1 -2.9,-12.02 -8.72,-12.02 -3.6,0 -3.6,3 -3.6,3.89 0,2.89 1.41,6.53 3,10.52 0.39,1 0.55,1.43 0.55,2.23 0,2.89 -2.89,4.48 -5.64,4.48 -5.28,0 -7.77,-6.76 -7.77,-7.76 0,-0.7 0.75,-0.7 1.21,-0.7 0.59,0 0.93,0 1.14,0.65 1.59,5.38 4.23,6.02 5.12,6.02 0.36,0 0.86,0 0.86,-1.05 0,-1.14 -0.61,-2.58 -0.75,-2.98 -2.3,-5.78 -3.05,-8.02 -3.05,-10.41 0,-5.28 4.29,-6.69 8.63,-6.69 8.56,0 12.2,14.16 12.2,18.44 z"
           id="path7237" /><path
           style="fill:#000000;stroke-width:0"
           inkscape:connector-curvature="0"
           d="m 503.23,405.11 h -1.18 c -0.1,-0.77 -0.46,-2.83 -0.91,-3.18 -0.26,-0.2 -2.95,-0.2 -3.44,-0.2 h -6.42 c 3.66,3.23 4.88,4.2 6.97,5.84 2.58,2.07 4.98,4.22 4.98,7.54 0,4.21 -3.68,6.79 -8.15,6.79 -4.31,0 -7.25,-3.03 -7.25,-6.23 0,-1.78 1.5,-1.96 1.86,-1.96 0.83,0 1.84,0.6 1.84,1.85 0,0.62 -0.25,1.84 -2.06,1.84 1.08,2.47 3.45,3.24 5.09,3.24 3.49,0 5.3,-2.71 5.3,-5.53 0,-3.04 -2.16,-5.44 -3.28,-6.69 l -8.39,-8.3 c -0.36,-0.31 -0.36,-0.39 -0.36,-1.36 h 14.36 z"
           id="path7239" /><path
           style="fill:#000000;stroke-width:0"
           inkscape:connector-curvature="0"
           d="m 522.07,417.06 v 0.38 l 0.01,0.36 0.01,0.36 0.02,0.35 0.03,0.34 0.03,0.34 0.04,0.32 0.04,0.32 0.04,0.31 0.05,0.3 0.06,0.29 0.06,0.29 0.14,0.55 0.15,0.51 0.16,0.49 0.19,0.46 0.19,0.43 0.21,0.4 0.22,0.38 0.23,0.35 0.24,0.32 0.25,0.3 0.26,0.28 0.26,0.26 0.27,0.23 0.28,0.21 0.28,0.19 0.28,0.16 0.28,0.15 0.28,0.13 0.29,0.12 0.28,0.09 0.28,0.08 0.27,0.06 0.27,0.05 0.27,0.03 0.26,0.02 0.25,0.01 c 0.44,0 3.58,-0.05 5.33,-1.85 -2.05,-0.15 -2.35,-1.64 -2.35,-2.29 0,-1.3 0.9,-2.3 2.3,-2.3 1.28,0 2.28,0.86 2.28,2.34 0,3.39 -3.78,5.33 -7.62,5.33 -6.22,0 -10.81,-5.37 -10.81,-11.55 0,-6.37 4.93,-11.31 10.72,-11.31 6.67,0 8.26,5.99 8.26,6.47 0,0.5 -0.5,0.5 -0.64,0.5 -0.45,0 -0.55,-0.19 -0.66,-0.5 -1.43,-4.62 -4.67,-5.22 -6.51,-5.22 -2.64,0 -7.03,2.14 -7.03,10.16 z"
           id="path7241" /><path
           style="fill:#000000;stroke-width:0"
           inkscape:connector-curvature="0"
           d="m 561.78,416.86 -0.01,0.59 -0.04,0.59 -0.07,0.58 -0.1,0.57 -0.13,0.56 -0.14,0.55 -0.18,0.54 -0.2,0.53 -0.22,0.51 -0.25,0.5 -0.26,0.49 -0.29,0.47 -0.31,0.46 -0.33,0.44 -0.34,0.43 -0.37,0.4 -0.38,0.39 -0.41,0.37 -0.41,0.35 -0.43,0.32 -0.45,0.31 -0.46,0.28 -0.48,0.26 -0.48,0.24 -0.5,0.21 -0.51,0.18 -0.52,0.16 -0.54,0.13 -0.53,0.11 -0.55,0.07 -0.56,0.05 -0.56,0.01 -0.05,-1.09 c 2.19,0 4.33,-1.1 5.63,-3.24 1.3,-2.14 1.3,-5.03 1.3,-6.92 0,-1.8 0,-4.48 -1.1,-6.67 -1.09,-2.25 -3.28,-3.69 -5.78,-3.69 v 0 c -2.14,0 -4.33,1.05 -5.67,3.33 -1.25,2.2 -1.25,5.23 -1.25,7.03 0,1.94 0,4.63 1.18,6.83 1.37,2.28 3.69,3.33 5.69,3.33 l 0.05,1.09 c -6.22,0 -11.06,-5.42 -11.06,-11.65 0,-6.43 5.19,-11.21 11.01,-11.21 6.03,0 11.06,4.88 11.06,11.21 z"
           id="path7243" /><path
           style="fill:#000000;stroke-width:0"
           inkscape:connector-curvature="0"
           d="m 573.63,415.87 0.11,-0.02 0.13,-0.02 0.14,-0.03 0.16,-0.04 0.17,-0.04 0.18,-0.04 0.19,-0.05 0.19,-0.06 0.21,-0.06 0.21,-0.07 0.22,-0.08 0.21,-0.08 0.23,-0.1 0.22,-0.1 0.22,-0.11 0.22,-0.12 0.21,-0.14 0.21,-0.14 0.21,-0.15 0.2,-0.16 0.19,-0.18 0.18,-0.19 0.17,-0.2 0.15,-0.21 0.15,-0.22 0.06,-0.12 0.07,-0.12 0.05,-0.13 0.06,-0.12 0.05,-0.14 0.04,-0.13 0.04,-0.14 0.04,-0.14 0.03,-0.15 0.02,-0.15 0.02,-0.16 0.02,-0.15 0.01,-0.17 v -0.16 c 0,-2.53 -1.75,-4.53 -5.62,-4.53 -4.19,0 -5.99,2.84 -6.94,7.07 -0.14,0.64 -0.19,0.85 -0.69,0.85 -0.66,0 -0.66,-0.35 -0.66,-1.25 v -6.58 c 0,-0.84 0,-1.19 0.55,-1.19 0.25,0 0.3,0.05 1.25,1 0.09,0.1 0.09,0.19 1,1.14 2.19,-2.09 4.44,-2.14 5.49,-2.14 5.71,0 8.01,3.35 8.01,6.92 0,2.64 -1.5,4.14 -2.09,4.74 -1.64,1.59 -3.6,2 -5.69,2.39 -2.78,0.55 -6.13,1.2 -6.13,4.09 0,1.74 1.3,3.78 5.58,3.78 5.49,0 5.74,-4.48 5.83,-6.03 0.06,-0.45 0.5,-0.45 0.61,-0.45 0.64,0 0.64,0.25 0.64,1.2 v 5.03 c 0,0.85 0,1.19 -0.55,1.19 -0.25,0 -0.34,0 -1,-0.59 -0.14,-0.21 -0.64,-0.64 -0.84,-0.8 -1.89,1.39 -3.94,1.39 -4.69,1.39 -6.08,0 -7.97,-3.33 -7.97,-6.12 0,-1.74 0.8,-3.14 2.14,-4.24 1.6,-1.29 3,-1.59 6.58,-2.28 z"
           id="path7245" /><path
           style="fill:#000000;stroke-width:0"
           inkscape:connector-curvature="0"
           d="m 599.44,394.25 v 0.02 0.03 l -0.01,0.01 v 0.02 0.01 l -0.01,0.02 v 0.01 l -0.01,0.02 -0.01,0.02 -0.01,0.02 -0.01,0.02 -0.01,0.03 -0.02,0.02 -0.02,0.03 -0.02,0.03 -0.02,0.03 -0.03,0.03 -0.03,0.04 -0.01,0.02 -0.02,0.02 -0.02,0.02 -0.02,0.02 -0.02,0.02 -0.02,0.03 -0.02,0.02 -0.02,0.02 -0.02,0.03 -0.02,0.02 -0.03,0.03 -0.02,0.03 -0.03,0.03 -0.03,0.03 -0.03,0.03 -0.03,0.03 -0.03,0.03 -0.03,0.03 -0.03,0.04 -0.04,0.03 -0.03,0.04 -0.04,0.03 -0.04,0.04 -0.04,0.04 c -6.21,6.28 -7.81,15.69 -7.81,23.31 0,8.67 1.89,17.35 8.02,23.56 0.64,0.61 0.64,0.71 0.64,0.86 0,0.35 -0.19,0.49 -0.49,0.49 -0.5,0 -4.98,-3.38 -7.92,-9.7 -2.55,-5.49 -3.14,-11.02 -3.14,-15.21 0,-3.89 0.55,-9.9 3.28,-15.54 2.99,-6.13 7.28,-9.36 7.78,-9.36 0.3,0 0.49,0.14 0.49,0.5 z"
           id="path7247" /><path
           style="fill:#000000;stroke-width:0"
           inkscape:connector-curvature="0"
           d="m 624.94,431.11 v 0.31 l -0.01,0.34 -0.02,0.36 -0.02,0.37 -0.03,0.39 -0.04,0.39 -0.04,0.41 -0.06,0.41 -0.07,0.42 -0.07,0.43 -0.09,0.42 -0.1,0.43 -0.12,0.42 -0.12,0.42 -0.14,0.41 -0.16,0.41 -0.17,0.4 -0.18,0.38 -0.2,0.37 -0.22,0.36 -0.23,0.34 -0.25,0.32 -0.28,0.3 -0.29,0.27 -0.31,0.25 -0.16,0.12 -0.17,0.1 -0.17,0.1 -0.18,0.1 -0.18,0.08 -0.19,0.08 -0.19,0.07 -0.2,0.06 -0.21,0.05 -0.21,0.05 -0.22,0.03 -0.22,0.02 -0.23,0.02 h -0.23 l -0.05,-1.09 c 2.44,0 2.74,-3.19 2.74,-6.03 0,-2.44 -0.4,-4.99 -1.6,-9.92 h -10.4 c 0.84,3.2 1.84,7.18 3.82,10.72 1.36,2.43 3.19,5.23 5.44,5.23 l 0.05,1.09 c -6.93,0 -14.6,-14.04 -14.6,-25.45 0,-4.69 1.44,-10.22 5.99,-10.22 v 1.1 c -1.66,0 -2.7,1.45 -2.7,6.07 0,2.1 0.29,4.99 1.59,9.86 h 10.37 c -0.54,-2.28 -1.59,-6.51 -3.5,-10.11 -1.73,-3.39 -3.62,-5.82 -5.76,-5.82 v -1.1 c 7.01,0 14.59,14.3 14.59,25.46 z"
           id="path7249" /><path
           style="fill:#000000;stroke-width:0"
           inkscape:connector-curvature="0"
           d="m 641.5,418.65 v 0.37 l -0.01,0.39 -0.01,0.39 -0.01,0.41 -0.04,0.84 -0.06,0.88 -0.08,0.92 -0.11,0.95 -0.13,0.97 -0.17,1.01 -0.19,1.02 -0.23,1.03 -0.27,1.05 -0.3,1.06 -0.35,1.07 -0.4,1.07 -0.21,0.53 -0.22,0.53 -0.24,0.53 -0.25,0.53 c -2.99,6.12 -7.27,9.36 -7.77,9.36 -0.29,0 -0.5,-0.19 -0.5,-0.49 0,-0.15 0,-0.25 0.94,-1.15 4.89,-4.92 7.74,-12.85 7.74,-23.27 0,-8.51 -1.85,-17.28 -8.04,-23.56 -0.64,-0.59 -0.64,-0.7 -0.64,-0.84 0,-0.3 0.21,-0.5 0.5,-0.5 0.5,0 4.97,3.39 7.93,9.71 2.53,5.47 3.12,11 3.12,15.19 z"
           id="path7251" /></g>
    </g>
    <g
       id="g7449"
       transform="matrix(0.8,0,0,0.8,-0.2224104,58.297141)">
      <g
         word-spacing="normal"
         letter-spacing="normal"
         font-size-adjust="none"
         font-stretch="normal"
         font-weight="normal"
         font-variant="normal"
         font-style="normal"
         stroke-miterlimit="10.433"
         xml:space="preserve"
         transform="matrix(0.42857143,0,0,-0.42857143,-75,240)"
         id="g7447"
         style="font-style:normal;font-variant:normal;font-weight:normal;font-stretch:normal;letter-spacing:normal;word-spacing:normal;text-anchor:start;fill:none;fill-opacity:1;fill-rule:evenodd;stroke:#000000;stroke-linecap:butt;stroke-linejoin:miter;stroke-miterlimit:10.433;stroke-dasharray:none;stroke-dashoffset:0;stroke-opacity:1"><path
           id="path7419"
           d="m 472,394.25 v 0.02 0.03 0.01 0.02 0.01 l -0.01,0.02 v 0.01 l -0.01,0.02 -0.01,0.02 -0.01,0.02 -0.01,0.02 -0.02,0.03 -0.01,0.02 -0.02,0.03 -0.02,0.03 -0.03,0.03 -0.02,0.03 -0.03,0.04 -0.02,0.02 -0.01,0.02 -0.02,0.02 -0.02,0.02 -0.02,0.02 -0.02,0.03 -0.02,0.02 -0.02,0.02 -0.02,0.03 -0.03,0.02 -0.02,0.03 -0.03,0.03 -0.03,0.03 -0.02,0.03 -0.03,0.03 -0.03,0.03 -0.03,0.03 -0.03,0.03 -0.04,0.04 -0.03,0.03 -0.04,0.04 -0.03,0.03 -0.04,0.04 -0.04,0.04 c -6.22,6.28 -7.81,15.69 -7.81,23.31 0,8.67 1.89,17.35 8.01,23.56 0.64,0.61 0.64,0.71 0.64,0.86 0,0.35 -0.18,0.49 -0.48,0.49 -0.5,0 -4.98,-3.38 -7.92,-9.7 -2.55,-5.49 -3.14,-11.02 -3.14,-15.21 0,-3.89 0.54,-9.9 3.28,-15.54 2.98,-6.13 7.28,-9.36 7.78,-9.36 0.3,0 0.48,0.14 0.48,0.5 z"
           inkscape:connector-curvature="0"
           style="fill:#000000;stroke-width:0" /><path
           id="path7421"
           d="m 503.03,436.56 -0.07,-0.06 -0.07,-0.07 -0.08,-0.07 -0.08,-0.07 -0.08,-0.08 -0.09,-0.08 -0.09,-0.08 -0.09,-0.09 -0.1,-0.09 -0.1,-0.09 -0.19,-0.19 -0.2,-0.2 -0.19,-0.2 -0.09,-0.1 -0.09,-0.11 -0.09,-0.1 -0.08,-0.1 -0.08,-0.11 -0.08,-0.1 -0.07,-0.1 -0.06,-0.1 -0.06,-0.1 -0.05,-0.1 -0.05,-0.09 -0.04,-0.1 -0.03,-0.09 -0.02,-0.09 -0.02,-0.09 v -0.08 c 0,-0.5 0.5,-1 1,-1 0.45,0 0.7,0.35 0.95,0.65 0.59,0.75 1.74,2.14 3.94,3.24 0.34,0.2 0.84,0.45 0.84,1.04 0,0.5 -0.34,0.75 -0.7,1 -1.09,0.75 -1.64,1.64 -2.05,2.83 -0.09,0.45 -0.29,1.11 -0.98,1.11 -0.71,0 -1,-0.66 -1,-1.05 0,-0.25 0.39,-1.84 1.19,-2.89 h -16.79 c -0.84,0 -1.75,0 -1.75,-1 0,-1 0.91,-1 1.75,-1 z"
           inkscape:connector-curvature="0"
           style="fill:#000000;stroke-width:0" /><path
           id="path7423"
           d="m 488.79,424.93 -0.07,0.23 -0.08,0.23 -0.1,0.21 -0.1,0.21 -0.12,0.2 -0.12,0.2 -0.14,0.18 -0.14,0.18 -0.16,0.18 -0.16,0.16 -0.17,0.16 -0.18,0.15 -0.18,0.15 -0.19,0.13 -0.2,0.13 -0.21,0.13 -0.21,0.11 -0.21,0.11 -0.22,0.1 -0.23,0.09 -0.23,0.09 -0.23,0.08 -0.24,0.07 -0.24,0.06 -0.24,0.06 -0.25,0.05 -0.25,0.04 -0.25,0.03 -0.25,0.03 -0.25,0.02 -0.25,0.01 h -0.25 c -1.85,0 -3.25,-1.04 -4.35,-2.84 -1.25,-1.98 -1.89,-4.67 -1.89,-4.92 0,-0.7 0.75,-0.7 1.21,-0.7 0.54,0 0.73,0 0.98,0.25 0.11,0.09 0.11,0.2 0.41,1.45 1,3.87 2.09,4.97 3.39,4.97 0.73,0 1.14,-0.49 1.14,-1.85 0,-0.84 -0.2,-1.64 -0.7,-3.62 -0.35,-1.41 -0.85,-3.39 -1.1,-4.49 l -1.8,-6.98 c -0.14,-0.69 -0.39,-1.64 -0.39,-1.98 0,-1.05 0.8,-2.21 2.35,-2.21 2.59,0 3.19,2.3 3.53,3.8 0.5,1.84 0.91,3.44 1.39,5.58 0.2,0.64 1.45,5.78 1.55,5.92 0.04,0.31 1.45,2.55 3.09,3.89 1.39,1.09 3.03,1.94 5.13,1.94 1.29,0 2.5,-0.49 2.5,-2.94 0,-2.83 -2.19,-8.66 -3.15,-11.16 -0.54,-1.34 -0.7,-1.68 -0.7,-2.54 0,-2.88 2.89,-4.49 5.64,-4.49 5.28,0 7.77,6.78 7.77,7.78 0,0.71 -0.75,0.71 -1.19,0.71 -0.61,0 -0.95,0 -1.16,-0.66 -1.64,-5.53 -4.32,-6.03 -5.12,-6.03 -0.36,0 -0.84,0 -0.84,1.05 0,1.15 0.48,2.39 0.98,3.64 0.8,2.04 3.09,7.87 3.09,10.65 0,4.6 -3.84,5.78 -7.42,5.78 -1.05,0 -4.69,0 -8.22,-3.78 z"
           inkscape:connector-curvature="0"
           style="fill:#000000;stroke-width:0" /><path
           id="path7425"
           d="m 540.9,420.04 -9.96,9.92 c -0.61,0.6 -0.7,0.71 -1.11,0.71 -0.48,0 -0.98,-0.46 -0.98,-1 0,-0.36 0.09,-0.46 0.64,-1 l 9.97,-10.02 -9.97,-10.01 c -0.55,-0.55 -0.64,-0.64 -0.64,-1 0,-0.55 0.5,-0.99 0.98,-0.99 0.41,0 0.5,0.1 1.11,0.69 l 9.91,9.92 10.31,-10.31 c 0.11,-0.05 0.45,-0.3 0.75,-0.3 0.59,0 1,0.44 1,0.99 0,0.11 0,0.31 -0.16,0.56 -0.04,0.09 -7.97,7.92 -10.45,10.45 l 9.11,9.13 c 0.25,0.29 1,0.93 1.25,1.23 0.05,0.11 0.25,0.3 0.25,0.66 0,0.54 -0.41,1 -1,1 -0.39,0 -0.59,-0.21 -1.14,-0.75 z"
           inkscape:connector-curvature="0"
           style="fill:#000000;stroke-width:0" /><path
           id="path7427"
           d="m 596.87,436.56 -0.07,-0.06 -0.07,-0.07 -0.08,-0.07 -0.08,-0.07 -0.08,-0.08 -0.09,-0.08 -0.09,-0.08 -0.1,-0.09 -0.09,-0.09 -0.1,-0.09 -0.19,-0.19 -0.2,-0.2 -0.19,-0.2 -0.09,-0.1 -0.09,-0.11 -0.09,-0.1 -0.08,-0.1 -0.08,-0.11 -0.08,-0.1 -0.07,-0.1 -0.06,-0.1 -0.06,-0.1 -0.06,-0.1 -0.04,-0.09 -0.04,-0.1 -0.03,-0.09 -0.02,-0.09 -0.02,-0.09 v -0.08 c 0,-0.5 0.5,-1 1,-1 0.45,0 0.7,0.35 0.95,0.65 0.59,0.75 1.74,2.14 3.94,3.24 0.34,0.2 0.84,0.45 0.84,1.04 0,0.5 -0.34,0.75 -0.7,1 -1.09,0.75 -1.64,1.64 -2.05,2.83 -0.09,0.45 -0.29,1.11 -0.98,1.11 -0.71,0 -1,-0.66 -1,-1.05 0,-0.25 0.39,-1.84 1.19,-2.89 h -16.79 c -0.84,0 -1.75,0 -1.75,-1 0,-1 0.91,-1 1.75,-1 z"
           inkscape:connector-curvature="0"
           style="fill:#000000;stroke-width:0" /><path
           id="path7429"
           d="m 598.27,424.23 v 0.21 l -0.01,0.2 -0.01,0.2 -0.01,0.19 -0.03,0.18 -0.02,0.18 -0.03,0.17 -0.03,0.17 -0.04,0.16 -0.04,0.15 -0.04,0.15 -0.05,0.14 -0.05,0.14 -0.05,0.13 -0.05,0.13 -0.06,0.12 -0.06,0.12 -0.06,0.11 -0.07,0.11 -0.06,0.1 -0.07,0.1 -0.07,0.09 -0.07,0.09 -0.08,0.09 -0.07,0.08 -0.08,0.07 -0.15,0.15 -0.16,0.12 -0.15,0.12 -0.16,0.1 -0.16,0.08 -0.15,0.08 -0.15,0.06 -0.15,0.06 -0.14,0.04 -0.13,0.04 -0.13,0.03 -0.11,0.02 -0.11,0.02 -0.09,0.01 -0.08,0.01 -0.06,0.01 h -0.05 -0.02 -0.01 -0.01 -0.01 c -1.98,0 -3.78,-2.08 -3.78,-3.78 0,-1.39 1.05,-1.98 1.5,-2.23 2.08,-1.25 2.49,-2.16 2.49,-3.14 0,-1.1 -2.89,-12.02 -8.72,-12.02 -3.6,0 -3.6,3 -3.6,3.89 0,2.89 1.41,6.53 3,10.52 0.39,1 0.55,1.43 0.55,2.23 0,2.89 -2.89,4.48 -5.64,4.48 -5.28,0 -7.77,-6.76 -7.77,-7.76 0,-0.7 0.75,-0.7 1.21,-0.7 0.59,0 0.93,0 1.14,0.65 1.59,5.38 4.23,6.02 5.12,6.02 0.36,0 0.86,0 0.86,-1.05 0,-1.14 -0.61,-2.58 -0.75,-2.98 -2.29,-5.78 -3.04,-8.02 -3.04,-10.41 0,-5.28 4.28,-6.69 8.62,-6.69 8.56,0 12.2,14.16 12.2,18.44 z"
           inkscape:connector-curvature="0"
           style="fill:#000000;stroke-width:0" /><path
           id="path7431"
           d="m 615.83,418.65 v 0.37 l -0.01,0.39 -0.01,0.39 -0.01,0.41 -0.04,0.84 -0.06,0.88 -0.08,0.92 -0.11,0.95 -0.13,0.97 -0.17,1.01 -0.19,1.02 -0.23,1.03 -0.27,1.05 -0.31,1.06 -0.34,1.07 -0.4,1.07 -0.21,0.53 -0.23,0.53 -0.23,0.53 -0.25,0.53 c -2.99,6.12 -7.27,9.36 -7.77,9.36 -0.3,0 -0.5,-0.19 -0.5,-0.49 0,-0.15 0,-0.25 0.94,-1.15 4.89,-4.92 7.73,-12.85 7.73,-23.27 0,-8.51 -1.84,-17.28 -8.03,-23.56 -0.64,-0.59 -0.64,-0.7 -0.64,-0.84 0,-0.3 0.2,-0.5 0.5,-0.5 0.5,0 4.97,3.39 7.92,9.71 2.53,5.47 3.13,11 3.13,15.19 z"
           inkscape:connector-curvature="0"
           style="fill:#000000;stroke-width:0" /><path
           id="path7433"
           d="m 639.4,415.87 0.11,-0.02 0.12,-0.02 0.15,-0.03 0.15,-0.04 0.17,-0.04 0.18,-0.04 0.19,-0.05 0.2,-0.06 0.2,-0.06 0.21,-0.07 0.22,-0.08 0.22,-0.08 0.22,-0.1 0.22,-0.1 0.22,-0.11 0.22,-0.12 0.21,-0.14 0.22,-0.14 0.2,-0.15 0.2,-0.16 0.19,-0.18 0.18,-0.19 0.17,-0.2 0.16,-0.21 0.14,-0.22 0.06,-0.12 0.07,-0.12 0.06,-0.13 0.05,-0.12 0.05,-0.14 0.04,-0.13 0.04,-0.14 0.04,-0.14 0.03,-0.15 0.03,-0.15 0.02,-0.16 0.01,-0.15 0.01,-0.17 v -0.16 c 0,-2.53 -1.75,-4.53 -5.62,-4.53 -4.19,0 -5.99,2.84 -6.94,7.07 -0.14,0.64 -0.19,0.85 -0.69,0.85 -0.65,0 -0.65,-0.35 -0.65,-1.25 v -6.58 c 0,-0.84 0,-1.19 0.54,-1.19 0.25,0 0.3,0.05 1.25,1 0.1,0.1 0.1,0.19 1,1.14 2.19,-2.09 4.44,-2.14 5.49,-2.14 5.72,0 8.01,3.35 8.01,6.92 0,2.64 -1.5,4.14 -2.09,4.74 -1.64,1.59 -3.6,2 -5.69,2.39 -2.78,0.55 -6.12,1.2 -6.12,4.09 0,1.74 1.29,3.78 5.58,3.78 5.48,0 5.73,-4.48 5.82,-6.03 0.06,-0.45 0.5,-0.45 0.61,-0.45 0.64,0 0.64,0.25 0.64,1.2 v 5.03 c 0,0.85 0,1.19 -0.54,1.19 -0.25,0 -0.35,0 -1,-0.59 -0.15,-0.21 -0.65,-0.64 -0.85,-0.8 -1.89,1.39 -3.93,1.39 -4.68,1.39 -6.08,0 -7.97,-3.33 -7.97,-6.12 0,-1.74 0.79,-3.14 2.14,-4.24 1.59,-1.29 3,-1.59 6.58,-2.28 z"
           inkscape:connector-curvature="0"
           style="fill:#000000;stroke-width:0" /><path
           id="path7435"
           d="m 657.53,428.21 -6.97,-0.54 v -1.55 c 3.23,0 3.69,-0.3 3.69,-2.73 v -13.41 c 0,-2.23 -0.55,-2.23 -3.9,-2.23 v -1.55 c 1.6,0.05 4.29,0.16 5.49,0.16 1.75,0 3.48,-0.11 5.19,-0.16 v 1.55 c -3.3,0 -3.5,0.25 -3.5,2.18 z"
           inkscape:connector-curvature="0"
           style="fill:#000000;stroke-width:0" /><path
           id="path7437"
           d="m 657.73,436.89 v 0.14 l -0.01,0.15 -0.02,0.14 -0.03,0.14 -0.03,0.13 -0.03,0.13 -0.05,0.13 -0.05,0.12 -0.05,0.12 -0.06,0.12 -0.07,0.11 -0.07,0.1 -0.07,0.1 -0.08,0.1 -0.09,0.1 -0.09,0.08 -0.09,0.09 -0.1,0.08 -0.1,0.07 -0.1,0.07 -0.11,0.07 -0.11,0.06 -0.12,0.05 -0.11,0.05 -0.12,0.04 -0.12,0.04 -0.12,0.03 -0.13,0.03 -0.12,0.02 -0.13,0.01 -0.13,0.01 -0.13,0.01 c -1.55,0 -2.64,-1.35 -2.64,-2.64 0,-1.35 1.09,-2.64 2.64,-2.64 1.39,0 2.64,1.04 2.64,2.64 z"
           inkscape:connector-curvature="0"
           style="fill:#000000;stroke-width:0" /><path
           id="path7439"
           d="m 668,423.34 v -13.36 c 0,-2.23 -0.55,-2.23 -3.9,-2.23 v -1.55 c 1.75,0.05 4.29,0.16 5.63,0.16 1.3,0 3.89,-0.11 5.58,-0.16 v 1.55 c -3.33,0 -3.88,0 -3.88,2.23 v 9.17 c 0,5.19 3.54,7.97 6.72,7.97 3.14,0 3.69,-2.69 3.69,-5.53 v -11.61 c 0,-2.23 -0.55,-2.23 -3.89,-2.23 v -1.55 c 1.75,0.05 4.3,0.16 5.64,0.16 1.3,0 3.88,-0.11 5.58,-0.16 v 1.55 c -2.6,0 -3.85,0 -3.89,1.5 v 9.51 c 0,4.28 0,5.83 -1.55,7.61 -0.69,0.86 -2.34,1.84 -5.22,1.84 -3.64,0 -5.98,-2.14 -7.37,-5.21 v 5.21 l -7.04,-0.54 v -1.55 c 3.49,0 3.9,-0.34 3.9,-2.78 z"
           inkscape:connector-curvature="0"
           style="fill:#000000;stroke-width:0" /><path
           id="path7441"
           d="m 706.72,394.25 -0.01,0.02 v 0.03 0.01 0.02 0.01 l -0.01,0.02 v 0.01 l -0.01,0.02 -0.01,0.02 -0.01,0.02 -0.01,0.02 -0.02,0.03 -0.01,0.02 -0.02,0.03 -0.02,0.03 -0.03,0.03 -0.02,0.03 -0.03,0.04 -0.02,0.02 -0.01,0.02 -0.02,0.02 -0.02,0.02 -0.02,0.02 -0.02,0.03 -0.02,0.02 -0.02,0.02 -0.02,0.03 -0.03,0.02 -0.02,0.03 -0.03,0.03 -0.02,0.03 -0.03,0.03 -0.03,0.03 -0.03,0.03 -0.03,0.03 -0.03,0.03 -0.04,0.04 -0.03,0.03 -0.04,0.04 -0.03,0.03 -0.04,0.04 -0.04,0.04 c -6.22,6.28 -7.81,15.69 -7.81,23.31 0,8.67 1.89,17.35 8.01,23.56 0.65,0.61 0.65,0.71 0.65,0.86 0,0.35 -0.19,0.49 -0.49,0.49 -0.5,0 -4.98,-3.38 -7.92,-9.7 -2.55,-5.49 -3.14,-11.02 -3.14,-15.21 0,-3.89 0.55,-9.9 3.28,-15.54 2.98,-6.13 7.28,-9.36 7.78,-9.36 0.3,0 0.49,0.14 0.49,0.5 z"
           inkscape:connector-curvature="0"
           style="fill:#000000;stroke-width:0" /><path
           id="path7443"
           d="m 732.22,431.11 v 0.31 l -0.01,0.34 -0.02,0.36 -0.02,0.37 -0.03,0.39 -0.04,0.39 -0.05,0.41 -0.05,0.41 -0.07,0.42 -0.08,0.43 -0.08,0.42 -0.11,0.43 -0.11,0.42 -0.12,0.42 -0.14,0.41 -0.16,0.41 -0.17,0.4 -0.18,0.38 -0.2,0.37 -0.22,0.36 -0.23,0.34 -0.26,0.32 -0.27,0.3 -0.29,0.27 -0.31,0.25 -0.16,0.12 -0.17,0.1 -0.17,0.1 -0.18,0.1 -0.18,0.08 -0.19,0.08 -0.19,0.07 -0.2,0.06 -0.21,0.05 -0.21,0.05 -0.22,0.03 -0.22,0.02 -0.23,0.02 h -0.24 l -0.04,-1.09 c 2.44,0 2.73,-3.19 2.73,-6.03 0,-2.44 -0.39,-4.99 -1.59,-9.92 h -10.41 c 0.85,3.2 1.85,7.18 3.83,10.72 1.36,2.43 3.19,5.23 5.44,5.23 l 0.04,1.09 c -6.92,0 -14.59,-14.04 -14.59,-25.45 0,-4.69 1.44,-10.22 5.99,-10.22 v 1.1 c -1.66,0 -2.71,1.45 -2.71,6.07 0,2.1 0.3,4.99 1.6,9.86 h 10.37 c -0.55,-2.28 -1.59,-6.51 -3.5,-10.11 -1.73,-3.39 -3.62,-5.82 -5.76,-5.82 v -1.1 c 7.01,0 14.59,14.3 14.59,25.46 z"
           inkscape:connector-curvature="0"
           style="fill:#000000;stroke-width:0" /><path
           id="path7445"
           d="m 748.78,418.65 v 0.37 l -0.01,0.39 -0.01,0.39 -0.01,0.41 -0.04,0.84 -0.06,0.88 -0.08,0.92 -0.11,0.95 -0.13,0.97 -0.17,1.01 -0.19,1.02 -0.23,1.03 -0.27,1.05 -0.31,1.06 -0.35,1.07 -0.39,1.07 -0.21,0.53 -0.23,0.53 -0.23,0.53 -0.25,0.53 c -2.99,6.12 -7.27,9.36 -7.77,9.36 -0.3,0 -0.5,-0.19 -0.5,-0.49 0,-0.15 0,-0.25 0.94,-1.15 4.89,-4.92 7.73,-12.85 7.73,-23.27 0,-8.51 -1.84,-17.28 -8.03,-23.56 -0.64,-0.59 -0.64,-0.7 -0.64,-0.84 0,-0.3 0.2,-0.5 0.5,-0.5 0.5,0 4.97,3.39 7.92,9.71 2.53,5.47 3.13,11 3.13,15.19 z"
           inkscape:connector-curvature="0"
           style="fill:#000000;stroke-width:0" /></g>
    </g>
  </g>
</svg>
